<?xml version="1.0" encoding="UTF-8" standalone="no"?>
<svg viewBox="0 0 938 595"
     preserveAspectRatio="xMidYMid meet"
     version="1.1"
     baseProfile="full"
     xmlns="http://www.w3.org/2000/svg"
     xmlns:xlink="http://www.w3.org/1999/xlink"
     xmlns:ev="http://www.w3.org/2001/xml-events"
     xml:space="preserve">
<title>SOC</title>
<desc>Nlview schematic (SVG)</desc>
<clipPath id="clippingbbox">
<rect x="0" y="0" width="938" height="595" />
</clipPath>
<g stroke="#19b400"
   stroke-width="1"
   stroke-linecap="butt"
   stroke-linejoin="miter"
   stroke-miterlimit="4"
   stroke-dasharray="none"
   stroke-dashoffset="0"
   fill="none"
   font-family="Helvetica"
   font-style="normal"
   font-size="12"
   writing-mode="lr-tb"
   cursor="crosshair"
   clip-path="url(#clippingbbox)">
<path d="M0 0h938v596h-938z" stroke="none" fill="white" />
<path d="M18 29h902l3 1l3 1l1 3l1 3v520l-1 3l-1 3l-3 1l-3 1h-902l-3 -1l-3 -1l-1 -3l-1 -3v-520l1 -3l1 -3l3 -1z" stroke="none" fill="#fafafa" />
<g stroke="black">
<path d="M18 29h902" />
<path d="M920,29 A7.83511,7.83511 1.61334 0,1 928,37" />
<path d="M928 37v520" />
<path d="M928,557 A7.83511,7.83511 1.61334 0,1 920,565" />
<path d="M920 565h-902" />
<path d="M18,565 A7.83511,7.83511 1.61334 0,1 10,557" />
<path d="M10 557v-520" />
<path d="M10,37 A7.83511,7.83511 1.61334 0,1 18,29" />
<text x="469" y="27" fill="black" stroke-width="0" text-anchor="middle" dy="-1.6">core</text>
</g>
<g stroke="black" stroke-width="3">
<path d="M15 40h12" />
</g>
<g stroke="black">
<path d="M13 32h16v16h-16z" />
<text x="469" y="567" fill="black" stroke-width="0" text-anchor="middle" dy="9.6">core</text>
<path d="M28 69h882l3 1l3 1l1 3l1 3v450l-1 3l-1 3l-3 1l-3 1h-882l-3 -1l-3 -1l-1 -3l-1 -3v-450l1 -3l1 -3l3 -1z" stroke="none" fill="#fafafa" />
<path d="M28 69h882" />
<path d="M910,69 A7.83511,7.83511 1.61334 0,1 918,77" />
<path d="M918 77v450" />
<path d="M918,527 A7.83511,7.83511 1.61334 0,1 910,535" />
<path d="M910 535h-882" />
<path d="M28,535 A7.83511,7.83511 1.61334 0,1 20,527" />
<path d="M20 527v-450" />
<path d="M20,77 A7.83511,7.83511 1.61334 0,1 28,69" />
<text x="469" y="67" fill="black" stroke-width="0" text-anchor="middle" dy="-1.6">EX_stage</text>
</g>
<g stroke="black" stroke-width="3">
<path d="M25 80h12" />
</g>
<g stroke="black">
<path d="M23 72h16v16h-16z" />
<text x="469" y="537" fill="black" stroke-width="0" text-anchor="middle" dy="9.6">core_EX</text>
<path d="M38 109h862l3 1l3 1l1 3l1 3v380l-1 3l-1 3l-3 1l-3 1h-862l-3 -1l-3 -1l-1 -3l-1 -3v-380l1 -3l1 -3l3 -1z" stroke="none" fill="#fafafa" />
<path d="M38 109h862" />
<path d="M900,109 A7.83511,7.83511 1.61334 0,1 908,117" />
<path d="M908 117v380" />
<path d="M908,497 A7.83511,7.83511 1.61334 0,1 900,505" />
<path d="M900 505h-862" />
<path d="M38,505 A7.83511,7.83511 1.61334 0,1 30,497" />
<path d="M30 497v-380" />
<path d="M30,117 A7.83511,7.83511 1.61334 0,1 38,109" />
<text x="469" y="107" fill="black" stroke-width="0" text-anchor="middle" dy="-1.6">alu_</text>
</g>
<g stroke="black" stroke-width="3">
<path d="M35 120h12" />
</g>
<g stroke="black">
<path d="M33 112h16v16h-16z" />
<text x="469" y="507" fill="black" stroke-width="0" text-anchor="middle" dy="9.6">alu</text>
<path d="M48 149h842l3 1l3 1l1 3l1 3v310l-1 3l-1 3l-3 1l-3 1h-842l-3 -1l-3 -1l-1 -3l-1 -3v-310l1 -3l1 -3l3 -1z" stroke="none" fill="#fafafa" />
<path d="M48 149h842" />
<path d="M890,149 A7.83511,7.83511 1.61334 0,1 898,157" />
<path d="M898 157v310" />
<path d="M898,467 A7.83511,7.83511 1.61334 0,1 890,475" />
<path d="M890 475h-842" />
<path d="M48,475 A7.83511,7.83511 1.61334 0,1 40,467" />
<path d="M40 467v-310" />
<path d="M40,157 A7.83511,7.83511 1.61334 0,1 48,149" />
<text x="469" y="147" fill="black" stroke-width="0" text-anchor="middle" dy="-1.6">au_0</text>
</g>
<g stroke="black" stroke-width="3">
<path d="M45 160h12" />
</g>
<g stroke="black">
<path d="M43 152h16v16h-16z" />
<text x="469" y="477" fill="black" stroke-width="0" text-anchor="middle" dy="9.6">au</text>
<path d="M98 195h744l3 1l3 1l1 3l1 3v234l-1 3l-1 3l-3 1l-3 1h-744l-3 -1l-3 -1l-1 -3l-1 -3v-234l1 -3l1 -3l3 -1z" stroke="none" fill="#fafafa" />
<path d="M98 195h744" />
<path d="M842,195 A7.83511,7.83511 1.61334 0,1 850,203" />
<path d="M850 203v234" />
<path d="M850,437 A7.83511,7.83511 1.61334 0,1 842,445" />
<path d="M842 445h-744" />
<path d="M98,445 A7.83511,7.83511 1.61334 0,1 90,437" />
<path d="M90 437v-234" />
<path d="M90,203 A7.83511,7.83511 1.61334 0,1 98,195" />
</g>
<g stroke="black" stroke-width="3">
<path d="M95 206h12" />
</g>
<g stroke="black">
<path d="M93 198h16v16h-16z" />
<text x="470" y="193" fill="black" stroke-width="0" text-anchor="middle" dy="-1.6">adder_0</text>
<text x="470" y="447" fill="black" stroke-width="0" text-anchor="middle" dy="9.6">adder</text>
<path d="M80 225h10" />
<text x="88" y="223" fill="black" stroke-width="0" font-size="10" text-anchor="end" dy="-1.33333">a</text>
<path d="M80 305h10" />
<text x="88" y="303" fill="black" stroke-width="0" font-size="10" text-anchor="end" dy="-1.33333">b</text>
<path d="M80 325h10" />
<text x="88" y="323" fill="black" stroke-width="0" font-size="10" text-anchor="end" dy="-1.33333">cin</text>
<path d="M860 255h-10" />
<text x="852" y="253" fill="black" stroke-width="0" font-size="10" dy="-1.33333">cout</text>
<path d="M860 275h-10" />
<text x="852" y="273" fill="black" stroke-width="0" font-size="10" dy="-1.33333">out</text>
<path d="M80 385h10" />
<text x="88" y="383" fill="black" stroke-width="0" font-size="10" text-anchor="end" dy="-1.33333">sub</text>
<path d="M100 225h-10" />
<path d="M100 305h-10" />
<path d="M100 325h-10" />
<path d="M840 255h10" />
<path d="M840 275h10" />
<path d="M100 385h-10" />
<path d="M720 330l2 2l2 3l1 2l1 3l1 3v4l-1 3l-1 3l-1 2l-2 3l-2 2h15h3l3 -1l3 -1l2 -1l3 -1l3 -2l2 -2l2 -2l2 -2l2 -3l-2 -3l-2 -2l-2 -2l-2 -2l-3 -2l-3 -1l-2 -1l-3 -1l-3 -1h-3z" stroke="none" fill="#ffffcc" />
<path d="M720,330 A19.5714,19.5714 1.74651 0,1 720,360" />
<path d="M720 360h15" />
<path d="M735,360 A32.596,32.596 -0.927295 0,0 760,345" />
<path d="M760,345 A32.596,32.596 -0.927295 0,0 735,330" />
<path d="M735 330h-15" />
<text x="722" y="329" fill="black" stroke-width="0" dy="-1.6">cout0_i</text>
<text x="722" y="361" fill="black" stroke-width="0" dy="9.6">RTL_OR</text>
<path d="M710 335h14" />
<text x="719" y="334" fill="black" stroke-width="0" font-size="10" text-anchor="end" dy="-1.33333">I0</text>
<path d="M710 355h14" />
<text x="719" y="354" fill="black" stroke-width="0" font-size="10" text-anchor="end" dy="-1.33333">I1</text>
<path d="M770 345h-10" />
<text x="761" y="344" fill="black" stroke-width="0" font-size="10" dy="-1.33333">O</text>
<path d="M560 320l2 2l2 3l1 2l1 3l1 3v4l-1 3l-1 3l-1 2l-2 3l-2 2h15h3l3 -1l3 -1l2 -1l3 -1l3 -2l2 -2l2 -2l2 -2l2 -3l-2 -3l-2 -2l-2 -2l-2 -2l-3 -2l-3 -1l-2 -1l-3 -1l-3 -1h-3z" stroke="none" fill="#ffffcc" />
<path d="M560,320 A19.5714,19.5714 1.74651 0,1 560,350" />
<path d="M560 350h15" />
<path d="M575,350 A32.596,32.596 -0.927295 0,0 600,335" />
<path d="M600,335 A32.596,32.596 -0.927295 0,0 575,320" />
<path d="M575 320h-15" />
<text x="562" y="319" fill="black" stroke-width="0" dy="-1.6">cout1_i</text>
<text x="562" y="351" fill="black" stroke-width="0" dy="9.6">RTL_OR</text>
<path d="M550 325h14" />
<text x="559" y="324" fill="black" stroke-width="0" font-size="10" text-anchor="end" dy="-1.33333">I0</text>
<path d="M550 345h14" />
<text x="559" y="344" fill="black" stroke-width="0" font-size="10" text-anchor="end" dy="-1.33333">I1</text>
<path d="M610 335h-10" />
<text x="601" y="334" fill="black" stroke-width="0" font-size="10" dy="-1.33333">O</text>
<path d="M560 405v15h25h3l3 -1l2 -1l2 -2l3 -3l1 -2l1 -3v-3v-3l-1 -3l-1 -2l-2 -2l-3 -3l-2 -1l-3 -1h-3h-25z" stroke="none" fill="#ffffcc" />
<path d="M560 405v15h25" />
<path d="M585,420 A15,15 -3.14159 1,0 585,390" />
<path d="M585 390h-25v15" />
<text x="562" y="389" fill="black" stroke-width="0" dy="-1.6">cout1_i__0</text>
<text x="562" y="421" fill="black" stroke-width="0" dy="9.6">RTL_AND</text>
<path d="M550 395h10" />
<text x="559" y="394" fill="black" stroke-width="0" font-size="10" text-anchor="end" dy="-1.33333">I0</text>
<path d="M550 415h10" />
<text x="559" y="414" fill="black" stroke-width="0" font-size="10" text-anchor="end" dy="-1.33333">I1</text>
<path d="M610 405h-10" />
<text x="601" y="404" fill="black" stroke-width="0" font-size="10" dy="-1.33333">O</text>
<path d="M340 375v15h25h3l3 -1l2 -1l2 -2l3 -3l1 -2l1 -3v-3v-3l-1 -3l-1 -2l-2 -2l-3 -3l-2 -1l-3 -1h-3h-25z" stroke="none" fill="#ffffcc" />
<path d="M340 375v15h25" />
<path d="M365,390 A15,15 -3.14159 1,0 365,360" />
<path d="M365 360h-25v15" />
<text x="342" y="359" fill="black" stroke-width="0" dy="-1.6">cout2_i</text>
<text x="342" y="391" fill="black" stroke-width="0" dy="9.6">RTL_AND</text>
<path d="M330 365h10" />
<text x="339" y="364" fill="black" stroke-width="0" font-size="10" text-anchor="end" dy="-1.33333">I0</text>
<path d="M330 385h10" />
<text x="339" y="384" fill="black" stroke-width="0" font-size="10" text-anchor="end" dy="-1.33333">I1</text>
<path d="M390 375h-10" />
<text x="381" y="374" fill="black" stroke-width="0" font-size="10" dy="-1.33333">O</text>
<path d="M340 275v15h25h3l3 -1l2 -1l2 -2l3 -3l1 -2l1 -3v-3v-3l-1 -3l-1 -2l-2 -2l-3 -3l-2 -1l-3 -1h-3h-25z" stroke="none" fill="#ffffcc" />
<path d="M340 275v15h25" />
<path d="M365,290 A15,15 -3.14159 1,0 365,260" />
<path d="M365 260h-25v15" />
<text x="342" y="259" fill="black" stroke-width="0" dy="-1.6">cout2_i__0</text>
<text x="342" y="291" fill="black" stroke-width="0" dy="9.6">RTL_AND</text>
<path d="M330 265h10" />
<text x="339" y="264" fill="black" stroke-width="0" font-size="10" text-anchor="end" dy="-1.33333">I0</text>
<path d="M330 285h10" />
<text x="339" y="284" fill="black" stroke-width="0" font-size="10" text-anchor="end" dy="-1.33333">I1</text>
<path d="M390 275h-10" />
<text x="381" y="274" fill="black" stroke-width="0" font-size="10" dy="-1.33333">O</text>
<path d="M725 260l2 2l2 3l1 2l1 3l1 3v4l-1 3l-1 3l-1 2l-2 3l-2 2h10h3l3 -1l3 -1l2 -1l3 -1l3 -2l2 -2l2 -2l2 -2l2 -3l-2 -3l-2 -2l-2 -2l-2 -2l-3 -2l-3 -1l-2 -1l-3 -1l-3 -1h-3z" stroke="none" fill="#ffffcc" />
<path d="M720,260 A19.5714,19.5714 1.74651 0,1 720,290" />
<path d="M725,260 A19.5714,19.5714 1.74651 0,1 725,290" />
<path d="M725 290h10" />
<path d="M735,290 A32.596,32.596 -0.927295 0,0 760,275" />
<path d="M760,275 A32.596,32.596 -0.927295 0,0 735,260" />
<path d="M735 260h-10" />
<text x="722" y="259" fill="black" stroke-width="0" dy="-1.6">out0_i</text>
<text x="722" y="291" fill="black" stroke-width="0" dy="9.6">RTL_XOR</text>
<path d="M710 265h14" />
<text x="719" y="264" fill="black" stroke-width="0" font-size="10" text-anchor="end" dy="-1.33333">I0</text>
<path d="M710 285h14" />
<text x="719" y="284" fill="black" stroke-width="0" font-size="10" text-anchor="end" dy="-1.33333">I1</text>
<path d="M770 275h-10" />
<text x="761" y="274" fill="black" stroke-width="0" font-size="10" dy="-1.33333">O</text>
<path d="M565 220l2 2l2 3l1 2l1 3l1 3v4l-1 3l-1 3l-1 2l-2 3l-2 2h10h3l3 -1l3 -1l2 -1l3 -1l3 -2l2 -2l2 -2l2 -2l2 -3l-2 -3l-2 -2l-2 -2l-2 -2l-3 -2l-3 -1l-2 -1l-3 -1l-3 -1h-3z" stroke="none" fill="#ffffcc" />
<path d="M560,220 A19.5714,19.5714 1.74651 0,1 560,250" />
<path d="M565,220 A19.5714,19.5714 1.74651 0,1 565,250" />
<path d="M565 250h10" />
<path d="M575,250 A32.596,32.596 -0.927295 0,0 600,235" />
<path d="M600,235 A32.596,32.596 -0.927295 0,0 575,220" />
<path d="M575 220h-10" />
<text x="562" y="219" fill="black" stroke-width="0" dy="-1.6">out1_i</text>
<text x="562" y="251" fill="black" stroke-width="0" dy="9.6">RTL_XOR</text>
<path d="M550 225h14" />
<text x="559" y="224" fill="black" stroke-width="0" font-size="10" text-anchor="end" dy="-1.33333">I0</text>
<path d="M550 245h14" />
<text x="559" y="244" fill="black" stroke-width="0" font-size="10" text-anchor="end" dy="-1.33333">I1</text>
<path d="M610 235h-10" />
<text x="601" y="234" fill="black" stroke-width="0" font-size="10" dy="-1.33333">O</text>
<path d="M175 360l2 2l2 3l1 2l1 3l1 3v4l-1 3l-1 3l-1 2l-2 3l-2 2h10h3l3 -1l3 -1l2 -1l3 -1l3 -2l2 -2l2 -2l2 -2l2 -3l-2 -3l-2 -2l-2 -2l-2 -2l-3 -2l-3 -1l-2 -1l-3 -1l-3 -1h-3z" stroke="none" fill="#ffffcc" />
<path d="M170,360 A19.5714,19.5714 1.74651 0,1 170,390" />
<path d="M175,360 A19.5714,19.5714 1.74651 0,1 175,390" />
<path d="M175 390h10" />
<path d="M185,390 A32.596,32.596 -0.927295 0,0 210,375" />
<path d="M210,375 A32.596,32.596 -0.927295 0,0 185,360" />
<path d="M185 360h-10" />
<text x="172" y="359" fill="black" stroke-width="0" dy="-1.6">out2_i</text>
<text x="172" y="391" fill="black" stroke-width="0" dy="9.6">RTL_XOR</text>
<path d="M160 365h14" />
<text x="169" y="364" fill="black" stroke-width="0" font-size="10" text-anchor="end" dy="-1.33333">I0</text>
<path d="M160 385h14" />
<text x="169" y="384" fill="black" stroke-width="0" font-size="10" text-anchor="end" dy="-1.33333">I1</text>
<path d="M220 375h-10" />
<text x="211" y="374" fill="black" stroke-width="0" font-size="10" dy="-1.33333">O</text>
</g>
<g>
<path d="M100 225h190v140h40" />
<path d="M290 225h260" />
<path d="M290 265h40" />
<path d="M288 223h5v5h-5z" stroke="none" fill="#19b400" />
<path d="M288 263h5v5h-5z" stroke="none" fill="#19b400" />
<path d="M100 305h20v60h40" />
<path d="M220 375h50v50h180v-180h100" />
<path d="M450 395h100" />
<path d="M448 393h5v5h-5z" stroke="none" fill="#19b400" />
<path d="M270 385h60" />
<path d="M268 383h5v5h-5z" stroke="none" fill="#19b400" />
<path d="M100 325h170" />
<path d="M268 323h5v5h-5z" stroke="none" fill="#19b400" />
<path d="M550 415h-60v-130h220" />
<path d="M330 285h-60v40h220" />
<path d="M488 323h5v5h-5z" stroke="none" fill="#19b400" />
<path d="M770 345h50v-90h20" />
<path d="M610 335h100" />
<path d="M610 405h60v-50h40" />
<path d="M390 375h120v-50h40" />
<path d="M390 275h80v70h80" />
<path d="M770 275h70" />
<path d="M610 235h60v30h40" />
<path d="M100 385h60" />
</g>
</g>
</svg>
