<?xml version="1.0" encoding="UTF-8" standalone="no"?>
<svg viewBox="0 0 1298 575"
     preserveAspectRatio="xMidYMid meet"
     version="1.1"
     baseProfile="full"
     xmlns="http://www.w3.org/2000/svg"
     xmlns:xlink="http://www.w3.org/1999/xlink"
     xmlns:ev="http://www.w3.org/2001/xml-events"
     xml:space="preserve">
<title>SOC</title>
<desc>Nlview schematic (SVG)</desc>
<clipPath id="clippingbbox">
<rect x="0" y="0" width="1298" height="575" />
</clipPath>
<g stroke="#8bc34a"
   stroke-width="1"
   stroke-linecap="butt"
   stroke-linejoin="miter"
   stroke-miterlimit="4"
   stroke-dasharray="none"
   stroke-dashoffset="0"
   fill="none"
   font-family="Helvetica"
   font-style="normal"
   font-size="12"
   writing-mode="lr-tb"
   cursor="crosshair"
   clip-path="url(#clippingbbox)">
<path d="M0 0h1298v576h-1298z" stroke="none" fill="white" />
<path d="M18 29h1262l3 1l3 1l1 3l1 3v500l-1 3l-1 3l-3 1l-3 1h-1262l-3 -1l-3 -1l-1 -3l-1 -3v-500l1 -3l1 -3l3 -1z" stroke="none" fill="white" />
<g stroke="#575d6c">
<path d="M18 29h1262" />
<path d="M1280,29 A7.83511,7.83511 1.61334 0,1 1288,37" />
<path d="M1288 37v500" />
<path d="M1288,537 A7.83511,7.83511 1.61334 0,1 1280,545" />
<path d="M1280 545h-1262" />
<path d="M18,545 A7.83511,7.83511 1.61334 0,1 10,537" />
<path d="M10 537v-500" />
<path d="M10,37 A7.83511,7.83511 1.61334 0,1 18,29" />
<text x="649" y="27" fill="#1c1f28" stroke-width="0" text-anchor="middle" dy="-1.6">core</text>
</g>
<g stroke="#575d6c" stroke-width="3">
<path d="M15 40h12" />
</g>
<g stroke="#575d6c">
<path d="M13 32h16v16h-16z" />
<text x="649" y="547" fill="#1c1f28" stroke-width="0" text-anchor="middle" dy="9.6">core</text>
<path d="M28 69h1242l3 1l3 1l1 3l1 3v430l-1 3l-1 3l-3 1l-3 1h-1242l-3 -1l-3 -1l-1 -3l-1 -3v-430l1 -3l1 -3l3 -1z" stroke="none" fill="white" />
<path d="M28 69h1242" />
<path d="M1270,69 A7.83511,7.83511 1.61334 0,1 1278,77" />
<path d="M1278 77v430" />
<path d="M1278,507 A7.83511,7.83511 1.61334 0,1 1270,515" />
<path d="M1270 515h-1242" />
<path d="M28,515 A7.83511,7.83511 1.61334 0,1 20,507" />
<path d="M20 507v-430" />
<path d="M20,77 A7.83511,7.83511 1.61334 0,1 28,69" />
<text x="649" y="67" fill="#1c1f28" stroke-width="0" text-anchor="middle" dy="-1.6">EX_stage</text>
</g>
<g stroke="#575d6c" stroke-width="3">
<path d="M25 80h12" />
</g>
<g stroke="#575d6c">
<path d="M23 72h16v16h-16z" />
<text x="649" y="517" fill="#1c1f28" stroke-width="0" text-anchor="middle" dy="9.6">core_EX</text>
<path d="M38 109h1222l3 1l3 1l1 3l1 3v360l-1 3l-1 3l-3 1l-3 1h-1222l-3 -1l-3 -1l-1 -3l-1 -3v-360l1 -3l1 -3l3 -1z" stroke="none" fill="white" />
<path d="M38 109h1222" />
<path d="M1260,109 A7.83511,7.83511 1.61334 0,1 1268,117" />
<path d="M1268 117v360" />
<path d="M1268,477 A7.83511,7.83511 1.61334 0,1 1260,485" />
<path d="M1260 485h-1222" />
<path d="M38,485 A7.83511,7.83511 1.61334 0,1 30,477" />
<path d="M30 477v-360" />
<path d="M30,117 A7.83511,7.83511 1.61334 0,1 38,109" />
<text x="649" y="107" fill="#1c1f28" stroke-width="0" text-anchor="middle" dy="-1.6">alu_</text>
</g>
<g stroke="#575d6c" stroke-width="3">
<path d="M35 120h12" />
</g>
<g stroke="#575d6c">
<path d="M33 112h16v16h-16z" />
<text x="649" y="487" fill="#1c1f28" stroke-width="0" text-anchor="middle" dy="9.6">alu</text>
<path d="M108 155h1064l3 1l3 1l1 3l1 3v284l-1 3l-1 3l-3 1l-3 1h-1064l-3 -1l-3 -1l-1 -3l-1 -3v-284l1 -3l1 -3l3 -1z" stroke="none" fill="white" />
<path d="M108 155h1064" />
<path d="M1172,155 A7.83511,7.83511 1.61334 0,1 1180,163" />
<path d="M1180 163v284" />
<path d="M1180,447 A7.83511,7.83511 1.61334 0,1 1172,455" />
<path d="M1172 455h-1064" />
<path d="M108,455 A7.83511,7.83511 1.61334 0,1 100,447" />
<path d="M100 447v-284" />
<path d="M100,163 A7.83511,7.83511 1.61334 0,1 108,155" />
</g>
<g stroke="#575d6c" stroke-width="3">
<path d="M105 166h12" />
</g>
<g stroke="#575d6c">
<path d="M103 158h16v16h-16z" />
<text x="640" y="153" fill="#1c1f28" stroke-width="0" text-anchor="middle" dy="-1.6">au_0</text>
<text x="640" y="457" fill="#1c1f28" stroke-width="0" text-anchor="middle" dy="9.6">au</text>
</g>
<g stroke="#1c1f28">
<path d="M1190 205h-10" />
<text x="1182" y="203" fill="#1c1f28" stroke-width="0" font-size="10" dy="-1.33333">borrow_out</text>
<path d="M1190 235h-10" />
<text x="1182" y="233" fill="#1c1f28" stroke-width="0" font-size="10" dy="-1.33333">negative</text>
<path d="M1190 315h-10" />
<text x="1182" y="313" fill="#1c1f28" stroke-width="0" font-size="10" dy="-1.33333">overflow</text>
<path d="M90 275h10" />
<text x="98" y="273" fill="#1c1f28" stroke-width="0" font-size="10" text-anchor="end" dy="-1.33333">sub</text>
<path d="M1190 385h-10" />
<text x="1182" y="383" fill="#1c1f28" stroke-width="0" font-size="10" dy="-1.33333">zero</text>
</g>
<g stroke="#1c1f28" stroke-width="3">
<path d="M90 195h10" />
<text x="98" y="193" fill="#1c1f28" stroke-width="0" font-size="10" text-anchor="end" dy="-1.33333">a[63:0]</text>
<path d="M90 255h10" />
<text x="98" y="253" fill="#1c1f28" stroke-width="0" font-size="10" text-anchor="end" dy="-1.33333">b[63:0]</text>
<path d="M1190 255h-10" />
<text x="1182" y="253" fill="#1c1f28" stroke-width="0" font-size="10" dy="-1.33333">out[63:0]</text>
</g>
<g stroke="#1c1f28">
<path d="M1170 205h10" />
<path d="M1170 235h10" />
<path d="M1170 315h10" />
<path d="M110 275h-10" />
<path d="M1170 385h10" />
</g>
<g stroke="#1c1f28" stroke-width="3">
<path d="M110 195h-10" />
<path d="M110 255h-10" />
<path d="M1170 255h10" />
<circle cx="994" cy="205" r="4" stroke="none" fill="#e5c7ff" />
<path d="M960 205v-12l30 12l-30 12z" stroke="none" fill="#e5c7ff" />
</g>
<g stroke="#575d6c">
<circle cx="994" cy="205" r="4" />
<path d="M960 205v-12l30 12l-30 12z" />
<text x="962" y="191" fill="#1c1f28" stroke-width="0" dy="-1.6">borrow_out0_i</text>
<text x="962" y="219" fill="#1c1f28" stroke-width="0" dy="9.6">RTL_INV</text>
</g>
<g stroke="#1c1f28">
<path d="M950 205h10" />
<text x="958" y="204" fill="#1c1f28" stroke-width="0" font-size="10" text-anchor="end" dy="-1.33333">I0</text>
<path d="M1010 205h-12" />
<text x="1000" y="204" fill="#1c1f28" stroke-width="0" font-size="10" dy="-1.33333">O</text>
<circle cx="730" cy="205" r="20" stroke="none" fill="#e5c7ff" />
</g>
<g stroke="#575d6c">
<circle cx="730" cy="205" r="20" />
<path d="M710 195l2 1" />
<path d="M710 215l2 -1" />
<path d="M750 205" />
<text x="730" y="205" fill="#575d6c" stroke-width="0" text-anchor="middle" dy="4.4">+</text>
<text x="725" y="183" fill="#1c1f28" stroke-width="0" dy="-1.6">out0_i</text>
<text x="725" y="227" fill="#1c1f28" stroke-width="0" dy="9.6">RTL_ADD</text>
</g>
<g stroke="#1c1f28" stroke-width="3">
<path d="M700 195h10" />
<text x="708" y="194" fill="#1c1f28" stroke-width="0" font-size="10" text-anchor="end" dy="-1.33333">I0[64:0]</text>
<path d="M700 215h10" />
<text x="708" y="214" fill="#1c1f28" stroke-width="0" font-size="10" text-anchor="end" dy="-1.33333">I1[64:0]</text>
<path d="M760 205h-10" />
<text x="752" y="204" fill="#1c1f28" stroke-width="0" font-size="10" dy="-1.33333">O[64:0]</text>
<circle cx="470" cy="285" r="20" stroke="none" fill="#e5c7ff" />
</g>
<g stroke="#575d6c">
<circle cx="470" cy="285" r="20" />
<path d="M450 275l2 1" />
<path d="M450 295l2 -1" />
<path d="M490 285" />
<text x="470" y="285" fill="#575d6c" stroke-width="0" text-anchor="middle" dy="4.4">+</text>
<text x="465" y="263" fill="#1c1f28" stroke-width="0" dy="-1.6">out1_i</text>
<text x="465" y="307" fill="#1c1f28" stroke-width="0" dy="9.6">RTL_ADD</text>
</g>
<g stroke="#1c1f28" stroke-width="3">
<path d="M440 275h10" />
<text x="448" y="274" fill="#1c1f28" stroke-width="0" font-size="10" text-anchor="end" dy="-1.33333">I0[64:0]</text>
<path d="M440 295h10" />
<text x="448" y="294" fill="#1c1f28" stroke-width="0" font-size="10" text-anchor="end" dy="-1.33333">I1[64:0]</text>
<path d="M500 285h-10" />
<text x="492" y="284" fill="#1c1f28" stroke-width="0" font-size="10" dy="-1.33333">O[64:0]</text>
<path d="M215 250l2 2l2 3l1 2l1 3l1 3v4l-1 3l-1 3l-1 2l-2 3l-2 2h10h3l3 -1l3 -1l2 -1l3 -1l3 -2l2 -2l2 -2l2 -2l2 -3l-2 -3l-2 -2l-2 -2l-2 -2l-3 -2l-3 -1l-2 -1l-3 -1l-3 -1h-3z" stroke="none" fill="#e5c7ff" />
</g>
<g stroke="#575d6c">
<path d="M210,250 A19.5714,19.5714 1.74651 0,1 210,280" />
<path d="M215,250 A19.5714,19.5714 1.74651 0,1 215,280" />
<path d="M215 280h10" />
<path d="M225,280 A32.596,32.596 -0.927295 0,0 250,265" />
<path d="M250,265 A32.596,32.596 -0.927295 0,0 225,250" />
<path d="M225 250h-10" />
<text x="212" y="249" fill="#1c1f28" stroke-width="0" dy="-1.6">out2_i</text>
<text x="212" y="281" fill="#1c1f28" stroke-width="0" dy="9.6">RTL_XOR</text>
</g>
<g stroke="#1c1f28" stroke-width="3">
<path d="M200 255h14" />
<text x="209" y="254" fill="#1c1f28" stroke-width="0" font-size="10" text-anchor="end" dy="-1.33333">I0[63:0]</text>
<path d="M200 275h14" />
<text x="209" y="274" fill="#1c1f28" stroke-width="0" font-size="10" text-anchor="end" dy="-1.33333">I1[63:0]</text>
<path d="M260 265h-10" />
<text x="251" y="264" fill="#1c1f28" stroke-width="0" font-size="10" dy="-1.33333">O[63:0]</text>
<path d="M960 315v15h25h3l3 -1l2 -1l2 -2l3 -3l1 -2l1 -3v-3v-3l-1 -3l-1 -2l-2 -2l-3 -3l-2 -1l-3 -1h-3h-25z" stroke="none" fill="#e5c7ff" />
</g>
<g stroke="#575d6c">
<path d="M960 315v15h25" />
<path d="M985,330 A15,15 -3.14159 1,0 985,300" />
<path d="M985 300h-25v15" />
<text x="962" y="299" fill="#1c1f28" stroke-width="0" dy="-1.6">overflow0_i</text>
<text x="962" y="331" fill="#1c1f28" stroke-width="0" dy="9.6">RTL_AND</text>
</g>
<g stroke="#1c1f28">
<path d="M950 305h10" />
<text x="959" y="304" fill="#1c1f28" stroke-width="0" font-size="10" text-anchor="end" dy="-1.33333">I0</text>
<path d="M950 325h10" />
<text x="959" y="324" fill="#1c1f28" stroke-width="0" font-size="10" text-anchor="end" dy="-1.33333">I1</text>
<path d="M1010 315h-10" />
<text x="1001" y="314" fill="#1c1f28" stroke-width="0" font-size="10" dy="-1.33333">O</text>
<circle cx="730" cy="305" r="20" stroke="none" fill="#e5c7ff" />
</g>
<g stroke="#575d6c">
<circle cx="730" cy="305" r="20" />
<path d="M710 295l2 1" />
<path d="M710 315l2 -1" />
<path d="M750 305" />
<text x="730" y="305" fill="#575d6c" stroke-width="0" text-anchor="middle" dy="4.4">=</text>
<text x="725" y="283" fill="#1c1f28" stroke-width="0" dy="-1.6">overflow1_i</text>
<text x="725" y="327" fill="#1c1f28" stroke-width="0" dy="9.6">RTL_EQ</text>
</g>
<g stroke="#1c1f28">
<path d="M700 295h10" />
<text x="708" y="294" fill="#1c1f28" stroke-width="0" font-size="10" text-anchor="end" dy="-1.33333">I0</text>
<path d="M700 315h10" />
<text x="708" y="314" fill="#1c1f28" stroke-width="0" font-size="10" text-anchor="end" dy="-1.33333">I1</text>
<path d="M760 305h-10" />
<text x="752" y="304" fill="#1c1f28" stroke-width="0" font-size="10" dy="-1.33333">O</text>
<circle cx="730" cy="405" r="20" stroke="none" fill="#e5c7ff" />
</g>
<g stroke="#575d6c">
<circle cx="730" cy="405" r="20" />
<path d="M710 395l2 1" />
<path d="M710 415l2 -1" />
<path d="M750 405" />
<text x="730" y="405" fill="#575d6c" stroke-width="0" text-anchor="middle" dy="4.4">!=</text>
<text x="725" y="383" fill="#1c1f28" stroke-width="0" dy="-1.6">overflow1_i__0</text>
<text x="725" y="427" fill="#1c1f28" stroke-width="0" dy="9.6">RTL_NEQ</text>
</g>
<g stroke="#1c1f28">
<path d="M700 395h10" />
<text x="708" y="394" fill="#1c1f28" stroke-width="0" font-size="10" text-anchor="end" dy="-1.33333">I0</text>
<path d="M700 415h10" />
<text x="708" y="414" fill="#1c1f28" stroke-width="0" font-size="10" text-anchor="end" dy="-1.33333">I1</text>
<path d="M760 405h-10" />
<text x="752" y="404" fill="#1c1f28" stroke-width="0" font-size="10" dy="-1.33333">O</text>
<path d="M960 370l2 2l2 3l1 2l1 3l1 3v4l-1 3l-1 3l-1 2l-2 3l-2 2h15h3l3 -1l3 -1l2 -1l3 -1l3 -2l2 -2l2 -2l2 -2l2 -3l-2 -3l-2 -2l-2 -2l-2 -2l-3 -2l-3 -1l-2 -1l-3 -1l-3 -1h-3z" stroke="none" fill="#e5c7ff" />
<circle cx="1004" cy="385" r="4" stroke="none" fill="#e5c7ff" />
</g>
<g stroke="#575d6c">
<path d="M960,370 A19.5714,19.5714 1.74651 0,1 960,400" />
<path d="M960 400h15" />
<path d="M975,400 A32.596,32.596 -0.927295 0,0 1000,385" />
<path d="M1000,385 A32.596,32.596 -0.927295 0,0 975,370" />
<path d="M975 370h-15" />
<circle cx="1004" cy="385" r="4" />
<text x="962" y="369" fill="#1c1f28" stroke-width="0" dy="-1.6">zero0_i</text>
<text x="962" y="401" fill="#1c1f28" stroke-width="0" dy="9.6">RTL_REDUCTION_NOR</text>
</g>
<g stroke="#1c1f28">
<path d="M1020 385h-12" />
<text x="1009" y="384" fill="#1c1f28" stroke-width="0" font-size="10" dy="-1.33333">O</text>
</g>
<g stroke="#1c1f28" stroke-width="3">
<path d="M950 385h17" />
<text x="959" y="384" fill="#1c1f28" stroke-width="0" font-size="10" text-anchor="end" dy="-1.33333">I0[63:0]</text>
</g>
<g stroke="#575d6c">
<path d="M362 335h16" />
<path d="M365 338h10" />
<path d="M368 341h4" />
<path d="M622 255h16" />
<path d="M625 258h10" />
<path d="M628 261h4" />
</g>
<g stroke="#009633" stroke-width="3">
<path d="M110 195h220v75l1 1" />
</g>
<g stroke="black" stroke-width="3">
<path d="M330 270l5 5h1" />
</g>
<g stroke-width="3">
<path d="M335 275h105" />
</g>
<g stroke="#009633" stroke-width="3">
<path d="M330 235h280v183" />
<path d="M327 232h7v7h-7z" stroke="none" fill="#009633" />
</g>
<g>
<path d="M610 295h90" />
<path d="M610 415h90" />
</g>
<g stroke="black" stroke-width="3">
<path d="M609 290v10l11 -5" stroke="none" fill="black" />
<path d="M609 410v10l11 -5" stroke="none" fill="black" />
</g>
<g stroke="#009633" stroke-width="3">
<path d="M110 255h90" />
<path d="M630 398v-43h230" />
<path d="M860 385h90" />
<path d="M857 252h7v7h-7z" stroke="none" fill="#009633" />
<path d="M857 352h7v7h-7z" stroke="none" fill="#009633" />
<path d="M1150 232v26" />
<path d="M860 202v186" />
<path d="M760 205h100" />
<path d="M860 255h290" />
<path d="M1150 255h20" />
</g>
<g>
<path d="M1150 235h20" />
<path d="M630 395h70" />
<path d="M860 205h90" />
</g>
<g stroke="black" stroke-width="3">
<path d="M859 200v10l11 -5" stroke="none" fill="black" />
<path d="M859 380v10l11 -5" stroke="none" fill="black" />
<path d="M629 390v10l11 -5" stroke="none" fill="black" />
<path d="M1149 230v10l11 -5" stroke="none" fill="black" />
<path d="M1149 250v10l11 -5" stroke="none" fill="black" />
</g>
<g stroke="#009633" stroke-width="3">
<path d="M500 285h90v-90h110" />
</g>
<g stroke-width="3">
<path d="M440 295h-85l-1 -1" />
</g>
<g stroke="black" stroke-width="3">
<path d="M355 295l-5 -5v-1" />
</g>
<g stroke="#009633" stroke-width="3">
<path d="M350 290v-95h220v123" />
<path d="M260 265h90" />
<path d="M347 262h7v7h-7z" stroke="none" fill="#009633" />
</g>
<g>
<path d="M570 315h130" />
</g>
<g stroke="black" stroke-width="3">
<path d="M569 310v10l11 -5" stroke="none" fill="black" />
</g>
<g stroke-width="2">
<path d="M700 215h-65l-1 1" />
</g>
<g stroke="black">
<path d="M635 215l-5 5v1" />
</g>
<g>
<path d="M630 220v35" />
</g>
<g stroke-width="2">
<path d="M440 275h-65l-1 1" />
</g>
<g stroke="black">
<path d="M375 275l-5 5v1" />
</g>
<g>
<path d="M370 280v55" />
</g>
<g stroke="black">
<path d="M370 300l5 -5h1" />
</g>
<g stroke-width="2">
<path d="M375 295h65" />
</g>
<g>
<path d="M1010 205h160" />
<path d="M1010 315h160" />
<path d="M760 305h190" />
<path d="M760 405h120v-80h70" />
<path d="M200 275h-70v-60h480" />
</g>
<g stroke="black">
<path d="M610 215h5" />
</g>
<g stroke-width="2">
<path d="M615 215h85" />
</g>
<g>
<path d="M110 275h20" />
<path d="M128 273h5v5h-5z" stroke="none" fill="#8bc34a" />
<path d="M1020 385h150" />
</g>
</g>
</svg>
