<?xml version="1.0" encoding="UTF-8" standalone="no"?>
<svg viewBox="0 0 2332 1265"
     preserveAspectRatio="xMidYMid meet"
     version="1.1"
     baseProfile="full"
     xmlns="http://www.w3.org/2000/svg"
     xmlns:xlink="http://www.w3.org/1999/xlink"
     xmlns:ev="http://www.w3.org/2001/xml-events"
     xml:space="preserve">
<title>SOC</title>
<desc>Nlview schematic (SVG)</desc>
<clipPath id="clippingbbox">
<rect x="0" y="0" width="2332" height="1265" />
</clipPath>
<g stroke="#8bc34a"
   stroke-width="1"
   stroke-linecap="butt"
   stroke-linejoin="miter"
   stroke-miterlimit="4"
   stroke-dasharray="none"
   stroke-dashoffset="0"
   fill="none"
   font-family="Helvetica"
   font-style="normal"
   font-size="12"
   writing-mode="lr-tb"
   cursor="crosshair"
   clip-path="url(#clippingbbox)">
<path d="M0 0h2332v1266h-2332z" stroke="none" fill="white" />
<path d="M18 29h2296l3 1l3 1l1 3l1 3v1190l-1 3l-1 3l-3 1l-3 1h-2296l-3 -1l-3 -1l-1 -3l-1 -3v-1190l1 -3l1 -3l3 -1z" stroke="none" fill="white" />
<g stroke="#575d6c">
<path d="M18 29h2296" />
<path d="M2314,29 A7.83511,7.83511 1.61334 0,1 2322,37" />
<path d="M2322 37v1190" />
<path d="M2322,1227 A7.83511,7.83511 1.61334 0,1 2314,1235" />
<path d="M2314 1235h-2296" />
<path d="M18,1235 A7.83511,7.83511 1.61334 0,1 10,1227" />
<path d="M10 1227v-1190" />
<path d="M10,37 A7.83511,7.83511 1.61334 0,1 18,29" />
<text x="1166" y="27" fill="#1c1f28" stroke-width="0" text-anchor="middle" dy="-1.6">core</text>
</g>
<g stroke="#575d6c" stroke-width="3">
<path d="M15 40h12" />
</g>
<g stroke="#575d6c">
<path d="M13 32h16v16h-16z" />
<text x="1166" y="1237" fill="#1c1f28" stroke-width="0" text-anchor="middle" dy="9.6">core</text>
<path d="M198 75h1944l3 1l3 1l1 3l1 3v1114l-1 3l-1 3l-3 1l-3 1h-1944l-3 -1l-3 -1l-1 -3l-1 -3v-1114l1 -3l1 -3l3 -1z" stroke="none" fill="white" />
<path d="M198 75h1944" />
<path d="M2142,75 A7.83511,7.83511 1.61334 0,1 2150,83" />
<path d="M2150 83v1114" />
<path d="M2150,1197 A7.83511,7.83511 1.61334 0,1 2142,1205" />
<path d="M2142 1205h-1944" />
<path d="M198,1205 A7.83511,7.83511 1.61334 0,1 190,1197" />
<path d="M190 1197v-1114" />
<path d="M190,83 A7.83511,7.83511 1.61334 0,1 198,75" />
</g>
<g stroke="#575d6c" stroke-width="3">
<path d="M195 86h12" />
</g>
<g stroke="#575d6c">
<path d="M193 78h16v16h-16z" />
<text x="1170" y="73" fill="#1c1f28" stroke-width="0" text-anchor="middle" dy="-1.6">cache_arbiter_</text>
<text x="1170" y="1207" fill="#1c1f28" stroke-width="0" text-anchor="middle" dy="9.6">cache_arbiter</text>
</g>
<g stroke="#1c1f28">
<path d="M180 155h10" />
<text x="188" y="153" fill="#1c1f28" stroke-width="0" font-size="10" text-anchor="end" dy="-1.33333">clock</text>
<path d="M180 285h10" />
<text x="188" y="283" fill="#1c1f28" stroke-width="0" font-size="10" text-anchor="end" dy="-1.33333">req1[mem_req_load]</text>
<path d="M180 305h10" />
<text x="188" y="303" fill="#1c1f28" stroke-width="0" font-size="10" text-anchor="end" dy="-1.33333">req1[mem_req_store]</text>
<path d="M180 655h10" />
<text x="188" y="653" fill="#1c1f28" stroke-width="0" font-size="10" text-anchor="end" dy="-1.33333">req2[mem_req_load]</text>
<path d="M180 715h10" />
<text x="188" y="713" fill="#1c1f28" stroke-width="0" font-size="10" text-anchor="end" dy="-1.33333">req2[mem_req_store]</text>
<path d="M2160 515h-10" />
<text x="2152" y="513" fill="#1c1f28" stroke-width="0" font-size="10" dy="-1.33333">req[mem_req_load]</text>
<path d="M2160 685h-10" />
<text x="2152" y="683" fill="#1c1f28" stroke-width="0" font-size="10" dy="-1.33333">req[mem_req_store]</text>
<path d="M180 865h10" />
<text x="188" y="863" fill="#1c1f28" stroke-width="0" font-size="10" text-anchor="end" dy="-1.33333">reset</text>
<path d="M2160 945h-10" />
<text x="2152" y="943" fill="#1c1f28" stroke-width="0" font-size="10" dy="-1.33333">resp1[mem_ready]</text>
<path d="M2160 1165h-10" />
<text x="2152" y="1163" fill="#1c1f28" stroke-width="0" font-size="10" dy="-1.33333">resp2[mem_ready]</text>
<path d="M180 1005h10" />
<text x="188" y="1003" fill="#1c1f28" stroke-width="0" font-size="10" text-anchor="end" dy="-1.33333">resp[mem_ready]</text>
</g>
<g stroke="#1c1f28" stroke-width="3">
<path d="M180 175h10" />
<text x="188" y="173" fill="#1c1f28" stroke-width="0" font-size="10" text-anchor="end" dy="-1.33333">req1[mem_addr][57:0]</text>
<path d="M180 265h10" />
<text x="188" y="263" fill="#1c1f28" stroke-width="0" font-size="10" text-anchor="end" dy="-1.33333">req1[mem_data_out][511:0]</text>
<path d="M180 325h10" />
<text x="188" y="323" fill="#1c1f28" stroke-width="0" font-size="10" text-anchor="end" dy="-1.33333">req2[mem_addr][57:0]</text>
<path d="M180 345h10" />
<text x="188" y="343" fill="#1c1f28" stroke-width="0" font-size="10" text-anchor="end" dy="-1.33333">req2[mem_data_out][511:0]</text>
<path d="M2160 175h-10" />
<text x="2152" y="173" fill="#1c1f28" stroke-width="0" font-size="10" dy="-1.33333">req[mem_addr][57:0]</text>
<path d="M2160 345h-10" />
<text x="2152" y="343" fill="#1c1f28" stroke-width="0" font-size="10" dy="-1.33333">req[mem_data_out][511:0]</text>
<path d="M2160 835h-10" />
<text x="2152" y="833" fill="#1c1f28" stroke-width="0" font-size="10" dy="-1.33333">resp1[mem_data][511:0]</text>
<path d="M2160 1055h-10" />
<text x="2152" y="1053" fill="#1c1f28" stroke-width="0" font-size="10" dy="-1.33333">resp2[mem_data][511:0]</text>
<path d="M180 985h10" />
<text x="188" y="983" fill="#1c1f28" stroke-width="0" font-size="10" text-anchor="end" dy="-1.33333">resp[mem_data][511:0]</text>
</g>
<g stroke="#1c1f28">
<path d="M200 155h-10" />
<path d="M200 285h-10" />
<path d="M200 305h-10" />
<path d="M200 655h-10" />
<path d="M200 715h-10" />
<path d="M2140 515h10" />
<path d="M2140 685h10" />
<path d="M200 865h-10" />
<path d="M2140 945h10" />
<path d="M2140 1165h10" />
<path d="M200 1005h-10" />
</g>
<g stroke="#1c1f28" stroke-width="3">
<path d="M200 175h-10" />
<path d="M200 265h-10" />
<path d="M200 325h-10" />
<path d="M200 345h-10" />
<path d="M2140 175h10" />
<path d="M2140 345h10" />
<path d="M2140 835h10" />
<path d="M2140 1055h10" />
<path d="M200 985h-10" />
<path d="M1180 575v15h25h3l3 -1l2 -1l2 -2l3 -3l1 -2l1 -3v-3v-3l-1 -3l-1 -2l-2 -2l-3 -3l-2 -1l-3 -1h-3h-25z" stroke="none" fill="#e5c7ff" />
</g>
<g stroke="#575d6c">
<path d="M1180 575v15h25" />
<path d="M1205,590 A15,15 -3.14159 1,0 1205,560" />
<path d="M1205 560h-25v15" />
<text x="1182" y="559" fill="#1c1f28" stroke-width="0" dy="-1.6">D0_i</text>
<text x="1182" y="591" fill="#1c1f28" stroke-width="0" dy="9.6">RTL_AND</text>
</g>
<g stroke="#1c1f28">
<path d="M1170 565h10" />
<text x="1179" y="564" fill="#1c1f28" stroke-width="0" font-size="10" text-anchor="end" dy="-1.33333">I0</text>
<path d="M1170 585h10" />
<text x="1179" y="584" fill="#1c1f28" stroke-width="0" font-size="10" text-anchor="end" dy="-1.33333">I1</text>
<path d="M1230 575h-10" />
<text x="1221" y="574" fill="#1c1f28" stroke-width="0" font-size="10" dy="-1.33333">O</text>
<path d="M1180 675v15h25h3l3 -1l2 -1l2 -2l3 -3l1 -2l1 -3v-3v-3l-1 -3l-1 -2l-2 -2l-3 -3l-2 -1l-3 -1h-3h-25z" stroke="none" fill="#e5c7ff" />
</g>
<g stroke="#575d6c">
<path d="M1180 675v15h25" />
<path d="M1205,690 A15,15 -3.14159 1,0 1205,660" />
<path d="M1205 660h-25v15" />
<text x="1182" y="659" fill="#1c1f28" stroke-width="0" dy="-1.6">D0_i__0</text>
<text x="1182" y="691" fill="#1c1f28" stroke-width="0" dy="9.6">RTL_AND</text>
</g>
<g stroke="#1c1f28">
<path d="M1170 665h10" />
<text x="1179" y="664" fill="#1c1f28" stroke-width="0" font-size="10" text-anchor="end" dy="-1.33333">I0</text>
<path d="M1170 685h10" />
<text x="1179" y="684" fill="#1c1f28" stroke-width="0" font-size="10" text-anchor="end" dy="-1.33333">I1</text>
<path d="M1230 675h-10" />
<text x="1221" y="674" fill="#1c1f28" stroke-width="0" font-size="10" dy="-1.33333">O</text>
<circle cx="1034" cy="795" r="4" stroke="none" fill="#e5c7ff" />
<path d="M1000 795v-12l30 12l-30 12z" stroke="none" fill="#e5c7ff" />
</g>
<g stroke="#575d6c">
<circle cx="1034" cy="795" r="4" />
<path d="M1000 795v-12l30 12l-30 12z" />
<text x="1002" y="781" fill="#1c1f28" stroke-width="0" dy="-1.6">D1_i</text>
<text x="1002" y="809" fill="#1c1f28" stroke-width="0" dy="9.6">RTL_INV</text>
</g>
<g stroke="#1c1f28">
<path d="M990 795h10" />
<text x="998" y="794" fill="#1c1f28" stroke-width="0" font-size="10" text-anchor="end" dy="-1.33333">I0</text>
<path d="M1050 795h-12" />
<text x="1040" y="794" fill="#1c1f28" stroke-width="0" font-size="10" dy="-1.33333">O</text>
<path d="M1000 560l2 2l2 3l1 2l1 3l1 3v4l-1 3l-1 3l-1 2l-2 3l-2 2h15h3l3 -1l3 -1l2 -1l3 -1l3 -2l2 -2l2 -2l2 -2l2 -3l-2 -3l-2 -2l-2 -2l-2 -2l-3 -2l-3 -1l-2 -1l-3 -1l-3 -1h-3z" stroke="none" fill="#e5c7ff" />
</g>
<g stroke="#575d6c">
<path d="M1000,560 A19.5714,19.5714 1.74651 0,1 1000,590" />
<path d="M1000 590h15" />
<path d="M1015,590 A32.596,32.596 -0.927295 0,0 1040,575" />
<path d="M1040,575 A32.596,32.596 -0.927295 0,0 1015,560" />
<path d="M1015 560h-15" />
<text x="1002" y="559" fill="#1c1f28" stroke-width="0" dy="-1.6">D1_i__0</text>
<text x="1002" y="591" fill="#1c1f28" stroke-width="0" dy="9.6">RTL_OR</text>
</g>
<g stroke="#1c1f28">
<path d="M990 565h14" />
<text x="999" y="564" fill="#1c1f28" stroke-width="0" font-size="10" text-anchor="end" dy="-1.33333">I0</text>
<path d="M990 585h14" />
<text x="999" y="584" fill="#1c1f28" stroke-width="0" font-size="10" text-anchor="end" dy="-1.33333">I1</text>
<path d="M1050 575h-10" />
<text x="1041" y="574" fill="#1c1f28" stroke-width="0" font-size="10" dy="-1.33333">O</text>
<path d="M1000 660l2 2l2 3l1 2l1 3l1 3v4l-1 3l-1 3l-1 2l-2 3l-2 2h15h3l3 -1l3 -1l2 -1l3 -1l3 -2l2 -2l2 -2l2 -2l2 -3l-2 -3l-2 -2l-2 -2l-2 -2l-3 -2l-3 -1l-2 -1l-3 -1l-3 -1h-3z" stroke="none" fill="#e5c7ff" />
</g>
<g stroke="#575d6c">
<path d="M1000,660 A19.5714,19.5714 1.74651 0,1 1000,690" />
<path d="M1000 690h15" />
<path d="M1015,690 A32.596,32.596 -0.927295 0,0 1040,675" />
<path d="M1040,675 A32.596,32.596 -0.927295 0,0 1015,660" />
<path d="M1015 660h-15" />
<text x="1002" y="659" fill="#1c1f28" stroke-width="0" dy="-1.6">D1_i__1</text>
<text x="1002" y="691" fill="#1c1f28" stroke-width="0" dy="9.6">RTL_OR</text>
</g>
<g stroke="#1c1f28">
<path d="M990 665h14" />
<text x="999" y="664" fill="#1c1f28" stroke-width="0" font-size="10" text-anchor="end" dy="-1.33333">I0</text>
<path d="M990 685h14" />
<text x="999" y="684" fill="#1c1f28" stroke-width="0" font-size="10" text-anchor="end" dy="-1.33333">I1</text>
<path d="M1050 675h-10" />
<text x="1041" y="674" fill="#1c1f28" stroke-width="0" font-size="10" dy="-1.33333">O</text>
<path d="M810 785v15h25h3l3 -1l2 -1l2 -2l3 -3l1 -2l1 -3v-3v-3l-1 -3l-1 -2l-2 -2l-3 -3l-2 -1l-3 -1h-3h-25z" stroke="none" fill="#e5c7ff" />
</g>
<g stroke="#575d6c">
<path d="M810 785v15h25" />
<path d="M835,800 A15,15 -3.14159 1,0 835,770" />
<path d="M835 770h-25v15" />
<text x="812" y="769" fill="#1c1f28" stroke-width="0" dy="-1.6">D2_i</text>
<text x="812" y="801" fill="#1c1f28" stroke-width="0" dy="9.6">RTL_AND</text>
</g>
<g stroke="#1c1f28">
<path d="M800 775h10" />
<text x="809" y="774" fill="#1c1f28" stroke-width="0" font-size="10" text-anchor="end" dy="-1.33333">I0</text>
<path d="M800 795h10" />
<text x="809" y="794" fill="#1c1f28" stroke-width="0" font-size="10" text-anchor="end" dy="-1.33333">I1</text>
<path d="M860 785h-10" />
<text x="851" y="784" fill="#1c1f28" stroke-width="0" font-size="10" dy="-1.33333">O</text>
<path d="M810 475v15h25h3l3 -1l2 -1l2 -2l3 -3l1 -2l1 -3v-3v-3l-1 -3l-1 -2l-2 -2l-3 -3l-2 -1l-3 -1h-3h-25z" stroke="none" fill="#e5c7ff" />
</g>
<g stroke="#575d6c">
<path d="M810 475v15h25" />
<path d="M835,490 A15,15 -3.14159 1,0 835,460" />
<path d="M835 460h-25v15" />
<text x="812" y="459" fill="#1c1f28" stroke-width="0" dy="-1.6">D2_i__0</text>
<text x="812" y="491" fill="#1c1f28" stroke-width="0" dy="9.6">RTL_AND</text>
</g>
<g stroke="#1c1f28">
<path d="M800 465h10" />
<text x="809" y="464" fill="#1c1f28" stroke-width="0" font-size="10" text-anchor="end" dy="-1.33333">I0</text>
<path d="M800 485h10" />
<text x="809" y="484" fill="#1c1f28" stroke-width="0" font-size="10" text-anchor="end" dy="-1.33333">I1</text>
<path d="M860 475h-10" />
<text x="851" y="474" fill="#1c1f28" stroke-width="0" font-size="10" dy="-1.33333">O</text>
<path d="M810 585v15h25h3l3 -1l2 -1l2 -2l3 -3l1 -2l1 -3v-3v-3l-1 -3l-1 -2l-2 -2l-3 -3l-2 -1l-3 -1h-3h-25z" stroke="none" fill="#e5c7ff" />
</g>
<g stroke="#575d6c">
<path d="M810 585v15h25" />
<path d="M835,600 A15,15 -3.14159 1,0 835,570" />
<path d="M835 570h-25v15" />
<text x="812" y="569" fill="#1c1f28" stroke-width="0" dy="-1.6">D2_i__1</text>
<text x="812" y="601" fill="#1c1f28" stroke-width="0" dy="9.6">RTL_AND</text>
</g>
<g stroke="#1c1f28">
<path d="M800 575h10" />
<text x="809" y="574" fill="#1c1f28" stroke-width="0" font-size="10" text-anchor="end" dy="-1.33333">I0</text>
<path d="M800 595h10" />
<text x="809" y="594" fill="#1c1f28" stroke-width="0" font-size="10" text-anchor="end" dy="-1.33333">I1</text>
<path d="M860 585h-10" />
<text x="851" y="584" fill="#1c1f28" stroke-width="0" font-size="10" dy="-1.33333">O</text>
<path d="M810 685v15h25h3l3 -1l2 -1l2 -2l3 -3l1 -2l1 -3v-3v-3l-1 -3l-1 -2l-2 -2l-3 -3l-2 -1l-3 -1h-3h-25z" stroke="none" fill="#e5c7ff" />
</g>
<g stroke="#575d6c">
<path d="M810 685v15h25" />
<path d="M835,700 A15,15 -3.14159 1,0 835,670" />
<path d="M835 670h-25v15" />
<text x="812" y="669" fill="#1c1f28" stroke-width="0" dy="-1.6">D2_i__2</text>
<text x="812" y="701" fill="#1c1f28" stroke-width="0" dy="9.6">RTL_AND</text>
</g>
<g stroke="#1c1f28">
<path d="M800 675h10" />
<text x="809" y="674" fill="#1c1f28" stroke-width="0" font-size="10" text-anchor="end" dy="-1.33333">I0</text>
<path d="M800 695h10" />
<text x="809" y="694" fill="#1c1f28" stroke-width="0" font-size="10" text-anchor="end" dy="-1.33333">I1</text>
<path d="M860 685h-10" />
<text x="851" y="684" fill="#1c1f28" stroke-width="0" font-size="10" dy="-1.33333">O</text>
<circle cx="634" cy="795" r="4" stroke="none" fill="#e5c7ff" />
<path d="M600 795v-12l30 12l-30 12z" stroke="none" fill="#e5c7ff" />
</g>
<g stroke="#575d6c">
<circle cx="634" cy="795" r="4" />
<path d="M600 795v-12l30 12l-30 12z" />
<text x="602" y="781" fill="#1c1f28" stroke-width="0" dy="-1.6">D3_i</text>
<text x="602" y="809" fill="#1c1f28" stroke-width="0" dy="9.6">RTL_INV</text>
</g>
<g stroke="#1c1f28">
<path d="M590 795h10" />
<text x="598" y="794" fill="#1c1f28" stroke-width="0" font-size="10" text-anchor="end" dy="-1.33333">I0</text>
<path d="M650 795h-12" />
<text x="640" y="794" fill="#1c1f28" stroke-width="0" font-size="10" dy="-1.33333">O</text>
<path d="M600 400l2 2l2 3l1 2l1 3l1 3v4l-1 3l-1 3l-1 2l-2 3l-2 2h15h3l3 -1l3 -1l2 -1l3 -1l3 -2l2 -2l2 -2l2 -2l2 -3l-2 -3l-2 -2l-2 -2l-2 -2l-3 -2l-3 -1l-2 -1l-3 -1l-3 -1h-3z" stroke="none" fill="#e5c7ff" />
</g>
<g stroke="#575d6c">
<path d="M600,400 A19.5714,19.5714 1.74651 0,1 600,430" />
<path d="M600 430h15" />
<path d="M615,430 A32.596,32.596 -0.927295 0,0 640,415" />
<path d="M640,415 A32.596,32.596 -0.927295 0,0 615,400" />
<path d="M615 400h-15" />
<text x="602" y="399" fill="#1c1f28" stroke-width="0" dy="-1.6">D3_i__0</text>
<text x="602" y="431" fill="#1c1f28" stroke-width="0" dy="9.6">RTL_OR</text>
</g>
<g stroke="#1c1f28">
<path d="M590 405h14" />
<text x="599" y="404" fill="#1c1f28" stroke-width="0" font-size="10" text-anchor="end" dy="-1.33333">I0</text>
<path d="M590 425h14" />
<text x="599" y="424" fill="#1c1f28" stroke-width="0" font-size="10" text-anchor="end" dy="-1.33333">I1</text>
<path d="M650 415h-10" />
<text x="641" y="414" fill="#1c1f28" stroke-width="0" font-size="10" dy="-1.33333">O</text>
<circle cx="634" cy="485" r="4" stroke="none" fill="#e5c7ff" />
<path d="M600 485v-12l30 12l-30 12z" stroke="none" fill="#e5c7ff" />
</g>
<g stroke="#575d6c">
<circle cx="634" cy="485" r="4" />
<path d="M600 485v-12l30 12l-30 12z" />
<text x="602" y="471" fill="#1c1f28" stroke-width="0" dy="-1.6">D3_i__1</text>
<text x="602" y="499" fill="#1c1f28" stroke-width="0" dy="9.6">RTL_INV</text>
</g>
<g stroke="#1c1f28">
<path d="M590 485h10" />
<text x="598" y="484" fill="#1c1f28" stroke-width="0" font-size="10" text-anchor="end" dy="-1.33333">I0</text>
<path d="M650 485h-12" />
<text x="640" y="484" fill="#1c1f28" stroke-width="0" font-size="10" dy="-1.33333">O</text>
<path d="M600 605v15h25h3l3 -1l2 -1l2 -2l3 -3l1 -2l1 -3v-3v-3l-1 -3l-1 -2l-2 -2l-3 -3l-2 -1l-3 -1h-3h-25z" stroke="none" fill="#e5c7ff" />
</g>
<g stroke="#575d6c">
<path d="M600 605v15h25" />
<path d="M625,620 A15,15 -3.14159 1,0 625,590" />
<path d="M625 590h-25v15" />
<text x="602" y="589" fill="#1c1f28" stroke-width="0" dy="-1.6">D3_i__2</text>
<text x="602" y="621" fill="#1c1f28" stroke-width="0" dy="9.6">RTL_AND</text>
</g>
<g stroke="#1c1f28">
<path d="M590 595h10" />
<text x="599" y="594" fill="#1c1f28" stroke-width="0" font-size="10" text-anchor="end" dy="-1.33333">I0</text>
<path d="M590 615h10" />
<text x="599" y="614" fill="#1c1f28" stroke-width="0" font-size="10" text-anchor="end" dy="-1.33333">I1</text>
<path d="M650 605h-10" />
<text x="641" y="604" fill="#1c1f28" stroke-width="0" font-size="10" dy="-1.33333">O</text>
<circle cx="634" cy="695" r="4" stroke="none" fill="#e5c7ff" />
<path d="M600 695v-12l30 12l-30 12z" stroke="none" fill="#e5c7ff" />
</g>
<g stroke="#575d6c">
<circle cx="634" cy="695" r="4" />
<path d="M600 695v-12l30 12l-30 12z" />
<text x="602" y="681" fill="#1c1f28" stroke-width="0" dy="-1.6">D3_i__3</text>
<text x="602" y="709" fill="#1c1f28" stroke-width="0" dy="9.6">RTL_INV</text>
</g>
<g stroke="#1c1f28">
<path d="M590 695h10" />
<text x="598" y="694" fill="#1c1f28" stroke-width="0" font-size="10" text-anchor="end" dy="-1.33333">I0</text>
<path d="M650 695h-12" />
<text x="640" y="694" fill="#1c1f28" stroke-width="0" font-size="10" dy="-1.33333">O</text>
<path d="M410 595v15h25h3l3 -1l2 -1l2 -2l3 -3l1 -2l1 -3v-3v-3l-1 -3l-1 -2l-2 -2l-3 -3l-2 -1l-3 -1h-3h-25z" stroke="none" fill="#e5c7ff" />
</g>
<g stroke="#575d6c">
<path d="M410 595v15h25" />
<path d="M435,610 A15,15 -3.14159 1,0 435,580" />
<path d="M435 580h-25v15" />
<text x="412" y="579" fill="#1c1f28" stroke-width="0" dy="-1.6">D4_i</text>
<text x="412" y="611" fill="#1c1f28" stroke-width="0" dy="9.6">RTL_AND</text>
</g>
<g stroke="#1c1f28">
<path d="M400 585h10" />
<text x="409" y="584" fill="#1c1f28" stroke-width="0" font-size="10" text-anchor="end" dy="-1.33333">I0</text>
<path d="M400 605h10" />
<text x="409" y="604" fill="#1c1f28" stroke-width="0" font-size="10" text-anchor="end" dy="-1.33333">I1</text>
<path d="M460 595h-10" />
<text x="451" y="594" fill="#1c1f28" stroke-width="0" font-size="10" dy="-1.33333">O</text>
<circle cx="444" cy="525" r="4" stroke="none" fill="#e5c7ff" />
<path d="M410 525v-12l30 12l-30 12z" stroke="none" fill="#e5c7ff" />
</g>
<g stroke="#575d6c">
<circle cx="444" cy="525" r="4" />
<path d="M410 525v-12l30 12l-30 12z" />
<text x="412" y="511" fill="#1c1f28" stroke-width="0" dy="-1.6">D4_i__0</text>
<text x="412" y="539" fill="#1c1f28" stroke-width="0" dy="9.6">RTL_INV</text>
</g>
<g stroke="#1c1f28">
<path d="M400 525h10" />
<text x="408" y="524" fill="#1c1f28" stroke-width="0" font-size="10" text-anchor="end" dy="-1.33333">I0</text>
<path d="M460 525h-12" />
<text x="450" y="524" fill="#1c1f28" stroke-width="0" font-size="10" dy="-1.33333">O</text>
<path d="M270 690l2 2l2 3l1 2l1 3l1 3v4l-1 3l-1 3l-1 2l-2 3l-2 2h15h3l3 -1l3 -1l2 -1l3 -1l3 -2l2 -2l2 -2l2 -2l2 -3l-2 -3l-2 -2l-2 -2l-2 -2l-3 -2l-3 -1l-2 -1l-3 -1l-3 -1h-3z" stroke="none" fill="#e5c7ff" />
</g>
<g stroke="#575d6c">
<path d="M270,690 A19.5714,19.5714 1.74651 0,1 270,720" />
<path d="M270 720h15" />
<path d="M285,720 A32.596,32.596 -0.927295 0,0 310,705" />
<path d="M310,705 A32.596,32.596 -0.927295 0,0 285,690" />
<path d="M285 690h-15" />
<text x="272" y="689" fill="#1c1f28" stroke-width="0" dy="-1.6">D5_i</text>
<text x="272" y="721" fill="#1c1f28" stroke-width="0" dy="9.6">RTL_OR</text>
</g>
<g stroke="#1c1f28">
<path d="M260 695h14" />
<text x="269" y="694" fill="#1c1f28" stroke-width="0" font-size="10" text-anchor="end" dy="-1.33333">I0</text>
<path d="M260 715h14" />
<text x="269" y="714" fill="#1c1f28" stroke-width="0" font-size="10" text-anchor="end" dy="-1.33333">I1</text>
<path d="M320 705h-10" />
<text x="311" y="704" fill="#1c1f28" stroke-width="0" font-size="10" dy="-1.33333">O</text>
<circle cx="304" cy="605" r="4" stroke="none" fill="#e5c7ff" />
<path d="M270 605v-12l30 12l-30 12z" stroke="none" fill="#e5c7ff" />
</g>
<g stroke="#575d6c">
<circle cx="304" cy="605" r="4" />
<path d="M270 605v-12l30 12l-30 12z" />
<text x="272" y="591" fill="#1c1f28" stroke-width="0" dy="-1.6">D5_i__0</text>
<text x="272" y="619" fill="#1c1f28" stroke-width="0" dy="9.6">RTL_INV</text>
</g>
<g stroke="#1c1f28">
<path d="M260 605h10" />
<text x="268" y="604" fill="#1c1f28" stroke-width="0" font-size="10" text-anchor="end" dy="-1.33333">I0</text>
<path d="M320 605h-12" />
<text x="310" y="604" fill="#1c1f28" stroke-width="0" font-size="10" dy="-1.33333">O</text>
<path d="M1960 103h60v122h-60z" stroke="none" fill="#cde5ff" />
</g>
<g stroke="#575d6c">
<path d="M1960 103h60v122h-60z" />
</g>
<g stroke="#575d6c" stroke-width="3">
<path d="M1971 108v12" />
<path d="M1965 114h12" />
</g>
<g stroke="#575d6c">
<path d="M1963 106h16v16h-16z" />
<text x="1990" y="101" fill="#1c1f28" stroke-width="0" text-anchor="middle" dy="-1.6">addr_mux</text>
<text x="1990" y="227" fill="#1c1f28" stroke-width="0" text-anchor="middle" dy="9.6">mux4v</text>
</g>
<g stroke="#1c1f28" stroke-width="3">
<path d="M1950 135h10" />
<text x="1958" y="134" fill="#1c1f28" stroke-width="0" font-size="10" text-anchor="end" dy="-1.33333">a[57:0]</text>
<path d="M1950 155h10" />
<text x="1958" y="154" fill="#1c1f28" stroke-width="0" font-size="10" text-anchor="end" dy="-1.33333">b[57:0]</text>
<path d="M1950 175h10" />
<text x="1958" y="174" fill="#1c1f28" stroke-width="0" font-size="10" text-anchor="end" dy="-1.33333">c[57:0]</text>
<path d="M1950 195h10" />
<text x="1958" y="194" fill="#1c1f28" stroke-width="0" font-size="10" text-anchor="end" dy="-1.33333">d[57:0]</text>
<path d="M2030 175h-10" />
<text x="2022" y="174" fill="#1c1f28" stroke-width="0" font-size="10" dy="-1.33333">out[57:0]</text>
<path d="M1950 215h10" />
<text x="1958" y="214" fill="#1c1f28" stroke-width="0" font-size="10" text-anchor="end" dy="-1.33333">sel[1:0]</text>
<path d="M1970 135h-10" />
<path d="M1970 155h-10" />
<path d="M1970 175h-10" />
<path d="M1970 195h-10" />
<path d="M2010 175h10" />
<path d="M1970 215h-10" />
<path d="M1660 495v15h25h3l3 -1l2 -1l2 -2l3 -3l1 -2l1 -3v-3v-3l-1 -3l-1 -2l-2 -2l-3 -3l-2 -1l-3 -1h-3h-25z" stroke="none" fill="#e5c7ff" />
</g>
<g stroke="#575d6c">
<path d="M1660 495v15h25" />
<path d="M1685,510 A15,15 -3.14159 1,0 1685,480" />
<path d="M1685 480h-25v15" />
<text x="1662" y="479" fill="#1c1f28" stroke-width="0" dy="-1.6">b0_i</text>
<text x="1662" y="511" fill="#1c1f28" stroke-width="0" dy="9.6">RTL_AND</text>
</g>
<g stroke="#1c1f28">
<path d="M1650 485h10" />
<text x="1659" y="484" fill="#1c1f28" stroke-width="0" font-size="10" text-anchor="end" dy="-1.33333">I0</text>
<path d="M1650 505h10" />
<text x="1659" y="504" fill="#1c1f28" stroke-width="0" font-size="10" text-anchor="end" dy="-1.33333">I1</text>
<path d="M1710 495h-10" />
<text x="1701" y="494" fill="#1c1f28" stroke-width="0" font-size="10" dy="-1.33333">O</text>
<path d="M1660 635v15h25h3l3 -1l2 -1l2 -2l3 -3l1 -2l1 -3v-3v-3l-1 -3l-1 -2l-2 -2l-3 -3l-2 -1l-3 -1h-3h-25z" stroke="none" fill="#e5c7ff" />
</g>
<g stroke="#575d6c">
<path d="M1660 635v15h25" />
<path d="M1685,650 A15,15 -3.14159 1,0 1685,620" />
<path d="M1685 620h-25v15" />
<text x="1662" y="619" fill="#1c1f28" stroke-width="0" dy="-1.6">b0_i__0</text>
<text x="1662" y="651" fill="#1c1f28" stroke-width="0" dy="9.6">RTL_AND</text>
</g>
<g stroke="#1c1f28">
<path d="M1650 625h10" />
<text x="1659" y="624" fill="#1c1f28" stroke-width="0" font-size="10" text-anchor="end" dy="-1.33333">I0</text>
<path d="M1650 645h10" />
<text x="1659" y="644" fill="#1c1f28" stroke-width="0" font-size="10" text-anchor="end" dy="-1.33333">I1</text>
<path d="M1710 635h-10" />
<text x="1701" y="634" fill="#1c1f28" stroke-width="0" font-size="10" dy="-1.33333">O</text>
<path d="M1420 573h60v102h-60z" stroke="none" fill="#cde5ff" />
</g>
<g stroke="#575d6c">
<path d="M1420 573h60v102h-60z" />
</g>
<g stroke="#575d6c" stroke-width="3">
<path d="M1431 578v12" />
<path d="M1425 584h12" />
</g>
<g stroke="#575d6c">
<path d="M1423 576h16v16h-16z" />
<text x="1450" y="571" fill="#1c1f28" stroke-width="0" text-anchor="middle" dy="-1.6">cache_st</text>
<text x="1450" y="677" fill="#1c1f28" stroke-width="0" text-anchor="middle" dy="9.6">register</text>
</g>
<g stroke="#1c1f28">
<path d="M1410 625h10" />
<text x="1418" y="624" fill="#1c1f28" stroke-width="0" font-size="10" text-anchor="end" dy="-1.33333">clk</text>
<path d="M1410 645h10" />
<text x="1418" y="644" fill="#1c1f28" stroke-width="0" font-size="10" text-anchor="end" dy="-1.33333">enable</text>
<path d="M1410 665h10" />
<text x="1418" y="664" fill="#1c1f28" stroke-width="0" font-size="10" text-anchor="end" dy="-1.33333">rst</text>
</g>
<g stroke="#1c1f28" stroke-width="3">
<path d="M1410 605h10" />
<text x="1418" y="604" fill="#1c1f28" stroke-width="0" font-size="10" text-anchor="end" dy="-1.33333">D[1:0]</text>
<path d="M1490 625h-10" />
<text x="1482" y="624" fill="#1c1f28" stroke-width="0" font-size="10" dy="-1.33333">Q[1:0]</text>
</g>
<g stroke="#1c1f28">
<path d="M1430 625h-10" />
<path d="M1430 645h-10" />
<path d="M1430 665h-10" />
</g>
<g stroke="#1c1f28" stroke-width="3">
<path d="M1430 605h-10" />
<path d="M1470 625h10" />
<path d="M1660 565v15h25h3l3 -1l2 -1l2 -2l3 -3l1 -2l1 -3v-3v-3l-1 -3l-1 -2l-2 -2l-3 -3l-2 -1l-3 -1h-3h-25z" stroke="none" fill="#e5c7ff" />
</g>
<g stroke="#575d6c">
<path d="M1660 565v15h25" />
<path d="M1685,580 A15,15 -3.14159 1,0 1685,550" />
<path d="M1685 550h-25v15" />
<text x="1662" y="549" fill="#1c1f28" stroke-width="0" dy="-1.6">c0_i</text>
<text x="1662" y="581" fill="#1c1f28" stroke-width="0" dy="9.6">RTL_AND</text>
</g>
<g stroke="#1c1f28">
<path d="M1650 555h10" />
<text x="1659" y="554" fill="#1c1f28" stroke-width="0" font-size="10" text-anchor="end" dy="-1.33333">I0</text>
<path d="M1650 575h10" />
<text x="1659" y="574" fill="#1c1f28" stroke-width="0" font-size="10" text-anchor="end" dy="-1.33333">I1</text>
<path d="M1710 565h-10" />
<text x="1701" y="564" fill="#1c1f28" stroke-width="0" font-size="10" dy="-1.33333">O</text>
<path d="M1660 835v15h25h3l3 -1l2 -1l2 -2l3 -3l1 -2l1 -3v-3v-3l-1 -3l-1 -2l-2 -2l-3 -3l-2 -1l-3 -1h-3h-25z" stroke="none" fill="#e5c7ff" />
</g>
<g stroke="#575d6c">
<path d="M1660 835v15h25" />
<path d="M1685,850 A15,15 -3.14159 1,0 1685,820" />
<path d="M1685 820h-25v15" />
<text x="1662" y="819" fill="#1c1f28" stroke-width="0" dy="-1.6">c0_i__0</text>
<text x="1662" y="851" fill="#1c1f28" stroke-width="0" dy="9.6">RTL_AND</text>
</g>
<g stroke="#1c1f28">
<path d="M1650 825h10" />
<text x="1659" y="824" fill="#1c1f28" stroke-width="0" font-size="10" text-anchor="end" dy="-1.33333">I0</text>
<path d="M1650 845h10" />
<text x="1659" y="844" fill="#1c1f28" stroke-width="0" font-size="10" text-anchor="end" dy="-1.33333">I1</text>
<path d="M1710 835h-10" />
<text x="1701" y="834" fill="#1c1f28" stroke-width="0" font-size="10" dy="-1.33333">O</text>
<path d="M1960 273h60v122h-60z" stroke="none" fill="#cde5ff" />
</g>
<g stroke="#575d6c">
<path d="M1960 273h60v122h-60z" />
</g>
<g stroke="#575d6c" stroke-width="3">
<path d="M1971 278v12" />
<path d="M1965 284h12" />
</g>
<g stroke="#575d6c">
<path d="M1963 276h16v16h-16z" />
<text x="1990" y="271" fill="#1c1f28" stroke-width="0" text-anchor="middle" dy="-1.6">data_out_mux</text>
<text x="1990" y="397" fill="#1c1f28" stroke-width="0" text-anchor="middle" dy="9.6">mux4v__parameterized0</text>
</g>
<g stroke="#1c1f28" stroke-width="3">
<path d="M1950 305h10" />
<text x="1958" y="304" fill="#1c1f28" stroke-width="0" font-size="10" text-anchor="end" dy="-1.33333">a[511:0]</text>
<path d="M1950 325h10" />
<text x="1958" y="324" fill="#1c1f28" stroke-width="0" font-size="10" text-anchor="end" dy="-1.33333">b[511:0]</text>
<path d="M1950 345h10" />
<text x="1958" y="344" fill="#1c1f28" stroke-width="0" font-size="10" text-anchor="end" dy="-1.33333">c[511:0]</text>
<path d="M1950 365h10" />
<text x="1958" y="364" fill="#1c1f28" stroke-width="0" font-size="10" text-anchor="end" dy="-1.33333">d[511:0]</text>
<path d="M2030 345h-10" />
<text x="2022" y="344" fill="#1c1f28" stroke-width="0" font-size="10" dy="-1.33333">out[511:0]</text>
<path d="M1950 385h10" />
<text x="1958" y="384" fill="#1c1f28" stroke-width="0" font-size="10" text-anchor="end" dy="-1.33333">sel[1:0]</text>
<path d="M1970 305h-10" />
<path d="M1970 325h-10" />
<path d="M1970 345h-10" />
<path d="M1970 365h-10" />
<path d="M2010 345h10" />
<path d="M1970 385h-10" />
<path d="M1960 783h60v82h-60z" stroke="none" fill="#cde5ff" />
</g>
<g stroke="#575d6c">
<path d="M1960 783h60v82h-60z" />
</g>
<g stroke="#575d6c" stroke-width="3">
<path d="M1971 788v12" />
<path d="M1965 794h12" />
</g>
<g stroke="#575d6c">
<path d="M1963 786h16v16h-16z" />
<text x="1990" y="781" fill="#1c1f28" stroke-width="0" text-anchor="middle" dy="-1.6">data_1_mux</text>
<text x="1990" y="867" fill="#1c1f28" stroke-width="0" text-anchor="middle" dy="9.6">mux2v__parameterized0</text>
</g>
<g stroke="#1c1f28">
<path d="M1950 855h10" />
<text x="1958" y="854" fill="#1c1f28" stroke-width="0" font-size="10" text-anchor="end" dy="-1.33333">sel</text>
</g>
<g stroke="#1c1f28" stroke-width="3">
<path d="M1950 815h10" />
<text x="1958" y="814" fill="#1c1f28" stroke-width="0" font-size="10" text-anchor="end" dy="-1.33333">a[511:0]</text>
<path d="M1950 835h10" />
<text x="1958" y="834" fill="#1c1f28" stroke-width="0" font-size="10" text-anchor="end" dy="-1.33333">b[511:0]</text>
<path d="M2030 835h-10" />
<text x="2022" y="834" fill="#1c1f28" stroke-width="0" font-size="10" dy="-1.33333">out[511:0]</text>
</g>
<g stroke="#1c1f28">
<path d="M1970 855h-10" />
</g>
<g stroke="#1c1f28" stroke-width="3">
<path d="M1970 815h-10" />
<path d="M1970 835h-10" />
<path d="M2010 835h10" />
<path d="M1960 1003h60v82h-60z" stroke="none" fill="#cde5ff" />
</g>
<g stroke="#575d6c">
<path d="M1960 1003h60v82h-60z" />
</g>
<g stroke="#575d6c" stroke-width="3">
<path d="M1971 1008v12" />
<path d="M1965 1014h12" />
</g>
<g stroke="#575d6c">
<path d="M1963 1006h16v16h-16z" />
<text x="1990" y="1001" fill="#1c1f28" stroke-width="0" text-anchor="middle" dy="-1.6">data_2_mux</text>
<text x="1990" y="1087" fill="#1c1f28" stroke-width="0" text-anchor="middle" dy="9.6">mux2v__parameterized0</text>
</g>
<g stroke="#1c1f28">
<path d="M1950 1075h10" />
<text x="1958" y="1074" fill="#1c1f28" stroke-width="0" font-size="10" text-anchor="end" dy="-1.33333">sel</text>
</g>
<g stroke="#1c1f28" stroke-width="3">
<path d="M1950 1035h10" />
<text x="1958" y="1034" fill="#1c1f28" stroke-width="0" font-size="10" text-anchor="end" dy="-1.33333">a[511:0]</text>
<path d="M1950 1055h10" />
<text x="1958" y="1054" fill="#1c1f28" stroke-width="0" font-size="10" text-anchor="end" dy="-1.33333">b[511:0]</text>
<path d="M2030 1055h-10" />
<text x="2022" y="1054" fill="#1c1f28" stroke-width="0" font-size="10" dy="-1.33333">out[511:0]</text>
</g>
<g stroke="#1c1f28">
<path d="M1970 1075h-10" />
</g>
<g stroke="#1c1f28" stroke-width="3">
<path d="M1970 1035h-10" />
<path d="M1970 1055h-10" />
<path d="M2010 1055h10" />
<path d="M1960 443h60v122h-60z" stroke="none" fill="#cde5ff" />
</g>
<g stroke="#575d6c">
<path d="M1960 443h60v122h-60z" />
</g>
<g stroke="#575d6c" stroke-width="3">
<path d="M1971 448v12" />
<path d="M1965 454h12" />
</g>
<g stroke="#575d6c">
<path d="M1963 446h16v16h-16z" />
<text x="1990" y="441" fill="#1c1f28" stroke-width="0" text-anchor="middle" dy="-1.6">req_load_mux</text>
<text x="1990" y="567" fill="#1c1f28" stroke-width="0" text-anchor="middle" dy="9.6">mux4v__parameterized1</text>
</g>
<g stroke="#1c1f28" stroke-width="3">
<path d="M1950 475h10" />
<text x="1958" y="474" fill="#1c1f28" stroke-width="0" font-size="10" text-anchor="end" dy="-1.33333">a</text>
<path d="M1950 495h10" />
<text x="1958" y="494" fill="#1c1f28" stroke-width="0" font-size="10" text-anchor="end" dy="-1.33333">b</text>
<path d="M1950 515h10" />
<text x="1958" y="514" fill="#1c1f28" stroke-width="0" font-size="10" text-anchor="end" dy="-1.33333">c</text>
<path d="M1950 535h10" />
<text x="1958" y="534" fill="#1c1f28" stroke-width="0" font-size="10" text-anchor="end" dy="-1.33333">d</text>
<path d="M2030 515h-10" />
<text x="2022" y="514" fill="#1c1f28" stroke-width="0" font-size="10" dy="-1.33333">out</text>
<path d="M1950 555h10" />
<text x="1958" y="554" fill="#1c1f28" stroke-width="0" font-size="10" text-anchor="end" dy="-1.33333">sel[1:0]</text>
<path d="M1970 475h-10" />
<path d="M1970 495h-10" />
<path d="M1970 515h-10" />
<path d="M1970 535h-10" />
<path d="M2010 515h10" />
<path d="M1970 555h-10" />
<path d="M1960 613h60v122h-60z" stroke="none" fill="#cde5ff" />
</g>
<g stroke="#575d6c">
<path d="M1960 613h60v122h-60z" />
</g>
<g stroke="#575d6c" stroke-width="3">
<path d="M1971 618v12" />
<path d="M1965 624h12" />
</g>
<g stroke="#575d6c">
<path d="M1963 616h16v16h-16z" />
<text x="1990" y="611" fill="#1c1f28" stroke-width="0" text-anchor="middle" dy="-1.6">req_store_mux</text>
<text x="1990" y="737" fill="#1c1f28" stroke-width="0" text-anchor="middle" dy="9.6">mux4v__parameterized1</text>
</g>
<g stroke="#1c1f28" stroke-width="3">
<path d="M1950 645h10" />
<text x="1958" y="644" fill="#1c1f28" stroke-width="0" font-size="10" text-anchor="end" dy="-1.33333">a</text>
<path d="M1950 665h10" />
<text x="1958" y="664" fill="#1c1f28" stroke-width="0" font-size="10" text-anchor="end" dy="-1.33333">b</text>
<path d="M1950 685h10" />
<text x="1958" y="684" fill="#1c1f28" stroke-width="0" font-size="10" text-anchor="end" dy="-1.33333">c</text>
<path d="M1950 705h10" />
<text x="1958" y="704" fill="#1c1f28" stroke-width="0" font-size="10" text-anchor="end" dy="-1.33333">d</text>
<path d="M2030 685h-10" />
<text x="2022" y="684" fill="#1c1f28" stroke-width="0" font-size="10" dy="-1.33333">out</text>
<path d="M1950 725h10" />
<text x="1958" y="724" fill="#1c1f28" stroke-width="0" font-size="10" text-anchor="end" dy="-1.33333">sel[1:0]</text>
<path d="M1970 645h-10" />
<path d="M1970 665h-10" />
<path d="M1970 685h-10" />
<path d="M1970 705h-10" />
<path d="M2010 685h10" />
<path d="M1970 725h-10" />
<path d="M1960 945v15h25h3l3 -1l2 -1l2 -2l3 -3l1 -2l1 -3v-3v-3l-1 -3l-1 -2l-2 -2l-3 -3l-2 -1l-3 -1h-3h-25z" stroke="none" fill="#e5c7ff" />
</g>
<g stroke="#575d6c">
<path d="M1960 945v15h25" />
<path d="M1985,960 A15,15 -3.14159 1,0 1985,930" />
<path d="M1985 930h-25v15" />
<text x="1962" y="929" fill="#1c1f28" stroke-width="0" dy="-1.6">resp1[mem_ready]0_i</text>
<text x="1962" y="961" fill="#1c1f28" stroke-width="0" dy="9.6">RTL_AND</text>
</g>
<g stroke="#1c1f28">
<path d="M1950 935h10" />
<text x="1959" y="934" fill="#1c1f28" stroke-width="0" font-size="10" text-anchor="end" dy="-1.33333">I0</text>
<path d="M1950 955h10" />
<text x="1959" y="954" fill="#1c1f28" stroke-width="0" font-size="10" text-anchor="end" dy="-1.33333">I1</text>
<path d="M2010 945h-10" />
<text x="2001" y="944" fill="#1c1f28" stroke-width="0" font-size="10" dy="-1.33333">O</text>
<path d="M1960 1165v15h25h3l3 -1l2 -1l2 -2l3 -3l1 -2l1 -3v-3v-3l-1 -3l-1 -2l-2 -2l-3 -3l-2 -1l-3 -1h-3h-25z" stroke="none" fill="#e5c7ff" />
</g>
<g stroke="#575d6c">
<path d="M1960 1165v15h25" />
<path d="M1985,1180 A15,15 -3.14159 1,0 1985,1150" />
<path d="M1985 1150h-25v15" />
<text x="1962" y="1149" fill="#1c1f28" stroke-width="0" dy="-1.6">resp2[mem_ready]0_i</text>
<text x="1962" y="1181" fill="#1c1f28" stroke-width="0" dy="9.6">RTL_AND</text>
</g>
<g stroke="#1c1f28">
<path d="M1950 1155h10" />
<text x="1959" y="1154" fill="#1c1f28" stroke-width="0" font-size="10" text-anchor="end" dy="-1.33333">I0</text>
<path d="M1950 1175h10" />
<text x="1959" y="1174" fill="#1c1f28" stroke-width="0" font-size="10" text-anchor="end" dy="-1.33333">I1</text>
<path d="M2010 1165h-10" />
<text x="2001" y="1164" fill="#1c1f28" stroke-width="0" font-size="10" dy="-1.33333">O</text>
<path d="M1660 935v15h25h3l3 -1l2 -1l2 -2l3 -3l1 -2l1 -3v-3v-3l-1 -3l-1 -2l-2 -2l-3 -3l-2 -1l-3 -1h-3h-25z" stroke="none" fill="#e5c7ff" />
</g>
<g stroke="#575d6c">
<path d="M1660 935v15h25" />
<path d="M1685,950 A15,15 -3.14159 1,0 1685,920" />
<path d="M1685 920h-25v15" />
<text x="1662" y="919" fill="#1c1f28" stroke-width="0" dy="-1.6">sel0_i</text>
<text x="1662" y="951" fill="#1c1f28" stroke-width="0" dy="9.6">RTL_AND</text>
</g>
<g stroke="#1c1f28">
<path d="M1650 925h10" />
<text x="1659" y="924" fill="#1c1f28" stroke-width="0" font-size="10" text-anchor="end" dy="-1.33333">I0</text>
<path d="M1650 945h10" />
<text x="1659" y="944" fill="#1c1f28" stroke-width="0" font-size="10" text-anchor="end" dy="-1.33333">I1</text>
<path d="M1710 935h-10" />
<text x="1701" y="934" fill="#1c1f28" stroke-width="0" font-size="10" dy="-1.33333">O</text>
<path d="M1660 1035v15h25h3l3 -1l2 -1l2 -2l3 -3l1 -2l1 -3v-3v-3l-1 -3l-1 -2l-2 -2l-3 -3l-2 -1l-3 -1h-3h-25z" stroke="none" fill="#e5c7ff" />
</g>
<g stroke="#575d6c">
<path d="M1660 1035v15h25" />
<path d="M1685,1050 A15,15 -3.14159 1,0 1685,1020" />
<path d="M1685 1020h-25v15" />
<text x="1662" y="1019" fill="#1c1f28" stroke-width="0" dy="-1.6">sel0_i__0</text>
<text x="1662" y="1051" fill="#1c1f28" stroke-width="0" dy="9.6">RTL_AND</text>
</g>
<g stroke="#1c1f28">
<path d="M1650 1025h10" />
<text x="1659" y="1024" fill="#1c1f28" stroke-width="0" font-size="10" text-anchor="end" dy="-1.33333">I0</text>
<path d="M1650 1045h10" />
<text x="1659" y="1044" fill="#1c1f28" stroke-width="0" font-size="10" text-anchor="end" dy="-1.33333">I1</text>
<path d="M1710 1035h-10" />
<text x="1701" y="1034" fill="#1c1f28" stroke-width="0" font-size="10" dy="-1.33333">O</text>
</g>
<g stroke="#575d6c">
<path d="M1340 545v-4" />
<path d="M1332 541h16" />
<path d="M1872 895h16" />
<path d="M1875 898h10" />
<path d="M1878 901h4" />
<path d="M1872 1115h16" />
<path d="M1875 1118h10" />
<path d="M1878 1121h4" />
</g>
<g stroke="#009633" stroke-width="3">
<path d="M220 608v-123h330" />
<path d="M550 482v73h170v223" />
<path d="M720 735h390v10h440" />
<path d="M1547 682h7v7h-7z" stroke="none" fill="#009633" />
<path d="M1547 742h7v7h-7z" stroke="none" fill="#009633" />
<path d="M1950 215h-130v510h130" />
<path d="M1820 385h130" />
<path d="M1820 555h130" />
<path d="M717 732h7v7h-7z" stroke="none" fill="#009633" />
<path d="M1490 625h60v403" />
<path d="M1550 685h270" />
<path d="M1817 382h7v7h-7z" stroke="none" fill="#009633" />
<path d="M1817 552h7v7h-7z" stroke="none" fill="#009633" />
<path d="M1817 682h7v7h-7z" stroke="none" fill="#009633" />
</g>
<g>
<path d="M550 485h40" />
<path d="M220 605h40" />
<path d="M720 575h80" />
<path d="M1550 925h100" />
<path d="M1550 1025h100" />
<path d="M720 775h80" />
</g>
<g stroke="black" stroke-width="3">
<path d="M549 480v10l11 -5" stroke="none" fill="black" />
<path d="M219 600v10l11 -5" stroke="none" fill="black" />
<path d="M1549 920v10l11 -5" stroke="none" fill="black" />
<path d="M1549 1020v10l11 -5" stroke="none" fill="black" />
<path d="M719 570v10l11 -5" stroke="none" fill="black" />
<path d="M719 770v10l11 -5" stroke="none" fill="black" />
</g>
<g stroke="#009633" stroke-width="3">
<path d="M1280 572v106" />
<path d="M1280 605h130" />
<path d="M1277 602h7v7h-7z" stroke="none" fill="#009633" />
</g>
<g>
<path d="M1230 575h50" />
<path d="M1230 675h50" />
</g>
<g stroke="black" stroke-width="3">
<path d="M1282 570v10l-12 -5" stroke="none" fill="black" />
<path d="M1282 670v10l-12 -5" stroke="none" fill="black" />
</g>
<g stroke="#009633" stroke-width="3">
<path d="M2030 175h110" />
<path d="M2030 345h110" />
<path d="M200 175h1560v-20h190" />
<path d="M200 265h1600v60h150" />
<path d="M200 325h1580v-150h170" />
<path d="M200 345h1750" />
<path d="M200 985h1660" />
<path d="M1857 982h7v7h-7z" stroke="none" fill="#009633" />
<path d="M1950 835h-90v220h90" />
<path d="M2030 835h110" />
<path d="M2030 1055h110" />
</g>
<g>
<path d="M1950 1035h-70v80" />
<path d="M1950 135h-70v760" />
<path d="M1880 195h70" />
<path d="M1880 305h70" />
<path d="M1880 365h70" />
<path d="M1880 475h70" />
<path d="M1880 535h70" />
<path d="M1880 645h70" />
<path d="M1880 705h70" />
<path d="M1880 815h70" />
<path d="M1878 193h5v5h-5z" stroke="none" fill="#8bc34a" />
<path d="M1878 303h5v5h-5z" stroke="none" fill="#8bc34a" />
<path d="M1878 363h5v5h-5z" stroke="none" fill="#8bc34a" />
<path d="M1878 473h5v5h-5z" stroke="none" fill="#8bc34a" />
<path d="M1878 533h5v5h-5z" stroke="none" fill="#8bc34a" />
<path d="M1878 643h5v5h-5z" stroke="none" fill="#8bc34a" />
<path d="M1878 703h5v5h-5z" stroke="none" fill="#8bc34a" />
<path d="M1878 813h5v5h-5z" stroke="none" fill="#8bc34a" />
<path d="M1340 545v100h70" />
<path d="M1050 675h40v-10h80" />
<path d="M1050 575h40v-10h80" />
<path d="M860 585h50v80h80" />
<path d="M860 475h90v110h40" />
<path d="M860 685h130" />
<path d="M860 785h70v-220h60" />
<path d="M650 605h50v70h100" />
<path d="M650 415h70v50h80" />
<path d="M650 485h150" />
<path d="M650 695h150" />
<path d="M800 595h-60v200h60" />
<path d="M650 795h90" />
<path d="M738 793h5v5h-5z" stroke="none" fill="#8bc34a" />
<path d="M460 595h130" />
<path d="M460 525h50v90h80" />
<path d="M320 705h40v-120h40" />
<path d="M320 605h80" />
<path d="M1710 495h240" />
<path d="M1710 635h50v30h190" />
<path d="M200 155h1120v470h90" />
<path d="M1710 565h50v-50h190" />
<path d="M1710 835h130v-150h110" />
<path d="M1050 795h80v-210h40" />
<path d="M1130 725h480" />
<path d="M1610 845h40" />
<path d="M1608 573h5v5h-5z" stroke="none" fill="#8bc34a" />
<path d="M1608 643h5v5h-5z" stroke="none" fill="#8bc34a" />
<path d="M1608 723h5v5h-5z" stroke="none" fill="#8bc34a" />
<path d="M1608 843h5v5h-5z" stroke="none" fill="#8bc34a" />
<path d="M1130 685h40" />
<path d="M1128 723h5v5h-5z" stroke="none" fill="#8bc34a" />
<path d="M1128 683h5v5h-5z" stroke="none" fill="#8bc34a" />
<path d="M1650 505h-40v380h170v290h170" />
<path d="M1780 955h170" />
<path d="M1778 953h5v5h-5z" stroke="none" fill="#8bc34a" />
<path d="M1610 575h40" />
<path d="M1610 645h40" />
<path d="M1950 855h-130v80h130" />
<path d="M1710 935h110" />
<path d="M1818 933h5v5h-5z" stroke="none" fill="#8bc34a" />
<path d="M2030 515h110" />
<path d="M2030 685h110" />
<path d="M200 285h160v240h40" />
<path d="M360 365h190v40h40" />
<path d="M550 365h1060v120h40" />
<path d="M358 363h5v5h-5z" stroke="none" fill="#8bc34a" />
<path d="M548 363h5v5h-5z" stroke="none" fill="#8bc34a" />
<path d="M200 305h20v80h310v310h60" />
<path d="M530 425h60" />
<path d="M530 535h400v-10h660v100h60" />
<path d="M528 423h5v5h-5z" stroke="none" fill="#8bc34a" />
<path d="M528 533h5v5h-5z" stroke="none" fill="#8bc34a" />
<path d="M200 655h20v40h40" />
<path d="M220 655h540v-20h190v-10h350v80h270v-150h80" />
<path d="M218 653h5v5h-5z" stroke="none" fill="#8bc34a" />
<path d="M200 715h20v130h1350v-20h80" />
<path d="M220 715h40" />
<path d="M218 713h5v5h-5z" stroke="none" fill="#8bc34a" />
<path d="M200 865h750v-110h140v10h250v-100h70" />
<path d="M950 795h40" />
<path d="M948 793h5v5h-5z" stroke="none" fill="#8bc34a" />
<path d="M200 1005h350" />
<path d="M548 1003h5v5h-5z" stroke="none" fill="#8bc34a" />
<path d="M590 795h-40v210h1060" />
<path d="M1608 1003h5v5h-5z" stroke="none" fill="#8bc34a" />
<path d="M1650 945h-40v100h40" />
<path d="M2010 945h130" />
<path d="M2010 1165h130" />
<path d="M1710 1035h50v120h190" />
<path d="M1760 1075h190" />
<path d="M1758 1073h5v5h-5z" stroke="none" fill="#8bc34a" />
</g>
</g>
</svg>
