<?xml version="1.0" encoding="UTF-8" standalone="no"?>
<svg viewBox="0 0 839 705"
     preserveAspectRatio="xMidYMid meet"
     version="1.1"
     baseProfile="full"
     xmlns="http://www.w3.org/2000/svg"
     xmlns:xlink="http://www.w3.org/1999/xlink"
     xmlns:ev="http://www.w3.org/2001/xml-events"
     xml:space="preserve">
<title>SOC</title>
<desc>Nlview schematic (SVG)</desc>
<clipPath id="clippingbbox">
<rect x="0" y="0" width="839" height="705" />
</clipPath>
<g stroke="#8bc34a"
   stroke-width="1"
   stroke-linecap="butt"
   stroke-linejoin="miter"
   stroke-miterlimit="4"
   stroke-dasharray="none"
   stroke-dashoffset="0"
   fill="none"
   font-family="Helvetica"
   font-style="normal"
   font-size="12"
   writing-mode="lr-tb"
   cursor="crosshair"
   clip-path="url(#clippingbbox)">
<path d="M0 0h838v706h-838z" stroke="none" fill="white" />
<path d="M18 29h803l3 1l3 1l1 3l1 3v630l-1 3l-1 3l-3 1l-3 1h-803l-3 -1l-3 -1l-1 -3l-1 -3v-630l1 -3l1 -3l3 -1z" stroke="none" fill="white" />
<g stroke="#575d6c">
<path d="M18 29h803" />
<path d="M821,29 A7.83511,7.83511 1.61334 0,1 829,37" />
<path d="M829 37v630" />
<path d="M829,667 A7.83511,7.83511 1.61334 0,1 821,675" />
<path d="M821 675h-803" />
<path d="M18,675 A7.83511,7.83511 1.61334 0,1 10,667" />
<path d="M10 667v-630" />
<path d="M10,37 A7.83511,7.83511 1.61334 0,1 18,29" />
<text x="419" y="27" fill="#1c1f28" stroke-width="0" text-anchor="middle" dy="-1.6">clk_wiz_inst</text>
</g>
<g stroke="#575d6c" stroke-width="3">
<path d="M15 40h12" />
</g>
<g stroke="#575d6c">
<path d="M13 32h16v16h-16z" />
<text x="419" y="677" fill="#1c1f28" stroke-width="0" text-anchor="middle" dy="9.6">clk_wiz_0</text>
<path d="M88 75h664l3 1l3 1l1 3l1 3v554l-1 3l-1 3l-3 1l-3 1h-664l-3 -1l-3 -1l-1 -3l-1 -3v-554l1 -3l1 -3l3 -1z" stroke="none" fill="white" />
<path d="M88 75h664" />
<path d="M752,75 A7.83511,7.83511 1.61334 0,1 760,83" />
<path d="M760 83v554" />
<path d="M760,637 A7.83511,7.83511 1.61334 0,1 752,645" />
<path d="M752 645h-664" />
<path d="M88,645 A7.83511,7.83511 1.61334 0,1 80,637" />
<path d="M80 637v-554" />
<path d="M80,83 A7.83511,7.83511 1.61334 0,1 88,75" />
</g>
<g stroke="#575d6c" stroke-width="3">
<path d="M85 86h12" />
</g>
<g stroke="#575d6c">
<path d="M83 78h16v16h-16z" />
<text x="420" y="73" fill="#1c1f28" stroke-width="0" text-anchor="middle" dy="-1.6">inst</text>
<text x="420" y="647" fill="#1c1f28" stroke-width="0" text-anchor="middle" dy="9.6">clk_wiz_0_clk_wiz</text>
</g>
<g stroke="#1c1f28">
<path d="M70 115h10" />
<text x="78" y="113" fill="#1c1f28" stroke-width="0" font-size="10" text-anchor="end" dy="-1.33333">clk_in1</text>
<path d="M770 305h-10" />
<text x="762" y="303" fill="#1c1f28" stroke-width="0" font-size="10" dy="-1.33333">clk_out1</text>
<path d="M770 565h-10" />
<text x="762" y="563" fill="#1c1f28" stroke-width="0" font-size="10" dy="-1.33333">locked</text>
<path d="M70 525h10" />
<text x="78" y="523" fill="#1c1f28" stroke-width="0" font-size="10" text-anchor="end" dy="-1.33333">resetn</text>
<path d="M90 115h-10" />
<path d="M750 305h10" />
<path d="M750 565h10" />
<path d="M90 525h-10" />
<path d="M180 265v-12l30 12l-30 12z" stroke="none" fill="#e5c7ff" />
</g>
<g stroke="#575d6c">
<path d="M180 265v-12l30 12l-30 12z" />
<text x="182" y="251" fill="#1c1f28" stroke-width="0" dy="-1.6">clkf_buf</text>
<text x="182" y="279" fill="#1c1f28" stroke-width="0" dy="9.6">BUFG</text>
</g>
<g stroke="#1c1f28">
<path d="M220 265h-10" />
<text x="212" y="264" fill="#1c1f28" stroke-width="0" font-size="10" dy="-1.33333">O</text>
<path d="M170 265h10" />
<text x="178" y="264" fill="#1c1f28" stroke-width="0" font-size="10" text-anchor="end" dy="-1.33333">I</text>
<path d="M180 115v-12l30 12l-30 12z" stroke="none" fill="#e5c7ff" />
</g>
<g stroke="#575d6c">
<path d="M180 115v-12l30 12l-30 12z" />
<text x="182" y="101" fill="#1c1f28" stroke-width="0" dy="-1.6">clkin1_ibufg</text>
<text x="182" y="129" fill="#1c1f28" stroke-width="0" dy="9.6">IBUF</text>
</g>
<g stroke="#1c1f28">
<path d="M220 115h-10" />
<text x="212" y="114" fill="#1c1f28" stroke-width="0" font-size="10" dy="-1.33333">O</text>
<path d="M170 115h10" />
<text x="178" y="114" fill="#1c1f28" stroke-width="0" font-size="10" text-anchor="end" dy="-1.33333">I</text>
<path d="M630 305v-12l30 12l-30 12z" stroke="none" fill="#e5c7ff" />
</g>
<g stroke="#575d6c">
<path d="M630 305v-12l30 12l-30 12z" />
<text x="632" y="291" fill="#1c1f28" stroke-width="0" dy="-1.6">clkout1_buf</text>
<text x="632" y="319" fill="#1c1f28" stroke-width="0" dy="9.6">BUFG</text>
</g>
<g stroke="#1c1f28">
<path d="M670 305h-10" />
<text x="662" y="304" fill="#1c1f28" stroke-width="0" font-size="10" dy="-1.33333">O</text>
<path d="M620 305h10" />
<text x="628" y="304" fill="#1c1f28" stroke-width="0" font-size="10" text-anchor="end" dy="-1.33333">I</text>
<path d="M360 215h180v380h-180z" stroke="none" fill="#e5c7ff" />
</g>
<g stroke="#575d6c">
<path d="M360 215h180v380h-180z" />
<text x="450" y="213" fill="#1c1f28" stroke-width="0" text-anchor="middle" dy="-1.6">mmcm_adv_inst</text>
<text x="450" y="597" fill="#1c1f28" stroke-width="0" text-anchor="middle" dy="9.6">MMCME2_ADV</text>
</g>
<g stroke="#1c1f28">
<path d="M550 225h-10" />
<text x="538" y="225" fill="#1c1f28" stroke-width="0" font-size="10" text-anchor="end" dy="3.66667">CLKFBOUT</text>
<path d="M550 245h-10" />
<text x="538" y="245" fill="#1c1f28" stroke-width="0" font-size="10" text-anchor="end" dy="3.66667">CLKFBOUTB</text>
<text x="542" y="244" fill="black" stroke-width="0" font-size="8" dy="-1.06667">n/c</text>
<path d="M550 265h-10" />
<text x="538" y="265" fill="#1c1f28" stroke-width="0" font-size="10" text-anchor="end" dy="3.66667">CLKFBSTOPPED</text>
<text x="542" y="264" fill="black" stroke-width="0" font-size="8" dy="-1.06667">n/c</text>
<path d="M550 285h-10" />
<text x="538" y="285" fill="#1c1f28" stroke-width="0" font-size="10" text-anchor="end" dy="3.66667">CLKINSTOPPED</text>
<text x="542" y="284" fill="black" stroke-width="0" font-size="8" dy="-1.06667">n/c</text>
<path d="M550 305h-10" />
<text x="538" y="305" fill="#1c1f28" stroke-width="0" font-size="10" text-anchor="end" dy="3.66667">CLKOUT0</text>
<path d="M550 325h-10" />
<text x="538" y="325" fill="#1c1f28" stroke-width="0" font-size="10" text-anchor="end" dy="3.66667">CLKOUT0B</text>
<text x="542" y="324" fill="black" stroke-width="0" font-size="8" dy="-1.06667">n/c</text>
<path d="M550 345h-10" />
<text x="538" y="345" fill="#1c1f28" stroke-width="0" font-size="10" text-anchor="end" dy="3.66667">CLKOUT1</text>
<text x="542" y="344" fill="black" stroke-width="0" font-size="8" dy="-1.06667">n/c</text>
<path d="M550 365h-10" />
<text x="538" y="365" fill="#1c1f28" stroke-width="0" font-size="10" text-anchor="end" dy="3.66667">CLKOUT1B</text>
<text x="542" y="364" fill="black" stroke-width="0" font-size="8" dy="-1.06667">n/c</text>
<path d="M550 385h-10" />
<text x="538" y="385" fill="#1c1f28" stroke-width="0" font-size="10" text-anchor="end" dy="3.66667">CLKOUT2</text>
<text x="542" y="384" fill="black" stroke-width="0" font-size="8" dy="-1.06667">n/c</text>
<path d="M550 405h-10" />
<text x="538" y="405" fill="#1c1f28" stroke-width="0" font-size="10" text-anchor="end" dy="3.66667">CLKOUT2B</text>
<text x="542" y="404" fill="black" stroke-width="0" font-size="8" dy="-1.06667">n/c</text>
<path d="M550 425h-10" />
<text x="538" y="425" fill="#1c1f28" stroke-width="0" font-size="10" text-anchor="end" dy="3.66667">CLKOUT3</text>
<text x="542" y="424" fill="black" stroke-width="0" font-size="8" dy="-1.06667">n/c</text>
<path d="M550 445h-10" />
<text x="538" y="445" fill="#1c1f28" stroke-width="0" font-size="10" text-anchor="end" dy="3.66667">CLKOUT3B</text>
<text x="542" y="444" fill="black" stroke-width="0" font-size="8" dy="-1.06667">n/c</text>
<path d="M550 465h-10" />
<text x="538" y="465" fill="#1c1f28" stroke-width="0" font-size="10" text-anchor="end" dy="3.66667">CLKOUT4</text>
<text x="542" y="464" fill="black" stroke-width="0" font-size="8" dy="-1.06667">n/c</text>
<path d="M550 485h-10" />
<text x="538" y="485" fill="#1c1f28" stroke-width="0" font-size="10" text-anchor="end" dy="3.66667">CLKOUT5</text>
<text x="542" y="484" fill="black" stroke-width="0" font-size="8" dy="-1.06667">n/c</text>
<path d="M550 505h-10" />
<text x="538" y="505" fill="#1c1f28" stroke-width="0" font-size="10" text-anchor="end" dy="3.66667">CLKOUT6</text>
<text x="542" y="504" fill="black" stroke-width="0" font-size="8" dy="-1.06667">n/c</text>
<path d="M550 545h-10" />
<text x="538" y="545" fill="#1c1f28" stroke-width="0" font-size="10" text-anchor="end" dy="3.66667">DRDY</text>
<text x="542" y="544" fill="black" stroke-width="0" font-size="8" dy="-1.06667">n/c</text>
<path d="M550 565h-10" />
<text x="538" y="565" fill="#1c1f28" stroke-width="0" font-size="10" text-anchor="end" dy="3.66667">LOCKED</text>
<path d="M550 585h-10" />
<text x="538" y="585" fill="#1c1f28" stroke-width="0" font-size="10" text-anchor="end" dy="3.66667">PSDONE</text>
<text x="542" y="584" fill="black" stroke-width="0" font-size="8" dy="-1.06667">n/c</text>
<path d="M350 265h10" />
<text x="362" y="265" fill="#1c1f28" stroke-width="0" font-size="10" dy="3.66667">CLKFBIN</text>
<path d="M350 305h10" />
<text x="362" y="305" fill="#1c1f28" stroke-width="0" font-size="10" dy="3.66667">CLKIN1</text>
<path d="M350 325h10" />
<text x="362" y="325" fill="#1c1f28" stroke-width="0" font-size="10" dy="3.66667">CLKIN2</text>
<path d="M350 285h10" />
<text x="362" y="285" fill="#1c1f28" stroke-width="0" font-size="10" dy="3.66667">CLKINSEL</text>
<path d="M350 365h10" />
<text x="362" y="365" fill="#1c1f28" stroke-width="0" font-size="10" dy="3.66667">DCLK</text>
<path d="M350 385h10" />
<text x="362" y="385" fill="#1c1f28" stroke-width="0" font-size="10" dy="3.66667">DEN</text>
<path d="M350 425h10" />
<text x="362" y="425" fill="#1c1f28" stroke-width="0" font-size="10" dy="3.66667">DWE</text>
<path d="M350 445h10" />
<text x="362" y="445" fill="#1c1f28" stroke-width="0" font-size="10" dy="3.66667">PSCLK</text>
<path d="M350 465h10" />
<text x="362" y="465" fill="#1c1f28" stroke-width="0" font-size="10" dy="3.66667">PSEN</text>
<path d="M350 485h10" />
<text x="362" y="485" fill="#1c1f28" stroke-width="0" font-size="10" dy="3.66667">PSINCDEC</text>
<path d="M350 505h10" />
<text x="362" y="505" fill="#1c1f28" stroke-width="0" font-size="10" dy="3.66667">PWRDWN</text>
<path d="M350 525h10" />
<text x="362" y="525" fill="#1c1f28" stroke-width="0" font-size="10" dy="3.66667">RST</text>
</g>
<g stroke="#1c1f28" stroke-width="3">
<path d="M550 525h-10" />
<text x="538" y="525" fill="#1c1f28" stroke-width="0" font-size="10" text-anchor="end" dy="3.66667">DO[15:0]</text>
<text x="542" y="524" fill="black" stroke-width="0" font-size="8" dy="-1.06667">n/c</text>
<path d="M350 345h10" />
<text x="362" y="345" fill="#1c1f28" stroke-width="0" font-size="10" dy="3.66667">DADDR[6:0]</text>
<path d="M350 405h10" />
<text x="362" y="405" fill="#1c1f28" stroke-width="0" font-size="10" dy="3.66667">DI[15:0]</text>
<path d="M180 515h60v20h-60z" stroke="none" fill="#e5c7ff" />
</g>
<g stroke="#575d6c">
<path d="M180 515h60v20h-60z" />
<text x="210" y="513" fill="#1c1f28" stroke-width="0" text-anchor="middle" dy="-1.6">mmcm_adv_inst_i_1</text>
<text x="210" y="537" fill="#1c1f28" stroke-width="0" text-anchor="middle" dy="9.6">LUT1</text>
</g>
<g stroke="#1c1f28">
<path d="M250 525h-10" />
<text x="238" y="525" fill="#1c1f28" stroke-width="0" font-size="10" text-anchor="end" dy="3.66667">O</text>
<path d="M170 525h10" />
<text x="182" y="525" fill="#1c1f28" stroke-width="0" font-size="10" dy="3.66667">I0</text>
</g>
<g stroke="#575d6c">
<path d="M330 185v-4" />
<path d="M322 181h16" />
<path d="M322 625h16" />
<path d="M325 628h10" />
<path d="M328 631h4" />
</g>
<g>
<path d="M350 325h-20v300" />
<path d="M330 345h20" />
<path d="M330 365h20" />
<path d="M330 385h20" />
<path d="M330 405h20" />
<path d="M330 425h20" />
<path d="M330 445h20" />
<path d="M330 465h20" />
<path d="M330 485h20" />
<path d="M330 505h20" />
<path d="M328 343h5v5h-5z" stroke="none" fill="#8bc34a" />
<path d="M328 363h5v5h-5z" stroke="none" fill="#8bc34a" />
<path d="M328 383h5v5h-5z" stroke="none" fill="#8bc34a" />
<path d="M328 403h5v5h-5z" stroke="none" fill="#8bc34a" />
<path d="M328 423h5v5h-5z" stroke="none" fill="#8bc34a" />
<path d="M328 443h5v5h-5z" stroke="none" fill="#8bc34a" />
<path d="M328 463h5v5h-5z" stroke="none" fill="#8bc34a" />
<path d="M328 483h5v5h-5z" stroke="none" fill="#8bc34a" />
<path d="M328 503h5v5h-5z" stroke="none" fill="#8bc34a" />
<path d="M330 185v100h20" />
<path d="M90 115h80" />
<path d="M220 115h90v190h40" />
<path d="M670 305h80" />
<path d="M550 305h70" />
<path d="M220 265h130" />
<path d="M170 265h-60v-100h480v60h-40" />
<path d="M550 565h200" />
<path d="M250 525h100" />
<path d="M90 525h80" />
</g>
</g>
</svg>
