<?xml version="1.0" encoding="UTF-8" standalone="no"?>
<svg viewBox="0 0 2631 675"
     preserveAspectRatio="xMidYMid meet"
     version="1.1"
     baseProfile="full"
     xmlns="http://www.w3.org/2000/svg"
     xmlns:xlink="http://www.w3.org/1999/xlink"
     xmlns:ev="http://www.w3.org/2001/xml-events"
     xml:space="preserve">
<title>SOC</title>
<desc>Nlview schematic (SVG)</desc>
<clipPath id="clippingbbox">
<rect x="0" y="0" width="2631" height="675" />
</clipPath>
<g stroke="#8bc34a"
   stroke-width="1"
   stroke-linecap="butt"
   stroke-linejoin="miter"
   stroke-miterlimit="4"
   stroke-dasharray="none"
   stroke-dashoffset="0"
   fill="none"
   font-family="Helvetica"
   font-style="normal"
   font-size="12"
   writing-mode="lr-tb"
   cursor="crosshair"
   clip-path="url(#clippingbbox)">
<path d="M0 0h2630v676h-2630z" stroke="none" fill="white" />
<path d="M18 29h2595l3 1l3 1l1 3l1 3v600l-1 3l-1 3l-3 1l-3 1h-2595l-3 -1l-3 -1l-1 -3l-1 -3v-600l1 -3l1 -3l3 -1z" stroke="none" fill="white" />
<g stroke="#575d6c">
<path d="M18 29h2595" />
<path d="M2613,29 A7.83511,7.83511 1.61334 0,1 2621,37" />
<path d="M2621 37v600" />
<path d="M2621,637 A7.83511,7.83511 1.61334 0,1 2613,645" />
<path d="M2613 645h-2595" />
<path d="M18,645 A7.83511,7.83511 1.61334 0,1 10,637" />
<path d="M10 637v-600" />
<path d="M10,37 A7.83511,7.83511 1.61334 0,1 18,29" />
<text x="1315" y="27" fill="#1c1f28" stroke-width="0" text-anchor="middle" dy="-1.6">core</text>
</g>
<g stroke="#575d6c" stroke-width="3">
<path d="M15 40h12" />
</g>
<g stroke="#575d6c">
<path d="M13 32h16v16h-16z" />
<text x="1315" y="647" fill="#1c1f28" stroke-width="0" text-anchor="middle" dy="9.6">core</text>
<path d="M188 75h2294l3 1l3 1l1 3l1 3v524l-1 3l-1 3l-3 1l-3 1h-2294l-3 -1l-3 -1l-1 -3l-1 -3v-524l1 -3l1 -3l3 -1z" stroke="none" fill="white" />
<path d="M188 75h2294" />
<path d="M2482,75 A7.83511,7.83511 1.61334 0,1 2490,83" />
<path d="M2490 83v524" />
<path d="M2490,607 A7.83511,7.83511 1.61334 0,1 2482,615" />
<path d="M2482 615h-2294" />
<path d="M188,615 A7.83511,7.83511 1.61334 0,1 180,607" />
<path d="M180 607v-524" />
<path d="M180,83 A7.83511,7.83511 1.61334 0,1 188,75" />
</g>
<g stroke="#575d6c" stroke-width="3">
<path d="M185 86h12" />
</g>
<g stroke="#575d6c">
<path d="M183 78h16v16h-16z" />
<text x="1335" y="73" fill="#1c1f28" stroke-width="0" text-anchor="middle" dy="-1.6">branch_unit</text>
<text x="1335" y="617" fill="#1c1f28" stroke-width="0" text-anchor="middle" dy="9.6">core_branch</text>
</g>
<g stroke="#1c1f28">
<path d="M170 155h10" />
<text x="178" y="153" fill="#1c1f28" stroke-width="0" font-size="10" text-anchor="end" dy="-1.33333">EX_regs[BAL]</text>
<path d="M170 175h10" />
<text x="178" y="173" fill="#1c1f28" stroke-width="0" font-size="10" text-anchor="end" dy="-1.33333">EX_regs[BC]</text>
<path d="M170 195h10" />
<text x="178" y="193" fill="#1c1f28" stroke-width="0" font-size="10" text-anchor="end" dy="-1.33333">EX_regs[BEQ]</text>
<path d="M170 255h10" />
<text x="178" y="253" fill="#1c1f28" stroke-width="0" font-size="10" text-anchor="end" dy="-1.33333">EX_regs[BNE]</text>
<path d="M170 315h10" />
<text x="178" y="313" fill="#1c1f28" stroke-width="0" font-size="10" text-anchor="end" dy="-1.33333">EX_regs[zero]</text>
<path d="M170 365h10" />
<text x="178" y="363" fill="#1c1f28" stroke-width="0" font-size="10" text-anchor="end" dy="-1.33333">ID_regs[ERET]</text>
<path d="M2500 375h-10" />
<text x="2492" y="373" fill="#1c1f28" stroke-width="0" font-size="10" dy="-1.33333">flush</text>
<path d="M170 575h10" />
<text x="178" y="573" fill="#1c1f28" stroke-width="0" font-size="10" text-anchor="end" dy="-1.33333">reset</text>
<path d="M170 605h10" />
<text x="178" y="603" fill="#1c1f28" stroke-width="0" font-size="10" text-anchor="end" dy="-1.33333">takenHandler</text>
</g>
<g stroke="#1c1f28" stroke-width="3">
<path d="M170 135h10" />
<text x="178" y="133" fill="#1c1f28" stroke-width="0" font-size="10" text-anchor="end" dy="-1.33333">EPC[63:0]</text>
<path d="M170 275h10" />
<text x="178" y="273" fill="#1c1f28" stroke-width="0" font-size="10" text-anchor="end" dy="-1.33333">EX_regs[out][63:0]</text>
<path d="M170 295h10" />
<text x="178" y="293" fill="#1c1f28" stroke-width="0" font-size="10" text-anchor="end" dy="-1.33333">EX_regs[pc_branch][63:0]</text>
<path d="M170 345h10" />
<text x="178" y="343" fill="#1c1f28" stroke-width="0" font-size="10" text-anchor="end" dy="-1.33333">ID_regs[A_data][63:0]</text>
<path d="M170 385h10" />
<text x="178" y="383" fill="#1c1f28" stroke-width="0" font-size="10" text-anchor="end" dy="-1.33333">ID_regs[control_type][1:0]</text>
<path d="M170 405h10" />
<text x="178" y="403" fill="#1c1f28" stroke-width="0" font-size="10" text-anchor="end" dy="-1.33333">ID_regs[jumpAddr][63:0]</text>
<path d="M170 485h10" />
<text x="178" y="483" fill="#1c1f28" stroke-width="0" font-size="10" text-anchor="end" dy="-1.33333">MEM1_data[63:0]</text>
<path d="M170 465h10" />
<text x="178" y="463" fill="#1c1f28" stroke-width="0" font-size="10" text-anchor="end" dy="-1.33333">MEM_data[63:0]</text>
<path d="M170 505h10" />
<text x="178" y="503" fill="#1c1f28" stroke-width="0" font-size="10" text-anchor="end" dy="-1.33333">fetch_pc4[63:0]</text>
<path d="M170 525h10" />
<text x="178" y="523" fill="#1c1f28" stroke-width="0" font-size="10" text-anchor="end" dy="-1.33333">forward_A[1:0]</text>
<path d="M2500 515h-10" />
<text x="2492" y="513" fill="#1c1f28" stroke-width="0" font-size="10" dy="-1.33333">next_fetch_pc[63:0]</text>
</g>
<g stroke="#1c1f28">
<path d="M190 155h-10" />
<path d="M190 175h-10" />
<path d="M190 195h-10" />
<path d="M190 255h-10" />
<path d="M190 315h-10" />
<path d="M190 365h-10" />
<path d="M2480 375h10" />
<path d="M190 575h-10" />
<path d="M190 605h-10" />
</g>
<g stroke="#1c1f28" stroke-width="3">
<path d="M190 135h-10" />
<path d="M190 275h-10" />
<path d="M190 295h-10" />
<path d="M190 345h-10" />
<path d="M190 385h-10" />
<path d="M190 405h-10" />
<path d="M190 485h-10" />
<path d="M190 465h-10" />
<path d="M190 505h-10" />
<path d="M190 525h-10" />
<path d="M2480 515h10" />
<path d="M1150 365l40 15v50l-40 15z" stroke="none" fill="#e5c7ff" />
</g>
<g stroke="#575d6c">
<path d="M1150 365l40 15v50l-40 15z" />
<text x="1170" y="363" fill="#1c1f28" stroke-width="0" text-anchor="middle" dy="-1.6">flush_i</text>
<text x="1174" y="439" fill="#1c1f28" stroke-width="0" dy="9.6">RTL_MUX</text>
</g>
<g stroke="#1c1f28">
<path d="M1140 385h10" />
<text x="1148" y="384" fill="#1c1f28" stroke-width="0" font-size="10" text-anchor="end" dy="-1.33333">I0</text>
<text x="1132" y="384" fill="black" stroke-width="0" font-size="8" text-anchor="end" dy="-1.06667">S=2&apos;b00</text>
<path d="M1140 405h10" />
<text x="1148" y="404" fill="#1c1f28" stroke-width="0" font-size="10" text-anchor="end" dy="-1.33333">I1</text>
<text x="1132" y="404" fill="black" stroke-width="0" font-size="8" text-anchor="end" dy="-1.06667">S=2&apos;b01</text>
<path d="M1140 425h10" />
<text x="1148" y="424" fill="#1c1f28" stroke-width="0" font-size="10" text-anchor="end" dy="-1.33333">I2</text>
<text x="1132" y="424" fill="black" stroke-width="0" font-size="8" text-anchor="end" dy="-1.06667">S=2&apos;b10</text>
<path d="M1200 405h-10" />
<text x="1192" y="404" fill="#1c1f28" stroke-width="0" font-size="10" dy="-1.33333">O</text>
</g>
<g stroke="#1c1f28" stroke-width="3">
<path d="M1170 445v-8" />
<text x="1168" y="445" fill="#1c1f28" stroke-width="0" font-size="10" text-anchor="end" dy="8">S[1:0]</text>
<path d="M1460 365l40 15v30l-40 15z" stroke="none" fill="#e5c7ff" />
</g>
<g stroke="#575d6c">
<path d="M1460 365l40 15v30l-40 15z" />
<text x="1480" y="363" fill="#1c1f28" stroke-width="0" text-anchor="middle" dy="-1.6">flush_i__0</text>
<text x="1484" y="419" fill="#1c1f28" stroke-width="0" dy="9.6">RTL_MUX</text>
</g>
<g stroke="#1c1f28">
<path d="M1450 385h10" />
<text x="1458" y="384" fill="#1c1f28" stroke-width="0" font-size="10" text-anchor="end" dy="-1.33333">I0</text>
<text x="1442" y="384" fill="black" stroke-width="0" font-size="8" text-anchor="end" dy="-1.06667">S=1&apos;b1</text>
<path d="M1450 405h10" />
<text x="1458" y="404" fill="#1c1f28" stroke-width="0" font-size="10" text-anchor="end" dy="-1.33333">I1</text>
<text x="1442" y="404" fill="black" stroke-width="0" font-size="8" text-anchor="end" dy="-1.06667">S=default</text>
<path d="M1510 395h-10" />
<text x="1502" y="394" fill="#1c1f28" stroke-width="0" font-size="10" dy="-1.33333">O</text>
<path d="M1480 425v-8" />
<text x="1478" y="425" fill="#1c1f28" stroke-width="0" font-size="10" text-anchor="end" dy="8">S</text>
<path d="M1780 355l40 15v30l-40 15z" stroke="none" fill="#e5c7ff" />
</g>
<g stroke="#575d6c">
<path d="M1780 355l40 15v30l-40 15z" />
<text x="1800" y="353" fill="#1c1f28" stroke-width="0" text-anchor="middle" dy="-1.6">flush_i__1</text>
<text x="1804" y="409" fill="#1c1f28" stroke-width="0" dy="9.6">RTL_MUX</text>
</g>
<g stroke="#1c1f28">
<path d="M1770 375h10" />
<text x="1778" y="374" fill="#1c1f28" stroke-width="0" font-size="10" text-anchor="end" dy="-1.33333">I0</text>
<text x="1762" y="374" fill="black" stroke-width="0" font-size="8" text-anchor="end" dy="-1.06667">S=1&apos;b1</text>
<path d="M1770 395h10" />
<text x="1778" y="394" fill="#1c1f28" stroke-width="0" font-size="10" text-anchor="end" dy="-1.33333">I1</text>
<text x="1762" y="394" fill="black" stroke-width="0" font-size="8" text-anchor="end" dy="-1.06667">S=default</text>
<path d="M1830 385h-10" />
<text x="1822" y="384" fill="#1c1f28" stroke-width="0" font-size="10" dy="-1.33333">O</text>
<path d="M1800 415v-8" />
<text x="1798" y="415" fill="#1c1f28" stroke-width="0" font-size="10" text-anchor="end" dy="8">S</text>
<path d="M2080 355l40 15v30l-40 15z" stroke="none" fill="#e5c7ff" />
</g>
<g stroke="#575d6c">
<path d="M2080 355l40 15v30l-40 15z" />
<text x="2100" y="353" fill="#1c1f28" stroke-width="0" text-anchor="middle" dy="-1.6">flush_i__2</text>
<text x="2104" y="409" fill="#1c1f28" stroke-width="0" dy="9.6">RTL_MUX</text>
</g>
<g stroke="#1c1f28">
<path d="M2070 375h10" />
<text x="2078" y="374" fill="#1c1f28" stroke-width="0" font-size="10" text-anchor="end" dy="-1.33333">I0</text>
<text x="2062" y="374" fill="black" stroke-width="0" font-size="8" text-anchor="end" dy="-1.06667">S=1&apos;b1</text>
<path d="M2070 395h10" />
<text x="2078" y="394" fill="#1c1f28" stroke-width="0" font-size="10" text-anchor="end" dy="-1.33333">I1</text>
<text x="2062" y="394" fill="black" stroke-width="0" font-size="8" text-anchor="end" dy="-1.06667">S=default</text>
<path d="M2130 385h-10" />
<text x="2122" y="384" fill="#1c1f28" stroke-width="0" font-size="10" dy="-1.33333">O</text>
<path d="M2100 415v-8" />
<text x="2098" y="415" fill="#1c1f28" stroke-width="0" font-size="10" text-anchor="end" dy="8">S</text>
<path d="M2360 345l40 15v30l-40 15z" stroke="none" fill="#e5c7ff" />
</g>
<g stroke="#575d6c">
<path d="M2360 345l40 15v30l-40 15z" />
<text x="2380" y="343" fill="#1c1f28" stroke-width="0" text-anchor="middle" dy="-1.6">flush_i__3</text>
<text x="2384" y="399" fill="#1c1f28" stroke-width="0" dy="9.6">RTL_MUX</text>
</g>
<g stroke="#1c1f28">
<path d="M2350 365h10" />
<text x="2358" y="364" fill="#1c1f28" stroke-width="0" font-size="10" text-anchor="end" dy="-1.33333">I0</text>
<text x="2342" y="364" fill="black" stroke-width="0" font-size="8" text-anchor="end" dy="-1.06667">S=1&apos;b1</text>
<path d="M2350 385h10" />
<text x="2358" y="384" fill="#1c1f28" stroke-width="0" font-size="10" text-anchor="end" dy="-1.33333">I1</text>
<text x="2342" y="384" fill="black" stroke-width="0" font-size="8" text-anchor="end" dy="-1.06667">S=default</text>
<path d="M2410 375h-10" />
<text x="2402" y="374" fill="#1c1f28" stroke-width="0" font-size="10" dy="-1.33333">O</text>
<path d="M2380 405v-8" />
<text x="2378" y="405" fill="#1c1f28" stroke-width="0" font-size="10" text-anchor="end" dy="8">S</text>
<path d="M690 363h60v122h-60z" stroke="none" fill="#cde5ff" />
</g>
<g stroke="#575d6c">
<path d="M690 363h60v122h-60z" />
</g>
<g stroke="#575d6c" stroke-width="3">
<path d="M701 368v12" />
<path d="M695 374h12" />
</g>
<g stroke="#575d6c">
<path d="M693 366h16v16h-16z" />
<text x="720" y="361" fill="#1c1f28" stroke-width="0" text-anchor="middle" dy="-1.6">forward_mux_A</text>
<text x="720" y="487" fill="#1c1f28" stroke-width="0" text-anchor="middle" dy="9.6">mux4v__parameterized2</text>
</g>
<g stroke="#1c1f28" stroke-width="3">
<path d="M680 395h10" />
<text x="688" y="394" fill="#1c1f28" stroke-width="0" font-size="10" text-anchor="end" dy="-1.33333">a[63:0]</text>
<path d="M680 415h10" />
<text x="688" y="414" fill="#1c1f28" stroke-width="0" font-size="10" text-anchor="end" dy="-1.33333">b[63:0]</text>
<path d="M680 435h10" />
<text x="688" y="434" fill="#1c1f28" stroke-width="0" font-size="10" text-anchor="end" dy="-1.33333">c[63:0]</text>
<path d="M680 455h10" />
<text x="688" y="454" fill="#1c1f28" stroke-width="0" font-size="10" text-anchor="end" dy="-1.33333">d[63:0]</text>
<path d="M760 435h-10" />
<text x="752" y="434" fill="#1c1f28" stroke-width="0" font-size="10" dy="-1.33333">out[63:0]</text>
<path d="M680 475h10" />
<text x="688" y="474" fill="#1c1f28" stroke-width="0" font-size="10" text-anchor="end" dy="-1.33333">sel[1:0]</text>
<path d="M700 395h-10" />
<path d="M700 415h-10" />
<path d="M700 435h-10" />
<path d="M700 455h-10" />
<path d="M740 435h10" />
<path d="M700 475h-10" />
<path d="M1150 105l40 15v50l-40 15z" stroke="none" fill="#e5c7ff" />
</g>
<g stroke="#575d6c">
<path d="M1150 105l40 15v50l-40 15z" />
<text x="1170" y="103" fill="#1c1f28" stroke-width="0" text-anchor="middle" dy="-1.6">next_fetch_pc_i</text>
<text x="1174" y="179" fill="#1c1f28" stroke-width="0" dy="9.6">RTL_MUX</text>
</g>
<g stroke="#1c1f28" stroke-width="3">
<path d="M1140 125h10" />
<text x="1148" y="124" fill="#1c1f28" stroke-width="0" font-size="10" text-anchor="end" dy="-1.33333">I0[63:0]</text>
<text x="1096" y="124" fill="black" stroke-width="0" font-size="8" text-anchor="end" dy="-1.06667">S=2&apos;b00</text>
<path d="M1140 145h10" />
<text x="1148" y="144" fill="#1c1f28" stroke-width="0" font-size="10" text-anchor="end" dy="-1.33333">I1[63:0]</text>
<text x="1096" y="144" fill="black" stroke-width="0" font-size="8" text-anchor="end" dy="-1.06667">S=2&apos;b01</text>
<path d="M1140 165h10" />
<text x="1148" y="164" fill="#1c1f28" stroke-width="0" font-size="10" text-anchor="end" dy="-1.33333">I2[63:0]</text>
<text x="1096" y="164" fill="black" stroke-width="0" font-size="8" text-anchor="end" dy="-1.06667">S=2&apos;b10</text>
<path d="M1200 145h-10" />
<text x="1192" y="144" fill="#1c1f28" stroke-width="0" font-size="10" dy="-1.33333">O[63:0]</text>
<path d="M1170 185v-8" />
<text x="1168" y="185" fill="#1c1f28" stroke-width="0" font-size="10" text-anchor="end" dy="8">S[1:0]</text>
<path d="M1460 215l40 15v30l-40 15z" stroke="none" fill="#e5c7ff" />
</g>
<g stroke="#575d6c">
<path d="M1460 215l40 15v30l-40 15z" />
<text x="1480" y="213" fill="#1c1f28" stroke-width="0" text-anchor="middle" dy="-1.6">next_fetch_pc_i__0</text>
<text x="1484" y="269" fill="#1c1f28" stroke-width="0" dy="9.6">RTL_MUX</text>
</g>
<g stroke="#1c1f28">
<path d="M1480 275v-8" />
<text x="1478" y="275" fill="#1c1f28" stroke-width="0" font-size="10" text-anchor="end" dy="8">S</text>
</g>
<g stroke="#1c1f28" stroke-width="3">
<path d="M1450 235h10" />
<text x="1458" y="234" fill="#1c1f28" stroke-width="0" font-size="10" text-anchor="end" dy="-1.33333">I0[63:0]</text>
<text x="1406" y="234" fill="black" stroke-width="0" font-size="8" text-anchor="end" dy="-1.06667">S=1&apos;b1</text>
<path d="M1450 255h10" />
<text x="1458" y="254" fill="#1c1f28" stroke-width="0" font-size="10" text-anchor="end" dy="-1.33333">I1[63:0]</text>
<text x="1406" y="254" fill="black" stroke-width="0" font-size="8" text-anchor="end" dy="-1.06667">S=default</text>
<path d="M1510 245h-10" />
<text x="1502" y="244" fill="#1c1f28" stroke-width="0" font-size="10" dy="-1.33333">O[63:0]</text>
<path d="M1780 495l40 15v30l-40 15z" stroke="none" fill="#e5c7ff" />
</g>
<g stroke="#575d6c">
<path d="M1780 495l40 15v30l-40 15z" />
<text x="1800" y="493" fill="#1c1f28" stroke-width="0" text-anchor="middle" dy="-1.6">next_fetch_pc_i__1</text>
<text x="1804" y="549" fill="#1c1f28" stroke-width="0" dy="9.6">RTL_MUX</text>
</g>
<g stroke="#1c1f28">
<path d="M1800 555v-8" />
<text x="1798" y="555" fill="#1c1f28" stroke-width="0" font-size="10" text-anchor="end" dy="8">S</text>
</g>
<g stroke="#1c1f28" stroke-width="3">
<path d="M1770 515h10" />
<text x="1778" y="514" fill="#1c1f28" stroke-width="0" font-size="10" text-anchor="end" dy="-1.33333">I0[63:0]</text>
<text x="1726" y="514" fill="black" stroke-width="0" font-size="8" text-anchor="end" dy="-1.06667">S=1&apos;b1</text>
<path d="M1770 535h10" />
<text x="1778" y="534" fill="#1c1f28" stroke-width="0" font-size="10" text-anchor="end" dy="-1.33333">I1[63:0]</text>
<text x="1726" y="534" fill="black" stroke-width="0" font-size="8" text-anchor="end" dy="-1.06667">S=default</text>
<path d="M1830 525h-10" />
<text x="1822" y="524" fill="#1c1f28" stroke-width="0" font-size="10" dy="-1.33333">O[63:0]</text>
<path d="M2080 495l40 15v30l-40 15z" stroke="none" fill="#e5c7ff" />
</g>
<g stroke="#575d6c">
<path d="M2080 495l40 15v30l-40 15z" />
<text x="2100" y="493" fill="#1c1f28" stroke-width="0" text-anchor="middle" dy="-1.6">next_fetch_pc_i__2</text>
<text x="2104" y="549" fill="#1c1f28" stroke-width="0" dy="9.6">RTL_MUX</text>
</g>
<g stroke="#1c1f28">
<path d="M2100 555v-8" />
<text x="2098" y="555" fill="#1c1f28" stroke-width="0" font-size="10" text-anchor="end" dy="8">S</text>
</g>
<g stroke="#1c1f28" stroke-width="3">
<path d="M2070 515h10" />
<text x="2078" y="514" fill="#1c1f28" stroke-width="0" font-size="10" text-anchor="end" dy="-1.33333">I0[63:0]</text>
<text x="2026" y="514" fill="black" stroke-width="0" font-size="8" text-anchor="end" dy="-1.06667">S=1&apos;b1</text>
<path d="M2070 535h10" />
<text x="2078" y="534" fill="#1c1f28" stroke-width="0" font-size="10" text-anchor="end" dy="-1.33333">I1[63:0]</text>
<text x="2026" y="534" fill="black" stroke-width="0" font-size="8" text-anchor="end" dy="-1.06667">S=default</text>
<path d="M2130 525h-10" />
<text x="2122" y="524" fill="#1c1f28" stroke-width="0" font-size="10" dy="-1.33333">O[63:0]</text>
<path d="M2360 485l40 15v30l-40 15z" stroke="none" fill="#e5c7ff" />
</g>
<g stroke="#575d6c">
<path d="M2360 485l40 15v30l-40 15z" />
<text x="2380" y="483" fill="#1c1f28" stroke-width="0" text-anchor="middle" dy="-1.6">next_fetch_pc_i__3</text>
<text x="2384" y="539" fill="#1c1f28" stroke-width="0" dy="9.6">RTL_MUX</text>
</g>
<g stroke="#1c1f28">
<path d="M2380 545v-8" />
<text x="2378" y="545" fill="#1c1f28" stroke-width="0" font-size="10" text-anchor="end" dy="8">S</text>
</g>
<g stroke="#1c1f28" stroke-width="3">
<path d="M2350 505h10" />
<text x="2358" y="504" fill="#1c1f28" stroke-width="0" font-size="10" text-anchor="end" dy="-1.33333">I0[63:0]</text>
<text x="2306" y="504" fill="black" stroke-width="0" font-size="8" text-anchor="end" dy="-1.06667">S=1&apos;b1</text>
<path d="M2350 525h10" />
<text x="2358" y="524" fill="#1c1f28" stroke-width="0" font-size="10" text-anchor="end" dy="-1.33333">I1[63:0]</text>
<text x="2306" y="524" fill="black" stroke-width="0" font-size="8" text-anchor="end" dy="-1.06667">S=default</text>
<path d="M2410 515h-10" />
<text x="2402" y="514" fill="#1c1f28" stroke-width="0" font-size="10" dy="-1.33333">O[63:0]</text>
<path d="M1150 270l2 2l2 3l1 2l1 3l1 3v4l-1 3l-1 3l-1 2l-2 3l-2 2h15h3l3 -1l3 -1l2 -1l3 -1l3 -2l2 -2l2 -2l2 -2l2 -3l-2 -3l-2 -2l-2 -2l-2 -2l-3 -2l-3 -1l-2 -1l-3 -1l-3 -1h-3z" stroke="none" fill="#e5c7ff" />
</g>
<g stroke="#575d6c">
<path d="M1150,270 A19.5714,19.5714 1.74651 0,1 1150,300" />
<path d="M1150 300h15" />
<path d="M1165,300 A32.596,32.596 -0.927295 0,0 1190,285" />
<path d="M1190,285 A32.596,32.596 -0.927295 0,0 1165,270" />
<path d="M1165 270h-15" />
<text x="1152" y="269" fill="#1c1f28" stroke-width="0" dy="-1.6">next_fetch_pc1_i</text>
<text x="1152" y="301" fill="#1c1f28" stroke-width="0" dy="9.6">RTL_OR</text>
</g>
<g stroke="#1c1f28">
<path d="M1140 275h14" />
<text x="1149" y="274" fill="#1c1f28" stroke-width="0" font-size="10" text-anchor="end" dy="-1.33333">I0</text>
<path d="M1140 295h14" />
<text x="1149" y="294" fill="#1c1f28" stroke-width="0" font-size="10" text-anchor="end" dy="-1.33333">I1</text>
<path d="M1200 285h-10" />
<text x="1191" y="284" fill="#1c1f28" stroke-width="0" font-size="10" dy="-1.33333">O</text>
<path d="M690 180l2 2l2 3l1 2l1 3l1 3v4l-1 3l-1 3l-1 2l-2 3l-2 2h15h3l3 -1l3 -1l2 -1l3 -1l3 -2l2 -2l2 -2l2 -2l2 -3l-2 -3l-2 -2l-2 -2l-2 -2l-3 -2l-3 -1l-2 -1l-3 -1l-3 -1h-3z" stroke="none" fill="#e5c7ff" />
</g>
<g stroke="#575d6c">
<path d="M690,180 A19.5714,19.5714 1.74651 0,1 690,210" />
<path d="M690 210h15" />
<path d="M705,210 A32.596,32.596 -0.927295 0,0 730,195" />
<path d="M730,195 A32.596,32.596 -0.927295 0,0 705,180" />
<path d="M705 180h-15" />
<text x="692" y="179" fill="#1c1f28" stroke-width="0" dy="-1.6">next_fetch_pc2_i</text>
<text x="692" y="211" fill="#1c1f28" stroke-width="0" dy="9.6">RTL_OR</text>
</g>
<g stroke="#1c1f28">
<path d="M680 185h14" />
<text x="689" y="184" fill="#1c1f28" stroke-width="0" font-size="10" text-anchor="end" dy="-1.33333">I0</text>
<path d="M680 205h14" />
<text x="689" y="204" fill="#1c1f28" stroke-width="0" font-size="10" text-anchor="end" dy="-1.33333">I1</text>
<path d="M740 195h-10" />
<text x="731" y="194" fill="#1c1f28" stroke-width="0" font-size="10" dy="-1.33333">O</text>
<path d="M690 265v15h25h3l3 -1l2 -1l2 -2l3 -3l1 -2l1 -3v-3v-3l-1 -3l-1 -2l-2 -2l-3 -3l-2 -1l-3 -1h-3h-25z" stroke="none" fill="#e5c7ff" />
</g>
<g stroke="#575d6c">
<path d="M690 265v15h25" />
<path d="M715,280 A15,15 -3.14159 1,0 715,250" />
<path d="M715 250h-25v15" />
<text x="692" y="249" fill="#1c1f28" stroke-width="0" dy="-1.6">next_fetch_pc2_i__0</text>
<text x="692" y="281" fill="#1c1f28" stroke-width="0" dy="9.6">RTL_AND</text>
</g>
<g stroke="#1c1f28">
<path d="M680 255h10" />
<text x="689" y="254" fill="#1c1f28" stroke-width="0" font-size="10" text-anchor="end" dy="-1.33333">I0</text>
<path d="M680 275h10" />
<text x="689" y="274" fill="#1c1f28" stroke-width="0" font-size="10" text-anchor="end" dy="-1.33333">I1</text>
<path d="M740 265h-10" />
<text x="731" y="264" fill="#1c1f28" stroke-width="0" font-size="10" dy="-1.33333">O</text>
<path d="M340 120l2 2l2 3l1 2l1 3l1 3v4l-1 3l-1 3l-1 2l-2 3l-2 2h15h3l3 -1l3 -1l2 -1l3 -1l3 -2l2 -2l2 -2l2 -2l2 -3l-2 -3l-2 -2l-2 -2l-2 -2l-3 -2l-3 -1l-2 -1l-3 -1l-3 -1h-3z" stroke="none" fill="#e5c7ff" />
</g>
<g stroke="#575d6c">
<path d="M340,120 A19.5714,19.5714 1.74651 0,1 340,150" />
<path d="M340 150h15" />
<path d="M355,150 A32.596,32.596 -0.927295 0,0 380,135" />
<path d="M380,135 A32.596,32.596 -0.927295 0,0 355,120" />
<path d="M355 120h-15" />
<text x="342" y="119" fill="#1c1f28" stroke-width="0" dy="-1.6">next_fetch_pc3_i</text>
<text x="342" y="151" fill="#1c1f28" stroke-width="0" dy="9.6">RTL_OR</text>
</g>
<g stroke="#1c1f28">
<path d="M330 125h14" />
<text x="339" y="124" fill="#1c1f28" stroke-width="0" font-size="10" text-anchor="end" dy="-1.33333">I0</text>
<path d="M330 145h14" />
<text x="339" y="144" fill="#1c1f28" stroke-width="0" font-size="10" text-anchor="end" dy="-1.33333">I1</text>
<path d="M390 135h-10" />
<text x="381" y="134" fill="#1c1f28" stroke-width="0" font-size="10" dy="-1.33333">O</text>
<path d="M340 205v15h25h3l3 -1l2 -1l2 -2l3 -3l1 -2l1 -3v-3v-3l-1 -3l-1 -2l-2 -2l-3 -3l-2 -1l-3 -1h-3h-25z" stroke="none" fill="#e5c7ff" />
</g>
<g stroke="#575d6c">
<path d="M340 205v15h25" />
<path d="M365,220 A15,15 -3.14159 1,0 365,190" />
<path d="M365 190h-25v15" />
<text x="342" y="189" fill="#1c1f28" stroke-width="0" dy="-1.6">next_fetch_pc3_i__0</text>
<text x="342" y="221" fill="#1c1f28" stroke-width="0" dy="9.6">RTL_AND</text>
</g>
<g stroke="#1c1f28">
<path d="M330 195h10" />
<text x="339" y="194" fill="#1c1f28" stroke-width="0" font-size="10" text-anchor="end" dy="-1.33333">I0</text>
<path d="M330 215h10" />
<text x="339" y="214" fill="#1c1f28" stroke-width="0" font-size="10" text-anchor="end" dy="-1.33333">I1</text>
<path d="M390 205h-10" />
<text x="381" y="204" fill="#1c1f28" stroke-width="0" font-size="10" dy="-1.33333">O</text>
<circle cx="374" cy="295" r="4" stroke="none" fill="#e5c7ff" />
<path d="M340 295v-12l30 12l-30 12z" stroke="none" fill="#e5c7ff" />
</g>
<g stroke="#575d6c">
<circle cx="374" cy="295" r="4" />
<path d="M340 295v-12l30 12l-30 12z" />
<text x="342" y="281" fill="#1c1f28" stroke-width="0" dy="-1.6">next_fetch_pc3_i__1</text>
<text x="342" y="309" fill="#1c1f28" stroke-width="0" dy="9.6">RTL_INV</text>
</g>
<g stroke="#1c1f28">
<path d="M330 295h10" />
<text x="338" y="294" fill="#1c1f28" stroke-width="0" font-size="10" text-anchor="end" dy="-1.33333">I0</text>
<path d="M390 295h-12" />
<text x="380" y="294" fill="#1c1f28" stroke-width="0" font-size="10" dy="-1.33333">O</text>
</g>
<g stroke="#575d6c">
<path d="M1020 335v-4" />
<path d="M1012 331h16" />
<path d="M992 485h16" />
<path d="M995 488h10" />
<path d="M998 491h4" />
<path d="M1320 335v-4" />
<path d="M1312 331h16" />
<path d="M1640 325v-4" />
<path d="M1632 321h16" />
<path d="M1940 325v-4" />
<path d="M1932 321h16" />
<path d="M1932 595h16" />
<path d="M1935 598h10" />
<path d="M1938 601h4" />
<path d="M2220 315v-4" />
<path d="M2212 311h16" />
<path d="M2212 585h16" />
<path d="M2215 588h10" />
<path d="M2218 591h4" />
</g>
<g stroke="#009633" stroke-width="3">
<path d="M190 135h60v290h300v90h1220" />
<path d="M190 275h80v70h300v70h110" />
<path d="M190 295h40v-210h730v150h490" />
<path d="M190 345h40v20h380v30h70" />
<path d="M190 385h360v-70h430" />
<path d="M977 312h7v7h-7z" stroke="none" fill="#009633" />
<path d="M1170 185v30h-190v260h190v-30" />
<path d="M190 405h400v-70h290v-190h260" />
<path d="M190 465h400v-10h90" />
<path d="M190 485h380v-50h110" />
<path d="M190 505h320v50h390v-430h240" />
<path d="M190 525h420v-50h70" />
<path d="M760 435h180v-270h200" />
<path d="M2130 525h220" />
<path d="M2410 515h70" />
<path d="M1830 525h70v10h170" />
<path d="M1510 245h110v290h150" />
<path d="M1200 145h100v110h150" />
</g>
<g>
<path d="M2350 505h-130v80" />
<path d="M2070 515h-130v80" />
<path d="M1140 385h-140v100" />
<path d="M2220 315v50h130" />
<path d="M1940 325v50h130" />
<path d="M1640 325v50h130" />
<path d="M1320 335v50h130" />
<path d="M1020 335v90h120" />
<path d="M1020 405h120" />
<path d="M1018 403h5v5h-5z" stroke="none" fill="#8bc34a" />
<path d="M190 155h100v-10h40" />
<path d="M190 175h80v-50h60" />
<path d="M190 195h140" />
<path d="M190 255h490" />
<path d="M190 315h100v-100h40" />
<path d="M290 295h40" />
<path d="M288 293h5v5h-5z" stroke="none" fill="#8bc34a" />
<path d="M190 365h20v80h320v90h1070" />
<path d="M1598 533h5v5h-5z" stroke="none" fill="#8bc34a" />
<path d="M1800 415v30h-200v140h200v-30" />
<path d="M2410 375h70" />
<path d="M1510 395h260" />
<path d="M1830 385h70v10h170" />
<path d="M2130 385h220" />
<path d="M1200 405h250" />
<path d="M1200 285h100v170h180v-30" />
<path d="M1300 305h180v-30" />
<path d="M1298 303h5v5h-5z" stroke="none" fill="#8bc34a" />
<path d="M740 195h180v80h220" />
<path d="M740 265h120v30h280" />
<path d="M390 135h200v50h90" />
<path d="M390 205h290" />
<path d="M390 295h200v-20h90" />
<path d="M190 575h1390v-110h620" />
<path d="M2198 463h5v5h-5z" stroke="none" fill="#8bc34a" />
<path d="M2380 405v30h-180v140h180v-30" />
<path d="M190 605h1730v-160h180v-30" />
<path d="M1920 585h180v-30" />
<path d="M1918 583h5v5h-5z" stroke="none" fill="#8bc34a" />
</g>
</g>
</svg>
