<?xml version="1.0" encoding="UTF-8" standalone="no"?>
<svg viewBox="0 0 1722 755"
     preserveAspectRatio="xMidYMid meet"
     version="1.1"
     baseProfile="full"
     xmlns="http://www.w3.org/2000/svg"
     xmlns:xlink="http://www.w3.org/1999/xlink"
     xmlns:ev="http://www.w3.org/2001/xml-events"
     xml:space="preserve">
<title>SOC</title>
<desc>Nlview schematic (SVG)</desc>
<clipPath id="clippingbbox">
<rect x="0" y="0" width="1722" height="755" />
</clipPath>
<g stroke="#19b400"
   stroke-width="1"
   stroke-linecap="butt"
   stroke-linejoin="miter"
   stroke-miterlimit="4"
   stroke-dasharray="none"
   stroke-dashoffset="0"
   fill="none"
   font-family="Helvetica"
   font-style="normal"
   font-size="12"
   writing-mode="lr-tb"
   cursor="crosshair"
   clip-path="url(#clippingbbox)">
<path d="M0 0h1722v756h-1722z" stroke="none" fill="white" />
<path d="M18 29h1686l3 1l3 1l1 3l1 3v680l-1 3l-1 3l-3 1l-3 1h-1686l-3 -1l-3 -1l-1 -3l-1 -3v-680l1 -3l1 -3l3 -1z" stroke="none" fill="#fafafa" />
<g stroke="black">
<path d="M18 29h1686" />
<path d="M1704,29 A7.83511,7.83511 1.61334 0,1 1712,37" />
<path d="M1712 37v680" />
<path d="M1712,717 A7.83511,7.83511 1.61334 0,1 1704,725" />
<path d="M1704 725h-1686" />
<path d="M18,725 A7.83511,7.83511 1.61334 0,1 10,717" />
<path d="M10 717v-680" />
<path d="M10,37 A7.83511,7.83511 1.61334 0,1 18,29" />
<text x="861" y="27" fill="black" stroke-width="0" text-anchor="middle" dy="-1.6">core</text>
</g>
<g stroke="black" stroke-width="3">
<path d="M15 40h12" />
</g>
<g stroke="black">
<path d="M13 32h16v16h-16z" />
<text x="861" y="727" fill="black" stroke-width="0" text-anchor="middle" dy="9.6">core</text>
<path d="M148 75h1494l3 1l3 1l1 3l1 3v604l-1 3l-1 3l-3 1l-3 1h-1494l-3 -1l-3 -1l-1 -3l-1 -3v-604l1 -3l1 -3l3 -1z" stroke="none" fill="#fafafa" />
<path d="M148 75h1494" />
<path d="M1642,75 A7.83511,7.83511 1.61334 0,1 1650,83" />
<path d="M1650 83v604" />
<path d="M1650,687 A7.83511,7.83511 1.61334 0,1 1642,695" />
<path d="M1642 695h-1494" />
<path d="M148,695 A7.83511,7.83511 1.61334 0,1 140,687" />
<path d="M140 687v-604" />
<path d="M140,83 A7.83511,7.83511 1.61334 0,1 148,75" />
</g>
<g stroke="black" stroke-width="3">
<path d="M145 86h12" />
</g>
<g stroke="black">
<path d="M143 78h16v16h-16z" />
<text x="895" y="73" fill="black" stroke-width="0" text-anchor="middle" dy="-1.6">hazard_unit</text>
<text x="895" y="697" fill="black" stroke-width="0" text-anchor="middle" dy="9.6">core_hazard</text>
<path d="M130 245h10" />
<text x="138" y="243" fill="black" stroke-width="0" font-size="10" text-anchor="end" dy="-1.33333">EX_mem_read</text>
<path d="M130 265h10" />
<text x="138" y="263" fill="black" stroke-width="0" font-size="10" text-anchor="end" dy="-1.33333">EX_mem_write</text>
<path d="M130 305h10" />
<text x="138" y="303" fill="black" stroke-width="0" font-size="10" text-anchor="end" dy="-1.33333">ID_mem_read</text>
<path d="M130 415h10" />
<text x="138" y="413" fill="black" stroke-width="0" font-size="10" text-anchor="end" dy="-1.33333">IF_B_is_reg</text>
<path d="M130 685h10" />
<text x="138" y="683" fill="black" stroke-width="0" font-size="10" text-anchor="end" dy="-1.33333">d_ready</text>
<path d="M1660 425h-10" />
<text x="1652" y="423" fill="black" stroke-width="0" font-size="10" dy="-1.33333">d_valid</text>
<path d="M1660 525h-10" />
<text x="1652" y="523" fill="black" stroke-width="0" font-size="10" dy="-1.33333">stall</text>
</g>
<g stroke="black" stroke-width="3">
<path d="M130 225h10" />
<text x="138" y="223" fill="black" stroke-width="0" font-size="10" text-anchor="end" dy="-1.33333">EX_W_regnum[4:0]</text>
<path d="M130 285h10" />
<text x="138" y="283" fill="black" stroke-width="0" font-size="10" text-anchor="end" dy="-1.33333">ID_W_regnum[4:0]</text>
<path d="M130 435h10" />
<text x="138" y="433" fill="black" stroke-width="0" font-size="10" text-anchor="end" dy="-1.33333">IF_rs[4:0]</text>
<path d="M130 455h10" />
<text x="138" y="453" fill="black" stroke-width="0" font-size="10" text-anchor="end" dy="-1.33333">IF_rt[4:0]</text>
<path d="M130 585h10" />
<text x="138" y="583" fill="black" stroke-width="0" font-size="10" text-anchor="end" dy="-1.33333">addr[63:0]</text>
</g>
<g stroke="black">
<path d="M150 245h-10" />
<path d="M150 265h-10" />
<path d="M150 305h-10" />
<path d="M150 415h-10" />
<path d="M150 685h-10" />
<path d="M1640 425h10" />
<path d="M1640 525h10" />
</g>
<g stroke="black" stroke-width="3">
<path d="M150 225h-10" />
<path d="M150 285h-10" />
<path d="M150 435h-10" />
<path d="M150 455h-10" />
<path d="M150 585h-10" />
<path d="M1510 510l2 2l2 3l1 2l1 3l1 3v4l-1 3l-1 3l-1 2l-2 3l-2 2h15h3l3 -1l3 -1l2 -1l3 -1l3 -2l2 -2l2 -2l2 -2l2 -3l-2 -3l-2 -2l-2 -2l-2 -2l-3 -2l-3 -1l-2 -1l-3 -1l-3 -1h-3z" stroke="none" fill="#ffffcc" />
</g>
<g stroke="black">
<path d="M1510,510 A19.5714,19.5714 1.74651 0,1 1510,540" />
<path d="M1510 540h15" />
<path d="M1525,540 A32.596,32.596 -0.927295 0,0 1550,525" />
<path d="M1550,525 A32.596,32.596 -0.927295 0,0 1525,510" />
<path d="M1525 510h-15" />
<text x="1512" y="509" fill="black" stroke-width="0" dy="-1.6">stall0_i</text>
<text x="1512" y="541" fill="black" stroke-width="0" dy="9.6">RTL_OR</text>
<path d="M1500 515h14" />
<text x="1509" y="514" fill="black" stroke-width="0" font-size="10" text-anchor="end" dy="-1.33333">I0</text>
<path d="M1500 535h14" />
<text x="1509" y="534" fill="black" stroke-width="0" font-size="10" text-anchor="end" dy="-1.33333">I1</text>
<path d="M1560 525h-10" />
<text x="1551" y="524" fill="black" stroke-width="0" font-size="10" dy="-1.33333">O</text>
<path d="M1300 410l2 2l2 3l1 2l1 3l1 3v4l-1 3l-1 3l-1 2l-2 3l-2 2h15h3l3 -1l3 -1l2 -1l3 -1l3 -2l2 -2l2 -2l2 -2l2 -3l-2 -3l-2 -2l-2 -2l-2 -2l-3 -2l-3 -1l-2 -1l-3 -1l-3 -1h-3z" stroke="none" fill="#ffffcc" />
<path d="M1300,410 A19.5714,19.5714 1.74651 0,1 1300,440" />
<path d="M1300 440h15" />
<path d="M1315,440 A32.596,32.596 -0.927295 0,0 1340,425" />
<path d="M1340,425 A32.596,32.596 -0.927295 0,0 1315,410" />
<path d="M1315 410h-15" />
<text x="1302" y="409" fill="black" stroke-width="0" dy="-1.6">stall1_i</text>
<text x="1302" y="441" fill="black" stroke-width="0" dy="9.6">RTL_OR</text>
<path d="M1290 415h14" />
<text x="1299" y="414" fill="black" stroke-width="0" font-size="10" text-anchor="end" dy="-1.33333">I0</text>
<path d="M1290 435h14" />
<text x="1299" y="434" fill="black" stroke-width="0" font-size="10" text-anchor="end" dy="-1.33333">I1</text>
<path d="M1350 425h-10" />
<text x="1341" y="424" fill="black" stroke-width="0" font-size="10" dy="-1.33333">O</text>
<path d="M1300 645v15h25h3l3 -1l2 -1l2 -2l3 -3l1 -2l1 -3v-3v-3l-1 -3l-1 -2l-2 -2l-3 -3l-2 -1l-3 -1h-3h-25z" stroke="none" fill="#ffffcc" />
<path d="M1300 645v15h25" />
<path d="M1325,660 A15,15 -3.14159 1,0 1325,630" />
<path d="M1325 630h-25v15" />
<text x="1302" y="629" fill="black" stroke-width="0" dy="-1.6">stall1_i__0</text>
<text x="1302" y="661" fill="black" stroke-width="0" dy="9.6">RTL_AND</text>
<path d="M1290 635h10" />
<text x="1299" y="634" fill="black" stroke-width="0" font-size="10" text-anchor="end" dy="-1.33333">I0</text>
<path d="M1290 655h10" />
<text x="1299" y="654" fill="black" stroke-width="0" font-size="10" text-anchor="end" dy="-1.33333">I1</text>
<path d="M1350 645h-10" />
<text x="1341" y="644" fill="black" stroke-width="0" font-size="10" dy="-1.33333">O</text>
<path d="M940 335v15h25h3l3 -1l2 -1l2 -2l3 -3l1 -2l1 -3v-3v-3l-1 -3l-1 -2l-2 -2l-3 -3l-2 -1l-3 -1h-3h-25z" stroke="none" fill="#ffffcc" />
<path d="M940 335v15h25" />
<path d="M965,350 A15,15 -3.14159 1,0 965,320" />
<path d="M965 320h-25v15" />
<text x="942" y="319" fill="black" stroke-width="0" dy="-1.6">stall2_i</text>
<text x="942" y="351" fill="black" stroke-width="0" dy="9.6">RTL_AND</text>
<path d="M930 325h10" />
<text x="939" y="324" fill="black" stroke-width="0" font-size="10" text-anchor="end" dy="-1.33333">I0</text>
<path d="M930 345h10" />
<text x="939" y="344" fill="black" stroke-width="0" font-size="10" text-anchor="end" dy="-1.33333">I1</text>
<path d="M990 335h-10" />
<text x="981" y="334" fill="black" stroke-width="0" font-size="10" dy="-1.33333">O</text>
<path d="M940 435v15h25h3l3 -1l2 -1l2 -2l3 -3l1 -2l1 -3v-3v-3l-1 -3l-1 -2l-2 -2l-3 -3l-2 -1l-3 -1h-3h-25z" stroke="none" fill="#ffffcc" />
<path d="M940 435v15h25" />
<path d="M965,450 A15,15 -3.14159 1,0 965,420" />
<path d="M965 420h-25v15" />
<text x="942" y="419" fill="black" stroke-width="0" dy="-1.6">stall2_i__0</text>
<text x="942" y="451" fill="black" stroke-width="0" dy="9.6">RTL_AND</text>
<path d="M930 425h10" />
<text x="939" y="424" fill="black" stroke-width="0" font-size="10" text-anchor="end" dy="-1.33333">I0</text>
<path d="M930 445h10" />
<text x="939" y="444" fill="black" stroke-width="0" font-size="10" text-anchor="end" dy="-1.33333">I1</text>
<path d="M990 435h-10" />
<text x="981" y="434" fill="black" stroke-width="0" font-size="10" dy="-1.33333">O</text>
<path d="M1510 425v15h25h3l3 -1l2 -1l2 -2l3 -3l1 -2l1 -3v-3v-3l-1 -3l-1 -2l-2 -2l-3 -3l-2 -1l-3 -1h-3h-25z" stroke="none" fill="#ffffcc" />
<path d="M1510 425v15h25" />
<path d="M1535,440 A15,15 -3.14159 1,0 1535,410" />
<path d="M1535 410h-25v15" />
<text x="1512" y="409" fill="black" stroke-width="0" dy="-1.6">stall2_i__1</text>
<text x="1512" y="441" fill="black" stroke-width="0" dy="9.6">RTL_AND</text>
<path d="M1500 415h10" />
<text x="1509" y="414" fill="black" stroke-width="0" font-size="10" text-anchor="end" dy="-1.33333">I0</text>
<path d="M1500 435h10" />
<text x="1509" y="434" fill="black" stroke-width="0" font-size="10" text-anchor="end" dy="-1.33333">I1</text>
<path d="M1560 425h-10" />
<text x="1551" y="424" fill="black" stroke-width="0" font-size="10" dy="-1.33333">O</text>
<circle cx="974" cy="655" r="4" stroke="none" fill="#ffffcc" />
<path d="M940 655v-12l30 12l-30 12z" stroke="none" fill="#ffffcc" />
<circle cx="974" cy="655" r="4" />
<path d="M940 655v-12l30 12l-30 12z" />
<text x="942" y="641" fill="black" stroke-width="0" dy="-1.6">stall2_i__2</text>
<text x="942" y="669" fill="black" stroke-width="0" dy="9.6">RTL_INV</text>
<path d="M930 655h10" />
<text x="938" y="654" fill="black" stroke-width="0" font-size="10" text-anchor="end" dy="-1.33333">I0</text>
<path d="M990 655h-12" />
<text x="980" y="654" fill="black" stroke-width="0" font-size="10" dy="-1.33333">O</text>
<path d="M780 235v15h25h3l3 -1l2 -1l2 -2l3 -3l1 -2l1 -3v-3v-3l-1 -3l-1 -2l-2 -2l-3 -3l-2 -1l-3 -1h-3h-25z" stroke="none" fill="#ffffcc" />
<path d="M780 235v15h25" />
<path d="M805,250 A15,15 -3.14159 1,0 805,220" />
<path d="M805 220h-25v15" />
<text x="782" y="219" fill="black" stroke-width="0" dy="-1.6">stall3_i</text>
<text x="782" y="251" fill="black" stroke-width="0" dy="9.6">RTL_AND</text>
<path d="M770 225h10" />
<text x="779" y="224" fill="black" stroke-width="0" font-size="10" text-anchor="end" dy="-1.33333">I0</text>
<path d="M770 245h10" />
<text x="779" y="244" fill="black" stroke-width="0" font-size="10" text-anchor="end" dy="-1.33333">I1</text>
<path d="M830 235h-10" />
<text x="821" y="234" fill="black" stroke-width="0" font-size="10" dy="-1.33333">O</text>
<path d="M780 330l2 2l2 3l1 2l1 3l1 3v4l-1 3l-1 3l-1 2l-2 3l-2 2h15h3l3 -1l3 -1l2 -1l3 -1l3 -2l2 -2l2 -2l2 -2l2 -3l-2 -3l-2 -2l-2 -2l-2 -2l-3 -2l-3 -1l-2 -1l-3 -1l-3 -1h-3z" stroke="none" fill="#ffffcc" />
<path d="M780,330 A19.5714,19.5714 1.74651 0,1 780,360" />
<path d="M780 360h15" />
<path d="M795,360 A32.596,32.596 -0.927295 0,0 820,345" />
<path d="M820,345 A32.596,32.596 -0.927295 0,0 795,330" />
<path d="M795 330h-15" />
<text x="782" y="329" fill="black" stroke-width="0" dy="-1.6">stall3_i__0</text>
<text x="782" y="361" fill="black" stroke-width="0" dy="9.6">RTL_OR</text>
<path d="M770 335h14" />
<text x="779" y="334" fill="black" stroke-width="0" font-size="10" text-anchor="end" dy="-1.33333">I0</text>
<path d="M770 355h14" />
<text x="779" y="354" fill="black" stroke-width="0" font-size="10" text-anchor="end" dy="-1.33333">I1</text>
<path d="M830 345h-10" />
<text x="821" y="344" fill="black" stroke-width="0" font-size="10" dy="-1.33333">O</text>
<path d="M780 425v15h25h3l3 -1l2 -1l2 -2l3 -3l1 -2l1 -3v-3v-3l-1 -3l-1 -2l-2 -2l-3 -3l-2 -1l-3 -1h-3h-25z" stroke="none" fill="#ffffcc" />
<path d="M780 425v15h25" />
<path d="M805,440 A15,15 -3.14159 1,0 805,410" />
<path d="M805 410h-25v15" />
<text x="782" y="409" fill="black" stroke-width="0" dy="-1.6">stall3_i__1</text>
<text x="782" y="441" fill="black" stroke-width="0" dy="9.6">RTL_AND</text>
<path d="M770 415h10" />
<text x="779" y="414" fill="black" stroke-width="0" font-size="10" text-anchor="end" dy="-1.33333">I0</text>
<path d="M770 435h10" />
<text x="779" y="434" fill="black" stroke-width="0" font-size="10" text-anchor="end" dy="-1.33333">I1</text>
<path d="M830 425h-10" />
<text x="821" y="424" fill="black" stroke-width="0" font-size="10" dy="-1.33333">O</text>
<path d="M780 520l2 2l2 3l1 2l1 3l1 3v4l-1 3l-1 3l-1 2l-2 3l-2 2h15h3l3 -1l3 -1l2 -1l3 -1l3 -2l2 -2l2 -2l2 -2l2 -3l-2 -3l-2 -2l-2 -2l-2 -2l-3 -2l-3 -1l-2 -1l-3 -1l-3 -1h-3z" stroke="none" fill="#ffffcc" />
<path d="M780,520 A19.5714,19.5714 1.74651 0,1 780,550" />
<path d="M780 550h15" />
<path d="M795,550 A32.596,32.596 -0.927295 0,0 820,535" />
<path d="M820,535 A32.596,32.596 -0.927295 0,0 795,520" />
<path d="M795 520h-15" />
<text x="782" y="519" fill="black" stroke-width="0" dy="-1.6">stall3_i__2</text>
<text x="782" y="551" fill="black" stroke-width="0" dy="9.6">RTL_OR</text>
<path d="M770 525h14" />
<text x="779" y="524" fill="black" stroke-width="0" font-size="10" text-anchor="end" dy="-1.33333">I0</text>
<path d="M770 545h14" />
<text x="779" y="544" fill="black" stroke-width="0" font-size="10" text-anchor="end" dy="-1.33333">I1</text>
<path d="M830 535h-10" />
<text x="821" y="534" fill="black" stroke-width="0" font-size="10" dy="-1.33333">O</text>
<path d="M1300 260l2 2l2 3l1 2l1 3l1 3v4l-1 3l-1 3l-1 2l-2 3l-2 2h15h3l3 -1l3 -1l2 -1l3 -1l3 -2l2 -2l2 -2l2 -2l2 -3l-2 -3l-2 -2l-2 -2l-2 -2l-3 -2l-3 -1l-2 -1l-3 -1l-3 -1h-3z" stroke="none" fill="#ffffcc" />
<path d="M1300,260 A19.5714,19.5714 1.74651 0,1 1300,290" />
<path d="M1300 290h15" />
<path d="M1315,290 A32.596,32.596 -0.927295 0,0 1340,275" />
<path d="M1340,275 A32.596,32.596 -0.927295 0,0 1315,260" />
<path d="M1315 260h-15" />
<text x="1302" y="259" fill="black" stroke-width="0" dy="-1.6">stall3_i__3</text>
<text x="1302" y="291" fill="black" stroke-width="0" dy="9.6">RTL_OR</text>
<path d="M1290 265h14" />
<text x="1299" y="264" fill="black" stroke-width="0" font-size="10" text-anchor="end" dy="-1.33333">I0</text>
<path d="M1290 285h14" />
<text x="1299" y="284" fill="black" stroke-width="0" font-size="10" text-anchor="end" dy="-1.33333">I1</text>
<path d="M1350 275h-10" />
<text x="1341" y="274" fill="black" stroke-width="0" font-size="10" dy="-1.33333">O</text>
<circle cx="1321" cy="545" r="21" stroke="none" fill="#ffffcc" />
<circle cx="1321" cy="545" r="21" />
<path d="M1342 545" />
<path d="M1300 535l2 1" />
<path d="M1300 555l2 -1" />
<text x="1321" y="545" fill="black" stroke-width="0" text-anchor="middle" dy="4.4">&gt;=</text>
<text x="1316" y="522" fill="black" stroke-width="0" dy="-1.6">stall3_i__4</text>
<text x="1316" y="568" fill="black" stroke-width="0" dy="9.6">RTL_GEQ</text>
<path d="M1350 545h-8" />
<text x="1344" y="544" fill="black" stroke-width="0" font-size="10" dy="-1.33333">O</text>
</g>
<g stroke="black" stroke-width="3">
<path d="M1290 535h10" />
<text x="1298" y="534" fill="black" stroke-width="0" font-size="10" text-anchor="end" dy="-1.33333">I0[63:0]</text>
<path d="M1290 555h10" />
<text x="1298" y="554" fill="black" stroke-width="0" font-size="10" text-anchor="end" dy="-1.33333">I1[63:0]</text>
<text x="1246" y="554" fill="black" stroke-width="0" font-size="8" text-anchor="end" dy="-1.06667">V=X&quot;0000000020000000&quot;</text>
<circle cx="590" cy="135" r="20" stroke="none" fill="#ffffcc" />
</g>
<g stroke="black">
<circle cx="590" cy="135" r="20" />
<path d="M610 135" />
<path d="M570 125l2 1" />
<path d="M570 145l2 -1" />
<text x="590" y="135" fill="black" stroke-width="0" text-anchor="middle" dy="4.4">!=</text>
<text x="585" y="113" fill="black" stroke-width="0" dy="-1.6">stall4_i</text>
<text x="585" y="157" fill="black" stroke-width="0" dy="9.6">RTL_NEQ</text>
<path d="M620 135h-10" />
<text x="612" y="134" fill="black" stroke-width="0" font-size="10" dy="-1.33333">O</text>
</g>
<g stroke="black" stroke-width="3">
<path d="M560 125h10" />
<text x="568" y="124" fill="black" stroke-width="0" font-size="10" text-anchor="end" dy="-1.33333">I0[4:0]</text>
<path d="M560 145h10" />
<text x="568" y="144" fill="black" stroke-width="0" font-size="10" text-anchor="end" dy="-1.33333">I1[4:0]</text>
<circle cx="590" cy="235" r="20" stroke="none" fill="#ffffcc" />
</g>
<g stroke="black">
<circle cx="590" cy="235" r="20" />
<path d="M610 235" />
<path d="M570 225l2 1" />
<path d="M570 245l2 -1" />
<text x="590" y="235" fill="black" stroke-width="0" text-anchor="middle" dy="4.4">=</text>
<text x="585" y="213" fill="black" stroke-width="0" dy="-1.6">stall4_i__0</text>
<text x="585" y="257" fill="black" stroke-width="0" dy="9.6">RTL_EQ</text>
<path d="M620 235h-10" />
<text x="612" y="234" fill="black" stroke-width="0" font-size="10" dy="-1.33333">O</text>
</g>
<g stroke="black" stroke-width="3">
<path d="M560 225h10" />
<text x="568" y="224" fill="black" stroke-width="0" font-size="10" text-anchor="end" dy="-1.33333">I0[4:0]</text>
<path d="M560 245h10" />
<text x="568" y="244" fill="black" stroke-width="0" font-size="10" text-anchor="end" dy="-1.33333">I1[4:0]</text>
<path d="M570 355v15h25h3l3 -1l2 -1l2 -2l3 -3l1 -2l1 -3v-3v-3l-1 -3l-1 -2l-2 -2l-3 -3l-2 -1l-3 -1h-3h-25z" stroke="none" fill="#ffffcc" />
</g>
<g stroke="black">
<path d="M570 355v15h25" />
<path d="M595,370 A15,15 -3.14159 1,0 595,340" />
<path d="M595 340h-25v15" />
<text x="572" y="339" fill="black" stroke-width="0" dy="-1.6">stall4_i__1</text>
<text x="572" y="371" fill="black" stroke-width="0" dy="9.6">RTL_AND</text>
<path d="M560 345h10" />
<text x="569" y="344" fill="black" stroke-width="0" font-size="10" text-anchor="end" dy="-1.33333">I0</text>
<path d="M560 365h10" />
<text x="569" y="364" fill="black" stroke-width="0" font-size="10" text-anchor="end" dy="-1.33333">I1</text>
<path d="M620 355h-10" />
<text x="611" y="354" fill="black" stroke-width="0" font-size="10" dy="-1.33333">O</text>
<circle cx="590" cy="435" r="20" stroke="none" fill="#ffffcc" />
<circle cx="590" cy="435" r="20" />
<path d="M610 435" />
<path d="M570 425l2 1" />
<path d="M570 445l2 -1" />
<text x="590" y="435" fill="black" stroke-width="0" text-anchor="middle" dy="4.4">!=</text>
<text x="585" y="413" fill="black" stroke-width="0" dy="-1.6">stall4_i__2</text>
<text x="585" y="457" fill="black" stroke-width="0" dy="9.6">RTL_NEQ</text>
<path d="M620 435h-10" />
<text x="612" y="434" fill="black" stroke-width="0" font-size="10" dy="-1.33333">O</text>
</g>
<g stroke="black" stroke-width="3">
<path d="M560 425h10" />
<text x="568" y="424" fill="black" stroke-width="0" font-size="10" text-anchor="end" dy="-1.33333">I0[4:0]</text>
<path d="M560 445h10" />
<text x="568" y="444" fill="black" stroke-width="0" font-size="10" text-anchor="end" dy="-1.33333">I1[4:0]</text>
<circle cx="590" cy="535" r="20" stroke="none" fill="#ffffcc" />
</g>
<g stroke="black">
<circle cx="590" cy="535" r="20" />
<path d="M610 535" />
<path d="M570 525l2 1" />
<path d="M570 545l2 -1" />
<text x="590" y="535" fill="black" stroke-width="0" text-anchor="middle" dy="4.4">=</text>
<text x="585" y="513" fill="black" stroke-width="0" dy="-1.6">stall4_i__3</text>
<text x="585" y="557" fill="black" stroke-width="0" dy="9.6">RTL_EQ</text>
<path d="M620 535h-10" />
<text x="612" y="534" fill="black" stroke-width="0" font-size="10" dy="-1.33333">O</text>
</g>
<g stroke="black" stroke-width="3">
<path d="M560 525h10" />
<text x="568" y="524" fill="black" stroke-width="0" font-size="10" text-anchor="end" dy="-1.33333">I0[4:0]</text>
<path d="M560 545h10" />
<text x="568" y="544" fill="black" stroke-width="0" font-size="10" text-anchor="end" dy="-1.33333">I1[4:0]</text>
<path d="M570 635v15h25h3l3 -1l2 -1l2 -2l3 -3l1 -2l1 -3v-3v-3l-1 -3l-1 -2l-2 -2l-3 -3l-2 -1l-3 -1h-3h-25z" stroke="none" fill="#ffffcc" />
</g>
<g stroke="black">
<path d="M570 635v15h25" />
<path d="M595,650 A15,15 -3.14159 1,0 595,620" />
<path d="M595 620h-25v15" />
<text x="572" y="619" fill="black" stroke-width="0" dy="-1.6">stall4_i__4</text>
<text x="572" y="651" fill="black" stroke-width="0" dy="9.6">RTL_AND</text>
<path d="M560 625h10" />
<text x="569" y="624" fill="black" stroke-width="0" font-size="10" text-anchor="end" dy="-1.33333">I0</text>
<path d="M560 645h10" />
<text x="569" y="644" fill="black" stroke-width="0" font-size="10" text-anchor="end" dy="-1.33333">I1</text>
<path d="M620 635h-10" />
<text x="611" y="634" fill="black" stroke-width="0" font-size="10" dy="-1.33333">O</text>
<circle cx="320" cy="365" r="20" stroke="none" fill="#ffffcc" />
<circle cx="320" cy="365" r="20" />
<path d="M340 365" />
<path d="M300 355l2 1" />
<path d="M300 375l2 -1" />
<text x="320" y="365" fill="black" stroke-width="0" text-anchor="middle" dy="4.4">=</text>
<text x="315" y="343" fill="black" stroke-width="0" dy="-1.6">stall5_i</text>
<text x="315" y="387" fill="black" stroke-width="0" dy="9.6">RTL_EQ</text>
<path d="M350 365h-10" />
<text x="342" y="364" fill="black" stroke-width="0" font-size="10" dy="-1.33333">O</text>
</g>
<g stroke="black" stroke-width="3">
<path d="M290 355h10" />
<text x="298" y="354" fill="black" stroke-width="0" font-size="10" text-anchor="end" dy="-1.33333">I0[4:0]</text>
<path d="M290 375h10" />
<text x="298" y="374" fill="black" stroke-width="0" font-size="10" text-anchor="end" dy="-1.33333">I1[4:0]</text>
<circle cx="320" cy="505" r="20" stroke="none" fill="#ffffcc" />
</g>
<g stroke="black">
<circle cx="320" cy="505" r="20" />
<path d="M340 505" />
<path d="M300 495l2 1" />
<path d="M300 515l2 -1" />
<text x="320" y="505" fill="black" stroke-width="0" text-anchor="middle" dy="4.4">=</text>
<text x="315" y="483" fill="black" stroke-width="0" dy="-1.6">stall5_i__0</text>
<text x="315" y="527" fill="black" stroke-width="0" dy="9.6">RTL_EQ</text>
<path d="M350 505h-10" />
<text x="342" y="504" fill="black" stroke-width="0" font-size="10" dy="-1.33333">O</text>
</g>
<g stroke="black" stroke-width="3">
<path d="M290 495h10" />
<text x="298" y="494" fill="black" stroke-width="0" font-size="10" text-anchor="end" dy="-1.33333">I0[4:0]</text>
<path d="M290 515h10" />
<text x="298" y="514" fill="black" stroke-width="0" font-size="10" text-anchor="end" dy="-1.33333">I1[4:0]</text>
</g>
<g stroke="black">
<path d="M492 185h16" />
<path d="M495 188h10" />
<path d="M498 191h4" />
<path d="M492 485h16" />
<path d="M495 488h10" />
<path d="M498 491h4" />
<path d="M1090 495v-4" />
<path d="M1082 491h16" />
<path d="M1082 595h16" />
<path d="M1085 598h10" />
<path d="M1088 601h4" />
</g>
<g stroke="green" stroke-width="3">
<path d="M150 225h40v290h100" />
<path d="M190 455h290" />
<path d="M477 452h7v7h-7z" stroke="none" fill="green" />
<path d="M187 452h7v7h-7z" stroke="none" fill="green" />
<path d="M560 425h-80v120h80" />
<path d="M290 375h-60v-110h210v-140h120" />
<path d="M440 245h120" />
<path d="M437 242h7v7h-7z" stroke="none" fill="green" />
<path d="M150 285h80" />
<path d="M227 282h7v7h-7z" stroke="none" fill="green" />
<path d="M150 435h310" />
<path d="M457 432h7v7h-7z" stroke="none" fill="green" />
<path d="M560 225h-100v300h100" />
<path d="M290 355h-120v140h120" />
<path d="M150 455h20" />
<path d="M167 452h7v7h-7z" stroke="none" fill="green" />
<path d="M150 585h900v-50h240" />
</g>
<g stroke-width="2">
<path d="M1290 555h-195l-1 1" />
</g>
<g stroke="black">
<path d="M1095 555l-5 5v1" />
</g>
<g>
<path d="M1090 560v35" />
<path d="M560 445h-60v40" />
<path d="M560 145h-60v40" />
<path d="M1090 495v55l1 1" />
</g>
<g stroke="black">
<path d="M1090 550l5 5h1" />
</g>
<g stroke-width="2">
<path d="M1095 555h195" />
</g>
<g>
<path d="M150 245h270v40h310v130h40" />
<path d="M730 285h560" />
<path d="M728 283h5v5h-5z" stroke="none" fill="#19b400" />
<path d="M150 265h60v-180h880v180h200" />
<path d="M150 305h560v-80h60" />
<path d="M150 415h290" />
<path d="M438 413h5v5h-5z" stroke="none" fill="#19b400" />
<path d="M560 345h-120v280h120" />
<path d="M150 685h740v-30h40" />
<path d="M1290 635h-220v-160h550v-50h-60" />
<path d="M1620 425h20" />
<path d="M1618 423h5v5h-5z" stroke="none" fill="#19b400" />
<path d="M1560 525h80" />
<path d="M1350 425h70v90h80" />
<path d="M1350 645h110v-110h40" />
<path d="M990 335h100v80h200" />
<path d="M990 435h300" />
<path d="M990 655h300" />
<path d="M830 235h60v90h40" />
<path d="M830 345h100" />
<path d="M830 425h100" />
<path d="M830 535h60v-90h40" />
<path d="M1350 275h90v140h60" />
<path d="M1350 545h90v-110h60" />
<path d="M620 355h150" />
<path d="M620 235h70v100h80" />
<path d="M620 435h150" />
<path d="M620 535h70v-10h80" />
<path d="M620 635h110v-90h40" />
<path d="M620 135h110v110h40" />
<path d="M350 365h210" />
<path d="M350 505h70v140h140" />
</g>
</g>
</svg>
