<?xml version="1.0" encoding="UTF-8" standalone="no"?>
<svg viewBox="0 0 2615 815"
     preserveAspectRatio="xMidYMid meet"
     version="1.1"
     baseProfile="full"
     xmlns="http://www.w3.org/2000/svg"
     xmlns:xlink="http://www.w3.org/1999/xlink"
     xmlns:ev="http://www.w3.org/2001/xml-events"
     xml:space="preserve">
<title>SOC</title>
<desc>Nlview schematic (SVG)</desc>
<clipPath id="clippingbbox">
<rect x="0" y="0" width="2615" height="815" />
</clipPath>
<g stroke="#8bc34a"
   stroke-width="1"
   stroke-linecap="butt"
   stroke-linejoin="miter"
   stroke-miterlimit="4"
   stroke-dasharray="none"
   stroke-dashoffset="0"
   fill="none"
   font-family="Helvetica"
   font-style="normal"
   font-size="12"
   writing-mode="lr-tb"
   cursor="crosshair"
   clip-path="url(#clippingbbox)">
<path d="M0 0h2614v816h-2614z" stroke="none" fill="white" />
<path d="M18 29h2579l3 1l3 1l1 3l1 3v740l-1 3l-1 3l-3 1l-3 1h-2579l-3 -1l-3 -1l-1 -3l-1 -3v-740l1 -3l1 -3l3 -1z" stroke="none" fill="white" />
<g stroke="#575d6c">
<path d="M18 29h2579" />
<path d="M2597,29 A7.83511,7.83511 1.61334 0,1 2605,37" />
<path d="M2605 37v740" />
<path d="M2605,777 A7.83511,7.83511 1.61334 0,1 2597,785" />
<path d="M2597 785h-2579" />
<path d="M18,785 A7.83511,7.83511 1.61334 0,1 10,777" />
<path d="M10 777v-740" />
<path d="M10,37 A7.83511,7.83511 1.61334 0,1 18,29" />
<text x="1307" y="27" fill="#1c1f28" stroke-width="0" text-anchor="middle" dy="-1.6">core</text>
</g>
<g stroke="#575d6c" stroke-width="3">
<path d="M15 40h12" />
</g>
<g stroke="#575d6c">
<path d="M13 32h16v16h-16z" />
<text x="1307" y="787" fill="#1c1f28" stroke-width="0" text-anchor="middle" dy="9.6">core</text>
<path d="M168 75h2324l3 1l3 1l1 3l1 3v664l-1 3l-1 3l-3 1l-3 1h-2324l-3 -1l-3 -1l-1 -3l-1 -3v-664l1 -3l1 -3l3 -1z" stroke="none" fill="white" />
<path d="M168 75h2324" />
<path d="M2492,75 A7.83511,7.83511 1.61334 0,1 2500,83" />
<path d="M2500 83v664" />
<path d="M2500,747 A7.83511,7.83511 1.61334 0,1 2492,755" />
<path d="M2492 755h-2324" />
<path d="M168,755 A7.83511,7.83511 1.61334 0,1 160,747" />
<path d="M160 747v-664" />
<path d="M160,83 A7.83511,7.83511 1.61334 0,1 168,75" />
</g>
<g stroke="#575d6c" stroke-width="3">
<path d="M165 86h12" />
</g>
<g stroke="#575d6c">
<path d="M163 78h16v16h-16z" />
<text x="1330" y="73" fill="#1c1f28" stroke-width="0" text-anchor="middle" dy="-1.6">forward_unit</text>
<text x="1330" y="757" fill="#1c1f28" stroke-width="0" text-anchor="middle" dy="9.6">core_forward</text>
</g>
<g stroke="#1c1f28">
<path d="M150 225h10" />
<text x="158" y="223" fill="#1c1f28" stroke-width="0" font-size="10" text-anchor="end" dy="-1.33333">EX_alu_writeback</text>
<path d="M150 265h10" />
<text x="158" y="263" fill="#1c1f28" stroke-width="0" font-size="10" text-anchor="end" dy="-1.33333">ID_B_is_reg</text>
<path d="M150 635h10" />
<text x="158" y="633" fill="#1c1f28" stroke-width="0" font-size="10" text-anchor="end" dy="-1.33333">MEM1_writeback</text>
<path d="M150 505h10" />
<text x="158" y="503" fill="#1c1f28" stroke-width="0" font-size="10" text-anchor="end" dy="-1.33333">MEM_mem_writeback</text>
</g>
<g stroke="#1c1f28" stroke-width="3">
<path d="M150 245h10" />
<text x="158" y="243" fill="#1c1f28" stroke-width="0" font-size="10" text-anchor="end" dy="-1.33333">EX_rd[4:0]</text>
<path d="M150 405h10" />
<text x="158" y="403" fill="#1c1f28" stroke-width="0" font-size="10" text-anchor="end" dy="-1.33333">ID_rs[4:0]</text>
<path d="M150 425h10" />
<text x="158" y="423" fill="#1c1f28" stroke-width="0" font-size="10" text-anchor="end" dy="-1.33333">ID_rt[4:0]</text>
<path d="M150 545h10" />
<text x="158" y="543" fill="#1c1f28" stroke-width="0" font-size="10" text-anchor="end" dy="-1.33333">MEM1_rd[4:0]</text>
<path d="M150 525h10" />
<text x="158" y="523" fill="#1c1f28" stroke-width="0" font-size="10" text-anchor="end" dy="-1.33333">MEM_rd[4:0]</text>
<path d="M2510 205h-10" />
<text x="2502" y="203" fill="#1c1f28" stroke-width="0" font-size="10" dy="-1.33333">forward_A[1:0]</text>
<path d="M2510 225h-10" />
<text x="2502" y="223" fill="#1c1f28" stroke-width="0" font-size="10" dy="-1.33333">forward_B[1:0]</text>
</g>
<g stroke="#1c1f28">
<path d="M170 225h-10" />
<path d="M170 265h-10" />
<path d="M170 635h-10" />
<path d="M170 505h-10" />
</g>
<g stroke="#1c1f28" stroke-width="3">
<path d="M170 245h-10" />
<path d="M170 405h-10" />
<path d="M170 425h-10" />
<path d="M170 545h-10" />
<path d="M170 525h-10" />
<path d="M2490 205h10" />
<path d="M2490 225h10" />
<path d="M940 395l40 15v30l-40 15z" stroke="none" fill="#e5c7ff" />
</g>
<g stroke="#575d6c">
<path d="M940 395l40 15v30l-40 15z" />
<text x="960" y="393" fill="#1c1f28" stroke-width="0" text-anchor="middle" dy="-1.6">forward_A_i</text>
<text x="964" y="449" fill="#1c1f28" stroke-width="0" dy="9.6">RTL_MUX</text>
</g>
<g stroke="#1c1f28">
<path d="M960 455v-8" />
<text x="958" y="455" fill="#1c1f28" stroke-width="0" font-size="10" text-anchor="end" dy="8">S</text>
</g>
<g stroke="#1c1f28" stroke-width="3">
<path d="M930 415h10" />
<text x="938" y="414" fill="#1c1f28" stroke-width="0" font-size="10" text-anchor="end" dy="-1.33333">I0[1:0]</text>
<text x="892" y="414" fill="black" stroke-width="0" font-size="8" text-anchor="end" dy="-1.06667">S=1&apos;b1</text>
<path d="M930 435h10" />
<text x="938" y="434" fill="#1c1f28" stroke-width="0" font-size="10" text-anchor="end" dy="-1.33333">I1[1:0]</text>
<text x="892" y="434" fill="black" stroke-width="0" font-size="8" text-anchor="end" dy="-1.06667">S=default</text>
<path d="M990 425h-10" />
<text x="982" y="424" fill="#1c1f28" stroke-width="0" font-size="10" dy="-1.33333">O[1:0]</text>
<path d="M1340 475l40 15v30l-40 15z" stroke="none" fill="#e5c7ff" />
</g>
<g stroke="#575d6c">
<path d="M1340 475l40 15v30l-40 15z" />
<text x="1360" y="473" fill="#1c1f28" stroke-width="0" text-anchor="middle" dy="-1.6">forward_A_i__0</text>
<text x="1364" y="529" fill="#1c1f28" stroke-width="0" dy="9.6">RTL_MUX</text>
</g>
<g stroke="#1c1f28">
<path d="M1360 535v-8" />
<text x="1358" y="535" fill="#1c1f28" stroke-width="0" font-size="10" text-anchor="end" dy="8">S</text>
</g>
<g stroke="#1c1f28" stroke-width="3">
<path d="M1330 495h10" />
<text x="1338" y="494" fill="#1c1f28" stroke-width="0" font-size="10" text-anchor="end" dy="-1.33333">I0[1:0]</text>
<text x="1292" y="494" fill="black" stroke-width="0" font-size="8" text-anchor="end" dy="-1.06667">V=B&quot;10&quot;, S=1&apos;b1</text>
<path d="M1330 515h10" />
<text x="1338" y="514" fill="#1c1f28" stroke-width="0" font-size="10" text-anchor="end" dy="-1.33333">I1[1:0]</text>
<text x="1292" y="514" fill="black" stroke-width="0" font-size="8" text-anchor="end" dy="-1.06667">S=default</text>
<path d="M1390 505h-10" />
<text x="1382" y="504" fill="#1c1f28" stroke-width="0" font-size="10" dy="-1.33333">O[1:0]</text>
<path d="M1710 445l40 15v30l-40 15z" stroke="none" fill="#e5c7ff" />
</g>
<g stroke="#575d6c">
<path d="M1710 445l40 15v30l-40 15z" />
<text x="1730" y="443" fill="#1c1f28" stroke-width="0" text-anchor="middle" dy="-1.6">forward_A_i__1</text>
<text x="1734" y="499" fill="#1c1f28" stroke-width="0" dy="9.6">RTL_MUX</text>
</g>
<g stroke="#1c1f28">
<path d="M1730 505v-8" />
<text x="1728" y="505" fill="#1c1f28" stroke-width="0" font-size="10" text-anchor="end" dy="8">S</text>
</g>
<g stroke="#1c1f28" stroke-width="3">
<path d="M1700 465h10" />
<text x="1708" y="464" fill="#1c1f28" stroke-width="0" font-size="10" text-anchor="end" dy="-1.33333">I0[1:0]</text>
<text x="1662" y="464" fill="black" stroke-width="0" font-size="8" text-anchor="end" dy="-1.06667">S=1&apos;b1</text>
<path d="M1700 485h10" />
<text x="1708" y="484" fill="#1c1f28" stroke-width="0" font-size="10" text-anchor="end" dy="-1.33333">I1[1:0]</text>
<text x="1662" y="484" fill="black" stroke-width="0" font-size="8" text-anchor="end" dy="-1.06667">S=default</text>
<path d="M1760 475h-10" />
<text x="1752" y="474" fill="#1c1f28" stroke-width="0" font-size="10" dy="-1.33333">O[1:0]</text>
<path d="M2050 435l40 15v30l-40 15z" stroke="none" fill="#e5c7ff" />
</g>
<g stroke="#575d6c">
<path d="M2050 435l40 15v30l-40 15z" />
<text x="2070" y="433" fill="#1c1f28" stroke-width="0" text-anchor="middle" dy="-1.6">forward_A_i__2</text>
<text x="2074" y="489" fill="#1c1f28" stroke-width="0" dy="9.6">RTL_MUX</text>
</g>
<g stroke="#1c1f28">
<path d="M2070 495v-8" />
<text x="2068" y="495" fill="#1c1f28" stroke-width="0" font-size="10" text-anchor="end" dy="8">S</text>
</g>
<g stroke="#1c1f28" stroke-width="3">
<path d="M2040 455h10" />
<text x="2048" y="454" fill="#1c1f28" stroke-width="0" font-size="10" text-anchor="end" dy="-1.33333">I0[1:0]</text>
<text x="2002" y="454" fill="black" stroke-width="0" font-size="8" text-anchor="end" dy="-1.06667">V=B&quot;01&quot;, S=1&apos;b1</text>
<path d="M2040 475h10" />
<text x="2048" y="474" fill="#1c1f28" stroke-width="0" font-size="10" text-anchor="end" dy="-1.33333">I1[1:0]</text>
<text x="2002" y="474" fill="black" stroke-width="0" font-size="8" text-anchor="end" dy="-1.06667">S=default</text>
<path d="M2100 465h-10" />
<text x="2092" y="464" fill="#1c1f28" stroke-width="0" font-size="10" dy="-1.33333">O[1:0]</text>
<path d="M2350 345l40 15v30l-40 15z" stroke="none" fill="#e5c7ff" />
</g>
<g stroke="#575d6c">
<path d="M2350 345l40 15v30l-40 15z" />
<text x="2370" y="343" fill="#1c1f28" stroke-width="0" text-anchor="middle" dy="-1.6">forward_A_i__3</text>
<text x="2374" y="399" fill="#1c1f28" stroke-width="0" dy="9.6">RTL_MUX</text>
</g>
<g stroke="#1c1f28">
<path d="M2370 405v-8" />
<text x="2368" y="405" fill="#1c1f28" stroke-width="0" font-size="10" text-anchor="end" dy="8">S</text>
</g>
<g stroke="#1c1f28" stroke-width="3">
<path d="M2340 365h10" />
<text x="2348" y="364" fill="#1c1f28" stroke-width="0" font-size="10" text-anchor="end" dy="-1.33333">I0[1:0]</text>
<text x="2302" y="364" fill="black" stroke-width="0" font-size="8" text-anchor="end" dy="-1.06667">S=1&apos;b1</text>
<path d="M2340 385h10" />
<text x="2348" y="384" fill="#1c1f28" stroke-width="0" font-size="10" text-anchor="end" dy="-1.33333">I1[1:0]</text>
<text x="2302" y="384" fill="black" stroke-width="0" font-size="8" text-anchor="end" dy="-1.06667">S=default</text>
<path d="M2400 375h-10" />
<text x="2392" y="374" fill="#1c1f28" stroke-width="0" font-size="10" dy="-1.33333">O[1:0]</text>
<circle cx="630" cy="415" r="20" stroke="none" fill="#e5c7ff" />
</g>
<g stroke="#575d6c">
<circle cx="630" cy="415" r="20" />
<path d="M650 415" />
<path d="M610 405l2 1" />
<path d="M610 425l2 -1" />
<text x="630" y="415" fill="#575d6c" stroke-width="0" text-anchor="middle" dy="4.4">=</text>
<text x="625" y="393" fill="#1c1f28" stroke-width="0" dy="-1.6">forward_A0_i</text>
<text x="625" y="437" fill="#1c1f28" stroke-width="0" dy="9.6">RTL_EQ</text>
</g>
<g stroke="#1c1f28">
<path d="M660 415h-10" />
<text x="652" y="414" fill="#1c1f28" stroke-width="0" font-size="10" dy="-1.33333">O</text>
</g>
<g stroke="#1c1f28" stroke-width="3">
<path d="M600 405h10" />
<text x="608" y="404" fill="#1c1f28" stroke-width="0" font-size="10" text-anchor="end" dy="-1.33333">I0[4:0]</text>
<path d="M600 425h10" />
<text x="608" y="424" fill="#1c1f28" stroke-width="0" font-size="10" text-anchor="end" dy="-1.33333">I1[4:0]</text>
<path d="M610 495v15h25h3l3 -1l2 -1l2 -2l3 -3l1 -2l1 -3v-3v-3l-1 -3l-1 -2l-2 -2l-3 -3l-2 -1l-3 -1h-3h-25z" stroke="none" fill="#e5c7ff" />
</g>
<g stroke="#575d6c">
<path d="M610 495v15h25" />
<path d="M635,510 A15,15 -3.14159 1,0 635,480" />
<path d="M635 480h-25v15" />
<text x="612" y="479" fill="#1c1f28" stroke-width="0" dy="-1.6">forward_A1_i</text>
<text x="612" y="511" fill="#1c1f28" stroke-width="0" dy="9.6">RTL_AND</text>
</g>
<g stroke="#1c1f28">
<path d="M600 485h10" />
<text x="609" y="484" fill="#1c1f28" stroke-width="0" font-size="10" text-anchor="end" dy="-1.33333">I0</text>
<path d="M600 505h10" />
<text x="609" y="504" fill="#1c1f28" stroke-width="0" font-size="10" text-anchor="end" dy="-1.33333">I1</text>
<path d="M660 495h-10" />
<text x="651" y="494" fill="#1c1f28" stroke-width="0" font-size="10" dy="-1.33333">O</text>
<circle cx="960" cy="545" r="20" stroke="none" fill="#e5c7ff" />
</g>
<g stroke="#575d6c">
<circle cx="960" cy="545" r="20" />
<path d="M980 545" />
<path d="M940 535l2 1" />
<path d="M940 555l2 -1" />
<text x="960" y="545" fill="#575d6c" stroke-width="0" text-anchor="middle" dy="4.4">=</text>
<text x="955" y="523" fill="#1c1f28" stroke-width="0" dy="-1.6">forward_A1_i__0</text>
<text x="955" y="567" fill="#1c1f28" stroke-width="0" dy="9.6">RTL_EQ</text>
</g>
<g stroke="#1c1f28">
<path d="M990 545h-10" />
<text x="982" y="544" fill="#1c1f28" stroke-width="0" font-size="10" dy="-1.33333">O</text>
</g>
<g stroke="#1c1f28" stroke-width="3">
<path d="M930 535h10" />
<text x="938" y="534" fill="#1c1f28" stroke-width="0" font-size="10" text-anchor="end" dy="-1.33333">I0[4:0]</text>
<path d="M930 555h10" />
<text x="938" y="554" fill="#1c1f28" stroke-width="0" font-size="10" text-anchor="end" dy="-1.33333">I1[4:0]</text>
<path d="M1340 645v15h25h3l3 -1l2 -1l2 -2l3 -3l1 -2l1 -3v-3v-3l-1 -3l-1 -2l-2 -2l-3 -3l-2 -1l-3 -1h-3h-25z" stroke="none" fill="#e5c7ff" />
</g>
<g stroke="#575d6c">
<path d="M1340 645v15h25" />
<path d="M1365,660 A15,15 -3.14159 1,0 1365,630" />
<path d="M1365 630h-25v15" />
<text x="1342" y="629" fill="#1c1f28" stroke-width="0" dy="-1.6">forward_A1_i__1</text>
<text x="1342" y="661" fill="#1c1f28" stroke-width="0" dy="9.6">RTL_AND</text>
</g>
<g stroke="#1c1f28">
<path d="M1330 635h10" />
<text x="1339" y="634" fill="#1c1f28" stroke-width="0" font-size="10" text-anchor="end" dy="-1.33333">I0</text>
<path d="M1330 655h10" />
<text x="1339" y="654" fill="#1c1f28" stroke-width="0" font-size="10" text-anchor="end" dy="-1.33333">I1</text>
<path d="M1390 645h-10" />
<text x="1381" y="644" fill="#1c1f28" stroke-width="0" font-size="10" dy="-1.33333">O</text>
<circle cx="1730" cy="585" r="20" stroke="none" fill="#e5c7ff" />
</g>
<g stroke="#575d6c">
<circle cx="1730" cy="585" r="20" />
<path d="M1750 585" />
<path d="M1710 575l2 1" />
<path d="M1710 595l2 -1" />
<text x="1730" y="585" fill="#575d6c" stroke-width="0" text-anchor="middle" dy="4.4">=</text>
<text x="1725" y="563" fill="#1c1f28" stroke-width="0" dy="-1.6">forward_A1_i__2</text>
<text x="1725" y="607" fill="#1c1f28" stroke-width="0" dy="9.6">RTL_EQ</text>
</g>
<g stroke="#1c1f28">
<path d="M1760 585h-10" />
<text x="1752" y="584" fill="#1c1f28" stroke-width="0" font-size="10" dy="-1.33333">O</text>
</g>
<g stroke="#1c1f28" stroke-width="3">
<path d="M1700 575h10" />
<text x="1708" y="574" fill="#1c1f28" stroke-width="0" font-size="10" text-anchor="end" dy="-1.33333">I0[4:0]</text>
<path d="M1700 595h10" />
<text x="1708" y="594" fill="#1c1f28" stroke-width="0" font-size="10" text-anchor="end" dy="-1.33333">I1[4:0]</text>
<path d="M2050 335v15h25h3l3 -1l2 -1l2 -2l3 -3l1 -2l1 -3v-3v-3l-1 -3l-1 -2l-2 -2l-3 -3l-2 -1l-3 -1h-3h-25z" stroke="none" fill="#e5c7ff" />
</g>
<g stroke="#575d6c">
<path d="M2050 335v15h25" />
<path d="M2075,350 A15,15 -3.14159 1,0 2075,320" />
<path d="M2075 320h-25v15" />
<text x="2052" y="319" fill="#1c1f28" stroke-width="0" dy="-1.6">forward_A1_i__3</text>
<text x="2052" y="351" fill="#1c1f28" stroke-width="0" dy="9.6">RTL_AND</text>
</g>
<g stroke="#1c1f28">
<path d="M2040 325h10" />
<text x="2049" y="324" fill="#1c1f28" stroke-width="0" font-size="10" text-anchor="end" dy="-1.33333">I0</text>
<path d="M2040 345h10" />
<text x="2049" y="344" fill="#1c1f28" stroke-width="0" font-size="10" text-anchor="end" dy="-1.33333">I1</text>
<path d="M2100 335h-10" />
<text x="2091" y="334" fill="#1c1f28" stroke-width="0" font-size="10" dy="-1.33333">O</text>
<circle cx="340" cy="455" r="20" stroke="none" fill="#e5c7ff" />
</g>
<g stroke="#575d6c">
<circle cx="340" cy="455" r="20" />
<path d="M360 455" />
<path d="M320 445l2 1" />
<path d="M320 465l2 -1" />
<text x="340" y="455" fill="#575d6c" stroke-width="0" text-anchor="middle" dy="4.4">!=</text>
<text x="335" y="433" fill="#1c1f28" stroke-width="0" dy="-1.6">forward_A2_i</text>
<text x="335" y="477" fill="#1c1f28" stroke-width="0" dy="9.6">RTL_NEQ</text>
</g>
<g stroke="#1c1f28">
<path d="M370 455h-10" />
<text x="362" y="454" fill="#1c1f28" stroke-width="0" font-size="10" dy="-1.33333">O</text>
</g>
<g stroke="#1c1f28" stroke-width="3">
<path d="M310 445h10" />
<text x="318" y="444" fill="#1c1f28" stroke-width="0" font-size="10" text-anchor="end" dy="-1.33333">I0[4:0]</text>
<path d="M310 465h10" />
<text x="318" y="464" fill="#1c1f28" stroke-width="0" font-size="10" text-anchor="end" dy="-1.33333">I1[4:0]</text>
<circle cx="960" cy="685" r="20" stroke="none" fill="#e5c7ff" />
</g>
<g stroke="#575d6c">
<circle cx="960" cy="685" r="20" />
<path d="M980 685" />
<path d="M940 675l2 1" />
<path d="M940 695l2 -1" />
<text x="960" y="685" fill="#575d6c" stroke-width="0" text-anchor="middle" dy="4.4">!=</text>
<text x="955" y="663" fill="#1c1f28" stroke-width="0" dy="-1.6">forward_A2_i__0</text>
<text x="955" y="707" fill="#1c1f28" stroke-width="0" dy="9.6">RTL_NEQ</text>
</g>
<g stroke="#1c1f28">
<path d="M990 685h-10" />
<text x="982" y="684" fill="#1c1f28" stroke-width="0" font-size="10" dy="-1.33333">O</text>
</g>
<g stroke="#1c1f28" stroke-width="3">
<path d="M930 675h10" />
<text x="938" y="674" fill="#1c1f28" stroke-width="0" font-size="10" text-anchor="end" dy="-1.33333">I0[4:0]</text>
<path d="M930 695h10" />
<text x="938" y="694" fill="#1c1f28" stroke-width="0" font-size="10" text-anchor="end" dy="-1.33333">I1[4:0]</text>
<circle cx="1730" cy="365" r="20" stroke="none" fill="#e5c7ff" />
</g>
<g stroke="#575d6c">
<circle cx="1730" cy="365" r="20" />
<path d="M1750 365" />
<path d="M1710 355l2 1" />
<path d="M1710 375l2 -1" />
<text x="1730" y="365" fill="#575d6c" stroke-width="0" text-anchor="middle" dy="4.4">!=</text>
<text x="1725" y="343" fill="#1c1f28" stroke-width="0" dy="-1.6">forward_A2_i__1</text>
<text x="1725" y="387" fill="#1c1f28" stroke-width="0" dy="9.6">RTL_NEQ</text>
</g>
<g stroke="#1c1f28">
<path d="M1760 365h-10" />
<text x="1752" y="364" fill="#1c1f28" stroke-width="0" font-size="10" dy="-1.33333">O</text>
</g>
<g stroke="#1c1f28" stroke-width="3">
<path d="M1700 355h10" />
<text x="1708" y="354" fill="#1c1f28" stroke-width="0" font-size="10" text-anchor="end" dy="-1.33333">I0[4:0]</text>
<path d="M1700 375h10" />
<text x="1708" y="374" fill="#1c1f28" stroke-width="0" font-size="10" text-anchor="end" dy="-1.33333">I1[4:0]</text>
<path d="M940 225l40 15v30l-40 15z" stroke="none" fill="#e5c7ff" />
</g>
<g stroke="#575d6c">
<path d="M940 225l40 15v30l-40 15z" />
<text x="960" y="223" fill="#1c1f28" stroke-width="0" text-anchor="middle" dy="-1.6">forward_B_i</text>
<text x="964" y="279" fill="#1c1f28" stroke-width="0" dy="9.6">RTL_MUX</text>
</g>
<g stroke="#1c1f28">
<path d="M960 285v-8" />
<text x="958" y="285" fill="#1c1f28" stroke-width="0" font-size="10" text-anchor="end" dy="8">S</text>
</g>
<g stroke="#1c1f28" stroke-width="3">
<path d="M930 245h10" />
<text x="938" y="244" fill="#1c1f28" stroke-width="0" font-size="10" text-anchor="end" dy="-1.33333">I0[1:0]</text>
<text x="892" y="244" fill="black" stroke-width="0" font-size="8" text-anchor="end" dy="-1.06667">S=1&apos;b1</text>
<path d="M930 265h10" />
<text x="938" y="264" fill="#1c1f28" stroke-width="0" font-size="10" text-anchor="end" dy="-1.33333">I1[1:0]</text>
<text x="892" y="264" fill="black" stroke-width="0" font-size="8" text-anchor="end" dy="-1.06667">S=default</text>
<path d="M990 255h-10" />
<text x="982" y="254" fill="#1c1f28" stroke-width="0" font-size="10" dy="-1.33333">O[1:0]</text>
<path d="M1340 145l40 15v30l-40 15z" stroke="none" fill="#e5c7ff" />
</g>
<g stroke="#575d6c">
<path d="M1340 145l40 15v30l-40 15z" />
<text x="1360" y="143" fill="#1c1f28" stroke-width="0" text-anchor="middle" dy="-1.6">forward_B_i__0</text>
<text x="1364" y="199" fill="#1c1f28" stroke-width="0" dy="9.6">RTL_MUX</text>
</g>
<g stroke="#1c1f28">
<path d="M1360 205v-8" />
<text x="1358" y="205" fill="#1c1f28" stroke-width="0" font-size="10" text-anchor="end" dy="8">S</text>
</g>
<g stroke="#1c1f28" stroke-width="3">
<path d="M1330 165h10" />
<text x="1338" y="164" fill="#1c1f28" stroke-width="0" font-size="10" text-anchor="end" dy="-1.33333">I0[1:0]</text>
<text x="1292" y="164" fill="black" stroke-width="0" font-size="8" text-anchor="end" dy="-1.06667">V=B&quot;10&quot;, S=1&apos;b1</text>
<path d="M1330 185h10" />
<text x="1338" y="184" fill="#1c1f28" stroke-width="0" font-size="10" text-anchor="end" dy="-1.33333">I1[1:0]</text>
<text x="1292" y="184" fill="black" stroke-width="0" font-size="8" text-anchor="end" dy="-1.06667">S=default</text>
<path d="M1390 175h-10" />
<text x="1382" y="174" fill="#1c1f28" stroke-width="0" font-size="10" dy="-1.33333">O[1:0]</text>
<path d="M1710 105l40 15v30l-40 15z" stroke="none" fill="#e5c7ff" />
</g>
<g stroke="#575d6c">
<path d="M1710 105l40 15v30l-40 15z" />
<text x="1730" y="103" fill="#1c1f28" stroke-width="0" text-anchor="middle" dy="-1.6">forward_B_i__1</text>
<text x="1734" y="159" fill="#1c1f28" stroke-width="0" dy="9.6">RTL_MUX</text>
</g>
<g stroke="#1c1f28">
<path d="M1730 165v-8" />
<text x="1728" y="165" fill="#1c1f28" stroke-width="0" font-size="10" text-anchor="end" dy="8">S</text>
</g>
<g stroke="#1c1f28" stroke-width="3">
<path d="M1700 125h10" />
<text x="1708" y="124" fill="#1c1f28" stroke-width="0" font-size="10" text-anchor="end" dy="-1.33333">I0[1:0]</text>
<text x="1662" y="124" fill="black" stroke-width="0" font-size="8" text-anchor="end" dy="-1.06667">S=1&apos;b1</text>
<path d="M1700 145h10" />
<text x="1708" y="144" fill="#1c1f28" stroke-width="0" font-size="10" text-anchor="end" dy="-1.33333">I1[1:0]</text>
<text x="1662" y="144" fill="black" stroke-width="0" font-size="8" text-anchor="end" dy="-1.06667">S=default</text>
<path d="M1760 135h-10" />
<text x="1752" y="134" fill="#1c1f28" stroke-width="0" font-size="10" dy="-1.33333">O[1:0]</text>
<path d="M2050 185l40 15v30l-40 15z" stroke="none" fill="#e5c7ff" />
</g>
<g stroke="#575d6c">
<path d="M2050 185l40 15v30l-40 15z" />
<text x="2070" y="183" fill="#1c1f28" stroke-width="0" text-anchor="middle" dy="-1.6">forward_B_i__2</text>
<text x="2074" y="239" fill="#1c1f28" stroke-width="0" dy="9.6">RTL_MUX</text>
</g>
<g stroke="#1c1f28">
<path d="M2070 245v-8" />
<text x="2068" y="245" fill="#1c1f28" stroke-width="0" font-size="10" text-anchor="end" dy="8">S</text>
</g>
<g stroke="#1c1f28" stroke-width="3">
<path d="M2040 205h10" />
<text x="2048" y="204" fill="#1c1f28" stroke-width="0" font-size="10" text-anchor="end" dy="-1.33333">I0[1:0]</text>
<text x="2002" y="204" fill="black" stroke-width="0" font-size="8" text-anchor="end" dy="-1.06667">V=B&quot;01&quot;, S=1&apos;b1</text>
<path d="M2040 225h10" />
<text x="2048" y="224" fill="#1c1f28" stroke-width="0" font-size="10" text-anchor="end" dy="-1.33333">I1[1:0]</text>
<text x="2002" y="224" fill="black" stroke-width="0" font-size="8" text-anchor="end" dy="-1.06667">S=default</text>
<path d="M2100 215h-10" />
<text x="2092" y="214" fill="#1c1f28" stroke-width="0" font-size="10" dy="-1.33333">O[1:0]</text>
<path d="M2350 195l40 15v30l-40 15z" stroke="none" fill="#e5c7ff" />
</g>
<g stroke="#575d6c">
<path d="M2350 195l40 15v30l-40 15z" />
<text x="2370" y="193" fill="#1c1f28" stroke-width="0" text-anchor="middle" dy="-1.6">forward_B_i__3</text>
<text x="2374" y="249" fill="#1c1f28" stroke-width="0" dy="9.6">RTL_MUX</text>
</g>
<g stroke="#1c1f28">
<path d="M2370 255v-8" />
<text x="2368" y="255" fill="#1c1f28" stroke-width="0" font-size="10" text-anchor="end" dy="8">S</text>
</g>
<g stroke="#1c1f28" stroke-width="3">
<path d="M2340 215h10" />
<text x="2348" y="214" fill="#1c1f28" stroke-width="0" font-size="10" text-anchor="end" dy="-1.33333">I0[1:0]</text>
<text x="2302" y="214" fill="black" stroke-width="0" font-size="8" text-anchor="end" dy="-1.06667">S=1&apos;b1</text>
<path d="M2340 235h10" />
<text x="2348" y="234" fill="#1c1f28" stroke-width="0" font-size="10" text-anchor="end" dy="-1.33333">I1[1:0]</text>
<text x="2302" y="234" fill="black" stroke-width="0" font-size="8" text-anchor="end" dy="-1.06667">S=default</text>
<path d="M2400 225h-10" />
<text x="2392" y="224" fill="#1c1f28" stroke-width="0" font-size="10" dy="-1.33333">O[1:0]</text>
<path d="M610 195v15h25h3l3 -1l2 -1l2 -2l3 -3l1 -2l1 -3v-3v-3l-1 -3l-1 -2l-2 -2l-3 -3l-2 -1l-3 -1h-3h-25z" stroke="none" fill="#e5c7ff" />
</g>
<g stroke="#575d6c">
<path d="M610 195v15h25" />
<path d="M635,210 A15,15 -3.14159 1,0 635,180" />
<path d="M635 180h-25v15" />
<text x="612" y="179" fill="#1c1f28" stroke-width="0" dy="-1.6">forward_B0_i</text>
<text x="612" y="211" fill="#1c1f28" stroke-width="0" dy="9.6">RTL_AND</text>
</g>
<g stroke="#1c1f28">
<path d="M600 185h10" />
<text x="609" y="184" fill="#1c1f28" stroke-width="0" font-size="10" text-anchor="end" dy="-1.33333">I0</text>
<path d="M600 205h10" />
<text x="609" y="204" fill="#1c1f28" stroke-width="0" font-size="10" text-anchor="end" dy="-1.33333">I1</text>
<path d="M660 195h-10" />
<text x="651" y="194" fill="#1c1f28" stroke-width="0" font-size="10" dy="-1.33333">O</text>
<circle cx="340" cy="295" r="20" stroke="none" fill="#e5c7ff" />
</g>
<g stroke="#575d6c">
<circle cx="340" cy="295" r="20" />
<path d="M360 295" />
<path d="M320 285l2 1" />
<path d="M320 305l2 -1" />
<text x="340" y="295" fill="#575d6c" stroke-width="0" text-anchor="middle" dy="4.4">=</text>
<text x="335" y="273" fill="#1c1f28" stroke-width="0" dy="-1.6">forward_B1_i</text>
<text x="335" y="317" fill="#1c1f28" stroke-width="0" dy="9.6">RTL_EQ</text>
</g>
<g stroke="#1c1f28">
<path d="M370 295h-10" />
<text x="362" y="294" fill="#1c1f28" stroke-width="0" font-size="10" dy="-1.33333">O</text>
</g>
<g stroke="#1c1f28" stroke-width="3">
<path d="M310 285h10" />
<text x="318" y="284" fill="#1c1f28" stroke-width="0" font-size="10" text-anchor="end" dy="-1.33333">I0[4:0]</text>
<path d="M310 305h10" />
<text x="318" y="304" fill="#1c1f28" stroke-width="0" font-size="10" text-anchor="end" dy="-1.33333">I1[4:0]</text>
<path d="M940 145v15h25h3l3 -1l2 -1l2 -2l3 -3l1 -2l1 -3v-3v-3l-1 -3l-1 -2l-2 -2l-3 -3l-2 -1l-3 -1h-3h-25z" stroke="none" fill="#e5c7ff" />
</g>
<g stroke="#575d6c">
<path d="M940 145v15h25" />
<path d="M965,160 A15,15 -3.14159 1,0 965,130" />
<path d="M965 130h-25v15" />
<text x="942" y="129" fill="#1c1f28" stroke-width="0" dy="-1.6">forward_B1_i__0</text>
<text x="942" y="161" fill="#1c1f28" stroke-width="0" dy="9.6">RTL_AND</text>
</g>
<g stroke="#1c1f28">
<path d="M930 135h10" />
<text x="939" y="134" fill="#1c1f28" stroke-width="0" font-size="10" text-anchor="end" dy="-1.33333">I0</text>
<path d="M930 155h10" />
<text x="939" y="154" fill="#1c1f28" stroke-width="0" font-size="10" text-anchor="end" dy="-1.33333">I1</text>
<path d="M990 145h-10" />
<text x="981" y="144" fill="#1c1f28" stroke-width="0" font-size="10" dy="-1.33333">O</text>
<path d="M1710 255v15h25h3l3 -1l2 -1l2 -2l3 -3l1 -2l1 -3v-3v-3l-1 -3l-1 -2l-2 -2l-3 -3l-2 -1l-3 -1h-3h-25z" stroke="none" fill="#e5c7ff" />
</g>
<g stroke="#575d6c">
<path d="M1710 255v15h25" />
<path d="M1735,270 A15,15 -3.14159 1,0 1735,240" />
<path d="M1735 240h-25v15" />
<text x="1712" y="239" fill="#1c1f28" stroke-width="0" dy="-1.6">forward_B1_i__1</text>
<text x="1712" y="271" fill="#1c1f28" stroke-width="0" dy="9.6">RTL_AND</text>
</g>
<g stroke="#1c1f28">
<path d="M1700 245h10" />
<text x="1709" y="244" fill="#1c1f28" stroke-width="0" font-size="10" text-anchor="end" dy="-1.33333">I0</text>
<path d="M1700 265h10" />
<text x="1709" y="264" fill="#1c1f28" stroke-width="0" font-size="10" text-anchor="end" dy="-1.33333">I1</text>
<path d="M1760 255h-10" />
<text x="1751" y="254" fill="#1c1f28" stroke-width="0" font-size="10" dy="-1.33333">O</text>
<circle cx="630" cy="295" r="20" stroke="none" fill="#e5c7ff" />
</g>
<g stroke="#575d6c">
<circle cx="630" cy="295" r="20" />
<path d="M650 295" />
<path d="M610 285l2 1" />
<path d="M610 305l2 -1" />
<text x="630" y="295" fill="#575d6c" stroke-width="0" text-anchor="middle" dy="4.4">=</text>
<text x="625" y="273" fill="#1c1f28" stroke-width="0" dy="-1.6">forward_B2_i</text>
<text x="625" y="317" fill="#1c1f28" stroke-width="0" dy="9.6">RTL_EQ</text>
</g>
<g stroke="#1c1f28">
<path d="M660 295h-10" />
<text x="652" y="294" fill="#1c1f28" stroke-width="0" font-size="10" dy="-1.33333">O</text>
</g>
<g stroke="#1c1f28" stroke-width="3">
<path d="M600 285h10" />
<text x="608" y="284" fill="#1c1f28" stroke-width="0" font-size="10" text-anchor="end" dy="-1.33333">I0[4:0]</text>
<path d="M600 305h10" />
<text x="608" y="304" fill="#1c1f28" stroke-width="0" font-size="10" text-anchor="end" dy="-1.33333">I1[4:0]</text>
<circle cx="1360" cy="315" r="20" stroke="none" fill="#e5c7ff" />
</g>
<g stroke="#575d6c">
<circle cx="1360" cy="315" r="20" />
<path d="M1380 315" />
<path d="M1340 305l2 1" />
<path d="M1340 325l2 -1" />
<text x="1360" y="315" fill="#575d6c" stroke-width="0" text-anchor="middle" dy="4.4">=</text>
<text x="1355" y="293" fill="#1c1f28" stroke-width="0" dy="-1.6">forward_B2_i__0</text>
<text x="1355" y="337" fill="#1c1f28" stroke-width="0" dy="9.6">RTL_EQ</text>
</g>
<g stroke="#1c1f28">
<path d="M1390 315h-10" />
<text x="1382" y="314" fill="#1c1f28" stroke-width="0" font-size="10" dy="-1.33333">O</text>
</g>
<g stroke="#1c1f28" stroke-width="3">
<path d="M1330 305h10" />
<text x="1338" y="304" fill="#1c1f28" stroke-width="0" font-size="10" text-anchor="end" dy="-1.33333">I0[4:0]</text>
<path d="M1330 325h10" />
<text x="1338" y="324" fill="#1c1f28" stroke-width="0" font-size="10" text-anchor="end" dy="-1.33333">I1[4:0]</text>
</g>
<g stroke="#575d6c">
<path d="M242 505h16" />
<path d="M245 508h10" />
<path d="M248 511h4" />
<path d="M802 325h16" />
<path d="M805 328h10" />
<path d="M808 331h4" />
<path d="M802 495h16" />
<path d="M805 498h10" />
<path d="M808 501h4" />
<path d="M802 735h16" />
<path d="M805 738h10" />
<path d="M808 741h4" />
<path d="M1180 115v-4" />
<path d="M1172 111h16" />
<path d="M1172 245h16" />
<path d="M1175 248h10" />
<path d="M1178 251h4" />
<path d="M1180 445v-4" />
<path d="M1172 441h16" />
<path d="M1172 575h16" />
<path d="M1175 578h10" />
<path d="M1178 581h4" />
<path d="M1572 415h16" />
<path d="M1575 418h10" />
<path d="M1578 421h4" />
<path d="M1890 155v-4" />
<path d="M1882 151h16" />
<path d="M1882 285h16" />
<path d="M1885 288h10" />
<path d="M1888 291h4" />
<path d="M1890 405v-4" />
<path d="M1882 401h16" />
<path d="M1882 535h16" />
<path d="M1885 538h10" />
<path d="M1888 541h4" />
</g>
<g stroke="#009633" stroke-width="3">
<path d="M170 245h640v-50h290v190h460" />
<path d="M1557 382h7v7h-7z" stroke="none" fill="#009633" />
<path d="M1100 305h230" />
<path d="M1097 302h7v7h-7z" stroke="none" fill="#009633" />
<path d="M1700 355h-140v220h140" />
<path d="M170 405h310v160h330" />
<path d="M807 562h7v7h-7z" stroke="none" fill="#009633" />
<path d="M480 425h120" />
<path d="M477 422h7v7h-7z" stroke="none" fill="#009633" />
<path d="M930 555h-120v40h890" />
<path d="M170 425h80v-120h60" />
<path d="M250 365h250v-60h100" />
<path d="M500 345h680v-20h150" />
<path d="M247 362h7v7h-7z" stroke="none" fill="#009633" />
<path d="M497 342h7v7h-7z" stroke="none" fill="#009633" />
<path d="M170 525h40v-240h100" />
<path d="M210 445h100" />
<path d="M210 385h290v20h100" />
<path d="M207 442h7v7h-7z" stroke="none" fill="#009633" />
<path d="M207 382h7v7h-7z" stroke="none" fill="#009633" />
<path d="M170 545h350" />
<path d="M517 542h7v7h-7z" stroke="none" fill="#009633" />
<path d="M930 535h-180v140h180" />
<path d="M600 285h-80v260h230" />
<path d="M747 542h7v7h-7z" stroke="none" fill="#009633" />
<path d="M2400 375h70v-170h20" />
<path d="M1390 505h150v-40h160" />
<path d="M2100 465h120v-100h120" />
<path d="M990 425h110v90h230" />
<path d="M1100 425h400v60h200" />
<path d="M1097 422h7v7h-7z" stroke="none" fill="#009633" />
<path d="M2040 475h-170v-90h470" />
<path d="M1760 475h110" />
<path d="M1867 472h7v7h-7z" stroke="none" fill="#009633" />
<path d="M2400 225h90" />
<path d="M1390 175h110v-50h200" />
<path d="M2100 215h240" />
<path d="M990 255h150v-160h380v50h180" />
<path d="M1140 185h190" />
<path d="M1137 182h7v7h-7z" stroke="none" fill="#009633" />
<path d="M1760 135h110v90h170" />
<path d="M1870 135h330v100h140" />
<path d="M1867 132h7v7h-7z" stroke="none" fill="#009633" />
</g>
<g stroke-width="2">
<path d="M2040 455h-145l-1 1" />
</g>
<g stroke="black">
<path d="M1895 455l-5 5v1" />
</g>
<g>
<path d="M1890 460v75" />
</g>
<g stroke-width="2">
<path d="M2040 205h-145l-1 1" />
</g>
<g stroke="black">
<path d="M1895 205l-5 5v1" />
</g>
<g>
<path d="M1890 210v75" />
<path d="M1700 375h-120v40" />
</g>
<g stroke-width="2">
<path d="M1330 495h-145l-1 1" />
</g>
<g stroke="black">
<path d="M1185 495l-5 5v1" />
</g>
<g>
<path d="M1180 500v75" />
</g>
<g stroke-width="2">
<path d="M1330 165h-145l-1 1" />
</g>
<g stroke="black">
<path d="M1185 165l-5 5v1" />
</g>
<g>
<path d="M1180 170v75" />
<path d="M930 695h-120v40" />
<path d="M930 435h-120v60" />
<path d="M930 265h-120v60" />
<path d="M310 465h-60v40" />
<path d="M1890 405v45l1 1" />
</g>
<g stroke="black">
<path d="M1890 450l5 5h1" />
</g>
<g stroke-width="2">
<path d="M1895 455h145" />
</g>
<g>
<path d="M1890 155v45l1 1" />
</g>
<g stroke="black">
<path d="M1890 200l5 5h1" />
</g>
<g stroke-width="2">
<path d="M1895 205h145" />
</g>
<g>
<path d="M1180 445v45l1 1" />
</g>
<g stroke="black">
<path d="M1180 490l5 5h1" />
</g>
<g stroke-width="2">
<path d="M1185 495h145" />
</g>
<g>
<path d="M1180 115v45l1 1" />
</g>
<g stroke="black">
<path d="M1180 160l5 5h1" />
</g>
<g stroke-width="2">
<path d="M1185 165h145" />
</g>
<g>
<path d="M170 225h20v120h270v10h130v10h950v-50h350v10h150" />
<path d="M170 265h40v-40h250v-80h290" />
<path d="M748 143h5v5h-5z" stroke="none" fill="#8bc34a" />
<path d="M460 205h140" />
<path d="M458 203h5v5h-5z" stroke="none" fill="#8bc34a" />
<path d="M930 155h-180v-60h370v170h580" />
<path d="M170 505h60v20h310v-40h60" />
<path d="M170 635h1160" />
<path d="M660 415h270" />
<path d="M2370 255v30h-170v150h170v-30" />
<path d="M2100 335h100" />
<path d="M2198 333h5v5h-5z" stroke="none" fill="#8bc34a" />
<path d="M990 545h110v20h260v-30" />
<path d="M1390 645h130v-450h210v-30" />
<path d="M1520 535h210v-30" />
<path d="M1518 533h5v5h-5z" stroke="none" fill="#8bc34a" />
<path d="M1760 585h110v-60h200v-30" />
<path d="M660 495h90v-180h210v-30" />
<path d="M750 485h210v-30" />
<path d="M748 483h5v5h-5z" stroke="none" fill="#8bc34a" />
<path d="M1760 365h110v-20h170" />
<path d="M990 685h190v-30h150" />
<path d="M370 455h90v50h140" />
<path d="M660 195h130v30h30v20h110" />
<path d="M990 145h170v90h200v-30" />
<path d="M1760 255h110v20h200v-30" />
<path d="M370 295h110v-110h120" />
<path d="M1390 315h110v-70h200" />
<path d="M660 295h110v-160h160" />
</g>
</g>
</svg>
