<?xml version="1.0" encoding="UTF-8" standalone="no"?>
<svg viewBox="0 0 2337 1265"
     preserveAspectRatio="xMidYMid meet"
     version="1.1"
     baseProfile="full"
     xmlns="http://www.w3.org/2000/svg"
     xmlns:xlink="http://www.w3.org/1999/xlink"
     xmlns:ev="http://www.w3.org/2001/xml-events"
     xml:space="preserve">
<title>SOC</title>
<desc>Nlview schematic (SVG)</desc>
<clipPath id="clippingbbox">
<rect x="0" y="0" width="2337" height="1265" />
</clipPath>
<g stroke="#8bc34a"
   stroke-width="1"
   stroke-linecap="butt"
   stroke-linejoin="miter"
   stroke-miterlimit="4"
   stroke-dasharray="none"
   stroke-dashoffset="0"
   fill="none"
   font-family="Helvetica"
   font-style="normal"
   font-size="12"
   writing-mode="lr-tb"
   cursor="crosshair"
   clip-path="url(#clippingbbox)">
<path d="M0 0h2336v1266h-2336z" stroke="none" fill="white" />
<path d="M18 29h2301l3 1l3 1l1 3l1 3v1190l-1 3l-1 3l-3 1l-3 1h-2301l-3 -1l-3 -1l-1 -3l-1 -3v-1190l1 -3l1 -3l3 -1z" stroke="none" fill="white" />
<g stroke="#575d6c">
<path d="M18 29h2301" />
<path d="M2319,29 A7.83511,7.83511 1.61334 0,1 2327,37" />
<path d="M2327 37v1190" />
<path d="M2327,1227 A7.83511,7.83511 1.61334 0,1 2319,1235" />
<path d="M2319 1235h-2301" />
<path d="M18,1235 A7.83511,7.83511 1.61334 0,1 10,1227" />
<path d="M10 1227v-1190" />
<path d="M10,37 A7.83511,7.83511 1.61334 0,1 18,29" />
<text x="1168" y="27" fill="#1c1f28" stroke-width="0" text-anchor="middle" dy="-1.6">core</text>
</g>
<g stroke="#575d6c" stroke-width="3">
<path d="M15 40h12" />
</g>
<g stroke="#575d6c">
<path d="M13 32h16v16h-16z" />
<text x="1168" y="1237" fill="#1c1f28" stroke-width="0" text-anchor="middle" dy="9.6">core</text>
<path d="M198 75h1924l3 1l3 1l1 3l1 3v1114l-1 3l-1 3l-3 1l-3 1h-1924l-3 -1l-3 -1l-1 -3l-1 -3v-1114l1 -3l1 -3l3 -1z" stroke="none" fill="white" />
<path d="M198 75h1924" />
<path d="M2122,75 A7.83511,7.83511 1.61334 0,1 2130,83" />
<path d="M2130 83v1114" />
<path d="M2130,1197 A7.83511,7.83511 1.61334 0,1 2122,1205" />
<path d="M2122 1205h-1924" />
<path d="M198,1205 A7.83511,7.83511 1.61334 0,1 190,1197" />
<path d="M190 1197v-1114" />
<path d="M190,83 A7.83511,7.83511 1.61334 0,1 198,75" />
</g>
<g stroke="#575d6c" stroke-width="3">
<path d="M195 86h12" />
</g>
<g stroke="#575d6c">
<path d="M193 78h16v16h-16z" />
<text x="1160" y="73" fill="#1c1f28" stroke-width="0" text-anchor="middle" dy="-1.6">IF_stage</text>
<text x="1160" y="1207" fill="#1c1f28" stroke-width="0" text-anchor="middle" dy="9.6">core_IF</text>
</g>
<g stroke="#1c1f28">
<path d="M180 495h10" />
<text x="188" y="493" fill="#1c1f28" stroke-width="0" font-size="10" text-anchor="end" dy="-1.33333">EX_cache_inst</text>
<path d="M180 515h10" />
<text x="188" y="513" fill="#1c1f28" stroke-width="0" font-size="10" text-anchor="end" dy="-1.33333">clock</text>
<path d="M180 535h10" />
<text x="188" y="533" fill="#1c1f28" stroke-width="0" font-size="10" text-anchor="end" dy="-1.33333">flush</text>
<path d="M2140 1045h-10" />
<text x="2132" y="1043" fill="#1c1f28" stroke-width="0" font-size="10" dy="-1.33333">inst_req[mem_req_load]</text>
<path d="M2140 1065h-10" />
<text x="2132" y="1063" fill="#1c1f28" stroke-width="0" font-size="10" dy="-1.33333">inst_req[mem_req_store]</text>
<path d="M180 835h10" />
<text x="188" y="833" fill="#1c1f28" stroke-width="0" font-size="10" text-anchor="end" dy="-1.33333">inst_resp[mem_ready]</text>
<path d="M180 905h10" />
<text x="188" y="903" fill="#1c1f28" stroke-width="0" font-size="10" text-anchor="end" dy="-1.33333">reset</text>
<path d="M180 1125h10" />
<text x="188" y="1123" fill="#1c1f28" stroke-width="0" font-size="10" text-anchor="end" dy="-1.33333">stall</text>
</g>
<g stroke="#1c1f28" stroke-width="3">
<path d="M180 395h10" />
<text x="188" y="393" fill="#1c1f28" stroke-width="0" font-size="10" text-anchor="end" dy="-1.33333">EX_cache_action[op][2:0]</text>
<path d="M180 415h10" />
<text x="188" y="413" fill="#1c1f28" stroke-width="0" font-size="10" text-anchor="end" dy="-1.33333">EX_cache_action[t][1:0]</text>
<path d="M2140 515h-10" />
<text x="2132" y="513" fill="#1c1f28" stroke-width="0" font-size="10" dy="-1.33333">IF_regs[fetch_pc4][63:0]</text>
<path d="M2140 355h-10" />
<text x="2132" y="353" fill="#1c1f28" stroke-width="0" font-size="10" dy="-1.33333">IF_regs[fetch_pc][63:0]</text>
<path d="M2140 585h-10" />
<text x="2132" y="583" fill="#1c1f28" stroke-width="0" font-size="10" dy="-1.33333">IF_regs[inst][31:0]</text>
<path d="M2140 605h-10" />
<text x="2132" y="603" fill="#1c1f28" stroke-width="0" font-size="10" dy="-1.33333">first_half_pc[63:0]</text>
<path d="M2140 625h-10" />
<text x="2132" y="623" fill="#1c1f28" stroke-width="0" font-size="10" dy="-1.33333">first_half_pc4[63:0]</text>
<path d="M2140 1005h-10" />
<text x="2132" y="1003" fill="#1c1f28" stroke-width="0" font-size="10" dy="-1.33333">inst_req[mem_addr][57:0]</text>
<path d="M2140 1025h-10" />
<text x="2132" y="1023" fill="#1c1f28" stroke-width="0" font-size="10" dy="-1.33333">inst_req[mem_data_out][511:0]</text>
<path d="M180 795h10" />
<text x="188" y="793" fill="#1c1f28" stroke-width="0" font-size="10" text-anchor="end" dy="-1.33333">inst_resp[mem_data][511:0]</text>
<path d="M180 885h10" />
<text x="188" y="883" fill="#1c1f28" stroke-width="0" font-size="10" text-anchor="end" dy="-1.33333">next_fetch_pc[63:0]</text>
</g>
<g stroke="#1c1f28">
<path d="M200 495h-10" />
<path d="M200 515h-10" />
<path d="M200 535h-10" />
<path d="M2120 1045h10" />
<path d="M2120 1065h10" />
<path d="M200 835h-10" />
<path d="M200 905h-10" />
<path d="M200 1125h-10" />
</g>
<g stroke="#1c1f28" stroke-width="3">
<path d="M200 395h-10" />
<path d="M200 415h-10" />
<path d="M2120 515h10" />
<path d="M2120 355h10" />
<path d="M2120 585h10" />
<path d="M2120 605h10" />
<path d="M2120 625h10" />
<path d="M2120 1005h10" />
<path d="M2120 1025h10" />
<path d="M200 795h-10" />
<path d="M200 885h-10" />
<path d="M1220 225l40 15v30l-40 15z" stroke="none" fill="#e5c7ff" />
</g>
<g stroke="#575d6c">
<path d="M1220 225l40 15v30l-40 15z" />
<text x="1240" y="223" fill="#1c1f28" stroke-width="0" text-anchor="middle" dy="-1.6">IF_regs_i</text>
<text x="1244" y="279" fill="#1c1f28" stroke-width="0" dy="9.6">RTL_MUX</text>
</g>
<g stroke="#1c1f28">
<path d="M1240 285v-8" />
<text x="1238" y="285" fill="#1c1f28" stroke-width="0" font-size="10" text-anchor="end" dy="8">S</text>
</g>
<g stroke="#1c1f28" stroke-width="3">
<path d="M1210 245h10" />
<text x="1218" y="244" fill="#1c1f28" stroke-width="0" font-size="10" text-anchor="end" dy="-1.33333">I0[63:0]</text>
<text x="1166" y="244" fill="black" stroke-width="0" font-size="8" text-anchor="end" dy="-1.06667">S=1&apos;b1</text>
<path d="M1210 265h10" />
<text x="1218" y="264" fill="#1c1f28" stroke-width="0" font-size="10" text-anchor="end" dy="-1.33333">I1[63:0]</text>
<text x="1166" y="264" fill="black" stroke-width="0" font-size="8" text-anchor="end" dy="-1.06667">S=default</text>
<path d="M1270 255h-10" />
<text x="1262" y="254" fill="#1c1f28" stroke-width="0" font-size="10" dy="-1.33333">O[63:0]</text>
<path d="M1220 105l40 15v30l-40 15z" stroke="none" fill="#e5c7ff" />
</g>
<g stroke="#575d6c">
<path d="M1220 105l40 15v30l-40 15z" />
<text x="1240" y="103" fill="#1c1f28" stroke-width="0" text-anchor="middle" dy="-1.6">IF_regs_i__0</text>
<text x="1244" y="159" fill="#1c1f28" stroke-width="0" dy="9.6">RTL_MUX</text>
</g>
<g stroke="#1c1f28">
<path d="M1240 165v-8" />
<text x="1238" y="165" fill="#1c1f28" stroke-width="0" font-size="10" text-anchor="end" dy="8">S</text>
</g>
<g stroke="#1c1f28" stroke-width="3">
<path d="M1210 125h10" />
<text x="1218" y="124" fill="#1c1f28" stroke-width="0" font-size="10" text-anchor="end" dy="-1.33333">I0[63:0]</text>
<text x="1166" y="124" fill="black" stroke-width="0" font-size="8" text-anchor="end" dy="-1.06667">S=1&apos;b1</text>
<path d="M1210 145h10" />
<text x="1218" y="144" fill="#1c1f28" stroke-width="0" font-size="10" text-anchor="end" dy="-1.33333">I1[63:0]</text>
<text x="1166" y="144" fill="black" stroke-width="0" font-size="8" text-anchor="end" dy="-1.06667">S=default</text>
<path d="M1270 135h-10" />
<text x="1262" y="134" fill="#1c1f28" stroke-width="0" font-size="10" dy="-1.33333">O[63:0]</text>
<path d="M1842 327h60v80h-60z" stroke="none" fill="#9e31fc" />
</g>
<g stroke="#575d6c">
<path d="M1842 327h60v80h-60z" />
<path d="M1838 323h60v80h-60z" stroke="none" fill="#b563fd" />
<path d="M1838 323h60v80h-60z" />
<path d="M1834 319h60v80h-60z" stroke="none" fill="#cd95fe" />
<path d="M1834 319h60v80h-60z" />
<path d="M1830 315h60v80h-60z" stroke="none" fill="#e5c7ff" />
<path d="M1830 315h60v80h-60z" />
<path d="M1830 338l7 -3l-7 -3" />
<text x="1860" y="313" fill="#1c1f28" stroke-width="0" dy="-1.6">IF_regs_reg[fetch_pc][63:0]</text>
<text x="1860" y="409" fill="#1c1f28" stroke-width="0" text-anchor="middle" dy="9.6">RTL_REG_ASYNC</text>
</g>
<g stroke="#1c1f28">
<path d="M1820 335h10" />
<text x="1839" y="335" fill="#1c1f28" stroke-width="0" font-size="10" dy="3.66667">C</text>
<path d="M1820 355h10" />
<text x="1832" y="355" fill="#1c1f28" stroke-width="0" font-size="10" dy="3.66667">CE</text>
<path d="M1850 305v10" />
<text x="1847" y="317" fill="#1c1f28" stroke-width="0" font-size="10" dy="8">CLR</text>
</g>
<g stroke="#1c1f28" stroke-width="3">
<path d="M1820 375h10" />
<text x="1832" y="375" fill="#1c1f28" stroke-width="0" font-size="10" dy="3.66667">D</text>
<path d="M1900 355h-10" />
<text x="1888" y="355" fill="#1c1f28" stroke-width="0" font-size="10" text-anchor="end" dy="3.66667">Q</text>
<path d="M1842 487h60v80h-60z" stroke="none" fill="#9e31fc" />
</g>
<g stroke="#575d6c">
<path d="M1842 487h60v80h-60z" />
<path d="M1838 483h60v80h-60z" stroke="none" fill="#b563fd" />
<path d="M1838 483h60v80h-60z" />
<path d="M1834 479h60v80h-60z" stroke="none" fill="#cd95fe" />
<path d="M1834 479h60v80h-60z" />
<path d="M1830 475h60v80h-60z" stroke="none" fill="#e5c7ff" />
<path d="M1830 475h60v80h-60z" />
<path d="M1830 498l7 -3l-7 -3" />
<text x="1860" y="473" fill="#1c1f28" stroke-width="0" dy="-1.6">IF_regs_reg[fetch_pc4][63:0]</text>
<text x="1860" y="569" fill="#1c1f28" stroke-width="0" text-anchor="middle" dy="9.6">RTL_REG_ASYNC</text>
</g>
<g stroke="#1c1f28">
<path d="M1820 495h10" />
<text x="1839" y="495" fill="#1c1f28" stroke-width="0" font-size="10" dy="3.66667">C</text>
<path d="M1820 515h10" />
<text x="1832" y="515" fill="#1c1f28" stroke-width="0" font-size="10" dy="3.66667">CE</text>
<path d="M1850 465v10" />
<text x="1847" y="477" fill="#1c1f28" stroke-width="0" font-size="10" dy="8">CLR</text>
</g>
<g stroke="#1c1f28" stroke-width="3">
<path d="M1820 535h10" />
<text x="1832" y="535" fill="#1c1f28" stroke-width="0" font-size="10" dy="3.66667">D</text>
<path d="M1900 515h-10" />
<text x="1888" y="515" fill="#1c1f28" stroke-width="0" font-size="10" text-anchor="end" dy="3.66667">Q</text>
<path d="M1232 507h60v80h-60z" stroke="none" fill="#9e31fc" />
</g>
<g stroke="#575d6c">
<path d="M1232 507h60v80h-60z" />
<path d="M1228 503h60v80h-60z" stroke="none" fill="#b563fd" />
<path d="M1228 503h60v80h-60z" />
<path d="M1224 499h60v80h-60z" stroke="none" fill="#cd95fe" />
<path d="M1224 499h60v80h-60z" />
<path d="M1220 495h60v80h-60z" stroke="none" fill="#e5c7ff" />
<path d="M1220 495h60v80h-60z" />
<path d="M1220 518l7 -3l-7 -3" />
<text x="1250" y="493" fill="#1c1f28" stroke-width="0" dy="-1.6">IF1_reg[fetch_pc][63:0]</text>
<text x="1250" y="589" fill="#1c1f28" stroke-width="0" dy="9.6">RTL_REG_ASYNC</text>
</g>
<g stroke="#1c1f28">
<path d="M1210 515h10" />
<text x="1229" y="515" fill="#1c1f28" stroke-width="0" font-size="10" dy="3.66667">C</text>
<path d="M1210 535h10" />
<text x="1222" y="535" fill="#1c1f28" stroke-width="0" font-size="10" dy="3.66667">CE</text>
</g>
<g stroke="#1c1f28" stroke-width="3">
<path d="M1240 485v10" />
<text x="1237" y="497" fill="#1c1f28" stroke-width="0" font-size="10" dy="8">CLR</text>
<path d="M1210 555h10" />
<text x="1222" y="555" fill="#1c1f28" stroke-width="0" font-size="10" dy="3.66667">D</text>
<path d="M1240 585v-10" />
<text x="1237" y="573" fill="#1c1f28" stroke-width="0" font-size="10" dy="-1.33333">PRE</text>
<text x="1242" y="603" fill="black" stroke-width="0" font-size="8" dy="6.4">n/c</text>
<path d="M1290 535h-10" />
<text x="1278" y="535" fill="#1c1f28" stroke-width="0" font-size="10" text-anchor="end" dy="3.66667">Q</text>
<path d="M1842 687h60v80h-60z" stroke="none" fill="#9e31fc" />
</g>
<g stroke="#575d6c">
<path d="M1842 687h60v80h-60z" />
<path d="M1838 683h60v80h-60z" stroke="none" fill="#b563fd" />
<path d="M1838 683h60v80h-60z" />
<path d="M1834 679h60v80h-60z" stroke="none" fill="#cd95fe" />
<path d="M1834 679h60v80h-60z" />
<path d="M1830 675h60v80h-60z" stroke="none" fill="#e5c7ff" />
<path d="M1830 675h60v80h-60z" />
<path d="M1830 698l7 -3l-7 -3" />
<text x="1860" y="673" fill="#1c1f28" stroke-width="0" dy="-1.6">IF1_reg[fetch_pc4][63:0]</text>
<text x="1860" y="769" fill="#1c1f28" stroke-width="0" dy="9.6">RTL_REG_ASYNC</text>
</g>
<g stroke="#1c1f28">
<path d="M1820 695h10" />
<text x="1839" y="695" fill="#1c1f28" stroke-width="0" font-size="10" dy="3.66667">C</text>
<path d="M1820 715h10" />
<text x="1832" y="715" fill="#1c1f28" stroke-width="0" font-size="10" dy="3.66667">CE</text>
</g>
<g stroke="#1c1f28" stroke-width="3">
<path d="M1850 665v10" />
<text x="1847" y="677" fill="#1c1f28" stroke-width="0" font-size="10" dy="8">CLR</text>
<path d="M1820 735h10" />
<text x="1832" y="735" fill="#1c1f28" stroke-width="0" font-size="10" dy="3.66667">D</text>
<path d="M1850 765v-10" />
<text x="1847" y="753" fill="#1c1f28" stroke-width="0" font-size="10" dy="-1.33333">PRE</text>
<text x="1852" y="783" fill="black" stroke-width="0" font-size="8" dy="6.4">n/c</text>
<path d="M1900 715h-10" />
<text x="1888" y="715" fill="#1c1f28" stroke-width="0" font-size="10" text-anchor="end" dy="3.66667">Q</text>
<circle cx="1240" cy="735" r="20" stroke="none" fill="#e5c7ff" />
</g>
<g stroke="#575d6c">
<circle cx="1240" cy="735" r="20" />
<path d="M1220 725l2 1" />
<path d="M1220 745l2 -1" />
<path d="M1260 735" />
<text x="1240" y="735" fill="#575d6c" stroke-width="0" text-anchor="middle" dy="4.4">+</text>
<text x="1235" y="713" fill="#1c1f28" stroke-width="0" dy="-1.6">RTL_ADD</text>
<text x="1235" y="757" fill="#1c1f28" stroke-width="0" dy="9.6">RTL_ADD</text>
</g>
<g stroke="#1c1f28" stroke-width="3">
<path d="M1210 725h10" />
<text x="1218" y="724" fill="#1c1f28" stroke-width="0" font-size="10" text-anchor="end" dy="-1.33333">I0[63:0]</text>
<path d="M1210 745h10" />
<text x="1218" y="744" fill="#1c1f28" stroke-width="0" font-size="10" text-anchor="end" dy="-1.33333">I1[2:0]</text>
<text x="1172" y="744" fill="black" stroke-width="0" font-size="8" text-anchor="end" dy="-1.06667">V=B&quot;100&quot;</text>
<path d="M1270 735h-10" />
<text x="1262" y="734" fill="#1c1f28" stroke-width="0" font-size="10" dy="-1.33333">O[63:0]</text>
<path d="M430 975v15h25h3l3 -1l2 -1l2 -2l3 -3l1 -2l1 -3v-3v-3l-1 -3l-1 -2l-2 -2l-3 -3l-2 -1l-3 -1h-3h-25z" stroke="none" fill="#e5c7ff" />
</g>
<g stroke="#575d6c">
<path d="M430 975v15h25" />
<path d="M455,990 A15,15 -3.14159 1,0 455,960" />
<path d="M455 960h-25v15" />
<text x="432" y="959" fill="#1c1f28" stroke-width="0" dy="-1.6">RTL_AND</text>
<text x="432" y="991" fill="#1c1f28" stroke-width="0" dy="9.6">RTL_AND</text>
</g>
<g stroke="#1c1f28">
<path d="M420 965h10" />
<text x="429" y="964" fill="#1c1f28" stroke-width="0" font-size="10" text-anchor="end" dy="-1.33333">I0</text>
<path d="M420 985h10" />
<text x="429" y="984" fill="#1c1f28" stroke-width="0" font-size="10" text-anchor="end" dy="-1.33333">I1</text>
<path d="M480 975h-10" />
<text x="471" y="974" fill="#1c1f28" stroke-width="0" font-size="10" dy="-1.33333">O</text>
<circle cx="304" cy="835" r="4" stroke="none" fill="#e5c7ff" />
<path d="M270 835v-12l30 12l-30 12z" stroke="none" fill="#e5c7ff" />
</g>
<g stroke="#575d6c">
<circle cx="304" cy="835" r="4" />
<path d="M270 835v-12l30 12l-30 12z" />
<text x="272" y="821" fill="#1c1f28" stroke-width="0" dy="-1.6">RTL_INV</text>
<text x="272" y="849" fill="#1c1f28" stroke-width="0" dy="9.6">RTL_INV</text>
</g>
<g stroke="#1c1f28">
<path d="M260 835h10" />
<text x="268" y="834" fill="#1c1f28" stroke-width="0" font-size="10" text-anchor="end" dy="-1.33333">I0</text>
<path d="M320 835h-12" />
<text x="310" y="834" fill="#1c1f28" stroke-width="0" font-size="10" dy="-1.33333">O</text>
<circle cx="794" cy="975" r="4" stroke="none" fill="#e5c7ff" />
<path d="M760 975v-12l30 12l-30 12z" stroke="none" fill="#e5c7ff" />
</g>
<g stroke="#575d6c">
<circle cx="794" cy="975" r="4" />
<path d="M760 975v-12l30 12l-30 12z" />
<text x="762" y="961" fill="#1c1f28" stroke-width="0" dy="-1.6">RTL_INV__0</text>
<text x="762" y="989" fill="#1c1f28" stroke-width="0" dy="9.6">RTL_INV</text>
</g>
<g stroke="#1c1f28">
<path d="M750 975h10" />
<text x="758" y="974" fill="#1c1f28" stroke-width="0" font-size="10" text-anchor="end" dy="-1.33333">I0</text>
<path d="M810 975h-12" />
<text x="800" y="974" fill="#1c1f28" stroke-width="0" font-size="10" dy="-1.33333">O</text>
<path d="M600 960l2 2l2 3l1 2l1 3l1 3v4l-1 3l-1 3l-1 2l-2 3l-2 2h15h3l3 -1l3 -1l2 -1l3 -1l3 -2l2 -2l2 -2l2 -2l2 -3l-2 -3l-2 -2l-2 -2l-2 -2l-3 -2l-3 -1l-2 -1l-3 -1l-3 -1h-3z" stroke="none" fill="#e5c7ff" />
</g>
<g stroke="#575d6c">
<path d="M600,960 A19.5714,19.5714 1.74651 0,1 600,990" />
<path d="M600 990h15" />
<path d="M615,990 A32.596,32.596 -0.927295 0,0 640,975" />
<path d="M640,975 A32.596,32.596 -0.927295 0,0 615,960" />
<path d="M615 960h-15" />
<text x="602" y="959" fill="#1c1f28" stroke-width="0" dy="-1.6">RTL_OR</text>
<text x="602" y="991" fill="#1c1f28" stroke-width="0" dy="9.6">RTL_OR</text>
</g>
<g stroke="#1c1f28">
<path d="M590 965h14" />
<text x="599" y="964" fill="#1c1f28" stroke-width="0" font-size="10" text-anchor="end" dy="-1.33333">I0</text>
<path d="M590 985h14" />
<text x="599" y="984" fill="#1c1f28" stroke-width="0" font-size="10" text-anchor="end" dy="-1.33333">I1</text>
<path d="M650 975h-10" />
<text x="641" y="974" fill="#1c1f28" stroke-width="0" font-size="10" dy="-1.33333">O</text>
<path d="M1220 820l2 2l2 3l1 2l1 3l1 3v4l-1 3l-1 3l-1 2l-2 3l-2 2h15h3l3 -1l3 -1l2 -1l3 -1l3 -2l2 -2l2 -2l2 -2l2 -3l-2 -3l-2 -2l-2 -2l-2 -2l-3 -2l-3 -1l-2 -1l-3 -1l-3 -1h-3z" stroke="none" fill="#e5c7ff" />
</g>
<g stroke="#575d6c">
<path d="M1220,820 A19.5714,19.5714 1.74651 0,1 1220,850" />
<path d="M1220 850h15" />
<path d="M1235,850 A32.596,32.596 -0.927295 0,0 1260,835" />
<path d="M1260,835 A32.596,32.596 -0.927295 0,0 1235,820" />
<path d="M1235 820h-15" />
<text x="1222" y="819" fill="#1c1f28" stroke-width="0" dy="-1.6">RTL_OR__0</text>
<text x="1222" y="851" fill="#1c1f28" stroke-width="0" dy="9.6">RTL_OR</text>
</g>
<g stroke="#1c1f28">
<path d="M1210 825h14" />
<text x="1219" y="824" fill="#1c1f28" stroke-width="0" font-size="10" text-anchor="end" dy="-1.33333">I0</text>
<path d="M1210 845h14" />
<text x="1219" y="844" fill="#1c1f28" stroke-width="0" font-size="10" text-anchor="end" dy="-1.33333">I1</text>
<path d="M1270 835h-10" />
<text x="1261" y="834" fill="#1c1f28" stroke-width="0" font-size="10" dy="-1.33333">O</text>
<path d="M1220 375v15h25h3l3 -1l2 -1l2 -2l3 -3l1 -2l1 -3v-3v-3l-1 -3l-1 -2l-2 -2l-3 -3l-2 -1l-3 -1h-3h-25z" stroke="none" fill="#e5c7ff" />
</g>
<g stroke="#575d6c">
<path d="M1220 375v15h25" />
<path d="M1245,390 A15,15 -3.14159 1,0 1245,360" />
<path d="M1245 360h-25v15" />
<text x="1222" y="359" fill="#1c1f28" stroke-width="0" dy="-1.6">cache_inst0_i</text>
<text x="1222" y="391" fill="#1c1f28" stroke-width="0" dy="9.6">RTL_AND</text>
</g>
<g stroke="#1c1f28">
<path d="M1210 365h10" />
<text x="1219" y="364" fill="#1c1f28" stroke-width="0" font-size="10" text-anchor="end" dy="-1.33333">I0</text>
<path d="M1210 385h10" />
<text x="1219" y="384" fill="#1c1f28" stroke-width="0" font-size="10" text-anchor="end" dy="-1.33333">I1</text>
<path d="M1270 375h-10" />
<text x="1261" y="374" fill="#1c1f28" stroke-width="0" font-size="10" dy="-1.33333">O</text>
<circle cx="780" cy="425" r="20" stroke="none" fill="#e5c7ff" />
</g>
<g stroke="#575d6c">
<circle cx="780" cy="425" r="20" />
<path d="M800 425" />
<path d="M760 415l2 1" />
<path d="M760 435l2 -1" />
<text x="780" y="425" fill="#575d6c" stroke-width="0" text-anchor="middle" dy="4.4">=</text>
<text x="775" y="403" fill="#1c1f28" stroke-width="0" dy="-1.6">cache_inst1_i</text>
<text x="775" y="447" fill="#1c1f28" stroke-width="0" dy="9.6">RTL_EQ</text>
</g>
<g stroke="#1c1f28">
<path d="M810 425h-10" />
<text x="802" y="424" fill="#1c1f28" stroke-width="0" font-size="10" dy="-1.33333">O</text>
</g>
<g stroke="#1c1f28" stroke-width="3">
<path d="M750 415h10" />
<text x="758" y="414" fill="#1c1f28" stroke-width="0" font-size="10" text-anchor="end" dy="-1.33333">I0[1:0]</text>
<path d="M750 435h10" />
<text x="758" y="434" fill="#1c1f28" stroke-width="0" font-size="10" text-anchor="end" dy="-1.33333">I1[1:0]</text>
<circle cx="1254" cy="1025" r="4" stroke="none" fill="#e5c7ff" />
<path d="M1220 1025v-12l30 12l-30 12z" stroke="none" fill="#e5c7ff" />
</g>
<g stroke="#575d6c">
<circle cx="1254" cy="1025" r="4" />
<path d="M1220 1025v-12l30 12l-30 12z" />
<text x="1222" y="1011" fill="#1c1f28" stroke-width="0" dy="-1.6">enable0_i</text>
<text x="1222" y="1039" fill="#1c1f28" stroke-width="0" dy="9.6">RTL_INV</text>
</g>
<g stroke="#1c1f28">
<path d="M1210 1025h10" />
<text x="1218" y="1024" fill="#1c1f28" stroke-width="0" font-size="10" text-anchor="end" dy="-1.33333">I0</text>
<path d="M1270 1025h-12" />
<text x="1260" y="1024" fill="#1c1f28" stroke-width="0" font-size="10" dy="-1.33333">O</text>
<path d="M1830 873h60v282h-60z" stroke="none" fill="#cde5ff" />
</g>
<g stroke="#575d6c">
<path d="M1830 873h60v282h-60z" />
</g>
<g stroke="#575d6c" stroke-width="3">
<path d="M1841 878v12" />
<path d="M1835 884h12" />
</g>
<g stroke="#575d6c">
<path d="M1833 876h16v16h-16z" />
<text x="1860" y="871" fill="#1c1f28" stroke-width="0" text-anchor="middle" dy="-1.6">inst_cache</text>
<text x="1860" y="1157" fill="#1c1f28" stroke-width="0" text-anchor="middle" dy="9.6">cache_L1</text>
</g>
<g stroke="#1c1f28">
<path d="M1820 925h10" />
<text x="1828" y="924" fill="#1c1f28" stroke-width="0" font-size="10" text-anchor="end" dy="-1.33333">cache_inst</text>
<path d="M1820 965h10" />
<text x="1828" y="964" fill="#1c1f28" stroke-width="0" font-size="10" text-anchor="end" dy="-1.33333">clear</text>
<path d="M1820 985h10" />
<text x="1828" y="984" fill="#1c1f28" stroke-width="0" font-size="10" text-anchor="end" dy="-1.33333">clock</text>
<path d="M1820 1005h10" />
<text x="1828" y="1004" fill="#1c1f28" stroke-width="0" font-size="10" text-anchor="end" dy="-1.33333">enable</text>
<path d="M1900 965h-10" />
<text x="1892" y="964" fill="#1c1f28" stroke-width="0" font-size="10" dy="-1.33333">miss</text>
<path d="M1900 1045h-10" />
<text x="1892" y="1044" fill="#1c1f28" stroke-width="0" font-size="10" dy="-1.33333">req[mem_req_load]</text>
<path d="M1900 1065h-10" />
<text x="1892" y="1064" fill="#1c1f28" stroke-width="0" font-size="10" dy="-1.33333">req[mem_req_store]</text>
<path d="M1820 1065h10" />
<text x="1828" y="1064" fill="#1c1f28" stroke-width="0" font-size="10" text-anchor="end" dy="-1.33333">reset</text>
<path d="M1820 1105h10" />
<text x="1828" y="1104" fill="#1c1f28" stroke-width="0" font-size="10" text-anchor="end" dy="-1.33333">resp[mem_ready]</text>
<path d="M1820 1125h10" />
<text x="1828" y="1124" fill="#1c1f28" stroke-width="0" font-size="10" text-anchor="end" dy="-1.33333">signed_type</text>
</g>
<g stroke="#1c1f28" stroke-width="3">
<path d="M1820 905h10" />
<text x="1828" y="904" fill="#1c1f28" stroke-width="0" font-size="10" text-anchor="end" dy="-1.33333">addr[63:0]</text>
<path d="M1820 945h10" />
<text x="1828" y="944" fill="#1c1f28" stroke-width="0" font-size="10" text-anchor="end" dy="-1.33333">cache_op[2:0]</text>
<path d="M1820 1025h10" />
<text x="1828" y="1024" fill="#1c1f28" stroke-width="0" font-size="10" text-anchor="end" dy="-1.33333">mem_load_type[2:0]</text>
<text x="1716" y="1024" fill="black" stroke-width="0" font-size="8" text-anchor="end" dy="-1.06667">V=B&quot;011&quot;</text>
<path d="M1820 1045h10" />
<text x="1828" y="1044" fill="#1c1f28" stroke-width="0" font-size="10" text-anchor="end" dy="-1.33333">mem_store_type[2:0]</text>
<path d="M1900 985h-10" />
<text x="1892" y="984" fill="#1c1f28" stroke-width="0" font-size="10" dy="-1.33333">rdata[63:0]</text>
<path d="M1900 1005h-10" />
<text x="1892" y="1004" fill="#1c1f28" stroke-width="0" font-size="10" dy="-1.33333">req[mem_addr][57:0]</text>
<path d="M1900 1025h-10" />
<text x="1892" y="1024" fill="#1c1f28" stroke-width="0" font-size="10" dy="-1.33333">req[mem_data_out][511:0]</text>
<path d="M1820 1085h10" />
<text x="1828" y="1084" fill="#1c1f28" stroke-width="0" font-size="10" text-anchor="end" dy="-1.33333">resp[mem_data][511:0]</text>
<path d="M1820 1145h10" />
<text x="1828" y="1144" fill="#1c1f28" stroke-width="0" font-size="10" text-anchor="end" dy="-1.33333">wdata[63:0]</text>
</g>
<g stroke="#1c1f28">
<path d="M1840 925h-10" />
<path d="M1840 965h-10" />
<path d="M1840 985h-10" />
<path d="M1840 1005h-10" />
<path d="M1880 965h10" />
<path d="M1880 1045h10" />
<path d="M1880 1065h10" />
<path d="M1840 1065h-10" />
<path d="M1840 1105h-10" />
<path d="M1840 1125h-10" />
</g>
<g stroke="#1c1f28" stroke-width="3">
<path d="M1840 905h-10" />
<path d="M1840 945h-10" />
<path d="M1840 1025h-10" />
<path d="M1840 1045h-10" />
<path d="M1880 985h10" />
<path d="M1880 1005h10" />
<path d="M1880 1025h10" />
<path d="M1840 1085h-10" />
<path d="M1840 1145h-10" />
</g>
<g stroke="#575d6c">
<path d="M682 475h16" />
<path d="M685 478h10" />
<path d="M688 481h4" />
<path d="M1072 325h16" />
<path d="M1075 328h10" />
<path d="M1078 331h4" />
<path d="M1080 685v-4" />
<path d="M1072 681h16" />
<path d="M1072 785h16" />
<path d="M1075 788h10" />
<path d="M1078 791h4" />
<path d="M1620 845v-4" />
<path d="M1612 841h16" />
<path d="M1612 1185h16" />
<path d="M1615 1188h10" />
<path d="M1618 1191h4" />
</g>
<g stroke="#009633" stroke-width="3">
<path d="M200 395h20v260h760v230h500v60h340" />
<path d="M200 415h550" />
<path d="M1270 255h330v280h220" />
<path d="M1270 135h350v240h200" />
<path d="M1900 985h200v-400h20" />
<path d="M1900 515h220" />
<path d="M1900 355h220" />
<path d="M1270 735h550" />
<path d="M1210 145h-150v500h460" />
<path d="M1517 602h7v7h-7z" stroke="none" fill="#009633" />
<path d="M1517 642h7v7h-7z" stroke="none" fill="#009633" />
<path d="M1290 535h230v370h300" />
<path d="M1520 605h600" />
<path d="M1210 265h-170v400h420v-40h620v90h-180" />
<path d="M2080 625h40" />
<path d="M2077 622h7v7h-7z" stroke="none" fill="#009633" />
<path d="M1900 1005h220" />
<path d="M1900 1025h220" />
<path d="M200 795h760v110h480v180h380" />
<path d="M200 885h740v-330h270" />
<path d="M940 725h270" />
<path d="M937 722h7v7h-7z" stroke="none" fill="#009633" />
</g>
<g stroke-width="2">
<path d="M1820 1025h-195l-1 1" />
</g>
<g stroke="black">
<path d="M1625 1025l-5 5v1" />
</g>
<g>
<path d="M1620 1030v155" />
<path d="M1620 1045h200" />
<path d="M1620 1125h200" />
<path d="M1620 1145h200" />
<path d="M1618 1043h5v5h-5z" stroke="none" fill="#8bc34a" />
<path d="M1618 1123h5v5h-5z" stroke="none" fill="#8bc34a" />
<path d="M1618 1143h5v5h-5z" stroke="none" fill="#8bc34a" />
</g>
<g stroke-width="2">
<path d="M1210 745h-125l-1 1" />
</g>
<g stroke="black">
<path d="M1085 745l-5 5v1" />
</g>
<g>
<path d="M1080 750v35" />
<path d="M1210 125h-130v200" />
<path d="M1080 245h130" />
<path d="M1078 243h5v5h-5z" stroke="none" fill="#8bc34a" />
<path d="M750 435h-60v40" />
<path d="M1620 845v175l1 1" />
</g>
<g stroke="black">
<path d="M1620 1020l5 5h1" />
</g>
<g stroke-width="2">
<path d="M1625 1025h195" />
</g>
<g>
<path d="M1080 685v55l1 1" />
</g>
<g stroke="black">
<path d="M1080 740l5 5h1" />
</g>
<g stroke-width="2">
<path d="M1085 745h125" />
</g>
<g>
<path d="M200 495h700v-130h310" />
<path d="M480 975h50v10h60" />
<path d="M810 975h270v-150h130" />
<path d="M320 835h40v150h60" />
<path d="M650 975h100" />
<path d="M1270 375h270v550h280" />
<path d="M810 425h110v-40h290" />
<path d="M200 515h820" />
<path d="M1018 513h5v5h-5z" stroke="none" fill="#8bc34a" />
<path d="M1820 335h-240v650h240" />
<path d="M1210 515h-190v-90h560" />
<path d="M1580 495h240" />
<path d="M1580 695h240" />
<path d="M1578 423h5v5h-5z" stroke="none" fill="#8bc34a" />
<path d="M1578 493h5v5h-5z" stroke="none" fill="#8bc34a" />
<path d="M1578 693h5v5h-5z" stroke="none" fill="#8bc34a" />
<path d="M1270 1025h330v-20h220" />
<path d="M200 535h800" />
<path d="M998 313h5v5h-5z" stroke="none" fill="#8bc34a" />
<path d="M998 533h5v5h-5z" stroke="none" fill="#8bc34a" />
<path d="M1240 165v30h-240v650h210" />
<path d="M1000 315h500v650h320" />
<path d="M1238 313h5v5h-5z" stroke="none" fill="#8bc34a" />
<path d="M1240 315v-30" />
<path d="M420 965h-40v-40h1080v-100h620v140h-180" />
<path d="M1900 1045h220" />
<path d="M1900 1065h220" />
<path d="M200 835h20v270h1600" />
<path d="M220 835h40" />
<path d="M218 833h5v5h-5z" stroke="none" fill="#8bc34a" />
<path d="M1210 535h-130v-90h360" />
<path d="M1438 713h5v5h-5z" stroke="none" fill="#8bc34a" />
<path d="M1438 513h5v5h-5z" stroke="none" fill="#8bc34a" />
<path d="M1438 443h5v5h-5z" stroke="none" fill="#8bc34a" />
<path d="M1270 835h170v-480h380" />
<path d="M1440 715h380" />
<path d="M1440 515h380" />
<path d="M200 905h720v-440h640" />
<path d="M1560 645h290v20" />
<path d="M1560 805h290v-40" />
<path d="M1558 443h5v5h-5z" stroke="none" fill="#8bc34a" />
<path d="M1558 463h5v5h-5z" stroke="none" fill="#8bc34a" />
<path d="M1558 643h5v5h-5z" stroke="none" fill="#8bc34a" />
<path d="M1558 803h5v5h-5z" stroke="none" fill="#8bc34a" />
<path d="M1238 463h5v5h-5z" stroke="none" fill="#8bc34a" />
<path d="M1240 465v20" />
<path d="M920 625h320v-40" />
<path d="M918 623h5v5h-5z" stroke="none" fill="#8bc34a" />
<path d="M1850 305v-20h-290v780h260" />
<path d="M1560 445h290v20" />
<path d="M200 1125h350v-160h40" />
<path d="M550 1025h660" />
<path d="M548 1023h5v5h-5z" stroke="none" fill="#8bc34a" />
</g>
</g>
</svg>
