<?xml version="1.0" encoding="UTF-8" standalone="no"?>
<svg viewBox="0 0 2512 735"
     preserveAspectRatio="xMidYMid meet"
     version="1.1"
     baseProfile="full"
     xmlns="http://www.w3.org/2000/svg"
     xmlns:xlink="http://www.w3.org/1999/xlink"
     xmlns:ev="http://www.w3.org/2001/xml-events"
     xml:space="preserve">
<title>SOC</title>
<desc>Nlview schematic (SVG)</desc>
<clipPath id="clippingbbox">
<rect x="0" y="0" width="2512" height="735" />
</clipPath>
<g stroke="#19b400"
   stroke-width="1"
   stroke-linecap="butt"
   stroke-linejoin="miter"
   stroke-miterlimit="4"
   stroke-dasharray="none"
   stroke-dashoffset="0"
   fill="none"
   font-family="Helvetica"
   font-style="normal"
   font-size="12"
   writing-mode="lr-tb"
   cursor="crosshair"
   clip-path="url(#clippingbbox)">
<path d="M0 0h2512v736h-2512z" stroke="none" fill="white" />
<path d="M18 29h2476l3 1l3 1l1 3l1 3v660l-1 3l-1 3l-3 1l-3 1h-2476l-3 -1l-3 -1l-1 -3l-1 -3v-660l1 -3l1 -3l3 -1z" stroke="none" fill="#fafafa" />
<g stroke="black">
<path d="M18 29h2476" />
<path d="M2494,29 A7.83511,7.83511 1.61334 0,1 2502,37" />
<path d="M2502 37v660" />
<path d="M2502,697 A7.83511,7.83511 1.61334 0,1 2494,705" />
<path d="M2494 705h-2476" />
<path d="M18,705 A7.83511,7.83511 1.61334 0,1 10,697" />
<path d="M10 697v-660" />
<path d="M10,37 A7.83511,7.83511 1.61334 0,1 18,29" />
<text x="1256" y="27" fill="black" stroke-width="0" text-anchor="middle" dy="-1.6">core</text>
</g>
<g stroke="black" stroke-width="3">
<path d="M15 40h12" />
</g>
<g stroke="black">
<path d="M13 32h16v16h-16z" />
<text x="1256" y="707" fill="black" stroke-width="0" text-anchor="middle" dy="9.6">core</text>
<path d="M188 75h2174l3 1l3 1l1 3l1 3v584l-1 3l-1 3l-3 1l-3 1h-2174l-3 -1l-3 -1l-1 -3l-1 -3v-584l1 -3l1 -3l3 -1z" stroke="none" fill="#fafafa" />
<path d="M188 75h2174" />
<path d="M2362,75 A7.83511,7.83511 1.61334 0,1 2370,83" />
<path d="M2370 83v584" />
<path d="M2370,667 A7.83511,7.83511 1.61334 0,1 2362,675" />
<path d="M2362 675h-2174" />
<path d="M188,675 A7.83511,7.83511 1.61334 0,1 180,667" />
<path d="M180 667v-584" />
<path d="M180,83 A7.83511,7.83511 1.61334 0,1 188,75" />
</g>
<g stroke="black" stroke-width="3">
<path d="M185 86h12" />
</g>
<g stroke="black">
<path d="M183 78h16v16h-16z" />
<text x="1275" y="73" fill="black" stroke-width="0" text-anchor="middle" dy="-1.6">branch_unit</text>
<text x="1275" y="677" fill="black" stroke-width="0" text-anchor="middle" dy="9.6">core_branch</text>
<path d="M170 235h10" />
<text x="178" y="233" fill="black" stroke-width="0" font-size="10" text-anchor="end" dy="-1.33333">EX_regs[BAL]</text>
<path d="M170 255h10" />
<text x="178" y="253" fill="black" stroke-width="0" font-size="10" text-anchor="end" dy="-1.33333">EX_regs[BC]</text>
<path d="M170 275h10" />
<text x="178" y="273" fill="black" stroke-width="0" font-size="10" text-anchor="end" dy="-1.33333">EX_regs[BEQ]</text>
<path d="M170 335h10" />
<text x="178" y="333" fill="black" stroke-width="0" font-size="10" text-anchor="end" dy="-1.33333">EX_regs[BNE]</text>
<path d="M170 395h10" />
<text x="178" y="393" fill="black" stroke-width="0" font-size="10" text-anchor="end" dy="-1.33333">EX_regs[zero]</text>
<path d="M170 525h10" />
<text x="178" y="523" fill="black" stroke-width="0" font-size="10" text-anchor="end" dy="-1.33333">ID_regs[ERET]</text>
<path d="M2380 375h-10" />
<text x="2372" y="373" fill="black" stroke-width="0" font-size="10" dy="-1.33333">flush</text>
<path d="M170 645h10" />
<text x="178" y="643" fill="black" stroke-width="0" font-size="10" text-anchor="end" dy="-1.33333">reset</text>
<path d="M170 665h10" />
<text x="178" y="663" fill="black" stroke-width="0" font-size="10" text-anchor="end" dy="-1.33333">takenHandler</text>
</g>
<g stroke="black" stroke-width="3">
<path d="M170 215h10" />
<text x="178" y="213" fill="black" stroke-width="0" font-size="10" text-anchor="end" dy="-1.33333">EPC[63:0]</text>
<path d="M170 355h10" />
<text x="178" y="353" fill="black" stroke-width="0" font-size="10" text-anchor="end" dy="-1.33333">EX_regs[out][63:0]</text>
<path d="M170 375h10" />
<text x="178" y="373" fill="black" stroke-width="0" font-size="10" text-anchor="end" dy="-1.33333">EX_regs[pc_branch][63:0]</text>
<path d="M170 445h10" />
<text x="178" y="443" fill="black" stroke-width="0" font-size="10" text-anchor="end" dy="-1.33333">ID_regs[A_data][63:0]</text>
<path d="M170 545h10" />
<text x="178" y="543" fill="black" stroke-width="0" font-size="10" text-anchor="end" dy="-1.33333">ID_regs[control_type][1:0]</text>
<path d="M170 565h10" />
<text x="178" y="563" fill="black" stroke-width="0" font-size="10" text-anchor="end" dy="-1.33333">ID_regs[jumpAddr][63:0]</text>
<path d="M170 585h10" />
<text x="178" y="583" fill="black" stroke-width="0" font-size="10" text-anchor="end" dy="-1.33333">MEM_data[63:0]</text>
<path d="M170 605h10" />
<text x="178" y="603" fill="black" stroke-width="0" font-size="10" text-anchor="end" dy="-1.33333">fetch_pc4[63:0]</text>
<path d="M170 625h10" />
<text x="178" y="623" fill="black" stroke-width="0" font-size="10" text-anchor="end" dy="-1.33333">forward_A[1:0]</text>
<path d="M2380 495h-10" />
<text x="2372" y="493" fill="black" stroke-width="0" font-size="10" dy="-1.33333">next_fetch_pc[63:0]</text>
</g>
<g stroke="black">
<path d="M190 235h-10" />
<path d="M190 255h-10" />
<path d="M190 275h-10" />
<path d="M190 335h-10" />
<path d="M190 395h-10" />
<path d="M190 525h-10" />
<path d="M2360 375h10" />
<path d="M190 645h-10" />
<path d="M190 665h-10" />
</g>
<g stroke="black" stroke-width="3">
<path d="M190 215h-10" />
<path d="M190 355h-10" />
<path d="M190 375h-10" />
<path d="M190 445h-10" />
<path d="M190 545h-10" />
<path d="M190 565h-10" />
<path d="M190 585h-10" />
<path d="M190 605h-10" />
<path d="M190 625h-10" />
<path d="M2360 495h10" />
<path d="M1090 365l40 15v50l-40 15z" stroke="none" fill="#ffffcc" />
</g>
<g stroke="black">
<path d="M1090 365l40 15v50l-40 15z" />
<text x="1110" y="363" fill="black" stroke-width="0" text-anchor="middle" dy="-1.6">flush_i</text>
<text x="1114" y="439" fill="black" stroke-width="0" dy="9.6">RTL_MUX</text>
<path d="M1080 385h10" />
<text x="1088" y="384" fill="black" stroke-width="0" font-size="10" text-anchor="end" dy="-1.33333">I0</text>
<text x="1072" y="384" fill="black" stroke-width="0" font-size="8" text-anchor="end" dy="-1.06667">S=2&apos;b00</text>
<path d="M1080 405h10" />
<text x="1088" y="404" fill="black" stroke-width="0" font-size="10" text-anchor="end" dy="-1.33333">I1</text>
<text x="1072" y="404" fill="black" stroke-width="0" font-size="8" text-anchor="end" dy="-1.06667">S=2&apos;b01</text>
<path d="M1080 425h10" />
<text x="1088" y="424" fill="black" stroke-width="0" font-size="10" text-anchor="end" dy="-1.33333">I2</text>
<text x="1072" y="424" fill="black" stroke-width="0" font-size="8" text-anchor="end" dy="-1.06667">S=2&apos;b10</text>
<path d="M1140 405h-10" />
<text x="1132" y="404" fill="black" stroke-width="0" font-size="10" dy="-1.33333">O</text>
</g>
<g stroke="black" stroke-width="3">
<path d="M1110 445v-8" />
<text x="1108" y="445" fill="black" stroke-width="0" font-size="10" text-anchor="end" dy="8">S[1:0]</text>
<path d="M1400 365l40 15v30l-40 15z" stroke="none" fill="#ffffcc" />
</g>
<g stroke="black">
<path d="M1400 365l40 15v30l-40 15z" />
<text x="1420" y="363" fill="black" stroke-width="0" text-anchor="middle" dy="-1.6">flush_i__0</text>
<text x="1424" y="419" fill="black" stroke-width="0" dy="9.6">RTL_MUX</text>
<path d="M1390 385h10" />
<text x="1398" y="384" fill="black" stroke-width="0" font-size="10" text-anchor="end" dy="-1.33333">I0</text>
<text x="1382" y="384" fill="black" stroke-width="0" font-size="8" text-anchor="end" dy="-1.06667">S=1&apos;b1</text>
<path d="M1390 405h10" />
<text x="1398" y="404" fill="black" stroke-width="0" font-size="10" text-anchor="end" dy="-1.33333">I1</text>
<text x="1382" y="404" fill="black" stroke-width="0" font-size="8" text-anchor="end" dy="-1.06667">S=default</text>
<path d="M1450 395h-10" />
<text x="1442" y="394" fill="black" stroke-width="0" font-size="10" dy="-1.33333">O</text>
<path d="M1420 425v-8" />
<text x="1418" y="425" fill="black" stroke-width="0" font-size="10" text-anchor="end" dy="8">S</text>
<path d="M1700 365l40 15v30l-40 15z" stroke="none" fill="#ffffcc" />
<path d="M1700 365l40 15v30l-40 15z" />
<text x="1720" y="363" fill="black" stroke-width="0" text-anchor="middle" dy="-1.6">flush_i__1</text>
<text x="1724" y="419" fill="black" stroke-width="0" dy="9.6">RTL_MUX</text>
<path d="M1690 385h10" />
<text x="1698" y="384" fill="black" stroke-width="0" font-size="10" text-anchor="end" dy="-1.33333">I0</text>
<text x="1682" y="384" fill="black" stroke-width="0" font-size="8" text-anchor="end" dy="-1.06667">S=1&apos;b1</text>
<path d="M1690 405h10" />
<text x="1698" y="404" fill="black" stroke-width="0" font-size="10" text-anchor="end" dy="-1.33333">I1</text>
<text x="1682" y="404" fill="black" stroke-width="0" font-size="8" text-anchor="end" dy="-1.06667">S=default</text>
<path d="M1750 395h-10" />
<text x="1742" y="394" fill="black" stroke-width="0" font-size="10" dy="-1.33333">O</text>
<path d="M1720 425v-8" />
<text x="1718" y="425" fill="black" stroke-width="0" font-size="10" text-anchor="end" dy="8">S</text>
<path d="M1960 355l40 15v30l-40 15z" stroke="none" fill="#ffffcc" />
<path d="M1960 355l40 15v30l-40 15z" />
<text x="1980" y="353" fill="black" stroke-width="0" text-anchor="middle" dy="-1.6">flush_i__2</text>
<text x="1984" y="409" fill="black" stroke-width="0" dy="9.6">RTL_MUX</text>
<path d="M1950 375h10" />
<text x="1958" y="374" fill="black" stroke-width="0" font-size="10" text-anchor="end" dy="-1.33333">I0</text>
<text x="1942" y="374" fill="black" stroke-width="0" font-size="8" text-anchor="end" dy="-1.06667">S=1&apos;b1</text>
<path d="M1950 395h10" />
<text x="1958" y="394" fill="black" stroke-width="0" font-size="10" text-anchor="end" dy="-1.33333">I1</text>
<text x="1942" y="394" fill="black" stroke-width="0" font-size="8" text-anchor="end" dy="-1.06667">S=default</text>
<path d="M2010 385h-10" />
<text x="2002" y="384" fill="black" stroke-width="0" font-size="10" dy="-1.33333">O</text>
<path d="M1980 415v-8" />
<text x="1978" y="415" fill="black" stroke-width="0" font-size="10" text-anchor="end" dy="8">S</text>
<path d="M2240 345l40 15v30l-40 15z" stroke="none" fill="#ffffcc" />
<path d="M2240 345l40 15v30l-40 15z" />
<text x="2260" y="343" fill="black" stroke-width="0" text-anchor="middle" dy="-1.6">flush_i__3</text>
<text x="2264" y="399" fill="black" stroke-width="0" dy="9.6">RTL_MUX</text>
<path d="M2230 365h10" />
<text x="2238" y="364" fill="black" stroke-width="0" font-size="10" text-anchor="end" dy="-1.33333">I0</text>
<text x="2222" y="364" fill="black" stroke-width="0" font-size="8" text-anchor="end" dy="-1.06667">S=1&apos;b1</text>
<path d="M2230 385h10" />
<text x="2238" y="384" fill="black" stroke-width="0" font-size="10" text-anchor="end" dy="-1.33333">I1</text>
<text x="2222" y="384" fill="black" stroke-width="0" font-size="8" text-anchor="end" dy="-1.06667">S=default</text>
<path d="M2290 375h-10" />
<text x="2282" y="374" fill="black" stroke-width="0" font-size="10" dy="-1.33333">O</text>
<path d="M2260 405v-8" />
<text x="2258" y="405" fill="black" stroke-width="0" font-size="10" text-anchor="end" dy="8">S</text>
<path d="M630 373h60v102h-60z" stroke="none" fill="#dfebf8" />
<path d="M630 373h60v102h-60z" />
</g>
<g stroke="black" stroke-width="3">
<path d="M641 378v12" />
<path d="M635 384h12" />
</g>
<g stroke="black">
<path d="M633 376h16v16h-16z" />
<text x="660" y="371" fill="black" stroke-width="0" text-anchor="middle" dy="-1.6">forward_mux_A</text>
<text x="660" y="477" fill="black" stroke-width="0" text-anchor="middle" dy="9.6">mux3v</text>
</g>
<g stroke="black" stroke-width="3">
<path d="M620 405h10" />
<text x="628" y="404" fill="black" stroke-width="0" font-size="10" text-anchor="end" dy="-1.33333">a[63:0]</text>
<path d="M620 425h10" />
<text x="628" y="424" fill="black" stroke-width="0" font-size="10" text-anchor="end" dy="-1.33333">b[63:0]</text>
<path d="M620 445h10" />
<text x="628" y="444" fill="black" stroke-width="0" font-size="10" text-anchor="end" dy="-1.33333">c[63:0]</text>
<path d="M700 425h-10" />
<text x="692" y="424" fill="black" stroke-width="0" font-size="10" dy="-1.33333">out[63:0]</text>
<path d="M620 465h10" />
<text x="628" y="464" fill="black" stroke-width="0" font-size="10" text-anchor="end" dy="-1.33333">sel[1:0]</text>
<path d="M640 405h-10" />
<path d="M640 425h-10" />
<path d="M640 445h-10" />
<path d="M680 425h10" />
<path d="M640 465h-10" />
<path d="M1090 105l40 15v50l-40 15z" stroke="none" fill="#ffffcc" />
</g>
<g stroke="black">
<path d="M1090 105l40 15v50l-40 15z" />
<text x="1110" y="103" fill="black" stroke-width="0" text-anchor="middle" dy="-1.6">next_fetch_pc_i</text>
<text x="1114" y="179" fill="black" stroke-width="0" dy="9.6">RTL_MUX</text>
</g>
<g stroke="black" stroke-width="3">
<path d="M1080 125h10" />
<text x="1088" y="124" fill="black" stroke-width="0" font-size="10" text-anchor="end" dy="-1.33333">I0[63:0]</text>
<text x="1036" y="124" fill="black" stroke-width="0" font-size="8" text-anchor="end" dy="-1.06667">S=2&apos;b00</text>
<path d="M1080 145h10" />
<text x="1088" y="144" fill="black" stroke-width="0" font-size="10" text-anchor="end" dy="-1.33333">I1[63:0]</text>
<text x="1036" y="144" fill="black" stroke-width="0" font-size="8" text-anchor="end" dy="-1.06667">S=2&apos;b01</text>
<path d="M1080 165h10" />
<text x="1088" y="164" fill="black" stroke-width="0" font-size="10" text-anchor="end" dy="-1.33333">I2[63:0]</text>
<text x="1036" y="164" fill="black" stroke-width="0" font-size="8" text-anchor="end" dy="-1.06667">S=2&apos;b10</text>
<path d="M1140 145h-10" />
<text x="1132" y="144" fill="black" stroke-width="0" font-size="10" dy="-1.33333">O[63:0]</text>
<path d="M1110 185v-8" />
<text x="1108" y="185" fill="black" stroke-width="0" font-size="10" text-anchor="end" dy="8">S[1:0]</text>
<path d="M1400 215l40 15v30l-40 15z" stroke="none" fill="#ffffcc" />
</g>
<g stroke="black">
<path d="M1400 215l40 15v30l-40 15z" />
<text x="1420" y="213" fill="black" stroke-width="0" text-anchor="middle" dy="-1.6">next_fetch_pc_i__0</text>
<text x="1424" y="269" fill="black" stroke-width="0" dy="9.6">RTL_MUX</text>
<path d="M1420 275v-8" />
<text x="1418" y="275" fill="black" stroke-width="0" font-size="10" text-anchor="end" dy="8">S</text>
</g>
<g stroke="black" stroke-width="3">
<path d="M1390 235h10" />
<text x="1398" y="234" fill="black" stroke-width="0" font-size="10" text-anchor="end" dy="-1.33333">I0[63:0]</text>
<text x="1346" y="234" fill="black" stroke-width="0" font-size="8" text-anchor="end" dy="-1.06667">S=1&apos;b1</text>
<path d="M1390 255h10" />
<text x="1398" y="254" fill="black" stroke-width="0" font-size="10" text-anchor="end" dy="-1.33333">I1[63:0]</text>
<text x="1346" y="254" fill="black" stroke-width="0" font-size="8" text-anchor="end" dy="-1.06667">S=default</text>
<path d="M1450 245h-10" />
<text x="1442" y="244" fill="black" stroke-width="0" font-size="10" dy="-1.33333">O[63:0]</text>
<path d="M1700 485l40 15v30l-40 15z" stroke="none" fill="#ffffcc" />
</g>
<g stroke="black">
<path d="M1700 485l40 15v30l-40 15z" />
<text x="1720" y="483" fill="black" stroke-width="0" text-anchor="middle" dy="-1.6">next_fetch_pc_i__1</text>
<text x="1724" y="539" fill="black" stroke-width="0" dy="9.6">RTL_MUX</text>
<path d="M1720 545v-8" />
<text x="1718" y="545" fill="black" stroke-width="0" font-size="10" text-anchor="end" dy="8">S</text>
</g>
<g stroke="black" stroke-width="3">
<path d="M1690 505h10" />
<text x="1698" y="504" fill="black" stroke-width="0" font-size="10" text-anchor="end" dy="-1.33333">I0[63:0]</text>
<text x="1646" y="504" fill="black" stroke-width="0" font-size="8" text-anchor="end" dy="-1.06667">S=1&apos;b1</text>
<path d="M1690 525h10" />
<text x="1698" y="524" fill="black" stroke-width="0" font-size="10" text-anchor="end" dy="-1.33333">I1[63:0]</text>
<text x="1646" y="524" fill="black" stroke-width="0" font-size="8" text-anchor="end" dy="-1.06667">S=default</text>
<path d="M1750 515h-10" />
<text x="1742" y="514" fill="black" stroke-width="0" font-size="10" dy="-1.33333">O[63:0]</text>
<path d="M1960 475l40 15v30l-40 15z" stroke="none" fill="#ffffcc" />
</g>
<g stroke="black">
<path d="M1960 475l40 15v30l-40 15z" />
<text x="1980" y="473" fill="black" stroke-width="0" text-anchor="middle" dy="-1.6">next_fetch_pc_i__2</text>
<text x="1984" y="529" fill="black" stroke-width="0" dy="9.6">RTL_MUX</text>
<path d="M1980 535v-8" />
<text x="1978" y="535" fill="black" stroke-width="0" font-size="10" text-anchor="end" dy="8">S</text>
</g>
<g stroke="black" stroke-width="3">
<path d="M1950 495h10" />
<text x="1958" y="494" fill="black" stroke-width="0" font-size="10" text-anchor="end" dy="-1.33333">I0[63:0]</text>
<text x="1906" y="494" fill="black" stroke-width="0" font-size="8" text-anchor="end" dy="-1.06667">n/c</text>
<path d="M1950 515h10" />
<text x="1958" y="514" fill="black" stroke-width="0" font-size="10" text-anchor="end" dy="-1.33333">I1[63:0]</text>
<text x="1906" y="514" fill="black" stroke-width="0" font-size="8" text-anchor="end" dy="-1.06667">S=default</text>
<path d="M2010 505h-10" />
<text x="2002" y="504" fill="black" stroke-width="0" font-size="10" dy="-1.33333">O[63:0]</text>
<path d="M2240 465l40 15v30l-40 15z" stroke="none" fill="#ffffcc" />
</g>
<g stroke="black">
<path d="M2240 465l40 15v30l-40 15z" />
<text x="2260" y="463" fill="black" stroke-width="0" text-anchor="middle" dy="-1.6">next_fetch_pc_i__3</text>
<text x="2264" y="519" fill="black" stroke-width="0" dy="9.6">RTL_MUX</text>
<path d="M2260 525v-8" />
<text x="2258" y="525" fill="black" stroke-width="0" font-size="10" text-anchor="end" dy="8">S</text>
</g>
<g stroke="black" stroke-width="3">
<path d="M2230 485h10" />
<text x="2238" y="484" fill="black" stroke-width="0" font-size="10" text-anchor="end" dy="-1.33333">I0[63:0]</text>
<text x="2186" y="484" fill="black" stroke-width="0" font-size="8" text-anchor="end" dy="-1.06667">S=1&apos;b1</text>
<path d="M2230 505h10" />
<text x="2238" y="504" fill="black" stroke-width="0" font-size="10" text-anchor="end" dy="-1.33333">I1[63:0]</text>
<text x="2186" y="504" fill="black" stroke-width="0" font-size="8" text-anchor="end" dy="-1.06667">S=default</text>
<path d="M2290 495h-10" />
<text x="2282" y="494" fill="black" stroke-width="0" font-size="10" dy="-1.33333">O[63:0]</text>
<path d="M1090 270l2 2l2 3l1 2l1 3l1 3v4l-1 3l-1 3l-1 2l-2 3l-2 2h15h3l3 -1l3 -1l2 -1l3 -1l3 -2l2 -2l2 -2l2 -2l2 -3l-2 -3l-2 -2l-2 -2l-2 -2l-3 -2l-3 -1l-2 -1l-3 -1l-3 -1h-3z" stroke="none" fill="#ffffcc" />
</g>
<g stroke="black">
<path d="M1090,270 A19.5714,19.5714 1.74651 0,1 1090,300" />
<path d="M1090 300h15" />
<path d="M1105,300 A32.596,32.596 -0.927295 0,0 1130,285" />
<path d="M1130,285 A32.596,32.596 -0.927295 0,0 1105,270" />
<path d="M1105 270h-15" />
<text x="1092" y="269" fill="black" stroke-width="0" dy="-1.6">next_fetch_pc1_i</text>
<text x="1092" y="301" fill="black" stroke-width="0" dy="9.6">RTL_OR</text>
<path d="M1080 275h14" />
<text x="1089" y="274" fill="black" stroke-width="0" font-size="10" text-anchor="end" dy="-1.33333">I0</text>
<path d="M1080 295h14" />
<text x="1089" y="294" fill="black" stroke-width="0" font-size="10" text-anchor="end" dy="-1.33333">I1</text>
<path d="M1140 285h-10" />
<text x="1131" y="284" fill="black" stroke-width="0" font-size="10" dy="-1.33333">O</text>
<path d="M630 230l2 2l2 3l1 2l1 3l1 3v4l-1 3l-1 3l-1 2l-2 3l-2 2h15h3l3 -1l3 -1l2 -1l3 -1l3 -2l2 -2l2 -2l2 -2l2 -3l-2 -3l-2 -2l-2 -2l-2 -2l-3 -2l-3 -1l-2 -1l-3 -1l-3 -1h-3z" stroke="none" fill="#ffffcc" />
<path d="M630,230 A19.5714,19.5714 1.74651 0,1 630,260" />
<path d="M630 260h15" />
<path d="M645,260 A32.596,32.596 -0.927295 0,0 670,245" />
<path d="M670,245 A32.596,32.596 -0.927295 0,0 645,230" />
<path d="M645 230h-15" />
<text x="632" y="229" fill="black" stroke-width="0" dy="-1.6">next_fetch_pc2_i</text>
<text x="632" y="261" fill="black" stroke-width="0" dy="9.6">RTL_OR</text>
<path d="M620 235h14" />
<text x="629" y="234" fill="black" stroke-width="0" font-size="10" text-anchor="end" dy="-1.33333">I0</text>
<path d="M620 255h14" />
<text x="629" y="254" fill="black" stroke-width="0" font-size="10" text-anchor="end" dy="-1.33333">I1</text>
<path d="M680 245h-10" />
<text x="671" y="244" fill="black" stroke-width="0" font-size="10" dy="-1.33333">O</text>
<path d="M630 315v15h25h3l3 -1l2 -1l2 -2l3 -3l1 -2l1 -3v-3v-3l-1 -3l-1 -2l-2 -2l-3 -3l-2 -1l-3 -1h-3h-25z" stroke="none" fill="#ffffcc" />
<path d="M630 315v15h25" />
<path d="M655,330 A15,15 -3.14159 1,0 655,300" />
<path d="M655 300h-25v15" />
<text x="632" y="299" fill="black" stroke-width="0" dy="-1.6">next_fetch_pc2_i__0</text>
<text x="632" y="331" fill="black" stroke-width="0" dy="9.6">RTL_AND</text>
<path d="M620 305h10" />
<text x="629" y="304" fill="black" stroke-width="0" font-size="10" text-anchor="end" dy="-1.33333">I0</text>
<path d="M620 325h10" />
<text x="629" y="324" fill="black" stroke-width="0" font-size="10" text-anchor="end" dy="-1.33333">I1</text>
<path d="M680 315h-10" />
<text x="671" y="314" fill="black" stroke-width="0" font-size="10" dy="-1.33333">O</text>
<path d="M340 200l2 2l2 3l1 2l1 3l1 3v4l-1 3l-1 3l-1 2l-2 3l-2 2h15h3l3 -1l3 -1l2 -1l3 -1l3 -2l2 -2l2 -2l2 -2l2 -3l-2 -3l-2 -2l-2 -2l-2 -2l-3 -2l-3 -1l-2 -1l-3 -1l-3 -1h-3z" stroke="none" fill="#ffffcc" />
<path d="M340,200 A19.5714,19.5714 1.74651 0,1 340,230" />
<path d="M340 230h15" />
<path d="M355,230 A32.596,32.596 -0.927295 0,0 380,215" />
<path d="M380,215 A32.596,32.596 -0.927295 0,0 355,200" />
<path d="M355 200h-15" />
<text x="342" y="199" fill="black" stroke-width="0" dy="-1.6">next_fetch_pc3_i</text>
<text x="342" y="231" fill="black" stroke-width="0" dy="9.6">RTL_OR</text>
<path d="M330 205h14" />
<text x="339" y="204" fill="black" stroke-width="0" font-size="10" text-anchor="end" dy="-1.33333">I0</text>
<path d="M330 225h14" />
<text x="339" y="224" fill="black" stroke-width="0" font-size="10" text-anchor="end" dy="-1.33333">I1</text>
<path d="M390 215h-10" />
<text x="381" y="214" fill="black" stroke-width="0" font-size="10" dy="-1.33333">O</text>
<path d="M340 285v15h25h3l3 -1l2 -1l2 -2l3 -3l1 -2l1 -3v-3v-3l-1 -3l-1 -2l-2 -2l-3 -3l-2 -1l-3 -1h-3h-25z" stroke="none" fill="#ffffcc" />
<path d="M340 285v15h25" />
<path d="M365,300 A15,15 -3.14159 1,0 365,270" />
<path d="M365 270h-25v15" />
<text x="342" y="269" fill="black" stroke-width="0" dy="-1.6">next_fetch_pc3_i__0</text>
<text x="342" y="301" fill="black" stroke-width="0" dy="9.6">RTL_AND</text>
<path d="M330 275h10" />
<text x="339" y="274" fill="black" stroke-width="0" font-size="10" text-anchor="end" dy="-1.33333">I0</text>
<path d="M330 295h10" />
<text x="339" y="294" fill="black" stroke-width="0" font-size="10" text-anchor="end" dy="-1.33333">I1</text>
<path d="M390 285h-10" />
<text x="381" y="284" fill="black" stroke-width="0" font-size="10" dy="-1.33333">O</text>
<circle cx="374" cy="375" r="4" stroke="none" fill="#ffffcc" />
<path d="M340 375v-12l30 12l-30 12z" stroke="none" fill="#ffffcc" />
<circle cx="374" cy="375" r="4" />
<path d="M340 375v-12l30 12l-30 12z" />
<text x="342" y="361" fill="black" stroke-width="0" dy="-1.6">next_fetch_pc3_i__1</text>
<text x="342" y="389" fill="black" stroke-width="0" dy="9.6">RTL_INV</text>
<path d="M330 375h10" />
<text x="338" y="374" fill="black" stroke-width="0" font-size="10" text-anchor="end" dy="-1.33333">I0</text>
<path d="M390 375h-12" />
<text x="380" y="374" fill="black" stroke-width="0" font-size="10" dy="-1.33333">O</text>
<path d="M960 335v-4" />
<path d="M952 331h16" />
<path d="M932 485h16" />
<path d="M935 488h10" />
<path d="M938 491h4" />
<path d="M1260 335v-4" />
<path d="M1252 331h16" />
<path d="M1560 335v-4" />
<path d="M1552 331h16" />
<path d="M1820 325v-4" />
<path d="M1812 321h16" />
<path d="M2100 315v-4" />
<path d="M2092 311h16" />
<path d="M2092 565h16" />
<path d="M2095 568h10" />
<path d="M2098 571h4" />
</g>
<g stroke="green" stroke-width="3">
<path d="M190 215h60v290h1440" />
<path d="M190 355h40v70h390" />
<path d="M190 375h20v-210h610v70h570" />
<path d="M190 445h320v-40h110" />
<path d="M190 545h730v-330h190v-30" />
<path d="M920 475h190v-30" />
<path d="M917 472h7v7h-7z" stroke="none" fill="green" />
<path d="M190 565h690v-420h200" />
<path d="M190 585h340v-140h90" />
<path d="M190 605h670v-480h220" />
<path d="M190 625h360v-160h70" />
<path d="M700 425h140v-260h240" />
<path d="M2290 495h70" />
<path d="M1750 515h200" />
<path d="M1450 245h90v280h150" />
<path d="M1140 145h100v110h150" />
<path d="M2010 505h220" />
</g>
<g>
<path d="M2230 485h-130v80" />
<path d="M1080 385h-140v100" />
<path d="M2100 315v50h130" />
<path d="M1820 325v50h130" />
<path d="M1560 335v50h130" />
<path d="M1260 335v50h130" />
<path d="M960 335v90h120" />
<path d="M960 405h120" />
<path d="M958 403h5v5h-5z" stroke="none" fill="#19b400" />
<path d="M190 235h100v-10h40" />
<path d="M190 255h80v-50h60" />
<path d="M190 275h140" />
<path d="M190 335h320v-30h110" />
<path d="M190 395h100v-100h40" />
<path d="M290 375h40" />
<path d="M288 373h5v5h-5z" stroke="none" fill="#19b400" />
<path d="M190 525h1330" />
<path d="M1518 523h5v5h-5z" stroke="none" fill="#19b400" />
<path d="M1720 425v30h-200v120h200v-30" />
<path d="M2290 375h70" />
<path d="M1450 395h70v10h170" />
<path d="M1750 395h200" />
<path d="M2010 385h220" />
<path d="M1140 405h250" />
<path d="M1140 285h100v170h180v-30" />
<path d="M1240 305h180v-30" />
<path d="M1238 303h5v5h-5z" stroke="none" fill="#19b400" />
<path d="M680 245h120v30h280" />
<path d="M680 315h220v-20h180" />
<path d="M390 215h120v20h110" />
<path d="M390 285h120v-30h110" />
<path d="M390 375h140v-50h90" />
<path d="M190 645h1890v-210h180v-30" />
<path d="M2080 555h180v-30" />
<path d="M2078 553h5v5h-5z" stroke="none" fill="#19b400" />
<path d="M190 665h1630v-220h160v-30" />
<path d="M1820 565h160v-30" />
<path d="M1818 563h5v5h-5z" stroke="none" fill="#19b400" />
</g>
</g>
</svg>
