<?xml version="1.0" encoding="UTF-8" standalone="no"?>
<svg viewBox="0 0 1651 429"
     preserveAspectRatio="xMidYMid meet"
     version="1.1"
     baseProfile="full"
     xmlns="http://www.w3.org/2000/svg"
     xmlns:xlink="http://www.w3.org/1999/xlink"
     xmlns:ev="http://www.w3.org/2001/xml-events"
     xml:space="preserve">
<title>SOC</title>
<desc>Nlview schematic (SVG)</desc>
<clipPath id="clippingbbox">
<rect x="0" y="0" width="1651" height="429" />
</clipPath>
<g stroke="#8bc34a"
   stroke-width="1"
   stroke-linecap="butt"
   stroke-linejoin="miter"
   stroke-miterlimit="4"
   stroke-dasharray="none"
   stroke-dashoffset="0"
   fill="none"
   font-family="Helvetica"
   font-style="normal"
   font-size="12"
   writing-mode="lr-tb"
   cursor="crosshair"
   clip-path="url(#clippingbbox)">
<path d="M0 0h1650v430h-1650z" stroke="none" fill="white" />
<path d="M149 29h1404l3 1l3 1l1 3l1 3v354l-1 3l-1 3l-3 1l-3 1h-1404l-3 -1l-3 -1l-1 -3l-1 -3v-354l1 -3l1 -3l3 -1z" stroke="none" fill="white" />
<g stroke="#575d6c">
<path d="M149 29h1404" />
<path d="M1553,29 A7.83511,7.83511 1.61334 0,1 1561,37" />
<path d="M1561 37v354" />
<path d="M1561,391 A7.83511,7.83511 1.61334 0,1 1553,399" />
<path d="M1553 399h-1404" />
<path d="M149,399 A7.83511,7.83511 1.61334 0,1 141,391" />
<path d="M141 391v-354" />
<path d="M141,37 A7.83511,7.83511 1.61334 0,1 149,29" />
</g>
<g stroke="#575d6c" stroke-width="3">
<path d="M146 40h12" />
</g>
<g stroke="#575d6c">
<path d="M144 32h16v16h-16z" />
<text x="851" y="27" fill="#1c1f28" stroke-width="0" text-anchor="middle" dy="-1.6">led_</text>
<text x="851" y="401" fill="#1c1f28" stroke-width="0" text-anchor="middle" dy="9.6">led</text>
</g>
<g stroke="#1c1f28">
<path d="M131 289h10" />
<text x="139" y="287" fill="#1c1f28" stroke-width="0" font-size="10" text-anchor="end" dy="-1.33333">clock</text>
<path d="M131 329h10" />
<text x="139" y="327" fill="#1c1f28" stroke-width="0" font-size="10" text-anchor="end" dy="-1.33333">enable</text>
<path d="M1571 329h-10" />
<text x="1563" y="327" fill="#1c1f28" stroke-width="0" font-size="10" dy="-1.33333">led_taken</text>
<path d="M131 369h10" />
<text x="139" y="367" fill="#1c1f28" stroke-width="0" font-size="10" text-anchor="end" dy="-1.33333">reset</text>
</g>
<g stroke="#1c1f28" stroke-width="3">
<path d="M131 79h10" />
<text x="139" y="77" fill="#1c1f28" stroke-width="0" font-size="10" text-anchor="end" dy="-1.33333">addr[63:0]</text>
<path d="M1571 179h-10" />
<text x="1563" y="177" fill="#1c1f28" stroke-width="0" font-size="10" dy="-1.33333">led_out[3:0]</text>
<path d="M131 349h10" />
<text x="139" y="347" fill="#1c1f28" stroke-width="0" font-size="10" text-anchor="end" dy="-1.33333">mem_store_type[2:0]</text>
<path d="M131 389h10" />
<text x="139" y="387" fill="#1c1f28" stroke-width="0" font-size="10" text-anchor="end" dy="-1.33333">w_data[63:0]</text>
</g>
<g stroke="#1c1f28">
<path d="M151 289h-10" />
<path d="M151 329h-10" />
<path d="M1551 329h10" />
<path d="M151 369h-10" />
</g>
<g stroke="#1c1f28" stroke-width="3">
<path d="M151 79h-10" />
<path d="M1551 179h10" />
<path d="M151 349h-10" />
<path d="M151 389h-10" />
<path d="M1131 249l40 15v30l-40 15z" stroke="none" fill="#e5c7ff" />
</g>
<g stroke="#575d6c">
<path d="M1131 249l40 15v30l-40 15z" />
<text x="1151" y="247" fill="#1c1f28" stroke-width="0" text-anchor="middle" dy="-1.6">led_out_i</text>
<text x="1155" y="303" fill="#1c1f28" stroke-width="0" dy="9.6">RTL_MUX</text>
</g>
<g stroke="#1c1f28">
<path d="M1121 269h10" />
<text x="1129" y="268" fill="#1c1f28" stroke-width="0" font-size="10" text-anchor="end" dy="-1.33333">I0</text>
<text x="1113" y="268" fill="black" stroke-width="0" font-size="8" text-anchor="end" dy="-1.06667">S=1&apos;b1</text>
<path d="M1121 289h10" />
<text x="1129" y="288" fill="#1c1f28" stroke-width="0" font-size="10" text-anchor="end" dy="-1.33333">I1</text>
<text x="1113" y="288" fill="black" stroke-width="0" font-size="8" text-anchor="end" dy="-1.06667">S=default</text>
<path d="M1181 279h-10" />
<text x="1173" y="278" fill="#1c1f28" stroke-width="0" font-size="10" dy="-1.33333">O</text>
<path d="M1151 309v-8" />
<text x="1149" y="309" fill="#1c1f28" stroke-width="0" font-size="10" text-anchor="end" dy="8">S</text>
<path d="M1383 151h60v80h-60z" stroke="none" fill="#9e31fc" />
</g>
<g stroke="#575d6c">
<path d="M1383 151h60v80h-60z" />
<path d="M1379 147h60v80h-60z" stroke="none" fill="#b563fd" />
<path d="M1379 147h60v80h-60z" />
<path d="M1375 143h60v80h-60z" stroke="none" fill="#cd95fe" />
<path d="M1375 143h60v80h-60z" />
<path d="M1371 139h60v80h-60z" stroke="none" fill="#e5c7ff" />
<path d="M1371 139h60v80h-60z" />
<path d="M1371 162l7 -3l-7 -3" />
<text x="1401" y="137" fill="#1c1f28" stroke-width="0" dy="-1.6">led_out_reg[3:0]</text>
<text x="1401" y="233" fill="#1c1f28" stroke-width="0" dy="9.6">RTL_REG_ASYNC</text>
</g>
<g stroke="#1c1f28">
<path d="M1361 159h10" />
<text x="1380" y="159" fill="#1c1f28" stroke-width="0" font-size="10" dy="3.66667">C</text>
<path d="M1361 179h10" />
<text x="1373" y="179" fill="#1c1f28" stroke-width="0" font-size="10" dy="3.66667">CE</text>
</g>
<g stroke="#1c1f28" stroke-width="3">
<path d="M1391 129v10" />
<text x="1388" y="141" fill="#1c1f28" stroke-width="0" font-size="10" dy="8">CLR</text>
<text x="1393" y="123" fill="black" stroke-width="0" font-size="8" dy="-1.06667">n/c</text>
<path d="M1361 199h10" />
<text x="1373" y="199" fill="#1c1f28" stroke-width="0" font-size="10" dy="3.66667">D</text>
<path d="M1391 229v-10" />
<text x="1388" y="217" fill="#1c1f28" stroke-width="0" font-size="10" dy="-1.33333">PRE</text>
<path d="M1441 179h-10" />
<text x="1429" y="179" fill="#1c1f28" stroke-width="0" font-size="10" text-anchor="end" dy="3.66667">Q</text>
<circle cx="891" cy="219" r="20" stroke="none" fill="#e5c7ff" />
</g>
<g stroke="#575d6c">
<circle cx="891" cy="219" r="20" />
<path d="M911 219" />
<path d="M871 209l2 1" />
<path d="M871 229l2 -1" />
<text x="891" y="219" fill="#575d6c" stroke-width="0" text-anchor="middle" dy="4.4">!=</text>
<text x="886" y="197" fill="#1c1f28" stroke-width="0" dy="-1.6">led_out0_i</text>
<text x="886" y="241" fill="#1c1f28" stroke-width="0" dy="9.6">RTL_NEQ</text>
</g>
<g stroke="#1c1f28">
<path d="M921 219h-10" />
<text x="913" y="218" fill="#1c1f28" stroke-width="0" font-size="10" dy="-1.33333">O</text>
</g>
<g stroke="#1c1f28" stroke-width="3">
<path d="M861 209h10" />
<text x="869" y="208" fill="#1c1f28" stroke-width="0" font-size="10" text-anchor="end" dy="-1.33333">I0[2:0]</text>
<path d="M861 229h10" />
<text x="869" y="228" fill="#1c1f28" stroke-width="0" font-size="10" text-anchor="end" dy="-1.33333">I1[2:0]</text>
<path d="M871 339v15h25h3l3 -1l2 -1l2 -2l3 -3l1 -2l1 -3v-3v-3l-1 -3l-1 -2l-2 -2l-3 -3l-2 -1l-3 -1h-3h-25z" stroke="none" fill="#e5c7ff" />
</g>
<g stroke="#575d6c">
<path d="M871 339v15h25" />
<path d="M896,354 A15,15 -3.14159 1,0 896,324" />
<path d="M896 324h-25v15" />
<text x="873" y="323" fill="#1c1f28" stroke-width="0" dy="-1.6">led_out1_i</text>
<text x="873" y="355" fill="#1c1f28" stroke-width="0" dy="9.6">RTL_AND</text>
</g>
<g stroke="#1c1f28">
<path d="M861 329h10" />
<text x="870" y="328" fill="#1c1f28" stroke-width="0" font-size="10" text-anchor="end" dy="-1.33333">I0</text>
<path d="M861 349h10" />
<text x="870" y="348" fill="#1c1f28" stroke-width="0" font-size="10" text-anchor="end" dy="-1.33333">I1</text>
<path d="M921 339h-10" />
<text x="912" y="338" fill="#1c1f28" stroke-width="0" font-size="10" dy="-1.33333">O</text>
<path d="M651 219v15h25h3l3 -1l2 -1l2 -2l3 -3l1 -2l1 -3v-3v-3l-1 -3l-1 -2l-2 -2l-3 -3l-2 -1l-3 -1h-3h-25z" stroke="none" fill="#e5c7ff" />
</g>
<g stroke="#575d6c">
<path d="M651 219v15h25" />
<path d="M676,234 A15,15 -3.14159 1,0 676,204" />
<path d="M676 204h-25v15" />
<text x="653" y="203" fill="#1c1f28" stroke-width="0" dy="-1.6">led_out2_i</text>
<text x="653" y="235" fill="#1c1f28" stroke-width="0" dy="9.6">RTL_AND</text>
</g>
<g stroke="#1c1f28">
<path d="M641 209h10" />
<text x="650" y="208" fill="#1c1f28" stroke-width="0" font-size="10" text-anchor="end" dy="-1.33333">I0</text>
<path d="M641 229h10" />
<text x="650" y="228" fill="#1c1f28" stroke-width="0" font-size="10" text-anchor="end" dy="-1.33333">I1</text>
<path d="M701 219h-10" />
<text x="692" y="218" fill="#1c1f28" stroke-width="0" font-size="10" dy="-1.33333">O</text>
<circle cx="442" cy="89" r="21" stroke="none" fill="#e5c7ff" />
</g>
<g stroke="#575d6c">
<circle cx="442" cy="89" r="21" />
<path d="M463 89" />
<path d="M421 79l2 1" />
<path d="M421 99l2 -1" />
<text x="442" y="89" fill="#575d6c" stroke-width="0" text-anchor="middle" dy="4.4">&gt;=</text>
<text x="437" y="66" fill="#1c1f28" stroke-width="0" dy="-1.6">led_out3_i</text>
<text x="437" y="112" fill="#1c1f28" stroke-width="0" dy="9.6">RTL_GEQ</text>
</g>
<g stroke="#1c1f28">
<path d="M471 89h-8" />
<text x="465" y="88" fill="#1c1f28" stroke-width="0" font-size="10" dy="-1.33333">O</text>
</g>
<g stroke="#1c1f28" stroke-width="3">
<path d="M411 79h10" />
<text x="419" y="78" fill="#1c1f28" stroke-width="0" font-size="10" text-anchor="end" dy="-1.33333">I0[63:0]</text>
<path d="M411 99h10" />
<text x="419" y="98" fill="#1c1f28" stroke-width="0" font-size="10" text-anchor="end" dy="-1.33333">I1[63:0]</text>
<text x="367" y="98" fill="black" stroke-width="0" font-size="8" text-anchor="end" dy="-1.06667">V=X&quot;0000000020000018&quot;</text>
<circle cx="441" cy="179" r="20" stroke="none" fill="#e5c7ff" />
</g>
<g stroke="#575d6c">
<circle cx="441" cy="179" r="20" />
<path d="M461 179" />
<path d="M421 169l2 1" />
<path d="M421 189l2 -1" />
<text x="441" y="179" fill="#575d6c" stroke-width="0" text-anchor="middle" dy="4.4">&lt;</text>
<text x="436" y="157" fill="#1c1f28" stroke-width="0" dy="-1.6">led_out3_i__0</text>
<text x="436" y="201" fill="#1c1f28" stroke-width="0" dy="9.6">RTL_LT</text>
</g>
<g stroke="#1c1f28">
<path d="M471 179h-10" />
<text x="463" y="178" fill="#1c1f28" stroke-width="0" font-size="10" dy="-1.33333">O</text>
</g>
<g stroke="#1c1f28" stroke-width="3">
<path d="M411 169h10" />
<text x="419" y="168" fill="#1c1f28" stroke-width="0" font-size="10" text-anchor="end" dy="-1.33333">I0[63:0]</text>
<path d="M411 189h10" />
<text x="419" y="188" fill="#1c1f28" stroke-width="0" font-size="10" text-anchor="end" dy="-1.33333">I1[63:0]</text>
<text x="367" y="188" fill="black" stroke-width="0" font-size="8" text-anchor="end" dy="-1.06667">V=X&quot;0000000020000020&quot;</text>
<path d="M1371 299h60v60h-60z" stroke="none" fill="#e5c7ff" />
</g>
<g stroke="#575d6c">
<path d="M1371 299h60v60h-60z" />
<path d="M1371 322l7 -3l-7 -3" />
<text x="1401" y="297" fill="#1c1f28" stroke-width="0" dy="-1.6">led_taken_reg</text>
<text x="1401" y="361" fill="#1c1f28" stroke-width="0" text-anchor="middle" dy="9.6">RTL_REG_ASYNC</text>
</g>
<g stroke="#1c1f28">
<path d="M1361 319h10" />
<text x="1380" y="319" fill="#1c1f28" stroke-width="0" font-size="10" dy="3.66667">C</text>
<path d="M1391 289v10" />
<text x="1388" y="301" fill="#1c1f28" stroke-width="0" font-size="10" dy="8">CLR</text>
<path d="M1361 339h10" />
<text x="1373" y="339" fill="#1c1f28" stroke-width="0" font-size="10" dy="3.66667">D</text>
<path d="M1441 329h-10" />
<text x="1429" y="329" fill="#1c1f28" stroke-width="0" font-size="10" text-anchor="end" dy="3.66667">Q</text>
</g>
<g stroke="#575d6c">
<path d="M191 39v-4" />
<path d="M183 35h16" />
<path d="M203 229h16" />
<path d="M206 232h10" />
<path d="M209 235h4" />
<path d="M793 269h16" />
<path d="M796 272h10" />
<path d="M799 275h4" />
<path d="M1023 349h16" />
<path d="M1026 352h10" />
<path d="M1029 355h4" />
</g>
<g stroke="#009633" stroke-width="3">
<path d="M151 79h20v90h240" />
<path d="M171 79h240" />
<path d="M168 76h7v7h-7z" stroke="none" fill="#009633" />
<path d="M1441 179h110" />
<path d="M151 349h60v-80h570v-60h80" />
<path d="M151 389h20v-140h410v-80h670v30h110" />
</g>
<g>
<path d="M1121 289h-90v60" />
<path d="M861 229h-60v40" />
</g>
<g stroke-width="2">
<path d="M411 99h-195l-1 1" />
</g>
<g stroke="black">
<path d="M216 99l-5 5v1" />
</g>
<g>
<path d="M211 104v125" />
</g>
<g stroke="black">
<path d="M211 194l5 -5h1" />
</g>
<g stroke-width="2">
<path d="M216 189h195" />
</g>
<g>
<path d="M191 39v145l1 1" />
</g>
<g stroke="black">
<path d="M191 184l5 5h1" />
</g>
<g stroke-width="2">
<path d="M196 189h215" />
</g>
<g stroke="black">
<path d="M191 94l5 5h1" />
</g>
<g stroke-width="2">
<path d="M196 99h215" />
</g>
<g>
<path d="M151 289h860v-70h300" />
<path d="M1309 217h5v5h-5z" stroke="none" fill="#8bc34a" />
<path d="M1361 159h-50v160h50" />
<path d="M151 329h710" />
<path d="M1181 279h90v-100h90" />
<path d="M921 219h70v50h130" />
<path d="M921 339h440" />
<path d="M1149 337h5v5h-5z" stroke="none" fill="#8bc34a" />
<path d="M1151 339v-30" />
<path d="M701 219h60v130h100" />
<path d="M471 89h130v120h40" />
<path d="M471 179h90v50h80" />
<path d="M1441 329h110" />
<path d="M151 369h650v20h490v-290h100v30" />
<path d="M1291 269h100v20" />
<path d="M1389 267h5v5h-5z" stroke="none" fill="#8bc34a" />
<path d="M1391 269v-40" />
<path d="M1289 267h5v5h-5z" stroke="none" fill="#8bc34a" />
</g>
</g>
</svg>
