<?xml version="1.0" encoding="UTF-8" standalone="no"?>
<svg viewBox="0 0 964 535"
     preserveAspectRatio="xMidYMid meet"
     version="1.1"
     baseProfile="full"
     xmlns="http://www.w3.org/2000/svg"
     xmlns:xlink="http://www.w3.org/1999/xlink"
     xmlns:ev="http://www.w3.org/2001/xml-events"
     xml:space="preserve">
<title>SOC</title>
<desc>Nlview schematic (SVG)</desc>
<clipPath id="clippingbbox">
<rect x="0" y="0" width="964" height="535" />
</clipPath>
<g stroke="#19b400"
   stroke-width="1"
   stroke-linecap="butt"
   stroke-linejoin="miter"
   stroke-miterlimit="4"
   stroke-dasharray="none"
   stroke-dashoffset="0"
   fill="none"
   font-family="Helvetica"
   font-style="normal"
   font-size="12"
   writing-mode="lr-tb"
   cursor="crosshair"
   clip-path="url(#clippingbbox)">
<path d="M0 0h964v536h-964z" stroke="none" fill="white" />
<path d="M18 29h928l3 1l3 1l1 3l1 3v460l-1 3l-1 3l-3 1l-3 1h-928l-3 -1l-3 -1l-1 -3l-1 -3v-460l1 -3l1 -3l3 -1z" stroke="none" fill="#fafafa" />
<g stroke="black">
<path d="M18 29h928" />
<path d="M946,29 A7.83511,7.83511 1.61334 0,1 954,37" />
<path d="M954 37v460" />
<path d="M954,497 A7.83511,7.83511 1.61334 0,1 946,505" />
<path d="M946 505h-928" />
<path d="M18,505 A7.83511,7.83511 1.61334 0,1 10,497" />
<path d="M10 497v-460" />
<path d="M10,37 A7.83511,7.83511 1.61334 0,1 18,29" />
<text x="482" y="27" fill="black" stroke-width="0" text-anchor="middle" dy="-1.6">core</text>
</g>
<g stroke="black" stroke-width="3">
<path d="M15 40h12" />
</g>
<g stroke="black">
<path d="M13 32h16v16h-16z" />
<text x="482" y="507" fill="black" stroke-width="0" text-anchor="middle" dy="9.6">core</text>
<path d="M28 69h908l3 1l3 1l1 3l1 3v390l-1 3l-1 3l-3 1l-3 1h-908l-3 -1l-3 -1l-1 -3l-1 -3v-390l1 -3l1 -3l3 -1z" stroke="none" fill="#fafafa" />
<path d="M28 69h908" />
<path d="M936,69 A7.83511,7.83511 1.61334 0,1 944,77" />
<path d="M944 77v390" />
<path d="M944,467 A7.83511,7.83511 1.61334 0,1 936,475" />
<path d="M936 475h-908" />
<path d="M28,475 A7.83511,7.83511 1.61334 0,1 20,467" />
<path d="M20 467v-390" />
<path d="M20,77 A7.83511,7.83511 1.61334 0,1 28,69" />
<text x="482" y="67" fill="black" stroke-width="0" text-anchor="middle" dy="-1.6">EX_stage</text>
</g>
<g stroke="black" stroke-width="3">
<path d="M25 80h12" />
</g>
<g stroke="black">
<path d="M23 72h16v16h-16z" />
<text x="482" y="477" fill="black" stroke-width="0" text-anchor="middle" dy="9.6">core_EX</text>
<path d="M38 109h888l3 1l3 1l1 3l1 3v320l-1 3l-1 3l-3 1l-3 1h-888l-3 -1l-3 -1l-1 -3l-1 -3v-320l1 -3l1 -3l3 -1z" stroke="none" fill="#fafafa" />
<path d="M38 109h888" />
<path d="M926,109 A7.83511,7.83511 1.61334 0,1 934,117" />
<path d="M934 117v320" />
<path d="M934,437 A7.83511,7.83511 1.61334 0,1 926,445" />
<path d="M926 445h-888" />
<path d="M38,445 A7.83511,7.83511 1.61334 0,1 30,437" />
<path d="M30 437v-320" />
<path d="M30,117 A7.83511,7.83511 1.61334 0,1 38,109" />
<text x="482" y="107" fill="black" stroke-width="0" text-anchor="middle" dy="-1.6">alu_</text>
</g>
<g stroke="black" stroke-width="3">
<path d="M35 120h12" />
</g>
<g stroke="black">
<path d="M33 112h16v16h-16z" />
<text x="482" y="447" fill="black" stroke-width="0" text-anchor="middle" dy="9.6">alu</text>
<path d="M118 155h734l3 1l3 1l1 3l1 3v244l-1 3l-1 3l-3 1l-3 1h-734l-3 -1l-3 -1l-1 -3l-1 -3v-244l1 -3l1 -3l3 -1z" stroke="none" fill="#fafafa" />
<path d="M118 155h734" />
<path d="M852,155 A7.83511,7.83511 1.61334 0,1 860,163" />
<path d="M860 163v244" />
<path d="M860,407 A7.83511,7.83511 1.61334 0,1 852,415" />
<path d="M852 415h-734" />
<path d="M118,415 A7.83511,7.83511 1.61334 0,1 110,407" />
<path d="M110 407v-244" />
<path d="M110,163 A7.83511,7.83511 1.61334 0,1 118,155" />
</g>
<g stroke="black" stroke-width="3">
<path d="M115 166h12" />
</g>
<g stroke="black">
<path d="M113 158h16v16h-16z" />
<text x="485" y="153" fill="black" stroke-width="0" text-anchor="middle" dy="-1.6">lu_0</text>
<text x="485" y="417" fill="black" stroke-width="0" text-anchor="middle" dy="9.6">lu</text>
</g>
<g stroke="black" stroke-width="3">
<path d="M100 185h10" />
<text x="108" y="183" fill="black" stroke-width="0" font-size="10" text-anchor="end" dy="-1.33333">a[63:0]</text>
<path d="M100 245h10" />
<text x="108" y="243" fill="black" stroke-width="0" font-size="10" text-anchor="end" dy="-1.33333">b[63:0]</text>
<path d="M100 405h10" />
<text x="108" y="403" fill="black" stroke-width="0" font-size="10" text-anchor="end" dy="-1.33333">lu_op[1:0]</text>
<path d="M870 335h-10" />
<text x="862" y="333" fill="black" stroke-width="0" font-size="10" dy="-1.33333">out[63:0]</text>
<path d="M120 185h-10" />
<path d="M120 245h-10" />
<path d="M120 405h-10" />
<path d="M850 335h10" />
<path d="M460 195v15h25h3l3 -1l2 -1l2 -2l3 -3l1 -2l1 -3v-3v-3l-1 -3l-1 -2l-2 -2l-3 -3l-2 -1l-3 -1h-3h-25z" stroke="none" fill="#ffffcc" />
</g>
<g stroke="black">
<path d="M460 195v15h25" />
<path d="M485,210 A15,15 -3.14159 1,0 485,180" />
<path d="M485 180h-25v15" />
<text x="462" y="179" fill="black" stroke-width="0" dy="-1.6">a0_i</text>
<text x="462" y="211" fill="black" stroke-width="0" dy="9.6">RTL_AND</text>
</g>
<g stroke="black" stroke-width="3">
<path d="M450 185h10" />
<text x="459" y="184" fill="black" stroke-width="0" font-size="10" text-anchor="end" dy="-1.33333">I0[63:0]</text>
<path d="M450 205h10" />
<text x="459" y="204" fill="black" stroke-width="0" font-size="10" text-anchor="end" dy="-1.33333">I1[63:0]</text>
<path d="M510 195h-10" />
<text x="501" y="194" fill="black" stroke-width="0" font-size="10" dy="-1.33333">O[63:0]</text>
<path d="M220 220l2 2l2 3l1 2l1 3l1 3v4l-1 3l-1 3l-1 2l-2 3l-2 2h15h3l3 -1l3 -1l2 -1l3 -1l3 -2l2 -2l2 -2l2 -2l2 -3l-2 -3l-2 -2l-2 -2l-2 -2l-3 -2l-3 -1l-2 -1l-3 -1l-3 -1h-3z" stroke="none" fill="#ffffcc" />
</g>
<g stroke="black">
<path d="M220,220 A19.5714,19.5714 1.74651 0,1 220,250" />
<path d="M220 250h15" />
<path d="M235,250 A32.596,32.596 -0.927295 0,0 260,235" />
<path d="M260,235 A32.596,32.596 -0.927295 0,0 235,220" />
<path d="M235 220h-15" />
<text x="222" y="219" fill="black" stroke-width="0" dy="-1.6">b0_i</text>
<text x="222" y="251" fill="black" stroke-width="0" dy="9.6">RTL_OR</text>
</g>
<g stroke="black" stroke-width="3">
<path d="M210 225h14" />
<text x="219" y="224" fill="black" stroke-width="0" font-size="10" text-anchor="end" dy="-1.33333">I0[63:0]</text>
<path d="M210 245h14" />
<text x="219" y="244" fill="black" stroke-width="0" font-size="10" text-anchor="end" dy="-1.33333">I1[63:0]</text>
<path d="M270 235h-10" />
<text x="261" y="234" fill="black" stroke-width="0" font-size="10" dy="-1.33333">O[63:0]</text>
<circle cx="494" cy="355" r="4" stroke="none" fill="#ffffcc" />
<path d="M460 355v-12l30 12l-30 12z" stroke="none" fill="#ffffcc" />
</g>
<g stroke="black">
<circle cx="494" cy="355" r="4" />
<path d="M460 355v-12l30 12l-30 12z" />
<text x="462" y="341" fill="black" stroke-width="0" dy="-1.6">c0_i</text>
<text x="462" y="369" fill="black" stroke-width="0" dy="9.6">RTL_INV</text>
</g>
<g stroke="black" stroke-width="3">
<path d="M450 355h10" />
<text x="458" y="354" fill="black" stroke-width="0" font-size="10" text-anchor="end" dy="-1.33333">I0[63:0]</text>
<path d="M510 355h-12" />
<text x="500" y="354" fill="black" stroke-width="0" font-size="10" dy="-1.33333">O[63:0]</text>
<path d="M465 250l2 2l2 3l1 2l1 3l1 3v4l-1 3l-1 3l-1 2l-2 3l-2 2h10h3l3 -1l3 -1l2 -1l3 -1l3 -2l2 -2l2 -2l2 -2l2 -3l-2 -3l-2 -2l-2 -2l-2 -2l-3 -2l-3 -1l-2 -1l-3 -1l-3 -1h-3z" stroke="none" fill="#ffffcc" />
</g>
<g stroke="black">
<path d="M460,250 A19.5714,19.5714 1.74651 0,1 460,280" />
<path d="M465,250 A19.5714,19.5714 1.74651 0,1 465,280" />
<path d="M465 280h10" />
<path d="M475,280 A32.596,32.596 -0.927295 0,0 500,265" />
<path d="M500,265 A32.596,32.596 -0.927295 0,0 475,250" />
<path d="M475 250h-10" />
<text x="462" y="249" fill="black" stroke-width="0" dy="-1.6">d0_i</text>
<text x="462" y="281" fill="black" stroke-width="0" dy="9.6">RTL_XOR</text>
</g>
<g stroke="black" stroke-width="3">
<path d="M450 255h14" />
<text x="459" y="254" fill="black" stroke-width="0" font-size="10" text-anchor="end" dy="-1.33333">I0[63:0]</text>
<path d="M450 275h14" />
<text x="459" y="274" fill="black" stroke-width="0" font-size="10" text-anchor="end" dy="-1.33333">I1[63:0]</text>
<path d="M510 265h-10" />
<text x="501" y="264" fill="black" stroke-width="0" font-size="10" dy="-1.33333">O[63:0]</text>
<path d="M700 263h60v122h-60z" stroke="none" fill="#dfebf8" />
</g>
<g stroke="black">
<path d="M700 263h60v122h-60z" />
</g>
<g stroke="black" stroke-width="3">
<path d="M711 268v12" />
<path d="M705 274h12" />
</g>
<g stroke="black">
<path d="M703 266h16v16h-16z" />
<text x="730" y="261" fill="black" stroke-width="0" text-anchor="middle" dy="-1.6">mux4v_0</text>
<text x="730" y="387" fill="black" stroke-width="0" text-anchor="middle" dy="9.6">mux4v__parameterized3</text>
</g>
<g stroke="black" stroke-width="3">
<path d="M690 295h10" />
<text x="698" y="294" fill="black" stroke-width="0" font-size="10" text-anchor="end" dy="-1.33333">a[63:0]</text>
<path d="M690 315h10" />
<text x="698" y="314" fill="black" stroke-width="0" font-size="10" text-anchor="end" dy="-1.33333">b[63:0]</text>
<path d="M690 335h10" />
<text x="698" y="334" fill="black" stroke-width="0" font-size="10" text-anchor="end" dy="-1.33333">c[63:0]</text>
<path d="M690 355h10" />
<text x="698" y="354" fill="black" stroke-width="0" font-size="10" text-anchor="end" dy="-1.33333">d[63:0]</text>
<path d="M770 335h-10" />
<text x="762" y="334" fill="black" stroke-width="0" font-size="10" dy="-1.33333">out[63:0]</text>
<path d="M690 375h10" />
<text x="698" y="374" fill="black" stroke-width="0" font-size="10" text-anchor="end" dy="-1.33333">sel[1:0]</text>
<path d="M710 295h-10" />
<path d="M710 315h-10" />
<path d="M710 335h-10" />
<path d="M710 355h-10" />
<path d="M750 335h10" />
<path d="M710 375h-10" />
</g>
<g stroke="green" stroke-width="3">
<path d="M120 185h20v40h70" />
<path d="M140 185h240v70h70" />
<path d="M380 185h70" />
<path d="M377 182h7v7h-7z" stroke="none" fill="green" />
<path d="M137 182h7v7h-7z" stroke="none" fill="green" />
<path d="M510 195h110v100h70" />
<path d="M120 245h20v40h220v-80h90" />
<path d="M360 275h90" />
<path d="M357 272h7v7h-7z" stroke="none" fill="green" />
<path d="M140 245h70" />
<path d="M137 242h7v7h-7z" stroke="none" fill="green" />
<path d="M510 355h70v-20h110" />
<path d="M510 265h90v90h90" />
<path d="M120 405h500v-30h70" />
<path d="M770 335h80" />
<path d="M270 235h70v120h110" />
<path d="M340 315h350" />
<path d="M337 312h7v7h-7z" stroke="none" fill="green" />
</g>
</g>
</svg>
