<?xml version="1.0" encoding="UTF-8" standalone="no"?>
<svg viewBox="0 0 500 335"
     preserveAspectRatio="xMidYMid meet"
     version="1.1"
     baseProfile="full"
     xmlns="http://www.w3.org/2000/svg"
     xmlns:xlink="http://www.w3.org/1999/xlink"
     xmlns:ev="http://www.w3.org/2001/xml-events"
     xml:space="preserve">
<title>SOC</title>
<desc>Nlview schematic (SVG)</desc>
<clipPath id="clippingbbox">
<rect x="0" y="0" width="500" height="335" />
</clipPath>
<g stroke="#8bc34a"
   stroke-width="1"
   stroke-linecap="butt"
   stroke-linejoin="miter"
   stroke-miterlimit="4"
   stroke-dasharray="none"
   stroke-dashoffset="0"
   fill="none"
   font-family="Helvetica"
   font-style="normal"
   font-size="12"
   writing-mode="lr-tb"
   cursor="crosshair"
   clip-path="url(#clippingbbox)">
<path d="M0 0h500v336h-500z" stroke="none" fill="white" />
<path d="M18 29h464l3 1l3 1l1 3l1 3v260l-1 3l-1 3l-3 1l-3 1h-464l-3 -1l-3 -1l-1 -3l-1 -3v-260l1 -3l1 -3l3 -1z" stroke="none" fill="white" />
<g stroke="#575d6c">
<path d="M18 29h464" />
<path d="M482,29 A7.83511,7.83511 1.61334 0,1 490,37" />
<path d="M490 37v260" />
<path d="M490,297 A7.83511,7.83511 1.61334 0,1 482,305" />
<path d="M482 305h-464" />
<path d="M18,305 A7.83511,7.83511 1.61334 0,1 10,297" />
<path d="M10 297v-260" />
<path d="M10,37 A7.83511,7.83511 1.61334 0,1 18,29" />
<text x="250" y="27" fill="#1c1f28" stroke-width="0" text-anchor="middle" dy="-1.6">core</text>
</g>
<g stroke="#575d6c" stroke-width="3">
<path d="M15 40h12" />
</g>
<g stroke="#575d6c">
<path d="M13 32h16v16h-16z" />
<text x="250" y="307" fill="#1c1f28" stroke-width="0" text-anchor="middle" dy="9.6">core</text>
<path d="M28 69h444l3 1l3 1l1 3l1 3v190l-1 3l-1 3l-3 1l-3 1h-444l-3 -1l-3 -1l-1 -3l-1 -3v-190l1 -3l1 -3l3 -1z" stroke="none" fill="white" />
<path d="M28 69h444" />
<path d="M472,69 A7.83511,7.83511 1.61334 0,1 480,77" />
<path d="M480 77v190" />
<path d="M480,267 A7.83511,7.83511 1.61334 0,1 472,275" />
<path d="M472 275h-444" />
<path d="M28,275 A7.83511,7.83511 1.61334 0,1 20,267" />
<path d="M20 267v-190" />
<path d="M20,77 A7.83511,7.83511 1.61334 0,1 28,69" />
<text x="250" y="67" fill="#1c1f28" stroke-width="0" text-anchor="middle" dy="-1.6">cache_arbiter_</text>
</g>
<g stroke="#575d6c" stroke-width="3">
<path d="M25 80h12" />
</g>
<g stroke="#575d6c">
<path d="M23 72h16v16h-16z" />
<text x="250" y="277" fill="#1c1f28" stroke-width="0" text-anchor="middle" dy="9.6">cache_arbiter</text>
<path d="M98 115h294l3 1l3 1l1 3l1 3v114l-1 3l-1 3l-3 1l-3 1h-294l-3 -1l-3 -1l-1 -3l-1 -3v-114l1 -3l1 -3l3 -1z" stroke="none" fill="white" />
<path d="M98 115h294" />
<path d="M392,115 A7.83511,7.83511 1.61334 0,1 400,123" />
<path d="M400 123v114" />
<path d="M400,237 A7.83511,7.83511 1.61334 0,1 392,245" />
<path d="M392 245h-294" />
<path d="M98,245 A7.83511,7.83511 1.61334 0,1 90,237" />
<path d="M90 237v-114" />
<path d="M90,123 A7.83511,7.83511 1.61334 0,1 98,115" />
</g>
<g stroke="#575d6c" stroke-width="3">
<path d="M95 126h12" />
</g>
<g stroke="#575d6c">
<path d="M93 118h16v16h-16z" />
<text x="245" y="113" fill="#1c1f28" stroke-width="0" text-anchor="middle" dy="-1.6">data_1_mux</text>
<text x="245" y="247" fill="#1c1f28" stroke-width="0" text-anchor="middle" dy="9.6">mux2v__parameterized0</text>
</g>
<g stroke="#1c1f28">
<path d="M80 235h10" />
<text x="88" y="233" fill="#1c1f28" stroke-width="0" font-size="10" text-anchor="end" dy="-1.33333">sel</text>
</g>
<g stroke="#1c1f28" stroke-width="3">
<path d="M80 145h10" />
<text x="88" y="143" fill="#1c1f28" stroke-width="0" font-size="10" text-anchor="end" dy="-1.33333">a[511:0]</text>
<path d="M80 165h10" />
<text x="88" y="163" fill="#1c1f28" stroke-width="0" font-size="10" text-anchor="end" dy="-1.33333">b[511:0]</text>
<path d="M410 175h-10" />
<text x="402" y="173" fill="#1c1f28" stroke-width="0" font-size="10" dy="-1.33333">out[511:0]</text>
</g>
<g stroke="#1c1f28">
<path d="M100 235h-10" />
</g>
<g stroke="#1c1f28" stroke-width="3">
<path d="M100 145h-10" />
<path d="M100 165h-10" />
<path d="M390 175h10" />
<path d="M260 145l40 15v30l-40 15z" stroke="none" fill="#e5c7ff" />
</g>
<g stroke="#575d6c">
<path d="M260 145l40 15v30l-40 15z" />
<text x="280" y="143" fill="#1c1f28" stroke-width="0" text-anchor="middle" dy="-1.6">out0_i</text>
<text x="284" y="199" fill="#1c1f28" stroke-width="0" dy="9.6">RTL_MUX</text>
</g>
<g stroke="#1c1f28">
<path d="M280 205v-8" />
<text x="278" y="205" fill="#1c1f28" stroke-width="0" font-size="10" text-anchor="end" dy="8">S</text>
</g>
<g stroke="#1c1f28" stroke-width="3">
<path d="M250 165h10" />
<text x="258" y="164" fill="#1c1f28" stroke-width="0" font-size="10" text-anchor="end" dy="-1.33333">I0[511:0]</text>
<text x="200" y="164" fill="black" stroke-width="0" font-size="8" text-anchor="end" dy="-1.06667">S=1&apos;b1</text>
<path d="M250 185h10" />
<text x="258" y="184" fill="#1c1f28" stroke-width="0" font-size="10" text-anchor="end" dy="-1.33333">I1[511:0]</text>
<text x="200" y="184" fill="black" stroke-width="0" font-size="8" text-anchor="end" dy="-1.06667">S=default</text>
<path d="M310 175h-10" />
<text x="302" y="174" fill="#1c1f28" stroke-width="0" font-size="10" dy="-1.33333">O[511:0]</text>
</g>
<g stroke="#009633" stroke-width="3">
<path d="M100 145h20v40h130" />
<path d="M100 165h150" />
<path d="M310 175h80" />
</g>
<g>
<path d="M100 235h180v-30" />
</g>
</g>
</svg>
