<?xml version="1.0" encoding="UTF-8" standalone="no"?>
<svg viewBox="0 0 504 405"
     preserveAspectRatio="xMidYMid meet"
     version="1.1"
     baseProfile="full"
     xmlns="http://www.w3.org/2000/svg"
     xmlns:xlink="http://www.w3.org/1999/xlink"
     xmlns:ev="http://www.w3.org/2001/xml-events"
     xml:space="preserve">
<title>SOC</title>
<desc>Nlview schematic (SVG)</desc>
<clipPath id="clippingbbox">
<rect x="0" y="0" width="504" height="405" />
</clipPath>
<g stroke="#19b400"
   stroke-width="1"
   stroke-linecap="butt"
   stroke-linejoin="miter"
   stroke-miterlimit="4"
   stroke-dasharray="none"
   stroke-dashoffset="0"
   fill="none"
   font-family="Helvetica"
   font-style="normal"
   font-size="12"
   writing-mode="lr-tb"
   cursor="crosshair"
   clip-path="url(#clippingbbox)">
<path d="M0 0h504v406h-504z" stroke="none" fill="white" />
<path d="M18 29h468l3 1l3 1l1 3l1 3v330l-1 3l-1 3l-3 1l-3 1h-468l-3 -1l-3 -1l-1 -3l-1 -3v-330l1 -3l1 -3l3 -1z" stroke="none" fill="#fafafa" />
<g stroke="black">
<path d="M18 29h468" />
<path d="M486,29 A7.83511,7.83511 1.61334 0,1 494,37" />
<path d="M494 37v330" />
<path d="M494,367 A7.83511,7.83511 1.61334 0,1 486,375" />
<path d="M486 375h-468" />
<path d="M18,375 A7.83511,7.83511 1.61334 0,1 10,367" />
<path d="M10 367v-330" />
<path d="M10,37 A7.83511,7.83511 1.61334 0,1 18,29" />
<text x="252" y="27" fill="black" stroke-width="0" text-anchor="middle" dy="-1.6">core</text>
</g>
<g stroke="black" stroke-width="3">
<path d="M15 40h12" />
</g>
<g stroke="black">
<path d="M13 32h16v16h-16z" />
<text x="252" y="377" fill="black" stroke-width="0" text-anchor="middle" dy="9.6">core</text>
<path d="M28 69h448l3 1l3 1l1 3l1 3v260l-1 3l-1 3l-3 1l-3 1h-448l-3 -1l-3 -1l-1 -3l-1 -3v-260l1 -3l1 -3l3 -1z" stroke="none" fill="#fafafa" />
<path d="M28 69h448" />
<path d="M476,69 A7.83511,7.83511 1.61334 0,1 484,77" />
<path d="M484 77v260" />
<path d="M484,337 A7.83511,7.83511 1.61334 0,1 476,345" />
<path d="M476 345h-448" />
<path d="M28,345 A7.83511,7.83511 1.61334 0,1 20,337" />
<path d="M20 337v-260" />
<path d="M20,77 A7.83511,7.83511 1.61334 0,1 28,69" />
<text x="252" y="67" fill="black" stroke-width="0" text-anchor="middle" dy="-1.6">cache_arbiter_</text>
</g>
<g stroke="black" stroke-width="3">
<path d="M25 80h12" />
</g>
<g stroke="black">
<path d="M23 72h16v16h-16z" />
<text x="252" y="347" fill="black" stroke-width="0" text-anchor="middle" dy="9.6">cache_arbiter</text>
<path d="M38 109h428l3 1l3 1l1 3l1 3v190l-1 3l-1 3l-3 1l-3 1h-428l-3 -1l-3 -1l-1 -3l-1 -3v-190l1 -3l1 -3l3 -1z" stroke="none" fill="#fafafa" />
<path d="M38 109h428" />
<path d="M466,109 A7.83511,7.83511 1.61334 0,1 474,117" />
<path d="M474 117v190" />
<path d="M474,307 A7.83511,7.83511 1.61334 0,1 466,315" />
<path d="M466 315h-428" />
<path d="M38,315 A7.83511,7.83511 1.61334 0,1 30,307" />
<path d="M30 307v-190" />
<path d="M30,117 A7.83511,7.83511 1.61334 0,1 38,109" />
<text x="252" y="107" fill="black" stroke-width="0" text-anchor="middle" dy="-1.6">addr_mux</text>
</g>
<g stroke="black" stroke-width="3">
<path d="M35 120h12" />
</g>
<g stroke="black">
<path d="M33 112h16v16h-16z" />
<text x="252" y="317" fill="black" stroke-width="0" text-anchor="middle" dy="9.6">mux4v</text>
<path d="M108 155h284l3 1l3 1l1 3l1 3v114l-1 3l-1 3l-3 1l-3 1h-284l-3 -1l-3 -1l-1 -3l-1 -3v-114l1 -3l1 -3l3 -1z" stroke="none" fill="#fafafa" />
<path d="M108 155h284" />
<path d="M392,155 A7.83511,7.83511 1.61334 0,1 400,163" />
<path d="M400 163v114" />
<path d="M400,277 A7.83511,7.83511 1.61334 0,1 392,285" />
<path d="M392 285h-284" />
<path d="M108,285 A7.83511,7.83511 1.61334 0,1 100,277" />
<path d="M100 277v-114" />
<path d="M100,163 A7.83511,7.83511 1.61334 0,1 108,155" />
</g>
<g stroke="black" stroke-width="3">
<path d="M105 166h12" />
</g>
<g stroke="black">
<path d="M103 158h16v16h-16z" />
<text x="250" y="153" fill="black" stroke-width="0" text-anchor="middle" dy="-1.6">mux2v_0</text>
<text x="250" y="287" fill="black" stroke-width="0" text-anchor="middle" dy="9.6">mux2v</text>
<path d="M90 275h10" />
<text x="98" y="273" fill="black" stroke-width="0" font-size="10" text-anchor="end" dy="-1.33333">sel</text>
</g>
<g stroke="black" stroke-width="3">
<path d="M90 185h10" />
<text x="98" y="183" fill="black" stroke-width="0" font-size="10" text-anchor="end" dy="-1.33333">a[57:0]</text>
<path d="M90 205h10" />
<text x="98" y="203" fill="black" stroke-width="0" font-size="10" text-anchor="end" dy="-1.33333">b[57:0]</text>
<path d="M410 215h-10" />
<text x="402" y="213" fill="black" stroke-width="0" font-size="10" dy="-1.33333">out[57:0]</text>
</g>
<g stroke="black">
<path d="M110 275h-10" />
</g>
<g stroke="black" stroke-width="3">
<path d="M110 185h-10" />
<path d="M110 205h-10" />
<path d="M390 215h10" />
<path d="M270 185l40 15v30l-40 15z" stroke="none" fill="#ffffcc" />
</g>
<g stroke="black">
<path d="M270 185l40 15v30l-40 15z" />
<text x="290" y="183" fill="black" stroke-width="0" text-anchor="middle" dy="-1.6">out0_i</text>
<text x="294" y="239" fill="black" stroke-width="0" dy="9.6">RTL_MUX</text>
<path d="M290 245v-8" />
<text x="288" y="245" fill="black" stroke-width="0" font-size="10" text-anchor="end" dy="8">S</text>
</g>
<g stroke="black" stroke-width="3">
<path d="M260 205h10" />
<text x="268" y="204" fill="black" stroke-width="0" font-size="10" text-anchor="end" dy="-1.33333">I0[57:0]</text>
<text x="216" y="204" fill="black" stroke-width="0" font-size="8" text-anchor="end" dy="-1.06667">S=1&apos;b1</text>
<path d="M260 225h10" />
<text x="268" y="224" fill="black" stroke-width="0" font-size="10" text-anchor="end" dy="-1.33333">I1[57:0]</text>
<text x="216" y="224" fill="black" stroke-width="0" font-size="8" text-anchor="end" dy="-1.06667">S=default</text>
<path d="M320 215h-10" />
<text x="312" y="214" fill="black" stroke-width="0" font-size="10" dy="-1.33333">O[57:0]</text>
</g>
<g stroke="green" stroke-width="3">
<path d="M110 185h20v40h130" />
<path d="M110 205h150" />
<path d="M320 215h70" />
</g>
<g>
<path d="M110 275h180v-30" />
</g>
</g>
</svg>
