<?xml version="1.0" encoding="UTF-8" standalone="no"?>
<svg viewBox="0 0 484 335"
     preserveAspectRatio="xMidYMid meet"
     version="1.1"
     baseProfile="full"
     xmlns="http://www.w3.org/2000/svg"
     xmlns:xlink="http://www.w3.org/1999/xlink"
     xmlns:ev="http://www.w3.org/2001/xml-events"
     xml:space="preserve">
<title>SOC</title>
<desc>Nlview schematic (SVG)</desc>
<clipPath id="clippingbbox">
<rect x="0" y="0" width="484" height="335" />
</clipPath>
<g stroke="#19b400"
   stroke-width="1"
   stroke-linecap="butt"
   stroke-linejoin="miter"
   stroke-miterlimit="4"
   stroke-dasharray="none"
   stroke-dashoffset="0"
   fill="none"
   font-family="Helvetica"
   font-style="normal"
   font-size="12"
   writing-mode="lr-tb"
   cursor="crosshair"
   clip-path="url(#clippingbbox)">
<path d="M0 0h484v336h-484z" stroke="none" fill="white" />
<path d="M18 29h448l3 1l3 1l1 3l1 3v260l-1 3l-1 3l-3 1l-3 1h-448l-3 -1l-3 -1l-1 -3l-1 -3v-260l1 -3l1 -3l3 -1z" stroke="none" fill="#fafafa" />
<g stroke="black">
<path d="M18 29h448" />
<path d="M466,29 A7.83511,7.83511 1.61334 0,1 474,37" />
<path d="M474 37v260" />
<path d="M474,297 A7.83511,7.83511 1.61334 0,1 466,305" />
<path d="M466 305h-448" />
<path d="M18,305 A7.83511,7.83511 1.61334 0,1 10,297" />
<path d="M10 297v-260" />
<path d="M10,37 A7.83511,7.83511 1.61334 0,1 18,29" />
<text x="242" y="27" fill="black" stroke-width="0" text-anchor="middle" dy="-1.6">core</text>
</g>
<g stroke="black" stroke-width="3">
<path d="M15 40h12" />
</g>
<g stroke="black">
<path d="M13 32h16v16h-16z" />
<text x="242" y="307" fill="black" stroke-width="0" text-anchor="middle" dy="9.6">core</text>
<path d="M28 69h428l3 1l3 1l1 3l1 3v190l-1 3l-1 3l-3 1l-3 1h-428l-3 -1l-3 -1l-1 -3l-1 -3v-190l1 -3l1 -3l3 -1z" stroke="none" fill="#fafafa" />
<path d="M28 69h428" />
<path d="M456,69 A7.83511,7.83511 1.61334 0,1 464,77" />
<path d="M464 77v190" />
<path d="M464,267 A7.83511,7.83511 1.61334 0,1 456,275" />
<path d="M456 275h-428" />
<path d="M28,275 A7.83511,7.83511 1.61334 0,1 20,267" />
<path d="M20 267v-190" />
<path d="M20,77 A7.83511,7.83511 1.61334 0,1 28,69" />
<text x="242" y="67" fill="black" stroke-width="0" text-anchor="middle" dy="-1.6">EX_stage</text>
</g>
<g stroke="black" stroke-width="3">
<path d="M25 80h12" />
</g>
<g stroke="black">
<path d="M23 72h16v16h-16z" />
<text x="242" y="277" fill="black" stroke-width="0" text-anchor="middle" dy="9.6">core_EX</text>
<path d="M98 115h284l3 1l3 1l1 3l1 3v114l-1 3l-1 3l-3 1l-3 1h-284l-3 -1l-3 -1l-1 -3l-1 -3v-114l1 -3l1 -3l3 -1z" stroke="none" fill="#fafafa" />
<path d="M98 115h284" />
<path d="M382,115 A7.83511,7.83511 1.61334 0,1 390,123" />
<path d="M390 123v114" />
<path d="M390,237 A7.83511,7.83511 1.61334 0,1 382,245" />
<path d="M382 245h-284" />
<path d="M98,245 A7.83511,7.83511 1.61334 0,1 90,237" />
<path d="M90 237v-114" />
<path d="M90,123 A7.83511,7.83511 1.61334 0,1 98,115" />
</g>
<g stroke="black" stroke-width="3">
<path d="M95 126h12" />
</g>
<g stroke="black">
<path d="M93 118h16v16h-16z" />
<text x="240" y="113" fill="black" stroke-width="0" text-anchor="middle" dy="-1.6">barrel_in_mux</text>
<text x="240" y="247" fill="black" stroke-width="0" text-anchor="middle" dy="9.6">mux2v__parameterized2</text>
<path d="M80 235h10" />
<text x="88" y="233" fill="black" stroke-width="0" font-size="10" text-anchor="end" dy="-1.33333">sel</text>
</g>
<g stroke="black" stroke-width="3">
<path d="M80 145h10" />
<text x="88" y="143" fill="black" stroke-width="0" font-size="10" text-anchor="end" dy="-1.33333">a[63:0]</text>
<path d="M80 165h10" />
<text x="88" y="163" fill="black" stroke-width="0" font-size="10" text-anchor="end" dy="-1.33333">b[63:0]</text>
<path d="M400 175h-10" />
<text x="392" y="173" fill="black" stroke-width="0" font-size="10" dy="-1.33333">out[63:0]</text>
</g>
<g stroke="black">
<path d="M100 235h-10" />
</g>
<g stroke="black" stroke-width="3">
<path d="M100 145h-10" />
<path d="M100 165h-10" />
<path d="M380 175h10" />
<path d="M260 145l40 15v30l-40 15z" stroke="none" fill="#ffffcc" />
</g>
<g stroke="black">
<path d="M260 145l40 15v30l-40 15z" />
<text x="280" y="143" fill="black" stroke-width="0" text-anchor="middle" dy="-1.6">out0_i</text>
<text x="284" y="199" fill="black" stroke-width="0" dy="9.6">RTL_MUX</text>
<path d="M280 205v-8" />
<text x="278" y="205" fill="black" stroke-width="0" font-size="10" text-anchor="end" dy="8">S</text>
</g>
<g stroke="black" stroke-width="3">
<path d="M250 165h10" />
<text x="258" y="164" fill="black" stroke-width="0" font-size="10" text-anchor="end" dy="-1.33333">I0[63:0]</text>
<text x="206" y="164" fill="black" stroke-width="0" font-size="8" text-anchor="end" dy="-1.06667">S=1&apos;b1</text>
<path d="M250 185h10" />
<text x="258" y="184" fill="black" stroke-width="0" font-size="10" text-anchor="end" dy="-1.33333">I1[63:0]</text>
<text x="206" y="184" fill="black" stroke-width="0" font-size="8" text-anchor="end" dy="-1.06667">S=default</text>
<path d="M310 175h-10" />
<text x="302" y="174" fill="black" stroke-width="0" font-size="10" dy="-1.33333">O[63:0]</text>
</g>
<g stroke="green" stroke-width="3">
<path d="M100 145h20v40h130" />
<path d="M100 165h150" />
<path d="M310 175h70" />
</g>
<g>
<path d="M100 235h180v-30" />
</g>
</g>
</svg>
