<?xml version="1.0" encoding="UTF-8" standalone="no"?>
<svg viewBox="0 0 402 405"
     preserveAspectRatio="xMidYMid meet"
     version="1.1"
     baseProfile="full"
     xmlns="http://www.w3.org/2000/svg"
     xmlns:xlink="http://www.w3.org/1999/xlink"
     xmlns:ev="http://www.w3.org/2001/xml-events"
     xml:space="preserve">
<title>SOC</title>
<desc>Nlview schematic (SVG)</desc>
<clipPath id="clippingbbox">
<rect x="0" y="0" width="402" height="405" />
</clipPath>
<g stroke="#8bc34a"
   stroke-width="1"
   stroke-linecap="butt"
   stroke-linejoin="miter"
   stroke-miterlimit="4"
   stroke-dasharray="none"
   stroke-dashoffset="0"
   fill="none"
   font-family="Helvetica"
   font-style="normal"
   font-size="12"
   writing-mode="lr-tb"
   cursor="crosshair"
   clip-path="url(#clippingbbox)">
<path d="M0 0h402v406h-402z" stroke="none" fill="white" />
<path d="M18 29h366l3 1l3 1l1 3l1 3v330l-1 3l-1 3l-3 1l-3 1h-366l-3 -1l-3 -1l-1 -3l-1 -3v-330l1 -3l1 -3l3 -1z" stroke="none" fill="white" />
<g stroke="#575d6c">
<path d="M18 29h366" />
<path d="M384,29 A7.83511,7.83511 1.61334 0,1 392,37" />
<path d="M392 37v330" />
<path d="M392,367 A7.83511,7.83511 1.61334 0,1 384,375" />
<path d="M384 375h-366" />
<path d="M18,375 A7.83511,7.83511 1.61334 0,1 10,367" />
<path d="M10 367v-330" />
<path d="M10,37 A7.83511,7.83511 1.61334 0,1 18,29" />
<text x="201" y="27" fill="#1c1f28" stroke-width="0" text-anchor="middle" dy="-1.6">core</text>
</g>
<g stroke="#575d6c" stroke-width="3">
<path d="M15 40h12" />
</g>
<g stroke="#575d6c">
<path d="M13 32h16v16h-16z" />
<text x="201" y="377" fill="#1c1f28" stroke-width="0" text-anchor="middle" dy="9.6">core</text>
<path d="M28 69h346l3 1l3 1l1 3l1 3v260l-1 3l-1 3l-3 1l-3 1h-346l-3 -1l-3 -1l-1 -3l-1 -3v-260l1 -3l1 -3l3 -1z" stroke="none" fill="white" />
<path d="M28 69h346" />
<path d="M374,69 A7.83511,7.83511 1.61334 0,1 382,77" />
<path d="M382 77v260" />
<path d="M382,337 A7.83511,7.83511 1.61334 0,1 374,345" />
<path d="M374 345h-346" />
<path d="M28,345 A7.83511,7.83511 1.61334 0,1 20,337" />
<path d="M20 337v-260" />
<path d="M20,77 A7.83511,7.83511 1.61334 0,1 28,69" />
<text x="201" y="67" fill="#1c1f28" stroke-width="0" text-anchor="middle" dy="-1.6">cache_arbiter_</text>
</g>
<g stroke="#575d6c" stroke-width="3">
<path d="M25 80h12" />
</g>
<g stroke="#575d6c">
<path d="M23 72h16v16h-16z" />
<text x="201" y="347" fill="#1c1f28" stroke-width="0" text-anchor="middle" dy="9.6">cache_arbiter</text>
<path d="M38 109h326l3 1l3 1l1 3l1 3v190l-1 3l-1 3l-3 1l-3 1h-326l-3 -1l-3 -1l-1 -3l-1 -3v-190l1 -3l1 -3l3 -1z" stroke="none" fill="white" />
<path d="M38 109h326" />
<path d="M364,109 A7.83511,7.83511 1.61334 0,1 372,117" />
<path d="M372 117v190" />
<path d="M372,307 A7.83511,7.83511 1.61334 0,1 364,315" />
<path d="M364 315h-326" />
<path d="M38,315 A7.83511,7.83511 1.61334 0,1 30,307" />
<path d="M30 307v-190" />
<path d="M30,117 A7.83511,7.83511 1.61334 0,1 38,109" />
<text x="201" y="107" fill="#1c1f28" stroke-width="0" text-anchor="middle" dy="-1.6">req_load_mux</text>
</g>
<g stroke="#575d6c" stroke-width="3">
<path d="M35 120h12" />
</g>
<g stroke="#575d6c">
<path d="M33 112h16v16h-16z" />
<text x="201" y="317" fill="#1c1f28" stroke-width="0" text-anchor="middle" dy="9.6">mux4v__parameterized1</text>
<path d="M78 155h244l3 1l3 1l1 3l1 3v114l-1 3l-1 3l-3 1l-3 1h-244l-3 -1l-3 -1l-1 -3l-1 -3v-114l1 -3l1 -3l3 -1z" stroke="none" fill="white" />
<path d="M78 155h244" />
<path d="M322,155 A7.83511,7.83511 1.61334 0,1 330,163" />
<path d="M330 163v114" />
<path d="M330,277 A7.83511,7.83511 1.61334 0,1 322,285" />
<path d="M322 285h-244" />
<path d="M78,285 A7.83511,7.83511 1.61334 0,1 70,277" />
<path d="M70 277v-114" />
<path d="M70,163 A7.83511,7.83511 1.61334 0,1 78,155" />
</g>
<g stroke="#575d6c" stroke-width="3">
<path d="M75 166h12" />
</g>
<g stroke="#575d6c">
<path d="M73 158h16v16h-16z" />
<text x="200" y="153" fill="#1c1f28" stroke-width="0" text-anchor="middle" dy="-1.6">mux2v_0</text>
<text x="200" y="287" fill="#1c1f28" stroke-width="0" text-anchor="middle" dy="9.6">mux2v__parameterized1</text>
</g>
<g stroke="#1c1f28">
<path d="M60 275h10" />
<text x="68" y="273" fill="#1c1f28" stroke-width="0" font-size="10" text-anchor="end" dy="-1.33333">sel</text>
</g>
<g stroke="#1c1f28" stroke-width="3">
<path d="M60 185h10" />
<text x="68" y="183" fill="#1c1f28" stroke-width="0" font-size="10" text-anchor="end" dy="-1.33333">a</text>
<path d="M60 205h10" />
<text x="68" y="203" fill="#1c1f28" stroke-width="0" font-size="10" text-anchor="end" dy="-1.33333">b</text>
<path d="M340 215h-10" />
<text x="332" y="213" fill="#1c1f28" stroke-width="0" font-size="10" dy="-1.33333">out</text>
</g>
<g stroke="#1c1f28">
<path d="M80 275h-10" />
</g>
<g stroke="#1c1f28" stroke-width="3">
<path d="M80 185h-10" />
<path d="M80 205h-10" />
<path d="M320 215h10" />
<path d="M200 185l40 15v30l-40 15z" stroke="none" fill="#e5c7ff" />
</g>
<g stroke="#575d6c">
<path d="M200 185l40 15v30l-40 15z" />
<text x="220" y="183" fill="#1c1f28" stroke-width="0" text-anchor="middle" dy="-1.6">out0_i</text>
<text x="224" y="239" fill="#1c1f28" stroke-width="0" dy="9.6">RTL_MUX</text>
</g>
<g stroke="#1c1f28">
<path d="M190 205h10" />
<text x="198" y="204" fill="#1c1f28" stroke-width="0" font-size="10" text-anchor="end" dy="-1.33333">I0</text>
<text x="182" y="204" fill="black" stroke-width="0" font-size="8" text-anchor="end" dy="-1.06667">S=1&apos;b1</text>
<path d="M190 225h10" />
<text x="198" y="224" fill="#1c1f28" stroke-width="0" font-size="10" text-anchor="end" dy="-1.33333">I1</text>
<text x="182" y="224" fill="black" stroke-width="0" font-size="8" text-anchor="end" dy="-1.06667">S=default</text>
<path d="M250 215h-10" />
<text x="242" y="214" fill="#1c1f28" stroke-width="0" font-size="10" dy="-1.33333">O</text>
<path d="M220 245v-8" />
<text x="218" y="245" fill="#1c1f28" stroke-width="0" font-size="10" text-anchor="end" dy="8">S</text>
</g>
<g>
<path d="M80 185h20v40h90" />
<path d="M80 205h110" />
<path d="M250 215h70" />
<path d="M80 275h140v-30" />
</g>
</g>
</svg>
