<?xml version="1.0" encoding="UTF-8" standalone="no"?>
<svg viewBox="0 0 677 485"
     preserveAspectRatio="xMidYMid meet"
     version="1.1"
     baseProfile="full"
     xmlns="http://www.w3.org/2000/svg"
     xmlns:xlink="http://www.w3.org/1999/xlink"
     xmlns:ev="http://www.w3.org/2001/xml-events"
     xml:space="preserve">
<title>SOC</title>
<desc>Nlview schematic (SVG)</desc>
<clipPath id="clippingbbox">
<rect x="0" y="0" width="677" height="485" />
</clipPath>
<g stroke="#19b400"
   stroke-width="1"
   stroke-linecap="butt"
   stroke-linejoin="miter"
   stroke-miterlimit="4"
   stroke-dasharray="none"
   stroke-dashoffset="0"
   fill="none"
   font-family="Helvetica"
   font-style="normal"
   font-size="12"
   writing-mode="lr-tb"
   cursor="crosshair"
   clip-path="url(#clippingbbox)">
<path d="M0 0h676v486h-676z" stroke="none" fill="white" />
<path d="M18 29h641l3 1l3 1l1 3l1 3v410l-1 3l-1 3l-3 1l-3 1h-641l-3 -1l-3 -1l-1 -3l-1 -3v-410l1 -3l1 -3l3 -1z" stroke="none" fill="#fafafa" />
<g stroke="black">
<path d="M18 29h641" />
<path d="M659,29 A7.83511,7.83511 1.61334 0,1 667,37" />
<path d="M667 37v410" />
<path d="M667,447 A7.83511,7.83511 1.61334 0,1 659,455" />
<path d="M659 455h-641" />
<path d="M18,455 A7.83511,7.83511 1.61334 0,1 10,447" />
<path d="M10 447v-410" />
<path d="M10,37 A7.83511,7.83511 1.61334 0,1 18,29" />
<text x="338" y="27" fill="black" stroke-width="0" text-anchor="middle" dy="-1.6">core</text>
</g>
<g stroke="black" stroke-width="3">
<path d="M15 40h12" />
</g>
<g stroke="black">
<path d="M13 32h16v16h-16z" />
<text x="338" y="457" fill="black" stroke-width="0" text-anchor="middle" dy="9.6">core</text>
<path d="M28 69h621l3 1l3 1l1 3l1 3v340l-1 3l-1 3l-3 1l-3 1h-621l-3 -1l-3 -1l-1 -3l-1 -3v-340l1 -3l1 -3l3 -1z" stroke="none" fill="#fafafa" />
<path d="M28 69h621" />
<path d="M649,69 A7.83511,7.83511 1.61334 0,1 657,77" />
<path d="M657 77v340" />
<path d="M657,417 A7.83511,7.83511 1.61334 0,1 649,425" />
<path d="M649 425h-621" />
<path d="M28,425 A7.83511,7.83511 1.61334 0,1 20,417" />
<path d="M20 417v-340" />
<path d="M20,77 A7.83511,7.83511 1.61334 0,1 28,69" />
<text x="338" y="67" fill="black" stroke-width="0" text-anchor="middle" dy="-1.6">ID_stage</text>
</g>
<g stroke="black" stroke-width="3">
<path d="M25 80h12" />
</g>
<g stroke="black">
<path d="M23 72h16v16h-16z" />
<text x="338" y="427" fill="black" stroke-width="0" text-anchor="middle" dy="9.6">core_ID</text>
<path d="M98 115h484l3 1l3 1l1 3l1 3v264l-1 3l-1 3l-3 1l-3 1h-484l-3 -1l-3 -1l-1 -3l-1 -3v-264l1 -3l1 -3l3 -1z" stroke="none" fill="#fafafa" />
<path d="M98 115h484" />
<path d="M582,115 A7.83511,7.83511 1.61334 0,1 590,123" />
<path d="M590 123v264" />
<path d="M590,387 A7.83511,7.83511 1.61334 0,1 582,395" />
<path d="M582 395h-484" />
<path d="M98,395 A7.83511,7.83511 1.61334 0,1 90,387" />
<path d="M90 387v-264" />
<path d="M90,123 A7.83511,7.83511 1.61334 0,1 98,115" />
</g>
<g stroke="black" stroke-width="3">
<path d="M95 126h12" />
</g>
<g stroke="black">
<path d="M93 118h16v16h-16z" />
<text x="340" y="113" fill="black" stroke-width="0" text-anchor="middle" dy="-1.6">rd_mux</text>
<text x="340" y="397" fill="black" stroke-width="0" text-anchor="middle" dy="9.6">mux4v__parameterized2</text>
</g>
<g stroke="black" stroke-width="3">
<path d="M80 175h10" />
<text x="88" y="173" fill="black" stroke-width="0" font-size="10" text-anchor="end" dy="-1.33333">a[4:0]</text>
<path d="M80 195h10" />
<text x="88" y="193" fill="black" stroke-width="0" font-size="10" text-anchor="end" dy="-1.33333">b[4:0]</text>
<path d="M80 315h10" />
<text x="88" y="313" fill="black" stroke-width="0" font-size="10" text-anchor="end" dy="-1.33333">c[4:0]</text>
<path d="M80 335h10" />
<text x="88" y="333" fill="black" stroke-width="0" font-size="10" text-anchor="end" dy="-1.33333">d[4:0]</text>
<path d="M600 235h-10" />
<text x="592" y="233" fill="black" stroke-width="0" font-size="10" dy="-1.33333">out[4:0]</text>
<path d="M80 355h10" />
<text x="88" y="353" fill="black" stroke-width="0" font-size="10" text-anchor="end" dy="-1.33333">sel[1:0]</text>
<path d="M100 175h-10" />
<path d="M100 195h-10" />
<path d="M100 315h-10" />
<path d="M100 335h-10" />
<path d="M580 235h10" />
<path d="M100 355h-10" />
<path d="M200 143h60v82h-60z" stroke="none" fill="#dfebf8" />
</g>
<g stroke="black">
<path d="M200 143h60v82h-60z" />
</g>
<g stroke="black" stroke-width="3">
<path d="M211 148v12" />
<path d="M205 154h12" />
</g>
<g stroke="black">
<path d="M203 146h16v16h-16z" />
<text x="230" y="141" fill="black" stroke-width="0" text-anchor="middle" dy="-1.6">mux2v_0</text>
<text x="230" y="227" fill="black" stroke-width="0" text-anchor="middle" dy="9.6">mux2v__parameterized4</text>
<path d="M190 215h10" />
<text x="198" y="214" fill="black" stroke-width="0" font-size="10" text-anchor="end" dy="-1.33333">sel</text>
</g>
<g stroke="black" stroke-width="3">
<path d="M190 175h10" />
<text x="198" y="174" fill="black" stroke-width="0" font-size="10" text-anchor="end" dy="-1.33333">a[4:0]</text>
<path d="M190 195h10" />
<text x="198" y="194" fill="black" stroke-width="0" font-size="10" text-anchor="end" dy="-1.33333">b[4:0]</text>
<path d="M270 195h-10" />
<text x="262" y="194" fill="black" stroke-width="0" font-size="10" dy="-1.33333">out[4:0]</text>
</g>
<g stroke="black">
<path d="M210 215h-10" />
</g>
<g stroke="black" stroke-width="3">
<path d="M210 175h-10" />
<path d="M210 195h-10" />
<path d="M250 195h10" />
<path d="M200 283h60v82h-60z" stroke="none" fill="#dfebf8" />
</g>
<g stroke="black">
<path d="M200 283h60v82h-60z" />
</g>
<g stroke="black" stroke-width="3">
<path d="M211 288v12" />
<path d="M205 294h12" />
</g>
<g stroke="black">
<path d="M203 286h16v16h-16z" />
<text x="230" y="281" fill="black" stroke-width="0" text-anchor="middle" dy="-1.6">mux2v_1</text>
<text x="230" y="367" fill="black" stroke-width="0" text-anchor="middle" dy="9.6">mux2v__parameterized4</text>
<path d="M190 355h10" />
<text x="198" y="354" fill="black" stroke-width="0" font-size="10" text-anchor="end" dy="-1.33333">sel</text>
</g>
<g stroke="black" stroke-width="3">
<path d="M190 315h10" />
<text x="198" y="314" fill="black" stroke-width="0" font-size="10" text-anchor="end" dy="-1.33333">a[4:0]</text>
<path d="M190 335h10" />
<text x="198" y="334" fill="black" stroke-width="0" font-size="10" text-anchor="end" dy="-1.33333">b[4:0]</text>
<path d="M270 335h-10" />
<text x="262" y="334" fill="black" stroke-width="0" font-size="10" dy="-1.33333">out[4:0]</text>
</g>
<g stroke="black">
<path d="M210 355h-10" />
</g>
<g stroke="black" stroke-width="3">
<path d="M210 315h-10" />
<path d="M210 335h-10" />
<path d="M250 335h10" />
<path d="M440 183h60v82h-60z" stroke="none" fill="#dfebf8" />
</g>
<g stroke="black">
<path d="M440 183h60v82h-60z" />
</g>
<g stroke="black" stroke-width="3">
<path d="M451 188v12" />
<path d="M445 194h12" />
</g>
<g stroke="black">
<path d="M443 186h16v16h-16z" />
<text x="470" y="181" fill="black" stroke-width="0" text-anchor="middle" dy="-1.6">mux2v_2</text>
<text x="470" y="267" fill="black" stroke-width="0" text-anchor="middle" dy="9.6">mux2v__parameterized4</text>
<path d="M430 255h10" />
<text x="438" y="254" fill="black" stroke-width="0" font-size="10" text-anchor="end" dy="-1.33333">sel</text>
</g>
<g stroke="black" stroke-width="3">
<path d="M430 215h10" />
<text x="438" y="214" fill="black" stroke-width="0" font-size="10" text-anchor="end" dy="-1.33333">a[4:0]</text>
<path d="M430 235h10" />
<text x="438" y="234" fill="black" stroke-width="0" font-size="10" text-anchor="end" dy="-1.33333">b[4:0]</text>
<path d="M510 235h-10" />
<text x="502" y="234" fill="black" stroke-width="0" font-size="10" dy="-1.33333">out[4:0]</text>
</g>
<g stroke="black">
<path d="M450 255h-10" />
</g>
<g stroke="black" stroke-width="3">
<path d="M450 215h-10" />
<path d="M450 235h-10" />
<path d="M490 235h10" />
</g>
<g stroke="green" stroke-width="3">
<path d="M100 175h90" />
<path d="M100 195h90" />
<path d="M100 315h90" />
<path d="M100 335h90" />
<path d="M510 235h70" />
<path d="M120 212v146" />
<path d="M120 255h240" />
<path d="M100 355h20" />
<path d="M117 252h7v7h-7z" stroke="none" fill="green" />
<path d="M360 252v6" />
</g>
<g>
<path d="M120 215h70" />
<path d="M360 255h70" />
<path d="M120 355h70" />
</g>
<g stroke="black" stroke-width="3">
<path d="M359 250v10l11 -5" stroke="none" fill="black" />
<path d="M119 210v10l11 -5" stroke="none" fill="black" />
<path d="M119 350v10l11 -5" stroke="none" fill="black" />
</g>
<g stroke="green" stroke-width="3">
<path d="M270 195h70v20h90" />
<path d="M270 335h70v-100h90" />
</g>
</g>
</svg>
