<?xml version="1.0" encoding="UTF-8" standalone="no"?>
<svg viewBox="0 0 703 485"
     preserveAspectRatio="xMidYMid meet"
     version="1.1"
     baseProfile="full"
     xmlns="http://www.w3.org/2000/svg"
     xmlns:xlink="http://www.w3.org/1999/xlink"
     xmlns:ev="http://www.w3.org/2001/xml-events"
     xml:space="preserve">
<title>SOC</title>
<desc>Nlview schematic (SVG)</desc>
<clipPath id="clippingbbox">
<rect x="0" y="0" width="703" height="485" />
</clipPath>
<g stroke="#8bc34a"
   stroke-width="1"
   stroke-linecap="butt"
   stroke-linejoin="miter"
   stroke-miterlimit="4"
   stroke-dasharray="none"
   stroke-dashoffset="0"
   fill="none"
   font-family="Helvetica"
   font-style="normal"
   font-size="12"
   writing-mode="lr-tb"
   cursor="crosshair"
   clip-path="url(#clippingbbox)">
<path d="M0 0h702v486h-702z" stroke="none" fill="white" />
<path d="M18 29h667l3 1l3 1l1 3l1 3v410l-1 3l-1 3l-3 1l-3 1h-667l-3 -1l-3 -1l-1 -3l-1 -3v-410l1 -3l1 -3l3 -1z" stroke="none" fill="white" />
<g stroke="#575d6c">
<path d="M18 29h667" />
<path d="M685,29 A7.83511,7.83511 1.61334 0,1 693,37" />
<path d="M693 37v410" />
<path d="M693,447 A7.83511,7.83511 1.61334 0,1 685,455" />
<path d="M685 455h-667" />
<path d="M18,455 A7.83511,7.83511 1.61334 0,1 10,447" />
<path d="M10 447v-410" />
<path d="M10,37 A7.83511,7.83511 1.61334 0,1 18,29" />
<text x="351" y="27" fill="#1c1f28" stroke-width="0" text-anchor="middle" dy="-1.6">core</text>
</g>
<g stroke="#575d6c" stroke-width="3">
<path d="M15 40h12" />
</g>
<g stroke="#575d6c">
<path d="M13 32h16v16h-16z" />
<text x="351" y="457" fill="#1c1f28" stroke-width="0" text-anchor="middle" dy="9.6">core</text>
<path d="M28 69h647l3 1l3 1l1 3l1 3v340l-1 3l-1 3l-3 1l-3 1h-647l-3 -1l-3 -1l-1 -3l-1 -3v-340l1 -3l1 -3l3 -1z" stroke="none" fill="white" />
<path d="M28 69h647" />
<path d="M675,69 A7.83511,7.83511 1.61334 0,1 683,77" />
<path d="M683 77v340" />
<path d="M683,417 A7.83511,7.83511 1.61334 0,1 675,425" />
<path d="M675 425h-647" />
<path d="M28,425 A7.83511,7.83511 1.61334 0,1 20,417" />
<path d="M20 417v-340" />
<path d="M20,77 A7.83511,7.83511 1.61334 0,1 28,69" />
<text x="351" y="67" fill="#1c1f28" stroke-width="0" text-anchor="middle" dy="-1.6">EX_stage</text>
</g>
<g stroke="#575d6c" stroke-width="3">
<path d="M25 80h12" />
</g>
<g stroke="#575d6c">
<path d="M23 72h16v16h-16z" />
<text x="351" y="427" fill="#1c1f28" stroke-width="0" text-anchor="middle" dy="9.6">core_EX</text>
<path d="M98 115h504l3 1l3 1l1 3l1 3v264l-1 3l-1 3l-3 1l-3 1h-504l-3 -1l-3 -1l-1 -3l-1 -3v-264l1 -3l1 -3l3 -1z" stroke="none" fill="white" />
<path d="M98 115h504" />
<path d="M602,115 A7.83511,7.83511 1.61334 0,1 610,123" />
<path d="M610 123v264" />
<path d="M610,387 A7.83511,7.83511 1.61334 0,1 602,395" />
<path d="M602 395h-504" />
<path d="M98,395 A7.83511,7.83511 1.61334 0,1 90,387" />
<path d="M90 387v-264" />
<path d="M90,123 A7.83511,7.83511 1.61334 0,1 98,115" />
</g>
<g stroke="#575d6c" stroke-width="3">
<path d="M95 126h12" />
</g>
<g stroke="#575d6c">
<path d="M93 118h16v16h-16z" />
<text x="350" y="113" fill="#1c1f28" stroke-width="0" text-anchor="middle" dy="-1.6">barrel_plus32_mux</text>
<text x="350" y="397" fill="#1c1f28" stroke-width="0" text-anchor="middle" dy="9.6">mux4v__parameterized2</text>
</g>
<g stroke="#1c1f28" stroke-width="3">
<path d="M80 175h10" />
<text x="88" y="173" fill="#1c1f28" stroke-width="0" font-size="10" text-anchor="end" dy="-1.33333">a[63:0]</text>
<path d="M80 195h10" />
<text x="88" y="193" fill="#1c1f28" stroke-width="0" font-size="10" text-anchor="end" dy="-1.33333">b[63:0]</text>
<path d="M80 315h10" />
<text x="88" y="313" fill="#1c1f28" stroke-width="0" font-size="10" text-anchor="end" dy="-1.33333">c[63:0]</text>
<path d="M80 335h10" />
<text x="88" y="333" fill="#1c1f28" stroke-width="0" font-size="10" text-anchor="end" dy="-1.33333">d[63:0]</text>
<path d="M620 235h-10" />
<text x="612" y="233" fill="#1c1f28" stroke-width="0" font-size="10" dy="-1.33333">out[63:0]</text>
<path d="M80 355h10" />
<text x="88" y="353" fill="#1c1f28" stroke-width="0" font-size="10" text-anchor="end" dy="-1.33333">sel[1:0]</text>
<path d="M100 175h-10" />
<path d="M100 195h-10" />
<path d="M100 315h-10" />
<path d="M100 335h-10" />
<path d="M600 235h10" />
<path d="M100 355h-10" />
<path d="M200 143h60v82h-60z" stroke="none" fill="#cde5ff" />
</g>
<g stroke="#575d6c">
<path d="M200 143h60v82h-60z" />
</g>
<g stroke="#575d6c" stroke-width="3">
<path d="M211 148v12" />
<path d="M205 154h12" />
</g>
<g stroke="#575d6c">
<path d="M203 146h16v16h-16z" />
<text x="230" y="141" fill="#1c1f28" stroke-width="0" text-anchor="middle" dy="-1.6">mux2v_0</text>
<text x="230" y="227" fill="#1c1f28" stroke-width="0" text-anchor="middle" dy="9.6">mux2v__parameterized2</text>
</g>
<g stroke="#1c1f28">
<path d="M190 215h10" />
<text x="198" y="214" fill="#1c1f28" stroke-width="0" font-size="10" text-anchor="end" dy="-1.33333">sel</text>
</g>
<g stroke="#1c1f28" stroke-width="3">
<path d="M190 175h10" />
<text x="198" y="174" fill="#1c1f28" stroke-width="0" font-size="10" text-anchor="end" dy="-1.33333">a[63:0]</text>
<path d="M190 195h10" />
<text x="198" y="194" fill="#1c1f28" stroke-width="0" font-size="10" text-anchor="end" dy="-1.33333">b[63:0]</text>
<path d="M270 195h-10" />
<text x="262" y="194" fill="#1c1f28" stroke-width="0" font-size="10" dy="-1.33333">out[63:0]</text>
</g>
<g stroke="#1c1f28">
<path d="M210 215h-10" />
</g>
<g stroke="#1c1f28" stroke-width="3">
<path d="M210 175h-10" />
<path d="M210 195h-10" />
<path d="M250 195h10" />
<path d="M200 283h60v82h-60z" stroke="none" fill="#cde5ff" />
</g>
<g stroke="#575d6c">
<path d="M200 283h60v82h-60z" />
</g>
<g stroke="#575d6c" stroke-width="3">
<path d="M211 288v12" />
<path d="M205 294h12" />
</g>
<g stroke="#575d6c">
<path d="M203 286h16v16h-16z" />
<text x="230" y="281" fill="#1c1f28" stroke-width="0" text-anchor="middle" dy="-1.6">mux2v_1</text>
<text x="230" y="367" fill="#1c1f28" stroke-width="0" text-anchor="middle" dy="9.6">mux2v__parameterized2</text>
</g>
<g stroke="#1c1f28">
<path d="M190 355h10" />
<text x="198" y="354" fill="#1c1f28" stroke-width="0" font-size="10" text-anchor="end" dy="-1.33333">sel</text>
</g>
<g stroke="#1c1f28" stroke-width="3">
<path d="M190 315h10" />
<text x="198" y="314" fill="#1c1f28" stroke-width="0" font-size="10" text-anchor="end" dy="-1.33333">a[63:0]</text>
<path d="M190 335h10" />
<text x="198" y="334" fill="#1c1f28" stroke-width="0" font-size="10" text-anchor="end" dy="-1.33333">b[63:0]</text>
<path d="M270 335h-10" />
<text x="262" y="334" fill="#1c1f28" stroke-width="0" font-size="10" dy="-1.33333">out[63:0]</text>
</g>
<g stroke="#1c1f28">
<path d="M210 355h-10" />
</g>
<g stroke="#1c1f28" stroke-width="3">
<path d="M210 315h-10" />
<path d="M210 335h-10" />
<path d="M250 335h10" />
<path d="M450 183h60v82h-60z" stroke="none" fill="#cde5ff" />
</g>
<g stroke="#575d6c">
<path d="M450 183h60v82h-60z" />
</g>
<g stroke="#575d6c" stroke-width="3">
<path d="M461 188v12" />
<path d="M455 194h12" />
</g>
<g stroke="#575d6c">
<path d="M453 186h16v16h-16z" />
<text x="480" y="181" fill="#1c1f28" stroke-width="0" text-anchor="middle" dy="-1.6">mux2v_2</text>
<text x="480" y="267" fill="#1c1f28" stroke-width="0" text-anchor="middle" dy="9.6">mux2v__parameterized2</text>
</g>
<g stroke="#1c1f28">
<path d="M440 255h10" />
<text x="448" y="254" fill="#1c1f28" stroke-width="0" font-size="10" text-anchor="end" dy="-1.33333">sel</text>
</g>
<g stroke="#1c1f28" stroke-width="3">
<path d="M440 215h10" />
<text x="448" y="214" fill="#1c1f28" stroke-width="0" font-size="10" text-anchor="end" dy="-1.33333">a[63:0]</text>
<path d="M440 235h10" />
<text x="448" y="234" fill="#1c1f28" stroke-width="0" font-size="10" text-anchor="end" dy="-1.33333">b[63:0]</text>
<path d="M520 235h-10" />
<text x="512" y="234" fill="#1c1f28" stroke-width="0" font-size="10" dy="-1.33333">out[63:0]</text>
</g>
<g stroke="#1c1f28">
<path d="M460 255h-10" />
</g>
<g stroke="#1c1f28" stroke-width="3">
<path d="M460 215h-10" />
<path d="M460 235h-10" />
<path d="M500 235h10" />
</g>
<g stroke="#009633" stroke-width="3">
<path d="M100 175h90" />
<path d="M100 195h90" />
<path d="M100 315h90" />
<path d="M100 335h90" />
<path d="M120 212v146" />
<path d="M120 255h250" />
<path d="M100 355h20" />
<path d="M117 252h7v7h-7z" stroke="none" fill="#009633" />
<path d="M370 252v6" />
</g>
<g>
<path d="M120 215h70" />
<path d="M370 255h70" />
<path d="M120 355h70" />
</g>
<g stroke="black" stroke-width="3">
<path d="M369 250v10l11 -5" stroke="none" fill="black" />
<path d="M119 210v10l11 -5" stroke="none" fill="black" />
<path d="M119 350v10l11 -5" stroke="none" fill="black" />
</g>
<g stroke="#009633" stroke-width="3">
<path d="M270 195h80v20h90" />
<path d="M270 335h80v-100h90" />
<path d="M520 235h80" />
</g>
</g>
</svg>
