<?xml version="1.0" encoding="UTF-8" standalone="no"?>
<svg viewBox="0 0 412 425"
     preserveAspectRatio="xMidYMid meet"
     version="1.1"
     baseProfile="full"
     xmlns="http://www.w3.org/2000/svg"
     xmlns:xlink="http://www.w3.org/1999/xlink"
     xmlns:ev="http://www.w3.org/2001/xml-events"
     xml:space="preserve">
<title>SOC</title>
<desc>Nlview schematic (SVG)</desc>
<clipPath id="clippingbbox">
<rect x="0" y="0" width="412" height="425" />
</clipPath>
<g stroke="#19b400"
   stroke-width="1"
   stroke-linecap="butt"
   stroke-linejoin="miter"
   stroke-miterlimit="4"
   stroke-dasharray="none"
   stroke-dashoffset="0"
   fill="none"
   font-family="Helvetica"
   font-style="normal"
   font-size="12"
   writing-mode="lr-tb"
   cursor="crosshair"
   clip-path="url(#clippingbbox)">
<path d="M0 0h412v426h-412z" stroke="none" fill="white" />
<path d="M18 29h376l3 1l3 1l1 3l1 3v350l-1 3l-1 3l-3 1l-3 1h-376l-3 -1l-3 -1l-1 -3l-1 -3v-350l1 -3l1 -3l3 -1z" stroke="none" fill="#fafafa" />
<g stroke="black">
<path d="M18 29h376" />
<path d="M394,29 A7.83511,7.83511 1.61334 0,1 402,37" />
<path d="M402 37v350" />
<path d="M402,387 A7.83511,7.83511 1.61334 0,1 394,395" />
<path d="M394 395h-376" />
<path d="M18,395 A7.83511,7.83511 1.61334 0,1 10,387" />
<path d="M10 387v-350" />
<path d="M10,37 A7.83511,7.83511 1.61334 0,1 18,29" />
<text x="206" y="27" fill="black" stroke-width="0" text-anchor="middle" dy="-1.6">core</text>
</g>
<g stroke="black" stroke-width="3">
<path d="M15 40h12" />
</g>
<g stroke="black">
<path d="M13 32h16v16h-16z" />
<text x="206" y="397" fill="black" stroke-width="0" text-anchor="middle" dy="9.6">core</text>
<path d="M28 69h356l3 1l3 1l1 3l1 3v280l-1 3l-1 3l-3 1l-3 1h-356l-3 -1l-3 -1l-1 -3l-1 -3v-280l1 -3l1 -3l3 -1z" stroke="none" fill="#fafafa" />
<path d="M28 69h356" />
<path d="M384,69 A7.83511,7.83511 1.61334 0,1 392,77" />
<path d="M392 77v280" />
<path d="M392,357 A7.83511,7.83511 1.61334 0,1 384,365" />
<path d="M384 365h-356" />
<path d="M28,365 A7.83511,7.83511 1.61334 0,1 20,357" />
<path d="M20 357v-280" />
<path d="M20,77 A7.83511,7.83511 1.61334 0,1 28,69" />
<text x="206" y="67" fill="black" stroke-width="0" text-anchor="middle" dy="-1.6">MEM_stage</text>
</g>
<g stroke="black" stroke-width="3">
<path d="M25 80h12" />
</g>
<g stroke="black">
<path d="M23 72h16v16h-16z" />
<text x="206" y="367" fill="black" stroke-width="0" text-anchor="middle" dy="9.6">core_MEM</text>
<path d="M38 109h336l3 1l3 1l1 3l1 3v210l-1 3l-1 3l-3 1l-3 1h-336l-3 -1l-3 -1l-1 -3l-1 -3v-210l1 -3l1 -3l3 -1z" stroke="none" fill="#fafafa" />
<path d="M38 109h336" />
<path d="M374,109 A7.83511,7.83511 1.61334 0,1 382,117" />
<path d="M382 117v210" />
<path d="M382,327 A7.83511,7.83511 1.61334 0,1 374,335" />
<path d="M374 335h-336" />
<path d="M38,335 A7.83511,7.83511 1.61334 0,1 30,327" />
<path d="M30 327v-210" />
<path d="M30,117 A7.83511,7.83511 1.61334 0,1 38,109" />
<text x="206" y="107" fill="black" stroke-width="0" text-anchor="middle" dy="-1.6">cp0_</text>
</g>
<g stroke="black" stroke-width="3">
<path d="M35 120h12" />
</g>
<g stroke="black">
<path d="M33 112h16v16h-16z" />
<text x="206" y="337" fill="black" stroke-width="0" text-anchor="middle" dy="9.6">cp0</text>
<path d="M108 155h234l3 1l3 1l1 3l1 3v134l-1 3l-1 3l-3 1l-3 1h-234l-3 -1l-3 -1l-1 -3l-1 -3v-134l1 -3l1 -3l3 -1z" stroke="none" fill="#fafafa" />
<path d="M108 155h234" />
<path d="M342,155 A7.83511,7.83511 1.61334 0,1 350,163" />
<path d="M350 163v134" />
<path d="M350,297 A7.83511,7.83511 1.61334 0,1 342,305" />
<path d="M342 305h-234" />
<path d="M108,305 A7.83511,7.83511 1.61334 0,1 100,297" />
<path d="M100 297v-134" />
<path d="M100,163 A7.83511,7.83511 1.61334 0,1 108,155" />
</g>
<g stroke="black" stroke-width="3">
<path d="M105 166h12" />
</g>
<g stroke="black">
<path d="M103 158h16v16h-16z" />
<text x="225" y="153" fill="black" stroke-width="0" text-anchor="middle" dy="-1.6">exception_lv_reg</text>
<text x="225" y="307" fill="black" stroke-width="0" text-anchor="middle" dy="9.6">register__parameterized3</text>
<path d="M90 215h10" />
<text x="98" y="213" fill="black" stroke-width="0" font-size="10" text-anchor="end" dy="-1.33333">clk</text>
<path d="M90 235h10" />
<text x="98" y="233" fill="black" stroke-width="0" font-size="10" text-anchor="end" dy="-1.33333">enable</text>
<path d="M90 255h10" />
<text x="98" y="253" fill="black" stroke-width="0" font-size="10" text-anchor="end" dy="-1.33333">rst</text>
</g>
<g stroke="black" stroke-width="3">
<path d="M90 195h10" />
<text x="98" y="193" fill="black" stroke-width="0" font-size="10" text-anchor="end" dy="-1.33333">D</text>
<path d="M360 235h-10" />
<text x="352" y="233" fill="black" stroke-width="0" font-size="10" dy="-1.33333">Q</text>
</g>
<g stroke="black">
<path d="M110 215h-10" />
<path d="M110 235h-10" />
<path d="M110 255h-10" />
</g>
<g stroke="black" stroke-width="3">
<path d="M110 195h-10" />
<path d="M340 235h10" />
<path d="M210 195h60v80h-60z" stroke="none" fill="#ffffcc" />
</g>
<g stroke="black">
<path d="M210 195h60v80h-60z" />
<path d="M210 218l7 -3l-7 -3" />
<text x="240" y="193" fill="black" stroke-width="0" dy="-1.6">Q_reg[0]</text>
<text x="240" y="277" fill="black" stroke-width="0" text-anchor="middle" dy="9.6">RTL_REG_ASYNC</text>
<path d="M200 215h10" />
<text x="219" y="215" fill="black" stroke-width="0" font-size="10" dy="3.66667">C</text>
<path d="M200 235h10" />
<text x="212" y="235" fill="black" stroke-width="0" font-size="10" dy="3.66667">CE</text>
<path d="M230 185v10" />
<text x="227" y="197" fill="black" stroke-width="0" font-size="10" dy="8">CLR</text>
<path d="M200 255h10" />
<text x="212" y="255" fill="black" stroke-width="0" font-size="10" dy="3.66667">D</text>
<path d="M280 235h-10" />
<text x="268" y="235" fill="black" stroke-width="0" font-size="10" text-anchor="end" dy="3.66667">Q</text>
</g>
<g>
<path d="M110 195h40v60h50" />
<path d="M280 235h60" />
<path d="M110 215h90" />
<path d="M110 235h90" />
<path d="M110 255h20v-90h100v20" />
</g>
</g>
</svg>
