<?xml version="1.0" encoding="UTF-8" standalone="no"?>
<svg viewBox="0 0 464 435"
     preserveAspectRatio="xMidYMid meet"
     version="1.1"
     baseProfile="full"
     xmlns="http://www.w3.org/2000/svg"
     xmlns:xlink="http://www.w3.org/1999/xlink"
     xmlns:ev="http://www.w3.org/2001/xml-events"
     xml:space="preserve">
<title>SOC</title>
<desc>Nlview schematic (SVG)</desc>
<clipPath id="clippingbbox">
<rect x="0" y="0" width="464" height="435" />
</clipPath>
<g stroke="#19b400"
   stroke-width="1"
   stroke-linecap="butt"
   stroke-linejoin="miter"
   stroke-miterlimit="4"
   stroke-dasharray="none"
   stroke-dashoffset="0"
   fill="none"
   font-family="Helvetica"
   font-style="normal"
   font-size="12"
   writing-mode="lr-tb"
   cursor="crosshair"
   clip-path="url(#clippingbbox)">
<path d="M0 0h464v436h-464z" stroke="none" fill="white" />
<path d="M18 29h428l3 1l3 1l1 3l1 3v360l-1 3l-1 3l-3 1l-3 1h-428l-3 -1l-3 -1l-1 -3l-1 -3v-360l1 -3l1 -3l3 -1z" stroke="none" fill="#fafafa" />
<g stroke="black">
<path d="M18 29h428" />
<path d="M446,29 A7.83511,7.83511 1.61334 0,1 454,37" />
<path d="M454 37v360" />
<path d="M454,397 A7.83511,7.83511 1.61334 0,1 446,405" />
<path d="M446 405h-428" />
<path d="M18,405 A7.83511,7.83511 1.61334 0,1 10,397" />
<path d="M10 397v-360" />
<path d="M10,37 A7.83511,7.83511 1.61334 0,1 18,29" />
<text x="232" y="27" fill="black" stroke-width="0" text-anchor="middle" dy="-1.6">core</text>
</g>
<g stroke="black" stroke-width="3">
<path d="M15 40h12" />
</g>
<g stroke="black">
<path d="M13 32h16v16h-16z" />
<text x="232" y="407" fill="black" stroke-width="0" text-anchor="middle" dy="9.6">core</text>
<path d="M28 69h408l3 1l3 1l1 3l1 3v290l-1 3l-1 3l-3 1l-3 1h-408l-3 -1l-3 -1l-1 -3l-1 -3v-290l1 -3l1 -3l3 -1z" stroke="none" fill="#fafafa" />
<path d="M28 69h408" />
<path d="M436,69 A7.83511,7.83511 1.61334 0,1 444,77" />
<path d="M444 77v290" />
<path d="M444,367 A7.83511,7.83511 1.61334 0,1 436,375" />
<path d="M436 375h-408" />
<path d="M28,375 A7.83511,7.83511 1.61334 0,1 20,367" />
<path d="M20 367v-290" />
<path d="M20,77 A7.83511,7.83511 1.61334 0,1 28,69" />
<text x="232" y="67" fill="black" stroke-width="0" text-anchor="middle" dy="-1.6">MEM_stage</text>
</g>
<g stroke="black" stroke-width="3">
<path d="M25 80h12" />
</g>
<g stroke="black">
<path d="M23 72h16v16h-16z" />
<text x="232" y="377" fill="black" stroke-width="0" text-anchor="middle" dy="9.6">core_MEM</text>
<path d="M38 109h388l3 1l3 1l1 3l1 3v220l-1 3l-1 3l-3 1l-3 1h-388l-3 -1l-3 -1l-1 -3l-1 -3v-220l1 -3l1 -3l3 -1z" stroke="none" fill="#fafafa" />
<path d="M38 109h388" />
<path d="M426,109 A7.83511,7.83511 1.61334 0,1 434,117" />
<path d="M434 117v220" />
<path d="M434,337 A7.83511,7.83511 1.61334 0,1 426,345" />
<path d="M426 345h-388" />
<path d="M38,345 A7.83511,7.83511 1.61334 0,1 30,337" />
<path d="M30 337v-220" />
<path d="M30,117 A7.83511,7.83511 1.61334 0,1 38,109" />
<text x="232" y="107" fill="black" stroke-width="0" text-anchor="middle" dy="-1.6">cp0_</text>
</g>
<g stroke="black" stroke-width="3">
<path d="M35 120h12" />
</g>
<g stroke="black">
<path d="M33 112h16v16h-16z" />
<text x="232" y="347" fill="black" stroke-width="0" text-anchor="middle" dy="9.6">cp0</text>
<path d="M108 155h254l3 1l3 1l1 3l1 3v144l-1 3l-1 3l-3 1l-3 1h-254l-3 -1l-3 -1l-1 -3l-1 -3v-144l1 -3l1 -3l3 -1z" stroke="none" fill="#fafafa" />
<path d="M108 155h254" />
<path d="M362,155 A7.83511,7.83511 1.61334 0,1 370,163" />
<path d="M370 163v144" />
<path d="M370,307 A7.83511,7.83511 1.61334 0,1 362,315" />
<path d="M362 315h-254" />
<path d="M108,315 A7.83511,7.83511 1.61334 0,1 100,307" />
<path d="M100 307v-144" />
<path d="M100,163 A7.83511,7.83511 1.61334 0,1 108,155" />
</g>
<g stroke="black" stroke-width="3">
<path d="M105 166h12" />
</g>
<g stroke="black">
<path d="M103 158h16v16h-16z" />
<text x="235" y="153" fill="black" stroke-width="0" text-anchor="middle" dy="-1.6">badinstr_reg</text>
<text x="235" y="317" fill="black" stroke-width="0" text-anchor="middle" dy="9.6">register__parameterized2</text>
<path d="M90 215h10" />
<text x="98" y="213" fill="black" stroke-width="0" font-size="10" text-anchor="end" dy="-1.33333">clk</text>
<path d="M90 235h10" />
<text x="98" y="233" fill="black" stroke-width="0" font-size="10" text-anchor="end" dy="-1.33333">enable</text>
<path d="M90 255h10" />
<text x="98" y="253" fill="black" stroke-width="0" font-size="10" text-anchor="end" dy="-1.33333">rst</text>
</g>
<g stroke="black" stroke-width="3">
<path d="M90 195h10" />
<text x="98" y="193" fill="black" stroke-width="0" font-size="10" text-anchor="end" dy="-1.33333">D[31:0]</text>
<path d="M380 235h-10" />
<text x="372" y="233" fill="black" stroke-width="0" font-size="10" dy="-1.33333">Q[31:0]</text>
</g>
<g stroke="black">
<path d="M110 215h-10" />
<path d="M110 235h-10" />
<path d="M110 255h-10" />
</g>
<g stroke="black" stroke-width="3">
<path d="M110 195h-10" />
<path d="M360 235h10" />
<path d="M222 207h60v80h-60z" stroke="none" fill="#fcfc35" />
</g>
<g stroke="black">
<path d="M222 207h60v80h-60z" />
<path d="M218 203h60v80h-60z" stroke="none" fill="#fdfd67" />
<path d="M218 203h60v80h-60z" />
<path d="M214 199h60v80h-60z" stroke="none" fill="#fefe99" />
<path d="M214 199h60v80h-60z" />
<path d="M210 195h60v80h-60z" stroke="none" fill="#ffffcc" />
<path d="M210 195h60v80h-60z" />
<path d="M210 218l7 -3l-7 -3" />
<text x="240" y="193" fill="black" stroke-width="0" dy="-1.6">Q_reg[31:0]</text>
<text x="240" y="289" fill="black" stroke-width="0" text-anchor="middle" dy="9.6">RTL_REG_ASYNC</text>
<path d="M200 215h10" />
<text x="219" y="215" fill="black" stroke-width="0" font-size="10" dy="3.66667">C</text>
<path d="M200 235h10" />
<text x="212" y="235" fill="black" stroke-width="0" font-size="10" dy="3.66667">CE</text>
<path d="M230 185v10" />
<text x="227" y="197" fill="black" stroke-width="0" font-size="10" dy="8">CLR</text>
</g>
<g stroke="black" stroke-width="3">
<path d="M200 255h10" />
<text x="212" y="255" fill="black" stroke-width="0" font-size="10" dy="3.66667">D</text>
<path d="M280 235h-10" />
<text x="268" y="235" fill="black" stroke-width="0" font-size="10" text-anchor="end" dy="3.66667">Q</text>
</g>
<g stroke="green" stroke-width="3">
<path d="M110 195h40v60h50" />
<path d="M280 235h80" />
</g>
<g>
<path d="M110 215h90" />
<path d="M110 235h90" />
<path d="M110 255h20v-90h100v20" />
</g>
</g>
</svg>
