<?xml version="1.0" encoding="UTF-8" standalone="no"?>
<svg viewBox="0 0 464 455"
     preserveAspectRatio="xMidYMid meet"
     version="1.1"
     baseProfile="full"
     xmlns="http://www.w3.org/2000/svg"
     xmlns:xlink="http://www.w3.org/1999/xlink"
     xmlns:ev="http://www.w3.org/2001/xml-events"
     xml:space="preserve">
<title>SOC</title>
<desc>Nlview schematic (SVG)</desc>
<clipPath id="clippingbbox">
<rect x="0" y="0" width="464" height="455" />
</clipPath>
<g stroke="#19b400"
   stroke-width="1"
   stroke-linecap="butt"
   stroke-linejoin="miter"
   stroke-miterlimit="4"
   stroke-dasharray="none"
   stroke-dashoffset="0"
   fill="none"
   font-family="Helvetica"
   font-style="normal"
   font-size="12"
   writing-mode="lr-tb"
   cursor="crosshair"
   clip-path="url(#clippingbbox)">
<path d="M0 0h464v456h-464z" stroke="none" fill="white" />
<path d="M18 29h428l3 1l3 1l1 3l1 3v380l-1 3l-1 3l-3 1l-3 1h-428l-3 -1l-3 -1l-1 -3l-1 -3v-380l1 -3l1 -3l3 -1z" stroke="none" fill="#fafafa" />
<g stroke="black">
<path d="M18 29h428" />
<path d="M446,29 A7.83511,7.83511 1.61334 0,1 454,37" />
<path d="M454 37v380" />
<path d="M454,417 A7.83511,7.83511 1.61334 0,1 446,425" />
<path d="M446 425h-428" />
<path d="M18,425 A7.83511,7.83511 1.61334 0,1 10,417" />
<path d="M10 417v-380" />
<path d="M10,37 A7.83511,7.83511 1.61334 0,1 18,29" />
<text x="232" y="27" fill="black" stroke-width="0" text-anchor="middle" dy="-1.6">core</text>
</g>
<g stroke="black" stroke-width="3">
<path d="M15 40h12" />
</g>
<g stroke="black">
<path d="M13 32h16v16h-16z" />
<text x="232" y="427" fill="black" stroke-width="0" text-anchor="middle" dy="9.6">core</text>
<path d="M28 69h408l3 1l3 1l1 3l1 3v310l-1 3l-1 3l-3 1l-3 1h-408l-3 -1l-3 -1l-1 -3l-1 -3v-310l1 -3l1 -3l3 -1z" stroke="none" fill="#fafafa" />
<path d="M28 69h408" />
<path d="M436,69 A7.83511,7.83511 1.61334 0,1 444,77" />
<path d="M444 77v310" />
<path d="M444,387 A7.83511,7.83511 1.61334 0,1 436,395" />
<path d="M436 395h-408" />
<path d="M28,395 A7.83511,7.83511 1.61334 0,1 20,387" />
<path d="M20 387v-310" />
<path d="M20,77 A7.83511,7.83511 1.61334 0,1 28,69" />
<text x="232" y="67" fill="black" stroke-width="0" text-anchor="middle" dy="-1.6">MEM_stage</text>
</g>
<g stroke="black" stroke-width="3">
<path d="M25 80h12" />
</g>
<g stroke="black">
<path d="M23 72h16v16h-16z" />
<text x="232" y="397" fill="black" stroke-width="0" text-anchor="middle" dy="9.6">core_MEM</text>
<path d="M38 109h388l3 1l3 1l1 3l1 3v240l-1 3l-1 3l-3 1l-3 1h-388l-3 -1l-3 -1l-1 -3l-1 -3v-240l1 -3l1 -3l3 -1z" stroke="none" fill="#fafafa" />
<path d="M38 109h388" />
<path d="M426,109 A7.83511,7.83511 1.61334 0,1 434,117" />
<path d="M434 117v240" />
<path d="M434,357 A7.83511,7.83511 1.61334 0,1 426,365" />
<path d="M426 365h-388" />
<path d="M38,365 A7.83511,7.83511 1.61334 0,1 30,357" />
<path d="M30 357v-240" />
<path d="M30,117 A7.83511,7.83511 1.61334 0,1 38,109" />
<text x="232" y="107" fill="black" stroke-width="0" text-anchor="middle" dy="-1.6">cp0_</text>
</g>
<g stroke="black" stroke-width="3">
<path d="M35 120h12" />
</g>
<g stroke="black">
<path d="M33 112h16v16h-16z" />
<text x="232" y="367" fill="black" stroke-width="0" text-anchor="middle" dy="9.6">cp0</text>
<path d="M108 155h254l3 1l3 1l1 3l1 3v164l-1 3l-1 3l-3 1l-3 1h-254l-3 -1l-3 -1l-1 -3l-1 -3v-164l1 -3l1 -3l3 -1z" stroke="none" fill="#fafafa" />
<path d="M108 155h254" />
<path d="M362,155 A7.83511,7.83511 1.61334 0,1 370,163" />
<path d="M370 163v164" />
<path d="M370,327 A7.83511,7.83511 1.61334 0,1 362,335" />
<path d="M362 335h-254" />
<path d="M108,335 A7.83511,7.83511 1.61334 0,1 100,327" />
<path d="M100 327v-164" />
<path d="M100,163 A7.83511,7.83511 1.61334 0,1 108,155" />
</g>
<g stroke="black" stroke-width="3">
<path d="M105 166h12" />
</g>
<g stroke="black">
<path d="M103 158h16v16h-16z" />
<text x="235" y="153" fill="black" stroke-width="0" text-anchor="middle" dy="-1.6">user_status_reg</text>
<text x="235" y="337" fill="black" stroke-width="0" text-anchor="middle" dy="9.6">register__parameterized1</text>
<path d="M90 215h10" />
<text x="98" y="213" fill="black" stroke-width="0" font-size="10" text-anchor="end" dy="-1.33333">clk</text>
<path d="M90 235h10" />
<text x="98" y="233" fill="black" stroke-width="0" font-size="10" text-anchor="end" dy="-1.33333">enable</text>
<path d="M90 255h10" />
<text x="98" y="253" fill="black" stroke-width="0" font-size="10" text-anchor="end" dy="-1.33333">rst</text>
</g>
<g stroke="black" stroke-width="3">
<path d="M90 195h10" />
<text x="98" y="193" fill="black" stroke-width="0" font-size="10" text-anchor="end" dy="-1.33333">D[31:0]</text>
<path d="M380 235h-10" />
<text x="372" y="233" fill="black" stroke-width="0" font-size="10" dy="-1.33333">Q[31:0]</text>
</g>
<g stroke="black">
<path d="M110 215h-10" />
<path d="M110 235h-10" />
<path d="M110 255h-10" />
</g>
<g stroke="black" stroke-width="3">
<path d="M110 195h-10" />
<path d="M360 235h10" />
<path d="M192 207h60v80h-60z" stroke="none" fill="#fcfc35" />
</g>
<g stroke="black">
<path d="M192 207h60v80h-60z" />
<path d="M188 203h60v80h-60z" stroke="none" fill="#fdfd67" />
<path d="M188 203h60v80h-60z" />
<path d="M184 199h60v80h-60z" stroke="none" fill="#fefe99" />
<path d="M184 199h60v80h-60z" />
<path d="M180 195h60v80h-60z" stroke="none" fill="#ffffcc" />
<path d="M180 195h60v80h-60z" />
<path d="M180 218l7 -3l-7 -3" />
<text x="210" y="193" fill="black" stroke-width="0" dy="-1.6">Q_reg[31:0]</text>
<text x="210" y="289" fill="black" stroke-width="0" dy="9.6">RTL_REG_ASYNC</text>
<path d="M170 215h10" />
<text x="189" y="215" fill="black" stroke-width="0" font-size="10" dy="3.66667">C</text>
<path d="M170 235h10" />
<text x="182" y="235" fill="black" stroke-width="0" font-size="10" dy="3.66667">CE</text>
</g>
<g stroke="black" stroke-width="3">
<path d="M200 185v10" />
<text x="197" y="197" fill="black" stroke-width="0" font-size="10" dy="8">CLR</text>
<path d="M170 255h10" />
<text x="182" y="255" fill="black" stroke-width="0" font-size="10" dy="3.66667">D</text>
<path d="M200 285v-10" />
<text x="197" y="273" fill="black" stroke-width="0" font-size="10" dy="-1.33333">PRE</text>
<text x="202" y="303" fill="black" stroke-width="0" font-size="8" dy="6.4">n/c</text>
<path d="M250 235h-10" />
<text x="238" y="235" fill="black" stroke-width="0" font-size="10" text-anchor="end" dy="3.66667">Q</text>
</g>
<g stroke="green" stroke-width="3">
<path d="M110 195h40v60h20" />
<path d="M250 235h110" />
</g>
<g>
<path d="M110 215h60" />
<path d="M110 235h60" />
<path d="M200 185v-20h-70v160h70v-40" />
<path d="M110 255h20" />
<path d="M128 253h5v5h-5z" stroke="none" fill="#19b400" />
</g>
</g>
</svg>
