<?xml version="1.0" encoding="UTF-8" standalone="no"?>
<svg viewBox="0 0 1359 529"
     preserveAspectRatio="xMidYMid meet"
     version="1.1"
     baseProfile="full"
     xmlns="http://www.w3.org/2000/svg"
     xmlns:xlink="http://www.w3.org/1999/xlink"
     xmlns:ev="http://www.w3.org/2001/xml-events"
     xml:space="preserve">
<title>SOC</title>
<desc>Nlview schematic (SVG)</desc>
<clipPath id="clippingbbox">
<rect x="0" y="0" width="1359" height="529" />
</clipPath>
<g stroke="#19b400"
   stroke-width="1"
   stroke-linecap="butt"
   stroke-linejoin="miter"
   stroke-miterlimit="4"
   stroke-dasharray="none"
   stroke-dashoffset="0"
   fill="none"
   font-family="Helvetica"
   font-style="normal"
   font-size="12"
   writing-mode="lr-tb"
   cursor="crosshair"
   clip-path="url(#clippingbbox)">
<path d="M0 0h1358v530h-1358z" stroke="none" fill="white" />
<path d="M90 29h1164l3 1l3 1l1 3l1 3v454l-1 3l-1 3l-3 1l-3 1h-1164l-3 -1l-3 -1l-1 -3l-1 -3v-454l1 -3l1 -3l3 -1z" stroke="none" fill="#fafafa" />
<g stroke="black">
<path d="M90 29h1164" />
<path d="M1254,29 A7.83511,7.83511 1.61334 0,1 1262,37" />
<path d="M1262 37v454" />
<path d="M1262,491 A7.83511,7.83511 1.61334 0,1 1254,499" />
<path d="M1254 499h-1164" />
<path d="M90,499 A7.83511,7.83511 1.61334 0,1 82,491" />
<path d="M82 491v-454" />
<path d="M82,37 A7.83511,7.83511 1.61334 0,1 90,29" />
</g>
<g stroke="black" stroke-width="3">
<path d="M87 40h12" />
</g>
<g stroke="black">
<path d="M85 32h16v16h-16z" />
<text x="672" y="27" fill="black" stroke-width="0" text-anchor="middle" dy="-1.6">stdout</text>
<text x="672" y="501" fill="black" stroke-width="0" text-anchor="middle" dy="9.6">stdout</text>
<path d="M72 249h10" />
<text x="80" y="247" fill="black" stroke-width="0" font-size="10" text-anchor="end" dy="-1.33333">clock</text>
<path d="M72 369h10" />
<text x="80" y="367" fill="black" stroke-width="0" font-size="10" text-anchor="end" dy="-1.33333">enable</text>
<path d="M72 389h10" />
<text x="80" y="387" fill="black" stroke-width="0" font-size="10" text-anchor="end" dy="-1.33333">reset</text>
<path d="M1272 329h-10" />
<text x="1264" y="327" fill="black" stroke-width="0" font-size="10" dy="-1.33333">stdout_taken</text>
</g>
<g stroke="black" stroke-width="3">
<path d="M72 79h10" />
<text x="80" y="77" fill="black" stroke-width="0" font-size="10" text-anchor="end" dy="-1.33333">addr[63:0]</text>
</g>
<g stroke="black">
<path d="M92 249h-10" />
<path d="M92 369h-10" />
<path d="M92 389h-10" />
<path d="M1252 329h10" />
</g>
<g stroke="black" stroke-width="3">
<path d="M92 79h-10" />
<path d="M882 299l40 15v30l-40 15z" stroke="none" fill="#ffffcc" />
</g>
<g stroke="black">
<path d="M882 299l40 15v30l-40 15z" />
<text x="902" y="297" fill="black" stroke-width="0" text-anchor="middle" dy="-1.6">stdout_taken_i</text>
<text x="906" y="353" fill="black" stroke-width="0" dy="9.6">RTL_MUX</text>
<path d="M872 319h10" />
<text x="880" y="318" fill="black" stroke-width="0" font-size="10" text-anchor="end" dy="-1.33333">I0</text>
<text x="864" y="318" fill="black" stroke-width="0" font-size="8" text-anchor="end" dy="-1.06667">S=1&apos;b1</text>
<path d="M872 339h10" />
<text x="880" y="338" fill="black" stroke-width="0" font-size="10" text-anchor="end" dy="-1.33333">I1</text>
<text x="864" y="338" fill="black" stroke-width="0" font-size="8" text-anchor="end" dy="-1.06667">S=default</text>
<path d="M932 329h-10" />
<text x="924" y="328" fill="black" stroke-width="0" font-size="10" dy="-1.33333">O</text>
<path d="M902 359v-8" />
<text x="900" y="359" fill="black" stroke-width="0" font-size="10" text-anchor="end" dy="8">S</text>
<path d="M1062 289h60v80h-60z" stroke="none" fill="#ffffcc" />
<path d="M1062 289h60v80h-60z" />
<path d="M1062 312l7 -3l-7 -3" />
<text x="1092" y="287" fill="black" stroke-width="0" dy="-1.6">stdout_taken_reg</text>
<text x="1092" y="371" fill="black" stroke-width="0" dy="9.6">RTL_REG_ASYNC</text>
<path d="M1052 309h10" />
<text x="1071" y="309" fill="black" stroke-width="0" font-size="10" dy="3.66667">C</text>
<path d="M1052 329h10" />
<text x="1064" y="329" fill="black" stroke-width="0" font-size="10" dy="3.66667">CE</text>
<path d="M1082 279v10" />
<text x="1079" y="291" fill="black" stroke-width="0" font-size="10" dy="8">CLR</text>
<text x="1084" y="273" fill="black" stroke-width="0" font-size="8" dy="-1.06667">n/c</text>
<path d="M1052 349h10" />
<text x="1064" y="349" fill="black" stroke-width="0" font-size="10" dy="3.66667">D</text>
<path d="M1082 379v-10" />
<text x="1079" y="367" fill="black" stroke-width="0" font-size="10" dy="-1.33333">PRE</text>
<text x="1084" y="385" fill="black" stroke-width="0" font-size="8" dy="6.4">n/c</text>
<path d="M1132 329h-10" />
<text x="1120" y="329" fill="black" stroke-width="0" font-size="10" text-anchor="end" dy="3.66667">Q</text>
<path d="M882 449v15h25h3l3 -1l2 -1l2 -2l3 -3l1 -2l1 -3v-3v-3l-1 -3l-1 -2l-2 -2l-3 -3l-2 -1l-3 -1h-3h-25z" stroke="none" fill="#ffffcc" />
<path d="M882 449v15h25" />
<path d="M907,464 A15,15 -3.14159 1,0 907,434" />
<path d="M907 434h-25v15" />
<text x="884" y="433" fill="black" stroke-width="0" dy="-1.6">stdout_taken0_i</text>
<text x="884" y="465" fill="black" stroke-width="0" dy="9.6">RTL_AND</text>
<path d="M872 439h10" />
<text x="881" y="438" fill="black" stroke-width="0" font-size="10" text-anchor="end" dy="-1.33333">I0</text>
<path d="M872 459h10" />
<text x="881" y="458" fill="black" stroke-width="0" font-size="10" text-anchor="end" dy="-1.33333">I1</text>
<path d="M932 449h-10" />
<text x="923" y="448" fill="black" stroke-width="0" font-size="10" dy="-1.33333">O</text>
<path d="M612 459v15h25h3l3 -1l2 -1l2 -2l3 -3l1 -2l1 -3v-3v-3l-1 -3l-1 -2l-2 -2l-3 -3l-2 -1l-3 -1h-3h-25z" stroke="none" fill="#ffffcc" />
<path d="M612 459v15h25" />
<path d="M637,474 A15,15 -3.14159 1,0 637,444" />
<path d="M637 444h-25v15" />
<text x="614" y="443" fill="black" stroke-width="0" dy="-1.6">stdout_taken1_i</text>
<text x="614" y="475" fill="black" stroke-width="0" dy="9.6">RTL_AND</text>
<path d="M602 449h10" />
<text x="611" y="448" fill="black" stroke-width="0" font-size="10" text-anchor="end" dy="-1.33333">I0</text>
<path d="M602 469h10" />
<text x="611" y="468" fill="black" stroke-width="0" font-size="10" text-anchor="end" dy="-1.33333">I1</text>
<path d="M662 459h-10" />
<text x="653" y="458" fill="black" stroke-width="0" font-size="10" dy="-1.33333">O</text>
<circle cx="383" cy="89" r="21" stroke="none" fill="#ffffcc" />
<circle cx="383" cy="89" r="21" />
<path d="M404 89" />
<path d="M362 79l2 1" />
<path d="M362 99l2 -1" />
<text x="383" y="89" fill="black" stroke-width="0" text-anchor="middle" dy="4.4">&gt;=</text>
<text x="378" y="66" fill="black" stroke-width="0" dy="-1.6">stdout_taken2_i</text>
<text x="378" y="112" fill="black" stroke-width="0" dy="9.6">RTL_GEQ</text>
<path d="M412 89h-8" />
<text x="406" y="88" fill="black" stroke-width="0" font-size="10" dy="-1.33333">O</text>
</g>
<g stroke="black" stroke-width="3">
<path d="M352 79h10" />
<text x="360" y="78" fill="black" stroke-width="0" font-size="10" text-anchor="end" dy="-1.33333">I0[63:0]</text>
<path d="M352 99h10" />
<text x="360" y="98" fill="black" stroke-width="0" font-size="10" text-anchor="end" dy="-1.33333">I1[63:0]</text>
<text x="308" y="98" fill="black" stroke-width="0" font-size="8" text-anchor="end" dy="-1.06667">V=X&quot;0000000020000010&quot;</text>
<circle cx="382" cy="179" r="20" stroke="none" fill="#ffffcc" />
</g>
<g stroke="black">
<circle cx="382" cy="179" r="20" />
<path d="M402 179" />
<path d="M362 169l2 1" />
<path d="M362 189l2 -1" />
<text x="382" y="179" fill="black" stroke-width="0" text-anchor="middle" dy="4.4">&lt;</text>
<text x="377" y="157" fill="black" stroke-width="0" dy="-1.6">stdout_taken2_i__0</text>
<text x="377" y="201" fill="black" stroke-width="0" dy="9.6">RTL_LT</text>
<path d="M412 179h-10" />
<text x="404" y="178" fill="black" stroke-width="0" font-size="10" dy="-1.33333">O</text>
</g>
<g stroke="black" stroke-width="3">
<path d="M352 169h10" />
<text x="360" y="168" fill="black" stroke-width="0" font-size="10" text-anchor="end" dy="-1.33333">I0[63:0]</text>
<path d="M352 189h10" />
<text x="360" y="188" fill="black" stroke-width="0" font-size="10" text-anchor="end" dy="-1.33333">I1[63:0]</text>
<text x="308" y="188" fill="black" stroke-width="0" font-size="8" text-anchor="end" dy="-1.06667">V=X&quot;0000000020000018&quot;</text>
</g>
<g stroke="black">
<path d="M132 39v-4" />
<path d="M124 35h16" />
<path d="M144 229h16" />
<path d="M147 232h10" />
<path d="M150 235h4" />
<path d="M762 269v-4" />
<path d="M754 265h16" />
<path d="M774 399h16" />
<path d="M777 402h10" />
<path d="M780 405h4" />
</g>
<g stroke="green" stroke-width="3">
<path d="M92 79h20v90h240" />
<path d="M112 79h240" />
<path d="M109 76h7v7h-7z" stroke="none" fill="green" />
</g>
<g>
<path d="M872 319h-90v80" />
</g>
<g stroke-width="2">
<path d="M352 99h-195l-1 1" />
</g>
<g stroke="black">
<path d="M157 99l-5 5v1" />
</g>
<g>
<path d="M152 104v125" />
</g>
<g stroke="black">
<path d="M152 194l5 -5h1" />
</g>
<g stroke-width="2">
<path d="M157 189h195" />
</g>
<g>
<path d="M762 269v70h110" />
<path d="M132 39v145l1 1" />
</g>
<g stroke="black">
<path d="M132 184l5 5h1" />
</g>
<g stroke-width="2">
<path d="M137 189h215" />
</g>
<g stroke="black">
<path d="M132 94l5 5h1" />
</g>
<g stroke-width="2">
<path d="M137 99h215" />
</g>
<g>
<path d="M92 249h940v60h20" />
<path d="M92 369h20v40h650v30h110" />
<path d="M92 389h810v-30" />
<path d="M1132 329h120" />
<path d="M932 329h120" />
<path d="M932 449h100v-100h20" />
<path d="M662 459h210" />
<path d="M412 89h150v360h40" />
<path d="M412 179h130v290h60" />
</g>
</g>
</svg>
