<?xml version="1.0" encoding="UTF-8" standalone="no"?>
<svg viewBox="0 0 2137 569"
     preserveAspectRatio="xMidYMid meet"
     version="1.1"
     baseProfile="full"
     xmlns="http://www.w3.org/2000/svg"
     xmlns:xlink="http://www.w3.org/1999/xlink"
     xmlns:ev="http://www.w3.org/2001/xml-events"
     xml:space="preserve">
<title>SOC</title>
<desc>Nlview schematic (SVG)</desc>
<clipPath id="clippingbbox">
<rect x="0" y="0" width="2137" height="569" />
</clipPath>
<g stroke="#8bc34a"
   stroke-width="1"
   stroke-linecap="butt"
   stroke-linejoin="miter"
   stroke-miterlimit="4"
   stroke-dasharray="none"
   stroke-dashoffset="0"
   fill="none"
   font-family="Helvetica"
   font-style="normal"
   font-size="12"
   writing-mode="lr-tb"
   cursor="crosshair"
   clip-path="url(#clippingbbox)">
<path d="M0 0h2136v570h-2136z" stroke="none" fill="white" />
<path d="M108 29h1914l3 1l3 1l1 3l1 3v494l-1 3l-1 3l-3 1l-3 1h-1914l-3 -1l-3 -1l-1 -3l-1 -3v-494l1 -3l1 -3l3 -1z" stroke="none" fill="white" />
<g stroke="#575d6c">
<path d="M108 29h1914" />
<path d="M2022,29 A7.83511,7.83511 1.61334 0,1 2030,37" />
<path d="M2030 37v494" />
<path d="M2030,531 A7.83511,7.83511 1.61334 0,1 2022,539" />
<path d="M2022 539h-1914" />
<path d="M108,539 A7.83511,7.83511 1.61334 0,1 100,531" />
<path d="M100 531v-494" />
<path d="M100,37 A7.83511,7.83511 1.61334 0,1 108,29" />
</g>
<g stroke="#575d6c" stroke-width="3">
<path d="M105 40h12" />
</g>
<g stroke="#575d6c">
<path d="M103 32h16v16h-16z" />
<text x="1065" y="27" fill="#1c1f28" stroke-width="0" text-anchor="middle" dy="-1.6">timer</text>
<text x="1065" y="541" fill="#1c1f28" stroke-width="0" text-anchor="middle" dy="9.6">timer</text>
</g>
<g stroke="#1c1f28">
<path d="M90 119h10" />
<text x="98" y="117" fill="#1c1f28" stroke-width="0" font-size="10" text-anchor="end" dy="-1.33333">MemWrite</text>
<path d="M2040 139h-10" />
<text x="2032" y="137" fill="#1c1f28" stroke-width="0" font-size="10" dy="-1.33333">TimerAddress</text>
<path d="M2040 269h-10" />
<text x="2032" y="267" fill="#1c1f28" stroke-width="0" font-size="10" dy="-1.33333">TimerInterrupt</text>
<path d="M90 349h10" />
<text x="98" y="347" fill="#1c1f28" stroke-width="0" font-size="10" text-anchor="end" dy="-1.33333">clock</text>
<path d="M90 389h10" />
<text x="98" y="387" fill="#1c1f28" stroke-width="0" font-size="10" text-anchor="end" dy="-1.33333">enable</text>
<path d="M90 409h10" />
<text x="98" y="407" fill="#1c1f28" stroke-width="0" font-size="10" text-anchor="end" dy="-1.33333">reset</text>
</g>
<g stroke="#1c1f28" stroke-width="3">
<path d="M90 179h10" />
<text x="98" y="177" fill="#1c1f28" stroke-width="0" font-size="10" text-anchor="end" dy="-1.33333">address[63:0]</text>
<path d="M2040 359h-10" />
<text x="2032" y="357" fill="#1c1f28" stroke-width="0" font-size="10" dy="-1.33333">cycle[63:0]</text>
<path d="M90 369h10" />
<text x="98" y="367" fill="#1c1f28" stroke-width="0" font-size="10" text-anchor="end" dy="-1.33333">data[63:0]</text>
</g>
<g stroke="#1c1f28">
<path d="M110 119h-10" />
<path d="M2020 139h10" />
<path d="M2020 269h10" />
<path d="M110 349h-10" />
<path d="M110 389h-10" />
<path d="M110 409h-10" />
</g>
<g stroke="#1c1f28" stroke-width="3">
<path d="M110 179h-10" />
<path d="M2020 359h10" />
<path d="M110 369h-10" />
<circle cx="1600" cy="439" r="20" stroke="none" fill="#e5c7ff" />
</g>
<g stroke="#575d6c">
<circle cx="1600" cy="439" r="20" />
<path d="M1580 429l2 1" />
<path d="M1580 449l2 -1" />
<path d="M1620 439" />
<text x="1600" y="439" fill="#575d6c" stroke-width="0" text-anchor="middle" dy="4.4">+</text>
<text x="1595" y="417" fill="#1c1f28" stroke-width="0" dy="-1.6">D0_i</text>
<text x="1595" y="461" fill="#1c1f28" stroke-width="0" dy="9.6">RTL_ADD</text>
</g>
<g stroke="#1c1f28">
<path d="M1570 429h10" />
<text x="1578" y="428" fill="#1c1f28" stroke-width="0" font-size="10" text-anchor="end" dy="-1.33333">I1</text>
</g>
<g stroke="#1c1f28" stroke-width="3">
<path d="M1570 449h10" />
<text x="1578" y="448" fill="#1c1f28" stroke-width="0" font-size="10" text-anchor="end" dy="-1.33333">I0[63:0]</text>
<path d="M1630 439h-10" />
<text x="1622" y="438" fill="#1c1f28" stroke-width="0" font-size="10" dy="-1.33333">O[63:0]</text>
<path d="M1850 124l2 2l2 3l1 2l1 3l1 3v4l-1 3l-1 3l-1 2l-2 3l-2 2h15h3l3 -1l3 -1l2 -1l3 -1l3 -2l2 -2l2 -2l2 -2l2 -3l-2 -3l-2 -2l-2 -2l-2 -2l-3 -2l-3 -1l-2 -1l-3 -1l-3 -1h-3z" stroke="none" fill="#e5c7ff" />
</g>
<g stroke="#575d6c">
<path d="M1850,124 A19.5714,19.5714 1.74651 0,1 1850,154" />
<path d="M1850 154h15" />
<path d="M1865,154 A32.596,32.596 -0.927295 0,0 1890,139" />
<path d="M1890,139 A32.596,32.596 -0.927295 0,0 1865,124" />
<path d="M1865 124h-15" />
<text x="1852" y="123" fill="#1c1f28" stroke-width="0" dy="-1.6">TimerAddress0_i</text>
<text x="1852" y="155" fill="#1c1f28" stroke-width="0" dy="9.6">RTL_OR</text>
</g>
<g stroke="#1c1f28">
<path d="M1840 129h14" />
<text x="1849" y="128" fill="#1c1f28" stroke-width="0" font-size="10" text-anchor="end" dy="-1.33333">I0</text>
<path d="M1840 149h14" />
<text x="1849" y="148" fill="#1c1f28" stroke-width="0" font-size="10" text-anchor="end" dy="-1.33333">I1</text>
<path d="M1900 139h-10" />
<text x="1891" y="138" fill="#1c1f28" stroke-width="0" font-size="10" dy="-1.33333">O</text>
<path d="M1290 217h60v102h-60z" stroke="none" fill="#cde5ff" />
</g>
<g stroke="#575d6c">
<path d="M1290 217h60v102h-60z" />
</g>
<g stroke="#575d6c" stroke-width="3">
<path d="M1301 222v12" />
<path d="M1295 228h12" />
</g>
<g stroke="#575d6c">
<path d="M1293 220h16v16h-16z" />
<text x="1320" y="215" fill="#1c1f28" stroke-width="0" text-anchor="middle" dy="-1.6">armed</text>
<text x="1320" y="321" fill="#1c1f28" stroke-width="0" text-anchor="middle" dy="9.6">register__parameterized3</text>
</g>
<g stroke="#1c1f28">
<path d="M1280 269h10" />
<text x="1288" y="268" fill="#1c1f28" stroke-width="0" font-size="10" text-anchor="end" dy="-1.33333">clk</text>
<path d="M1280 289h10" />
<text x="1288" y="288" fill="#1c1f28" stroke-width="0" font-size="10" text-anchor="end" dy="-1.33333">enable</text>
<path d="M1280 309h10" />
<text x="1288" y="308" fill="#1c1f28" stroke-width="0" font-size="10" text-anchor="end" dy="-1.33333">rst</text>
</g>
<g stroke="#1c1f28" stroke-width="3">
<path d="M1280 249h10" />
<text x="1288" y="248" fill="#1c1f28" stroke-width="0" font-size="10" text-anchor="end" dy="-1.33333">D</text>
<path d="M1360 269h-10" />
<text x="1352" y="268" fill="#1c1f28" stroke-width="0" font-size="10" dy="-1.33333">Q</text>
</g>
<g stroke="#1c1f28">
<path d="M1300 269h-10" />
<path d="M1300 289h-10" />
<path d="M1300 309h-10" />
</g>
<g stroke="#1c1f28" stroke-width="3">
<path d="M1300 249h-10" />
<path d="M1340 269h10" />
<path d="M1850 407h60v102h-60z" stroke="none" fill="#cde5ff" />
</g>
<g stroke="#575d6c">
<path d="M1850 407h60v102h-60z" />
</g>
<g stroke="#575d6c" stroke-width="3">
<path d="M1861 412v12" />
<path d="M1855 418h12" />
</g>
<g stroke="#575d6c">
<path d="M1853 410h16v16h-16z" />
<text x="1880" y="405" fill="#1c1f28" stroke-width="0" text-anchor="middle" dy="-1.6">cycle_counter</text>
<text x="1880" y="511" fill="#1c1f28" stroke-width="0" text-anchor="middle" dy="9.6">register__parameterized0</text>
</g>
<g stroke="#1c1f28">
<path d="M1840 459h10" />
<text x="1848" y="458" fill="#1c1f28" stroke-width="0" font-size="10" text-anchor="end" dy="-1.33333">clk</text>
<path d="M1840 479h10" />
<text x="1848" y="478" fill="#1c1f28" stroke-width="0" font-size="10" text-anchor="end" dy="-1.33333">enable</text>
<path d="M1840 499h10" />
<text x="1848" y="498" fill="#1c1f28" stroke-width="0" font-size="10" text-anchor="end" dy="-1.33333">rst</text>
</g>
<g stroke="#1c1f28" stroke-width="3">
<path d="M1840 439h10" />
<text x="1848" y="438" fill="#1c1f28" stroke-width="0" font-size="10" text-anchor="end" dy="-1.33333">D[63:0]</text>
<path d="M1920 459h-10" />
<text x="1912" y="458" fill="#1c1f28" stroke-width="0" font-size="10" dy="-1.33333">Q[63:0]</text>
</g>
<g stroke="#1c1f28">
<path d="M1860 459h-10" />
<path d="M1860 479h-10" />
<path d="M1860 499h-10" />
</g>
<g stroke="#1c1f28" stroke-width="3">
<path d="M1860 439h-10" />
<path d="M1900 459h10" />
<path d="M1580 289v15h25h3l3 -1l2 -1l2 -2l3 -3l1 -2l1 -3v-3v-3l-1 -3l-1 -2l-2 -2l-3 -3l-2 -1l-3 -1h-3h-25z" stroke="none" fill="#e5c7ff" />
</g>
<g stroke="#575d6c">
<path d="M1580 289v15h25" />
<path d="M1605,304 A15,15 -3.14159 1,0 1605,274" />
<path d="M1605 274h-25v15" />
<text x="1582" y="273" fill="#1c1f28" stroke-width="0" dy="-1.6">enable0_i</text>
<text x="1582" y="305" fill="#1c1f28" stroke-width="0" dy="9.6">RTL_AND</text>
</g>
<g stroke="#1c1f28">
<path d="M1570 279h10" />
<text x="1579" y="278" fill="#1c1f28" stroke-width="0" font-size="10" text-anchor="end" dy="-1.33333">I0</text>
<path d="M1570 299h10" />
<text x="1579" y="298" fill="#1c1f28" stroke-width="0" font-size="10" text-anchor="end" dy="-1.33333">I1</text>
<path d="M1630 289h-10" />
<text x="1621" y="288" fill="#1c1f28" stroke-width="0" font-size="10" dy="-1.33333">O</text>
<path d="M760 199v15h25h3l3 -1l2 -1l2 -2l3 -3l1 -2l1 -3v-3v-3l-1 -3l-1 -2l-2 -2l-3 -3l-2 -1l-3 -1h-3h-25z" stroke="none" fill="#e5c7ff" />
</g>
<g stroke="#575d6c">
<path d="M760 199v15h25" />
<path d="M785,214 A15,15 -3.14159 1,0 785,184" />
<path d="M785 184h-25v15" />
<text x="762" y="183" fill="#1c1f28" stroke-width="0" dy="-1.6">enable0_i__0</text>
<text x="762" y="215" fill="#1c1f28" stroke-width="0" dy="9.6">RTL_AND</text>
</g>
<g stroke="#1c1f28">
<path d="M750 189h10" />
<text x="759" y="188" fill="#1c1f28" stroke-width="0" font-size="10" text-anchor="end" dy="-1.33333">I0</text>
<path d="M750 209h10" />
<text x="759" y="208" fill="#1c1f28" stroke-width="0" font-size="10" text-anchor="end" dy="-1.33333">I1</text>
<path d="M810 199h-10" />
<text x="801" y="198" fill="#1c1f28" stroke-width="0" font-size="10" dy="-1.33333">O</text>
<path d="M570 269v15h25h3l3 -1l2 -1l2 -2l3 -3l1 -2l1 -3v-3v-3l-1 -3l-1 -2l-2 -2l-3 -3l-2 -1l-3 -1h-3h-25z" stroke="none" fill="#e5c7ff" />
</g>
<g stroke="#575d6c">
<path d="M570 269v15h25" />
<path d="M595,284 A15,15 -3.14159 1,0 595,254" />
<path d="M595 254h-25v15" />
<text x="572" y="253" fill="#1c1f28" stroke-width="0" dy="-1.6">enable1_i</text>
<text x="572" y="285" fill="#1c1f28" stroke-width="0" dy="9.6">RTL_AND</text>
</g>
<g stroke="#1c1f28">
<path d="M560 259h10" />
<text x="569" y="258" fill="#1c1f28" stroke-width="0" font-size="10" text-anchor="end" dy="-1.33333">I0</text>
<path d="M560 279h10" />
<text x="569" y="278" fill="#1c1f28" stroke-width="0" font-size="10" text-anchor="end" dy="-1.33333">I1</text>
<path d="M620 269h-10" />
<text x="611" y="268" fill="#1c1f28" stroke-width="0" font-size="10" dy="-1.33333">O</text>
<circle cx="1310" cy="399" r="20" stroke="none" fill="#e5c7ff" />
</g>
<g stroke="#575d6c">
<circle cx="1310" cy="399" r="20" />
<path d="M1330 399" />
<path d="M1290 389l2 1" />
<path d="M1290 409l2 -1" />
<text x="1310" y="399" fill="#575d6c" stroke-width="0" text-anchor="middle" dy="4.4">=</text>
<text x="1305" y="377" fill="#1c1f28" stroke-width="0" dy="-1.6">enable1_i__0</text>
<text x="1305" y="421" fill="#1c1f28" stroke-width="0" dy="9.6">RTL_EQ</text>
</g>
<g stroke="#1c1f28">
<path d="M1340 399h-10" />
<text x="1332" y="398" fill="#1c1f28" stroke-width="0" font-size="10" dy="-1.33333">O</text>
</g>
<g stroke="#1c1f28" stroke-width="3">
<path d="M1280 389h10" />
<text x="1288" y="388" fill="#1c1f28" stroke-width="0" font-size="10" text-anchor="end" dy="-1.33333">I0[63:0]</text>
<path d="M1280 409h10" />
<text x="1288" y="408" fill="#1c1f28" stroke-width="0" font-size="10" text-anchor="end" dy="-1.33333">I1[63:0]</text>
<circle cx="400" cy="279" r="20" stroke="none" fill="#e5c7ff" />
</g>
<g stroke="#575d6c">
<circle cx="400" cy="279" r="20" />
<path d="M420 279" />
<path d="M380 269l2 1" />
<path d="M380 289l2 -1" />
<text x="400" y="279" fill="#575d6c" stroke-width="0" text-anchor="middle" dy="4.4">=</text>
<text x="395" y="257" fill="#1c1f28" stroke-width="0" dy="-1.6">enable2_i</text>
<text x="395" y="301" fill="#1c1f28" stroke-width="0" dy="9.6">RTL_EQ</text>
</g>
<g stroke="#1c1f28">
<path d="M430 279h-10" />
<text x="422" y="278" fill="#1c1f28" stroke-width="0" font-size="10" dy="-1.33333">O</text>
</g>
<g stroke="#1c1f28" stroke-width="3">
<path d="M370 269h10" />
<text x="378" y="268" fill="#1c1f28" stroke-width="0" font-size="10" text-anchor="end" dy="-1.33333">I0[63:0]</text>
<path d="M370 289h10" />
<text x="378" y="288" fill="#1c1f28" stroke-width="0" font-size="10" text-anchor="end" dy="-1.33333">I1[63:0]</text>
<text x="326" y="288" fill="black" stroke-width="0" font-size="8" text-anchor="end" dy="-1.06667">V=X&quot;0000000020000000&quot;</text>
<path d="M1010 337h60v102h-60z" stroke="none" fill="#cde5ff" />
</g>
<g stroke="#575d6c">
<path d="M1010 337h60v102h-60z" />
</g>
<g stroke="#575d6c" stroke-width="3">
<path d="M1021 342v12" />
<path d="M1015 348h12" />
</g>
<g stroke="#575d6c">
<path d="M1013 340h16v16h-16z" />
<text x="1040" y="335" fill="#1c1f28" stroke-width="0" text-anchor="middle" dy="-1.6">interrupt_cycle</text>
<text x="1040" y="441" fill="#1c1f28" stroke-width="0" text-anchor="middle" dy="9.6">register__parameterized5</text>
</g>
<g stroke="#1c1f28">
<path d="M1000 389h10" />
<text x="1008" y="388" fill="#1c1f28" stroke-width="0" font-size="10" text-anchor="end" dy="-1.33333">clk</text>
<path d="M1000 409h10" />
<text x="1008" y="408" fill="#1c1f28" stroke-width="0" font-size="10" text-anchor="end" dy="-1.33333">enable</text>
<path d="M1000 429h10" />
<text x="1008" y="428" fill="#1c1f28" stroke-width="0" font-size="10" text-anchor="end" dy="-1.33333">rst</text>
</g>
<g stroke="#1c1f28" stroke-width="3">
<path d="M1000 369h10" />
<text x="1008" y="368" fill="#1c1f28" stroke-width="0" font-size="10" text-anchor="end" dy="-1.33333">D[63:0]</text>
<path d="M1080 389h-10" />
<text x="1072" y="388" fill="#1c1f28" stroke-width="0" font-size="10" dy="-1.33333">Q[63:0]</text>
</g>
<g stroke="#1c1f28">
<path d="M1020 389h-10" />
<path d="M1020 409h-10" />
<path d="M1020 429h-10" />
</g>
<g stroke="#1c1f28" stroke-width="3">
<path d="M1020 369h-10" />
<path d="M1060 389h10" />
<path d="M1850 217h60v102h-60z" stroke="none" fill="#cde5ff" />
</g>
<g stroke="#575d6c">
<path d="M1850 217h60v102h-60z" />
</g>
<g stroke="#575d6c" stroke-width="3">
<path d="M1861 222v12" />
<path d="M1855 228h12" />
</g>
<g stroke="#575d6c">
<path d="M1853 220h16v16h-16z" />
<text x="1880" y="215" fill="#1c1f28" stroke-width="0" text-anchor="middle" dy="-1.6">interrupt_line</text>
<text x="1880" y="321" fill="#1c1f28" stroke-width="0" text-anchor="middle" dy="9.6">register__parameterized3</text>
</g>
<g stroke="#1c1f28">
<path d="M1840 269h10" />
<text x="1848" y="268" fill="#1c1f28" stroke-width="0" font-size="10" text-anchor="end" dy="-1.33333">clk</text>
<path d="M1840 289h10" />
<text x="1848" y="288" fill="#1c1f28" stroke-width="0" font-size="10" text-anchor="end" dy="-1.33333">enable</text>
<path d="M1840 309h10" />
<text x="1848" y="308" fill="#1c1f28" stroke-width="0" font-size="10" text-anchor="end" dy="-1.33333">rst</text>
</g>
<g stroke="#1c1f28" stroke-width="3">
<path d="M1840 249h10" />
<text x="1848" y="248" fill="#1c1f28" stroke-width="0" font-size="10" text-anchor="end" dy="-1.33333">D</text>
<path d="M1920 269h-10" />
<text x="1912" y="268" fill="#1c1f28" stroke-width="0" font-size="10" dy="-1.33333">Q</text>
</g>
<g stroke="#1c1f28">
<path d="M1860 269h-10" />
<path d="M1860 289h-10" />
<path d="M1860 309h-10" />
</g>
<g stroke="#1c1f28" stroke-width="3">
<path d="M1860 249h-10" />
<path d="M1900 269h10" />
<path d="M1010 184l2 2l2 3l1 2l1 3l1 3v4l-1 3l-1 3l-1 2l-2 3l-2 2h15h3l3 -1l3 -1l2 -1l3 -1l3 -2l2 -2l2 -2l2 -2l2 -3l-2 -3l-2 -2l-2 -2l-2 -2l-3 -2l-3 -1l-2 -1l-3 -1l-3 -1h-3z" stroke="none" fill="#e5c7ff" />
</g>
<g stroke="#575d6c">
<path d="M1010,184 A19.5714,19.5714 1.74651 0,1 1010,214" />
<path d="M1010 214h15" />
<path d="M1025,214 A32.596,32.596 -0.927295 0,0 1050,199" />
<path d="M1050,199 A32.596,32.596 -0.927295 0,0 1025,184" />
<path d="M1025 184h-15" />
<text x="1012" y="183" fill="#1c1f28" stroke-width="0" dy="-1.6">rst0_i</text>
<text x="1012" y="215" fill="#1c1f28" stroke-width="0" dy="9.6">RTL_OR</text>
</g>
<g stroke="#1c1f28">
<path d="M1000 189h14" />
<text x="1009" y="188" fill="#1c1f28" stroke-width="0" font-size="10" text-anchor="end" dy="-1.33333">I0</text>
<path d="M1000 209h14" />
<text x="1009" y="208" fill="#1c1f28" stroke-width="0" font-size="10" text-anchor="end" dy="-1.33333">I1</text>
<path d="M1060 199h-10" />
<text x="1051" y="198" fill="#1c1f28" stroke-width="0" font-size="10" dy="-1.33333">O</text>
<path d="M760 79v15h25h3l3 -1l2 -1l2 -2l3 -3l1 -2l1 -3v-3v-3l-1 -3l-1 -2l-2 -2l-3 -3l-2 -1l-3 -1h-3h-25z" stroke="none" fill="#e5c7ff" />
</g>
<g stroke="#575d6c">
<path d="M760 79v15h25" />
<path d="M785,94 A15,15 -3.14159 1,0 785,64" />
<path d="M785 64h-25v15" />
<text x="762" y="63" fill="#1c1f28" stroke-width="0" dy="-1.6">rst1_i</text>
<text x="762" y="95" fill="#1c1f28" stroke-width="0" dy="9.6">RTL_AND</text>
</g>
<g stroke="#1c1f28">
<path d="M750 69h10" />
<text x="759" y="68" fill="#1c1f28" stroke-width="0" font-size="10" text-anchor="end" dy="-1.33333">I0</text>
<path d="M750 89h10" />
<text x="759" y="88" fill="#1c1f28" stroke-width="0" font-size="10" text-anchor="end" dy="-1.33333">I1</text>
<path d="M810 79h-10" />
<text x="801" y="78" fill="#1c1f28" stroke-width="0" font-size="10" dy="-1.33333">O</text>
<path d="M570 69v15h25h3l3 -1l2 -1l2 -2l3 -3l1 -2l1 -3v-3v-3l-1 -3l-1 -2l-2 -2l-3 -3l-2 -1l-3 -1h-3h-25z" stroke="none" fill="#e5c7ff" />
</g>
<g stroke="#575d6c">
<path d="M570 69v15h25" />
<path d="M595,84 A15,15 -3.14159 1,0 595,54" />
<path d="M595 54h-25v15" />
<text x="572" y="53" fill="#1c1f28" stroke-width="0" dy="-1.6">rst2_i</text>
<text x="572" y="85" fill="#1c1f28" stroke-width="0" dy="9.6">RTL_AND</text>
</g>
<g stroke="#1c1f28">
<path d="M560 59h10" />
<text x="569" y="58" fill="#1c1f28" stroke-width="0" font-size="10" text-anchor="end" dy="-1.33333">I0</text>
<path d="M560 79h10" />
<text x="569" y="78" fill="#1c1f28" stroke-width="0" font-size="10" text-anchor="end" dy="-1.33333">I1</text>
<path d="M620 69h-10" />
<text x="611" y="68" fill="#1c1f28" stroke-width="0" font-size="10" dy="-1.33333">O</text>
<circle cx="400" cy="189" r="20" stroke="none" fill="#e5c7ff" />
</g>
<g stroke="#575d6c">
<circle cx="400" cy="189" r="20" />
<path d="M420 189" />
<path d="M380 179l2 1" />
<path d="M380 199l2 -1" />
<text x="400" y="189" fill="#575d6c" stroke-width="0" text-anchor="middle" dy="4.4">=</text>
<text x="395" y="167" fill="#1c1f28" stroke-width="0" dy="-1.6">rst3_i</text>
<text x="395" y="211" fill="#1c1f28" stroke-width="0" dy="9.6">RTL_EQ</text>
</g>
<g stroke="#1c1f28">
<path d="M430 189h-10" />
<text x="422" y="188" fill="#1c1f28" stroke-width="0" font-size="10" dy="-1.33333">O</text>
</g>
<g stroke="#1c1f28" stroke-width="3">
<path d="M370 179h10" />
<text x="378" y="178" fill="#1c1f28" stroke-width="0" font-size="10" text-anchor="end" dy="-1.33333">I0[63:0]</text>
<path d="M370 199h10" />
<text x="378" y="198" fill="#1c1f28" stroke-width="0" font-size="10" text-anchor="end" dy="-1.33333">I1[63:0]</text>
<text x="326" y="198" fill="black" stroke-width="0" font-size="8" text-anchor="end" dy="-1.06667">V=X&quot;0000000020000004&quot;</text>
</g>
<g stroke="#575d6c">
<path d="M150 139v-4" />
<path d="M142 135h16" />
<path d="M162 329h16" />
<path d="M165 332h10" />
<path d="M168 335h4" />
<path d="M1200 189v-4" />
<path d="M1192 185h16" />
<path d="M1500 389v-4" />
<path d="M1492 385h16" />
<path d="M1760 189v-4" />
<path d="M1752 185h16" />
<path d="M1760 379v-4" />
<path d="M1752 375h16" />
</g>
<g stroke="#009633" stroke-width="3">
<path d="M110 179h20v90h240" />
<path d="M130 179h240" />
<path d="M127 176h7v7h-7z" stroke="none" fill="#009633" />
<path d="M1280 409h-80v40h280" />
<path d="M1477 446h7v7h-7z" stroke="none" fill="#009633" />
<path d="M1570 449h-90v-80h260v-10h260v100h-80" />
<path d="M2000 359h20" />
<path d="M1997 356h7v7h-7z" stroke="none" fill="#009633" />
<path d="M1630 439h210" />
<path d="M110 369h890" />
<path d="M1080 389h200" />
</g>
<g stroke-width="2">
<path d="M370 199h-195l-1 1" />
</g>
<g stroke="black">
<path d="M175 199l-5 5v1" />
</g>
<g>
<path d="M170 204v125" />
</g>
<g stroke="black">
<path d="M170 294l5 -5h1" />
</g>
<g stroke-width="2">
<path d="M175 289h195" />
</g>
<g>
<path d="M1760 379v100h80" />
<path d="M1760 189v60h80" />
<path d="M1500 389v40h70" />
<path d="M1200 189v60h80" />
<path d="M150 139v145l1 1" />
</g>
<g stroke="black">
<path d="M150 284l5 5h1" />
</g>
<g stroke-width="2">
<path d="M155 289h215" />
</g>
<g stroke="black">
<path d="M150 194l5 5h1" />
</g>
<g stroke-width="2">
<path d="M155 199h215" />
</g>
<g>
<path d="M110 119h580" />
<path d="M688 117h5v5h-5z" stroke="none" fill="#8bc34a" />
<path d="M750 89h-60v120h60" />
<path d="M1900 139h120" />
<path d="M1920 269h100" />
<path d="M810 199h70v200h50v10h70" />
<path d="M880 289h400" />
<path d="M878 287h5v5h-5z" stroke="none" fill="#8bc34a" />
<path d="M620 269h90v-140h1130" />
<path d="M710 189h40" />
<path d="M708 187h5v5h-5z" stroke="none" fill="#8bc34a" />
<path d="M620 69h50v80h1170" />
<path d="M670 69h80" />
<path d="M668 67h5v5h-5z" stroke="none" fill="#8bc34a" />
<path d="M1360 269h80v30h130" />
<path d="M110 349h810" />
<path d="M918 347h5v5h-5z" stroke="none" fill="#8bc34a" />
<path d="M1280 269h-120v80h560" />
<path d="M1718 347h5v5h-5z" stroke="none" fill="#8bc34a" />
<path d="M1000 389h-80v-80h240" />
<path d="M1158 307h5v5h-5z" stroke="none" fill="#8bc34a" />
<path d="M1840 269h-120v190h120" />
<path d="M110 389h390v-330h60" />
<path d="M500 259h60" />
<path d="M498 257h5v5h-5z" stroke="none" fill="#8bc34a" />
<path d="M1630 289h210" />
<path d="M1340 399h120v-120h110" />
<path d="M430 279h130" />
<path d="M110 409h790" />
<path d="M900 429h100" />
<path d="M898 407h5v5h-5z" stroke="none" fill="#8bc34a" />
<path d="M898 427h5v5h-5z" stroke="none" fill="#8bc34a" />
<path d="M1000 209h-100v290h940" />
<path d="M1280 309h-100v-140h520v140h140" />
<path d="M1060 199h120" />
<path d="M1178 197h5v5h-5z" stroke="none" fill="#8bc34a" />
<path d="M810 79h110v110h80" />
<path d="M430 189h90v-110h40" />
</g>
</g>
</svg>
