<?xml version="1.0" encoding="UTF-8" standalone="no"?>
<svg viewBox="0 0 3030 574"
     preserveAspectRatio="xMidYMid meet"
     version="1.1"
     baseProfile="full"
     xmlns="http://www.w3.org/2000/svg"
     xmlns:xlink="http://www.w3.org/1999/xlink"
     xmlns:ev="http://www.w3.org/2001/xml-events"
     xml:space="preserve">
<title>SOC</title>
<desc>Nlview schematic (SVG)</desc>
<clipPath id="clippingbbox">
<rect x="0" y="0" width="3030" height="574" />
</clipPath>
<g stroke="#8bc34a"
   stroke-width="1"
   stroke-linecap="butt"
   stroke-linejoin="miter"
   stroke-miterlimit="4"
   stroke-dasharray="none"
   stroke-dashoffset="0"
   fill="none"
   font-family="Helvetica"
   font-style="normal"
   font-size="12"
   writing-mode="lr-tb"
   cursor="crosshair"
   clip-path="url(#clippingbbox)">
<path d="M0 0h3030v575h-3030z" stroke="none" fill="white" />
<g stroke="black">
<path d="M110 460l-7 7h-14v-14h14z" />
<text x="85" y="460" fill="#1c1f28" stroke-width="0" text-anchor="end" dy="4.4">sys_clk</text>
<path d="M110 520l-7 7h-14v-14h14z" />
<text x="85" y="520" fill="#1c1f28" stroke-width="0" text-anchor="end" dy="4.4">sys_rst_n</text>
<path d="M210 315l2 2l2 3l1 2l1 3l1 3v4l-1 3l-1 3l-1 2l-2 3l-2 2h15h3l3 -1l3 -1l2 -1l3 -1l3 -2l2 -2l2 -2l2 -2l2 -3l-2 -3l-2 -2l-2 -2l-2 -2l-3 -2l-3 -1l-2 -1l-3 -1l-3 -1h-3z" stroke="none" fill="#e5c7ff" />
</g>
<g stroke="#575d6c">
<path d="M210,315 A19.5714,19.5714 1.74651 0,1 210,345" />
<path d="M210 345h15" />
<path d="M225,345 A32.596,32.596 -0.927295 0,0 250,330" />
<path d="M250,330 A32.596,32.596 -0.927295 0,0 225,315" />
<path d="M225 315h-15" />
<text x="212" y="314" fill="#1c1f28" stroke-width="0" dy="-1.6">MemRead2_i</text>
<text x="212" y="346" fill="#1c1f28" stroke-width="0" dy="9.6">RTL_REDUCTION_OR</text>
</g>
<g stroke="#1c1f28">
<path d="M260 330h-10" />
<text x="251" y="329" fill="#1c1f28" stroke-width="0" font-size="10" dy="-1.33333">O</text>
</g>
<g stroke="#1c1f28" stroke-width="3">
<path d="M200 330h17" />
<text x="209" y="329" fill="#1c1f28" stroke-width="0" font-size="10" text-anchor="end" dy="-1.33333">I0[2:0]</text>
</g>
<g stroke="#575d6c">
<path d="M130 400v-4" />
<path d="M122 396h16" />
<path d="M210 428h60v62h-60z" stroke="none" fill="#cde5ff" />
<path d="M210 428h60v62h-60z" />
</g>
<g stroke="#575d6c" stroke-width="3">
<path d="M221 433v12" />
<path d="M215 439h12" />
</g>
<g stroke="#575d6c">
<path d="M213 431h16v16h-16z" />
<text x="240" y="426" fill="#1c1f28" stroke-width="0" text-anchor="middle" dy="-1.6">clk_wiz_inst</text>
<text x="240" y="492" fill="#1c1f28" stroke-width="0" text-anchor="middle" dy="9.6">clk_wiz_0</text>
</g>
<g stroke="#1c1f28">
<path d="M200 460h10" />
<text x="208" y="459" fill="#1c1f28" stroke-width="0" font-size="10" text-anchor="end" dy="-1.33333">clk_in1</text>
<path d="M280 460h-10" />
<text x="272" y="459" fill="#1c1f28" stroke-width="0" font-size="10" dy="-1.33333">clk_out1</text>
<path d="M280 480h-10" />
<text x="272" y="479" fill="#1c1f28" stroke-width="0" font-size="10" dy="-1.33333">locked</text>
<path d="M200 480h10" />
<text x="208" y="479" fill="#1c1f28" stroke-width="0" font-size="10" text-anchor="end" dy="-1.33333">resetn</text>
<path d="M220 460h-10" />
<path d="M260 460h10" />
<path d="M260 480h10" />
<path d="M220 480h-10" />
<path d="M480 250v15h25h3l3 -1l2 -1l2 -2l3 -3l1 -2l1 -3v-3v-3l-1 -3l-1 -2l-2 -2l-3 -3l-2 -1l-3 -1h-3h-25z" stroke="none" fill="#e5c7ff" />
</g>
<g stroke="#575d6c">
<path d="M480 250v15h25" />
<path d="M505,265 A15,15 -3.14159 1,0 505,235" />
<path d="M505 235h-25v15" />
<text x="482" y="234" fill="#1c1f28" stroke-width="0" dy="-1.6">MemRead0_i</text>
<text x="482" y="266" fill="#1c1f28" stroke-width="0" dy="9.6">RTL_AND</text>
</g>
<g stroke="#1c1f28">
<path d="M470 240h10" />
<text x="474" y="239" fill="#1c1f28" stroke-width="0" font-size="10" text-anchor="end" dy="-1.33333">I0</text>
<circle cx="477" cy="260" r="3" />
<path d="M470 260h4" />
<text x="474" y="259" fill="#1c1f28" stroke-width="0" font-size="10" text-anchor="end" dy="-1.33333">I1</text>
<path d="M530 250h-10" />
<text x="521" y="249" fill="#1c1f28" stroke-width="0" font-size="10" dy="-1.33333">O</text>
<path d="M480 320v15h25h3l3 -1l2 -1l2 -2l3 -3l1 -2l1 -3v-3v-3l-1 -3l-1 -2l-2 -2l-3 -3l-2 -1l-3 -1h-3h-25z" stroke="none" fill="#e5c7ff" />
</g>
<g stroke="#575d6c">
<path d="M480 320v15h25" />
<path d="M505,335 A15,15 -3.14159 1,0 505,305" />
<path d="M505 305h-25v15" />
<text x="482" y="304" fill="#1c1f28" stroke-width="0" dy="-1.6">MemWrite0_i</text>
<text x="482" y="336" fill="#1c1f28" stroke-width="0" dy="9.6">RTL_AND</text>
</g>
<g stroke="#1c1f28">
<path d="M470 310h10" />
<text x="479" y="309" fill="#1c1f28" stroke-width="0" font-size="10" text-anchor="end" dy="-1.33333">I0</text>
<path d="M470 330h10" />
<text x="479" y="329" fill="#1c1f28" stroke-width="0" font-size="10" text-anchor="end" dy="-1.33333">I1</text>
<path d="M530 320h-10" />
<text x="521" y="319" fill="#1c1f28" stroke-width="0" font-size="10" dy="-1.33333">O</text>
<path d="M480 515l2 2l2 3l1 2l1 3l1 3v4l-1 3l-1 3l-1 2l-2 3l-2 2h15h3l3 -1l3 -1l2 -1l3 -1l3 -2l2 -2l2 -2l2 -2l2 -3l-2 -3l-2 -2l-2 -2l-2 -2l-3 -2l-3 -1l-2 -1l-3 -1l-3 -1h-3z" stroke="none" fill="#e5c7ff" />
</g>
<g stroke="#575d6c">
<path d="M480,515 A19.5714,19.5714 1.74651 0,1 480,545" />
<path d="M480 545h15" />
<path d="M495,545 A32.596,32.596 -0.927295 0,0 520,530" />
<path d="M520,530 A32.596,32.596 -0.927295 0,0 495,515" />
<path d="M495 515h-15" />
<text x="482" y="514" fill="#1c1f28" stroke-width="0" dy="-1.6">reset_i</text>
<text x="482" y="546" fill="#1c1f28" stroke-width="0" dy="9.6">RTL_OR</text>
</g>
<g stroke="#1c1f28">
<circle cx="480" cy="520" r="3" />
<path d="M470 520h7" />
<text x="474" y="519" fill="#1c1f28" stroke-width="0" font-size="10" text-anchor="end" dy="-1.33333">I0</text>
<circle cx="480" cy="540" r="3" />
<path d="M470 540h7" />
<text x="474" y="539" fill="#1c1f28" stroke-width="0" font-size="10" text-anchor="end" dy="-1.33333">I1</text>
<path d="M530 530h-10" />
<text x="521" y="529" fill="#1c1f28" stroke-width="0" font-size="10" dy="-1.33333">O</text>
<path d="M820 218h60v162h-60z" stroke="none" fill="#cde5ff" />
</g>
<g stroke="#575d6c">
<path d="M820 218h60v162h-60z" />
</g>
<g stroke="#575d6c" stroke-width="3">
<path d="M831 223v12" />
<path d="M825 229h12" />
</g>
<g stroke="#575d6c">
<path d="M823 221h16v16h-16z" />
<text x="850" y="216" fill="#1c1f28" stroke-width="0" text-anchor="middle" dy="-1.6">timer</text>
<text x="850" y="382" fill="#1c1f28" stroke-width="0" text-anchor="middle" dy="9.6">timer</text>
</g>
<g stroke="#1c1f28">
<path d="M810 250h10" />
<text x="818" y="249" fill="#1c1f28" stroke-width="0" font-size="10" text-anchor="end" dy="-1.33333">MemRead</text>
<path d="M810 270h10" />
<text x="818" y="269" fill="#1c1f28" stroke-width="0" font-size="10" text-anchor="end" dy="-1.33333">MemWrite</text>
<path d="M890 290h-10" />
<text x="882" y="289" fill="#1c1f28" stroke-width="0" font-size="10" dy="-1.33333">TimerAddress</text>
<path d="M890 310h-10" />
<text x="882" y="309" fill="#1c1f28" stroke-width="0" font-size="10" dy="-1.33333">TimerInterrupt</text>
<path d="M810 310h10" />
<text x="818" y="309" fill="#1c1f28" stroke-width="0" font-size="10" text-anchor="end" dy="-1.33333">clock</text>
<path d="M810 350h10" />
<text x="818" y="349" fill="#1c1f28" stroke-width="0" font-size="10" text-anchor="end" dy="-1.33333">enable</text>
<path d="M810 370h10" />
<text x="818" y="369" fill="#1c1f28" stroke-width="0" font-size="10" text-anchor="end" dy="-1.33333">reset</text>
</g>
<g stroke="#1c1f28" stroke-width="3">
<path d="M810 290h10" />
<text x="818" y="289" fill="#1c1f28" stroke-width="0" font-size="10" text-anchor="end" dy="-1.33333">address[63:0]</text>
<path d="M890 330h-10" />
<text x="882" y="329" fill="#1c1f28" stroke-width="0" font-size="10" dy="-1.33333">cycle[63:0]</text>
<path d="M810 330h10" />
<text x="818" y="329" fill="#1c1f28" stroke-width="0" font-size="10" text-anchor="end" dy="-1.33333">data[63:0]</text>
</g>
<g stroke="#1c1f28">
<path d="M830 250h-10" />
<path d="M830 270h-10" />
<path d="M870 290h10" />
<path d="M870 310h10" />
<path d="M830 310h-10" />
<path d="M830 350h-10" />
<path d="M830 370h-10" />
</g>
<g stroke="#1c1f28" stroke-width="3">
<path d="M830 290h-10" />
<path d="M870 330h10" />
<path d="M830 330h-10" />
<path d="M1130 285l2 2l2 3l1 2l1 3l1 3v4l-1 3l-1 3l-1 2l-2 3l-2 2h15h3l3 -1l3 -1l2 -1l3 -1l3 -2l2 -2l2 -2l2 -2l2 -3l-2 -3l-2 -2l-2 -2l-2 -2l-3 -2l-3 -1l-2 -1l-3 -1l-3 -1h-3z" stroke="none" fill="#e5c7ff" />
</g>
<g stroke="#575d6c">
<path d="M1130,285 A19.5714,19.5714 1.74651 0,1 1130,315" />
<path d="M1130 315h15" />
<path d="M1145,315 A32.596,32.596 -0.927295 0,0 1170,300" />
<path d="M1170,300 A32.596,32.596 -0.927295 0,0 1145,285" />
<path d="M1145 285h-15" />
<text x="1132" y="284" fill="#1c1f28" stroke-width="0" dy="-1.6">d_ready1_i</text>
<text x="1132" y="316" fill="#1c1f28" stroke-width="0" dy="9.6">RTL_OR</text>
</g>
<g stroke="#1c1f28">
<path d="M1120 290h14" />
<text x="1129" y="289" fill="#1c1f28" stroke-width="0" font-size="10" text-anchor="end" dy="-1.33333">I0</text>
<path d="M1120 310h14" />
<text x="1129" y="309" fill="#1c1f28" stroke-width="0" font-size="10" text-anchor="end" dy="-1.33333">I1</text>
<path d="M1180 300h-10" />
<text x="1171" y="299" fill="#1c1f28" stroke-width="0" font-size="10" dy="-1.33333">O</text>
<path d="M1530 98h60v142h-60z" stroke="none" fill="#cde5ff" />
</g>
<g stroke="#575d6c">
<path d="M1530 98h60v142h-60z" />
</g>
<g stroke="#575d6c" stroke-width="3">
<path d="M1541 103v12" />
<path d="M1535 109h12" />
</g>
<g stroke="#575d6c">
<path d="M1533 101h16v16h-16z" />
<text x="1560" y="96" fill="#1c1f28" stroke-width="0" text-anchor="middle" dy="-1.6">data_mem</text>
<text x="1560" y="242" fill="#1c1f28" stroke-width="0" text-anchor="middle" dy="9.6">data_mem</text>
</g>
<g stroke="#1c1f28">
<path d="M1520 130h10" />
<text x="1528" y="129" fill="#1c1f28" stroke-width="0" font-size="10" text-anchor="end" dy="-1.33333">clock</text>
<path d="M1520 190h10" />
<text x="1528" y="189" fill="#1c1f28" stroke-width="0" font-size="10" text-anchor="end" dy="-1.33333">req[mem_req_load]</text>
<path d="M1520 210h10" />
<text x="1528" y="209" fill="#1c1f28" stroke-width="0" font-size="10" text-anchor="end" dy="-1.33333">req[mem_req_store]</text>
<path d="M1520 230h10" />
<text x="1528" y="229" fill="#1c1f28" stroke-width="0" font-size="10" text-anchor="end" dy="-1.33333">reset</text>
<path d="M1600 190h-10" />
<text x="1592" y="189" fill="#1c1f28" stroke-width="0" font-size="10" dy="-1.33333">resp[mem_ready]</text>
</g>
<g stroke="#1c1f28" stroke-width="3">
<path d="M1520 150h10" />
<text x="1528" y="149" fill="#1c1f28" stroke-width="0" font-size="10" text-anchor="end" dy="-1.33333">req[mem_addr][57:0]</text>
<path d="M1520 170h10" />
<text x="1528" y="169" fill="#1c1f28" stroke-width="0" font-size="10" text-anchor="end" dy="-1.33333">req[mem_data_out][511:0]</text>
<path d="M1600 170h-10" />
<text x="1592" y="169" fill="#1c1f28" stroke-width="0" font-size="10" dy="-1.33333">resp[mem_data][511:0]</text>
</g>
<g stroke="#1c1f28">
<path d="M1540 130h-10" />
<path d="M1540 190h-10" />
<path d="M1540 210h-10" />
<path d="M1540 230h-10" />
<path d="M1580 190h10" />
</g>
<g stroke="#1c1f28" stroke-width="3">
<path d="M1540 150h-10" />
<path d="M1540 170h-10" />
<path d="M1580 170h10" />
<path d="M1530 320v15h25h3l3 -1l2 -1l2 -2l3 -3l1 -2l1 -3v-3v-3l-1 -3l-1 -2l-2 -2l-3 -3l-2 -1l-3 -1h-3h-25z" stroke="none" fill="#e5c7ff" />
</g>
<g stroke="#575d6c">
<path d="M1530 320v15h25" />
<path d="M1555,335 A15,15 -3.14159 1,0 1555,305" />
<path d="M1555 305h-25v15" />
<text x="1532" y="304" fill="#1c1f28" stroke-width="0" dy="-1.6">d_ready0_i</text>
<text x="1532" y="336" fill="#1c1f28" stroke-width="0" dy="9.6">RTL_AND</text>
</g>
<g stroke="#1c1f28">
<circle cx="1527" cy="310" r="3" />
<path d="M1520 310h4" />
<text x="1524" y="309" fill="#1c1f28" stroke-width="0" font-size="10" text-anchor="end" dy="-1.33333">I0</text>
<path d="M1520 330h10" />
<text x="1524" y="329" fill="#1c1f28" stroke-width="0" font-size="10" text-anchor="end" dy="-1.33333">I1</text>
<path d="M1580 320h-10" />
<text x="1571" y="319" fill="#1c1f28" stroke-width="0" font-size="10" dy="-1.33333">O</text>
<path d="M2130 198h60v182h-60z" stroke="none" fill="#cde5ff" />
</g>
<g stroke="#575d6c">
<path d="M2130 198h60v182h-60z" />
</g>
<g stroke="#575d6c" stroke-width="3">
<path d="M2141 203v12" />
<path d="M2135 209h12" />
</g>
<g stroke="#575d6c">
<path d="M2133 201h16v16h-16z" />
<text x="2160" y="196" fill="#1c1f28" stroke-width="0" text-anchor="middle" dy="-1.6">core</text>
<text x="2160" y="382" fill="#1c1f28" stroke-width="0" text-anchor="middle" dy="9.6">core</text>
</g>
<g stroke="#1c1f28">
<path d="M2120 230h10" />
<text x="2128" y="229" fill="#1c1f28" stroke-width="0" font-size="10" text-anchor="end" dy="-1.33333">clock</text>
<path d="M2120 270h10" />
<text x="2128" y="269" fill="#1c1f28" stroke-width="0" font-size="10" text-anchor="end" dy="-1.33333">d_ready</text>
<path d="M2200 270h-10" />
<text x="2192" y="269" fill="#1c1f28" stroke-width="0" font-size="10" dy="-1.33333">d_valid</text>
<path d="M2200 350h-10" />
<text x="2192" y="349" fill="#1c1f28" stroke-width="0" font-size="10" dy="-1.33333">mem_bus_req[mem_req_load]</text>
<path d="M2200 370h-10" />
<text x="2192" y="369" fill="#1c1f28" stroke-width="0" font-size="10" dy="-1.33333">mem_bus_req[mem_req_store]</text>
<path d="M2120 330h10" />
<text x="2128" y="329" fill="#1c1f28" stroke-width="0" font-size="10" text-anchor="end" dy="-1.33333">mem_bus_resp[mem_ready]</text>
<path d="M2120 350h10" />
<text x="2128" y="349" fill="#1c1f28" stroke-width="0" font-size="10" text-anchor="end" dy="-1.33333">reset</text>
</g>
<g stroke="#1c1f28" stroke-width="3">
<path d="M2200 230h-10" />
<text x="2192" y="229" fill="#1c1f28" stroke-width="0" font-size="10" dy="-1.33333">d_addr[63:0]</text>
<path d="M2120 250h10" />
<text x="2128" y="249" fill="#1c1f28" stroke-width="0" font-size="10" text-anchor="end" dy="-1.33333">d_rdata[63:0]</text>
<path d="M2200 250h-10" />
<text x="2192" y="249" fill="#1c1f28" stroke-width="0" font-size="10" dy="-1.33333">d_store_type[2:0]</text>
<path d="M2200 290h-10" />
<text x="2192" y="289" fill="#1c1f28" stroke-width="0" font-size="10" dy="-1.33333">d_wdata[63:0]</text>
<path d="M2120 290h10" />
<text x="2128" y="289" fill="#1c1f28" stroke-width="0" font-size="10" text-anchor="end" dy="-1.33333">interrupt_sources[7:0]</text>
<path d="M2200 310h-10" />
<text x="2192" y="309" fill="#1c1f28" stroke-width="0" font-size="10" dy="-1.33333">mem_bus_req[mem_addr][57:0]</text>
<path d="M2200 330h-10" />
<text x="2192" y="329" fill="#1c1f28" stroke-width="0" font-size="10" dy="-1.33333">mem_bus_req[mem_data_out][511:0]</text>
<path d="M2120 310h10" />
<text x="2128" y="309" fill="#1c1f28" stroke-width="0" font-size="10" text-anchor="end" dy="-1.33333">mem_bus_resp[mem_data][511:0]</text>
</g>
<g stroke="#1c1f28">
<path d="M2140 230h-10" />
<path d="M2140 270h-10" />
<path d="M2180 270h10" />
<path d="M2180 350h10" />
<path d="M2180 370h10" />
<path d="M2140 330h-10" />
<path d="M2140 350h-10" />
</g>
<g stroke="#1c1f28" stroke-width="3">
<path d="M2180 230h10" />
<path d="M2140 250h-10" />
<path d="M2180 250h10" />
<path d="M2180 290h10" />
<path d="M2140 290h-10" />
<path d="M2180 310h10" />
<path d="M2180 330h10" />
<path d="M2140 310h-10" />
</g>
<g stroke="#575d6c">
<path d="M1892 410h16" />
<path d="M1895 413h10" />
<path d="M1898 416h4" />
<path d="M2750 318h60v142h-60z" stroke="none" fill="#cde5ff" />
<path d="M2750 318h60v142h-60z" />
</g>
<g stroke="#575d6c" stroke-width="3">
<path d="M2761 323v12" />
<path d="M2755 329h12" />
</g>
<g stroke="#575d6c">
<path d="M2753 321h16v16h-16z" />
<text x="2780" y="316" fill="#1c1f28" stroke-width="0" text-anchor="middle" dy="-1.6">led_</text>
<text x="2780" y="462" fill="#1c1f28" stroke-width="0" text-anchor="middle" dy="9.6">led</text>
</g>
<g stroke="#1c1f28">
<path d="M2740 370h10" />
<text x="2748" y="369" fill="#1c1f28" stroke-width="0" font-size="10" text-anchor="end" dy="-1.33333">clock</text>
<path d="M2740 390h10" />
<text x="2748" y="389" fill="#1c1f28" stroke-width="0" font-size="10" text-anchor="end" dy="-1.33333">enable</text>
<path d="M2820 410h-10" />
<text x="2812" y="409" fill="#1c1f28" stroke-width="0" font-size="10" dy="-1.33333">led_taken</text>
<path d="M2740 430h10" />
<text x="2748" y="429" fill="#1c1f28" stroke-width="0" font-size="10" text-anchor="end" dy="-1.33333">reset</text>
</g>
<g stroke="#1c1f28" stroke-width="3">
<path d="M2740 350h10" />
<text x="2748" y="349" fill="#1c1f28" stroke-width="0" font-size="10" text-anchor="end" dy="-1.33333">addr[63:0]</text>
<path d="M2820 390h-10" />
<text x="2812" y="389" fill="#1c1f28" stroke-width="0" font-size="10" dy="-1.33333">led_out[3:0]</text>
<path d="M2740 410h10" />
<text x="2748" y="409" fill="#1c1f28" stroke-width="0" font-size="10" text-anchor="end" dy="-1.33333">mem_store_type[2:0]</text>
<path d="M2740 450h10" />
<text x="2748" y="449" fill="#1c1f28" stroke-width="0" font-size="10" text-anchor="end" dy="-1.33333">w_data[63:0]</text>
</g>
<g stroke="#1c1f28">
<path d="M2760 370h-10" />
<path d="M2760 390h-10" />
<path d="M2800 410h10" />
<path d="M2760 430h-10" />
</g>
<g stroke="#1c1f28" stroke-width="3">
<path d="M2760 350h-10" />
<path d="M2800 390h10" />
<path d="M2760 410h-10" />
<path d="M2760 450h-10" />
</g>
<g stroke="black" stroke-width="3">
<path d="M2930 390v-7h14l7 7l-7 7h-14z" />
<text x="2955" y="390" fill="#1c1f28" stroke-width="0" dy="4.4">led[3:0]</text>
</g>
<g stroke-width="2">
<path d="M2120 290h-215l-1 1" />
</g>
<g stroke="black">
<path d="M1905 290l-5 5v1" />
</g>
<g>
<path d="M1900 295v115" />
<path d="M130 400v80h70" />
</g>
<g stroke="#009633" stroke-width="3">
<path d="M810 290h-100v200h1190v-20h660v-240h-360" />
<path d="M2560 350h180" />
<path d="M2557 347h7v7h-7z" stroke="none" fill="#009633" />
<path d="M200 330h-70v50h260v70h2130v-200h-320" />
<path d="M2520 410h220" />
<path d="M2517 407h7v7h-7z" stroke="none" fill="#009633" />
<path d="M810 330h-120v180h1850v-220h-340" />
<path d="M2540 450h200" />
<path d="M2537 447h7v7h-7z" stroke="none" fill="#009633" />
<path d="M2820 390h110" />
<path d="M1520 150h-180v-80h1120v240h-260" />
<path d="M1520 170h-180v100h440v-100h660v160h-240" />
<path d="M1600 170h160v140h360" />
<path d="M890 330h130v60h780v-140h320" />
</g>
<g>
<path d="M530 250h280" />
<path d="M530 320h100v-50h180" />
<path d="M280 460h130v-90h240" />
<path d="M648 368h5v5h-5z" stroke="none" fill="#8bc34a" />
<path d="M810 310h-160v100h350v-60h280" />
<path d="M1278 348h5v5h-5z" stroke="none" fill="#8bc34a" />
<path d="M2120 230h-240v200h700v-60h160" />
<path d="M1520 130h-240v240h600" />
<path d="M1878 368h5v5h-5z" stroke="none" fill="#8bc34a" />
<path d="M1580 320h240v-50h300" />
<path d="M1180 300h60v30h280" />
<path d="M470 240h-40v150h180v-360h1990v360h140" />
<path d="M2200 270h400" />
<path d="M2598 268h5v5h-5z" stroke="none" fill="#8bc34a" />
<path d="M430 310h40" />
<path d="M428 308h5v5h-5z" stroke="none" fill="#8bc34a" />
<path d="M610 350h200" />
<path d="M608 348h5v5h-5z" stroke="none" fill="#8bc34a" />
<path d="M890 310h150v100h820v-115l1 -1" />
</g>
<g stroke="black">
<path d="M1860 295l5 -5h1" />
</g>
<g stroke-width="2">
<path d="M1865 290h255" />
</g>
<g>
<path d="M1120 310h-40v160h680v10h350v10h800v-80h-90" />
<path d="M1520 190h-200v-180h1180v340h-300" />
<path d="M1520 210h-220v-160h1180v320h-280" />
<path d="M1600 190h240v140h280" />
<path d="M470 260h-80v70h80" />
<path d="M260 330h130" />
<path d="M388 328h5v5h-5z" stroke="none" fill="#8bc34a" />
<path d="M280 480h150v60h40" />
<path d="M530 530h140v-160h140" />
<path d="M670 430h390v-60h200" />
<path d="M1258 308h5v5h-5z" stroke="none" fill="#8bc34a" />
<path d="M1258 368h5v5h-5z" stroke="none" fill="#8bc34a" />
<path d="M2120 350h-280v180h760v-100h140" />
<path d="M668 428h5v5h-5z" stroke="none" fill="#8bc34a" />
<path d="M1520 230h-260v200h580" />
<path d="M1838 428h5v5h-5z" stroke="none" fill="#8bc34a" />
<path d="M1260 310h260" />
<path d="M110 460h90" />
<path d="M110 520h360" />
<path d="M890 290h230" />
</g>
</g>
</svg>
